%TF.GenerationSoftware,KiCad,Pcbnew,8.0.7*%
%TF.CreationDate,2024-12-12T07:23:36-07:00*%
%TF.ProjectId,Yule screamer,59756c65-2073-4637-9265-616d65722e6b,rev?*%
%TF.SameCoordinates,Original*%
%TF.FileFunction,Drillmap*%
%TF.FilePolarity,Positive*%
%FSLAX45Y45*%
G04 Gerber Fmt 4.5, Leading zero omitted, Abs format (unit mm)*
G04 Created by KiCad (PCBNEW 8.0.7) date 2024-12-12 07:23:36*
%MOMM*%
%LPD*%
G01*
G04 APERTURE LIST*
%ADD10C,0.100000*%
%ADD11C,0.200000*%
G04 APERTURE END LIST*
D10*
X20404000Y-4425000D02*
X26486000Y-4425000D01*
X26486000Y-14478000D01*
X20404000Y-14478000D01*
X20404000Y-4425000D01*
D11*
X20659777Y-14794484D02*
X20659777Y-14594484D01*
X20659777Y-14594484D02*
X20707396Y-14594484D01*
X20707396Y-14594484D02*
X20735967Y-14604008D01*
X20735967Y-14604008D02*
X20755015Y-14623055D01*
X20755015Y-14623055D02*
X20764539Y-14642103D01*
X20764539Y-14642103D02*
X20774063Y-14680198D01*
X20774063Y-14680198D02*
X20774063Y-14708769D01*
X20774063Y-14708769D02*
X20764539Y-14746865D01*
X20764539Y-14746865D02*
X20755015Y-14765912D01*
X20755015Y-14765912D02*
X20735967Y-14784960D01*
X20735967Y-14784960D02*
X20707396Y-14794484D01*
X20707396Y-14794484D02*
X20659777Y-14794484D01*
X20859777Y-14794484D02*
X20859777Y-14661150D01*
X20859777Y-14699246D02*
X20869301Y-14680198D01*
X20869301Y-14680198D02*
X20878824Y-14670674D01*
X20878824Y-14670674D02*
X20897872Y-14661150D01*
X20897872Y-14661150D02*
X20916920Y-14661150D01*
X20983586Y-14794484D02*
X20983586Y-14661150D01*
X20983586Y-14594484D02*
X20974063Y-14604008D01*
X20974063Y-14604008D02*
X20983586Y-14613531D01*
X20983586Y-14613531D02*
X20993110Y-14604008D01*
X20993110Y-14604008D02*
X20983586Y-14594484D01*
X20983586Y-14594484D02*
X20983586Y-14613531D01*
X21107396Y-14794484D02*
X21088348Y-14784960D01*
X21088348Y-14784960D02*
X21078824Y-14765912D01*
X21078824Y-14765912D02*
X21078824Y-14594484D01*
X21212158Y-14794484D02*
X21193110Y-14784960D01*
X21193110Y-14784960D02*
X21183586Y-14765912D01*
X21183586Y-14765912D02*
X21183586Y-14594484D01*
X21440729Y-14794484D02*
X21440729Y-14594484D01*
X21440729Y-14594484D02*
X21507396Y-14737341D01*
X21507396Y-14737341D02*
X21574063Y-14594484D01*
X21574063Y-14594484D02*
X21574063Y-14794484D01*
X21755015Y-14794484D02*
X21755015Y-14689722D01*
X21755015Y-14689722D02*
X21745491Y-14670674D01*
X21745491Y-14670674D02*
X21726444Y-14661150D01*
X21726444Y-14661150D02*
X21688348Y-14661150D01*
X21688348Y-14661150D02*
X21669301Y-14670674D01*
X21755015Y-14784960D02*
X21735967Y-14794484D01*
X21735967Y-14794484D02*
X21688348Y-14794484D01*
X21688348Y-14794484D02*
X21669301Y-14784960D01*
X21669301Y-14784960D02*
X21659777Y-14765912D01*
X21659777Y-14765912D02*
X21659777Y-14746865D01*
X21659777Y-14746865D02*
X21669301Y-14727817D01*
X21669301Y-14727817D02*
X21688348Y-14718293D01*
X21688348Y-14718293D02*
X21735967Y-14718293D01*
X21735967Y-14718293D02*
X21755015Y-14708769D01*
X21850253Y-14661150D02*
X21850253Y-14861150D01*
X21850253Y-14670674D02*
X21869301Y-14661150D01*
X21869301Y-14661150D02*
X21907396Y-14661150D01*
X21907396Y-14661150D02*
X21926444Y-14670674D01*
X21926444Y-14670674D02*
X21935967Y-14680198D01*
X21935967Y-14680198D02*
X21945491Y-14699246D01*
X21945491Y-14699246D02*
X21945491Y-14756388D01*
X21945491Y-14756388D02*
X21935967Y-14775436D01*
X21935967Y-14775436D02*
X21926444Y-14784960D01*
X21926444Y-14784960D02*
X21907396Y-14794484D01*
X21907396Y-14794484D02*
X21869301Y-14794484D01*
X21869301Y-14794484D02*
X21850253Y-14784960D01*
X22031205Y-14775436D02*
X22040729Y-14784960D01*
X22040729Y-14784960D02*
X22031205Y-14794484D01*
X22031205Y-14794484D02*
X22021682Y-14784960D01*
X22021682Y-14784960D02*
X22031205Y-14775436D01*
X22031205Y-14775436D02*
X22031205Y-14794484D01*
X22031205Y-14670674D02*
X22040729Y-14680198D01*
X22040729Y-14680198D02*
X22031205Y-14689722D01*
X22031205Y-14689722D02*
X22021682Y-14680198D01*
X22021682Y-14680198D02*
X22031205Y-14670674D01*
X22031205Y-14670674D02*
X22031205Y-14689722D01*
M02*
