M48
; DRILL file {KiCad 8.0.7} date 2024-12-12T07:23:34-0700
; FORMAT={-:-/ absolute / inch / decimal}
; #@! TF.CreationDate,2024-12-12T07:23:34-07:00
; #@! TF.GenerationSoftware,Kicad,Pcbnew,8.0.7
; #@! TF.FileFunction,Plated,1,2,PTH
FMAT,2
INCH
; #@! TA.AperFunction,Plated,PTH,ViaDrill
T1C0.0157
; #@! TA.AperFunction,Plated,PTH,ComponentDrill
T2C0.0315
; #@! TA.AperFunction,Plated,PTH,ComponentDrill
T3C0.0354
; #@! TA.AperFunction,Plated,PTH,ComponentDrill
T4C0.0512
; #@! TA.AperFunction,Plated,PTH,ComponentDrill
T5C0.0984
%
G90
G05
T1
X8.744Y-2.8541
X9.2Y-4.6063
X9.2484Y-4.5517
X9.3427Y-4.5755
X9.4192Y-4.3238
X9.6333Y-3.1504
X9.9113Y-3.3948
T2
X8.1693Y-3.7008
X8.1693Y-3.9567
X8.1693Y-4.1929
X8.1693Y-4.4291
X8.1693Y-4.6654
X8.3661Y-3.7008
X8.3661Y-3.9567
X8.3661Y-4.1929
X8.3661Y-4.4291
X8.3661Y-4.6654
X8.5386Y-3.5827
X8.5386Y-3.7402
X8.5386Y-3.8976
X8.5386Y-4.0551
X8.5386Y-4.2126
X8.5386Y-4.3701
X8.5386Y-4.5276
X8.5386Y-4.685
X8.8Y-2.6
X8.8Y-2.6984
X8.8386Y-3.5827
X8.8386Y-3.7402
X8.8386Y-3.8976
X8.8386Y-4.0551
X8.8386Y-4.2126
X8.8386Y-4.3701
X8.8386Y-4.5276
X8.8386Y-4.685
X9.0504Y-3.1504
X9.0504Y-3.2504
X9.0504Y-3.3504
X9.0504Y-3.4504
X9.0504Y-3.8998
X9.0504Y-3.9998
X9.0504Y-4.0998
X9.0504Y-4.1998
X9.0504Y-4.2998
X9.0504Y-4.3998
X9.0504Y-4.4998
X9.3504Y-3.1504
X9.3504Y-3.2504
X9.3504Y-3.3504
X9.3504Y-3.4504
X9.3504Y-3.8998
X9.3504Y-3.9998
X9.3504Y-4.0998
X9.3504Y-4.1998
X9.3504Y-4.2998
X9.3504Y-4.3998
X9.3504Y-4.4998
X9.5622Y-4.2717
X9.5622Y-4.4094
X9.5622Y-4.5669
X9.5622Y-4.7244
X9.5669Y-3.8
X9.5669Y-3.9567
X9.5669Y-4.1142
X9.6016Y-2.7
X9.7Y-2.7
X9.8622Y-4.2717
X9.8622Y-4.4094
X9.8622Y-4.5669
X9.8622Y-4.7244
X9.8669Y-3.8
X9.8669Y-3.9567
X9.8669Y-4.1142
X10.0Y-2.7
X10.0394Y-3.6024
X10.0394Y-3.8386
X10.0591Y-4.0748
X10.0591Y-4.3307
X10.0984Y-2.7
X10.1181Y-4.7047
X10.2165Y-4.7047
X10.2362Y-3.6024
X10.2362Y-3.8386
X10.2559Y-4.0748
X10.2559Y-4.3307
T3
X9.0Y-2.3
X9.1Y-2.3
X9.1Y-2.5
X9.1Y-2.7
X9.1Y-2.9
X9.1624Y-4.8425
X9.2624Y-4.8425
X9.3Y-2.3
X9.3Y-2.5
X9.3Y-2.7
X9.3Y-2.9
X9.4Y-2.3
X9.6333Y-3.6
X9.8333Y-3.6
T4
X8.2252Y-2.9
X8.4252Y-2.9
X8.6252Y-2.9
X9.0Y-3.7
X9.2Y-3.7
X9.4Y-3.7
X9.8Y-2.9134
X10.0Y-2.9134
X10.2Y-2.9134
T5
X8.1693Y-5.4
X8.4646Y-5.4
X8.8Y-5.4
X9.1Y-5.4
X9.4Y-5.4
X9.7Y-5.4
X10.0Y-5.4
T3
G00X9.015Y-1.9606
M15
G01X9.015Y-2.0394
M16
G05
G00X9.2Y-1.9606
M15
G01X9.2Y-2.0394
M16
G05
G00X9.385Y-1.9606
M15
G01X9.385Y-2.0394
M16
G05
M30
