%TF.GenerationSoftware,KiCad,Pcbnew,8.0.7*%
%TF.CreationDate,2024-12-12T07:23:36-07:00*%
%TF.ProjectId,Yule screamer,59756c65-2073-4637-9265-616d65722e6b,rev?*%
%TF.SameCoordinates,Original*%
%TF.FileFunction,Drillmap*%
%TF.FilePolarity,Positive*%
%FSLAX45Y45*%
G04 Gerber Fmt 4.5, Leading zero omitted, Abs format (unit mm)*
G04 Created by KiCad (PCBNEW 8.0.7) date 2024-12-12 07:23:36*
%MOMM*%
%LPD*%
G01*
G04 APERTURE LIST*
%ADD10C,0.100000*%
%ADD11C,0.200000*%
%ADD12C,0.130000*%
%ADD13C,0.250000*%
G04 APERTURE END LIST*
D10*
X20404000Y-4425000D02*
X26486000Y-4425000D01*
X26486000Y-14478000D01*
X20404000Y-14478000D01*
X20404000Y-4425000D01*
D11*
D10*
X22189700Y-7229510D02*
X22229700Y-7269510D01*
X22229700Y-7229510D02*
X22189700Y-7269510D01*
X23348000Y-11679990D02*
X23388000Y-11719990D01*
X23388000Y-11679990D02*
X23348000Y-11719990D01*
X23470880Y-11541240D02*
X23510880Y-11581240D01*
X23510880Y-11541240D02*
X23470880Y-11581240D01*
X23710490Y-11601870D02*
X23750490Y-11641870D01*
X23750490Y-11601870D02*
X23710490Y-11641870D01*
X23904660Y-10962450D02*
X23944660Y-11002450D01*
X23944660Y-10962450D02*
X23904660Y-11002450D01*
X24448500Y-7982000D02*
X24488500Y-8022000D01*
X24488500Y-7982000D02*
X24448500Y-8022000D01*
X25154670Y-8602670D02*
X25194670Y-8642670D01*
X25194670Y-8602670D02*
X25154670Y-8642670D01*
X20790000Y-9400000D02*
G75*
G02*
X20710000Y-9400000I-40000J0D01*
G01*
X20710000Y-9400000D02*
G75*
G02*
X20790000Y-9400000I40000J0D01*
G01*
X20790000Y-10050000D02*
G75*
G02*
X20710000Y-10050000I-40000J0D01*
G01*
X20710000Y-10050000D02*
G75*
G02*
X20790000Y-10050000I40000J0D01*
G01*
X20790000Y-10650000D02*
G75*
G02*
X20710000Y-10650000I-40000J0D01*
G01*
X20710000Y-10650000D02*
G75*
G02*
X20790000Y-10650000I40000J0D01*
G01*
X20790000Y-11250000D02*
G75*
G02*
X20710000Y-11250000I-40000J0D01*
G01*
X20710000Y-11250000D02*
G75*
G02*
X20790000Y-11250000I40000J0D01*
G01*
X20790000Y-11850000D02*
G75*
G02*
X20710000Y-11850000I-40000J0D01*
G01*
X20710000Y-11850000D02*
G75*
G02*
X20790000Y-11850000I40000J0D01*
G01*
X21290000Y-9400000D02*
G75*
G02*
X21210000Y-9400000I-40000J0D01*
G01*
X21210000Y-9400000D02*
G75*
G02*
X21290000Y-9400000I40000J0D01*
G01*
X21290000Y-10050000D02*
G75*
G02*
X21210000Y-10050000I-40000J0D01*
G01*
X21210000Y-10050000D02*
G75*
G02*
X21290000Y-10050000I40000J0D01*
G01*
X21290000Y-10650000D02*
G75*
G02*
X21210000Y-10650000I-40000J0D01*
G01*
X21210000Y-10650000D02*
G75*
G02*
X21290000Y-10650000I40000J0D01*
G01*
X21290000Y-11250000D02*
G75*
G02*
X21210000Y-11250000I-40000J0D01*
G01*
X21210000Y-11250000D02*
G75*
G02*
X21290000Y-11250000I40000J0D01*
G01*
X21290000Y-11850000D02*
G75*
G02*
X21210000Y-11850000I-40000J0D01*
G01*
X21210000Y-11850000D02*
G75*
G02*
X21290000Y-11850000I40000J0D01*
G01*
X21728000Y-9100000D02*
G75*
G02*
X21648000Y-9100000I-40000J0D01*
G01*
X21648000Y-9100000D02*
G75*
G02*
X21728000Y-9100000I40000J0D01*
G01*
X21728000Y-9500000D02*
G75*
G02*
X21648000Y-9500000I-40000J0D01*
G01*
X21648000Y-9500000D02*
G75*
G02*
X21728000Y-9500000I40000J0D01*
G01*
X21728000Y-9900000D02*
G75*
G02*
X21648000Y-9900000I-40000J0D01*
G01*
X21648000Y-9900000D02*
G75*
G02*
X21728000Y-9900000I40000J0D01*
G01*
X21728000Y-10300000D02*
G75*
G02*
X21648000Y-10300000I-40000J0D01*
G01*
X21648000Y-10300000D02*
G75*
G02*
X21728000Y-10300000I40000J0D01*
G01*
X21728000Y-10700000D02*
G75*
G02*
X21648000Y-10700000I-40000J0D01*
G01*
X21648000Y-10700000D02*
G75*
G02*
X21728000Y-10700000I40000J0D01*
G01*
X21728000Y-11100000D02*
G75*
G02*
X21648000Y-11100000I-40000J0D01*
G01*
X21648000Y-11100000D02*
G75*
G02*
X21728000Y-11100000I40000J0D01*
G01*
X21728000Y-11500000D02*
G75*
G02*
X21648000Y-11500000I-40000J0D01*
G01*
X21648000Y-11500000D02*
G75*
G02*
X21728000Y-11500000I40000J0D01*
G01*
X21728000Y-11900000D02*
G75*
G02*
X21648000Y-11900000I-40000J0D01*
G01*
X21648000Y-11900000D02*
G75*
G02*
X21728000Y-11900000I40000J0D01*
G01*
X22392000Y-6604000D02*
G75*
G02*
X22312000Y-6604000I-40000J0D01*
G01*
X22312000Y-6604000D02*
G75*
G02*
X22392000Y-6604000I40000J0D01*
G01*
X22392000Y-6854000D02*
G75*
G02*
X22312000Y-6854000I-40000J0D01*
G01*
X22312000Y-6854000D02*
G75*
G02*
X22392000Y-6854000I40000J0D01*
G01*
X22490000Y-9100000D02*
G75*
G02*
X22410000Y-9100000I-40000J0D01*
G01*
X22410000Y-9100000D02*
G75*
G02*
X22490000Y-9100000I40000J0D01*
G01*
X22490000Y-9500000D02*
G75*
G02*
X22410000Y-9500000I-40000J0D01*
G01*
X22410000Y-9500000D02*
G75*
G02*
X22490000Y-9500000I40000J0D01*
G01*
X22490000Y-9900000D02*
G75*
G02*
X22410000Y-9900000I-40000J0D01*
G01*
X22410000Y-9900000D02*
G75*
G02*
X22490000Y-9900000I40000J0D01*
G01*
X22490000Y-10300000D02*
G75*
G02*
X22410000Y-10300000I-40000J0D01*
G01*
X22410000Y-10300000D02*
G75*
G02*
X22490000Y-10300000I40000J0D01*
G01*
X22490000Y-10700000D02*
G75*
G02*
X22410000Y-10700000I-40000J0D01*
G01*
X22410000Y-10700000D02*
G75*
G02*
X22490000Y-10700000I40000J0D01*
G01*
X22490000Y-11100000D02*
G75*
G02*
X22410000Y-11100000I-40000J0D01*
G01*
X22410000Y-11100000D02*
G75*
G02*
X22490000Y-11100000I40000J0D01*
G01*
X22490000Y-11500000D02*
G75*
G02*
X22410000Y-11500000I-40000J0D01*
G01*
X22410000Y-11500000D02*
G75*
G02*
X22490000Y-11500000I40000J0D01*
G01*
X22490000Y-11900000D02*
G75*
G02*
X22410000Y-11900000I-40000J0D01*
G01*
X22410000Y-11900000D02*
G75*
G02*
X22490000Y-11900000I40000J0D01*
G01*
X23028000Y-8002000D02*
G75*
G02*
X22948000Y-8002000I-40000J0D01*
G01*
X22948000Y-8002000D02*
G75*
G02*
X23028000Y-8002000I40000J0D01*
G01*
X23028000Y-8256000D02*
G75*
G02*
X22948000Y-8256000I-40000J0D01*
G01*
X22948000Y-8256000D02*
G75*
G02*
X23028000Y-8256000I40000J0D01*
G01*
X23028000Y-8510000D02*
G75*
G02*
X22948000Y-8510000I-40000J0D01*
G01*
X22948000Y-8510000D02*
G75*
G02*
X23028000Y-8510000I40000J0D01*
G01*
X23028000Y-8764000D02*
G75*
G02*
X22948000Y-8764000I-40000J0D01*
G01*
X22948000Y-8764000D02*
G75*
G02*
X23028000Y-8764000I40000J0D01*
G01*
X23028000Y-9905500D02*
G75*
G02*
X22948000Y-9905500I-40000J0D01*
G01*
X22948000Y-9905500D02*
G75*
G02*
X23028000Y-9905500I40000J0D01*
G01*
X23028000Y-10159500D02*
G75*
G02*
X22948000Y-10159500I-40000J0D01*
G01*
X22948000Y-10159500D02*
G75*
G02*
X23028000Y-10159500I40000J0D01*
G01*
X23028000Y-10413500D02*
G75*
G02*
X22948000Y-10413500I-40000J0D01*
G01*
X22948000Y-10413500D02*
G75*
G02*
X23028000Y-10413500I40000J0D01*
G01*
X23028000Y-10667500D02*
G75*
G02*
X22948000Y-10667500I-40000J0D01*
G01*
X22948000Y-10667500D02*
G75*
G02*
X23028000Y-10667500I40000J0D01*
G01*
X23028000Y-10921500D02*
G75*
G02*
X22948000Y-10921500I-40000J0D01*
G01*
X22948000Y-10921500D02*
G75*
G02*
X23028000Y-10921500I40000J0D01*
G01*
X23028000Y-11175500D02*
G75*
G02*
X22948000Y-11175500I-40000J0D01*
G01*
X22948000Y-11175500D02*
G75*
G02*
X23028000Y-11175500I40000J0D01*
G01*
X23028000Y-11429500D02*
G75*
G02*
X22948000Y-11429500I-40000J0D01*
G01*
X22948000Y-11429500D02*
G75*
G02*
X23028000Y-11429500I40000J0D01*
G01*
X23790000Y-8002000D02*
G75*
G02*
X23710000Y-8002000I-40000J0D01*
G01*
X23710000Y-8002000D02*
G75*
G02*
X23790000Y-8002000I40000J0D01*
G01*
X23790000Y-8256000D02*
G75*
G02*
X23710000Y-8256000I-40000J0D01*
G01*
X23710000Y-8256000D02*
G75*
G02*
X23790000Y-8256000I40000J0D01*
G01*
X23790000Y-8510000D02*
G75*
G02*
X23710000Y-8510000I-40000J0D01*
G01*
X23710000Y-8510000D02*
G75*
G02*
X23790000Y-8510000I40000J0D01*
G01*
X23790000Y-8764000D02*
G75*
G02*
X23710000Y-8764000I-40000J0D01*
G01*
X23710000Y-8764000D02*
G75*
G02*
X23790000Y-8764000I40000J0D01*
G01*
X23790000Y-9905500D02*
G75*
G02*
X23710000Y-9905500I-40000J0D01*
G01*
X23710000Y-9905500D02*
G75*
G02*
X23790000Y-9905500I40000J0D01*
G01*
X23790000Y-10159500D02*
G75*
G02*
X23710000Y-10159500I-40000J0D01*
G01*
X23710000Y-10159500D02*
G75*
G02*
X23790000Y-10159500I40000J0D01*
G01*
X23790000Y-10413500D02*
G75*
G02*
X23710000Y-10413500I-40000J0D01*
G01*
X23710000Y-10413500D02*
G75*
G02*
X23790000Y-10413500I40000J0D01*
G01*
X23790000Y-10667500D02*
G75*
G02*
X23710000Y-10667500I-40000J0D01*
G01*
X23710000Y-10667500D02*
G75*
G02*
X23790000Y-10667500I40000J0D01*
G01*
X23790000Y-10921500D02*
G75*
G02*
X23710000Y-10921500I-40000J0D01*
G01*
X23710000Y-10921500D02*
G75*
G02*
X23790000Y-10921500I40000J0D01*
G01*
X23790000Y-11175500D02*
G75*
G02*
X23710000Y-11175500I-40000J0D01*
G01*
X23710000Y-11175500D02*
G75*
G02*
X23790000Y-11175500I40000J0D01*
G01*
X23790000Y-11429500D02*
G75*
G02*
X23710000Y-11429500I-40000J0D01*
G01*
X23710000Y-11429500D02*
G75*
G02*
X23790000Y-11429500I40000J0D01*
G01*
X24328000Y-10850000D02*
G75*
G02*
X24248000Y-10850000I-40000J0D01*
G01*
X24248000Y-10850000D02*
G75*
G02*
X24328000Y-10850000I40000J0D01*
G01*
X24328000Y-11200000D02*
G75*
G02*
X24248000Y-11200000I-40000J0D01*
G01*
X24248000Y-11200000D02*
G75*
G02*
X24328000Y-11200000I40000J0D01*
G01*
X24328000Y-11600000D02*
G75*
G02*
X24248000Y-11600000I-40000J0D01*
G01*
X24248000Y-11600000D02*
G75*
G02*
X24328000Y-11600000I40000J0D01*
G01*
X24328000Y-12000000D02*
G75*
G02*
X24248000Y-12000000I-40000J0D01*
G01*
X24248000Y-12000000D02*
G75*
G02*
X24328000Y-12000000I40000J0D01*
G01*
X24340000Y-9652000D02*
G75*
G02*
X24260000Y-9652000I-40000J0D01*
G01*
X24260000Y-9652000D02*
G75*
G02*
X24340000Y-9652000I40000J0D01*
G01*
X24340000Y-10050000D02*
G75*
G02*
X24260000Y-10050000I-40000J0D01*
G01*
X24260000Y-10050000D02*
G75*
G02*
X24340000Y-10050000I40000J0D01*
G01*
X24340000Y-10450000D02*
G75*
G02*
X24260000Y-10450000I-40000J0D01*
G01*
X24260000Y-10450000D02*
G75*
G02*
X24340000Y-10450000I40000J0D01*
G01*
X24428000Y-6858000D02*
G75*
G02*
X24348000Y-6858000I-40000J0D01*
G01*
X24348000Y-6858000D02*
G75*
G02*
X24428000Y-6858000I40000J0D01*
G01*
X24678000Y-6858000D02*
G75*
G02*
X24598000Y-6858000I-40000J0D01*
G01*
X24598000Y-6858000D02*
G75*
G02*
X24678000Y-6858000I40000J0D01*
G01*
X25090000Y-10850000D02*
G75*
G02*
X25010000Y-10850000I-40000J0D01*
G01*
X25010000Y-10850000D02*
G75*
G02*
X25090000Y-10850000I40000J0D01*
G01*
X25090000Y-11200000D02*
G75*
G02*
X25010000Y-11200000I-40000J0D01*
G01*
X25010000Y-11200000D02*
G75*
G02*
X25090000Y-11200000I40000J0D01*
G01*
X25090000Y-11600000D02*
G75*
G02*
X25010000Y-11600000I-40000J0D01*
G01*
X25010000Y-11600000D02*
G75*
G02*
X25090000Y-11600000I40000J0D01*
G01*
X25090000Y-12000000D02*
G75*
G02*
X25010000Y-12000000I-40000J0D01*
G01*
X25010000Y-12000000D02*
G75*
G02*
X25090000Y-12000000I40000J0D01*
G01*
X25102000Y-9652000D02*
G75*
G02*
X25022000Y-9652000I-40000J0D01*
G01*
X25022000Y-9652000D02*
G75*
G02*
X25102000Y-9652000I40000J0D01*
G01*
X25102000Y-10050000D02*
G75*
G02*
X25022000Y-10050000I-40000J0D01*
G01*
X25022000Y-10050000D02*
G75*
G02*
X25102000Y-10050000I40000J0D01*
G01*
X25102000Y-10450000D02*
G75*
G02*
X25022000Y-10450000I-40000J0D01*
G01*
X25022000Y-10450000D02*
G75*
G02*
X25102000Y-10450000I40000J0D01*
G01*
X25440000Y-6858000D02*
G75*
G02*
X25360000Y-6858000I-40000J0D01*
G01*
X25360000Y-6858000D02*
G75*
G02*
X25440000Y-6858000I40000J0D01*
G01*
X25540000Y-9150000D02*
G75*
G02*
X25460000Y-9150000I-40000J0D01*
G01*
X25460000Y-9150000D02*
G75*
G02*
X25540000Y-9150000I40000J0D01*
G01*
X25540000Y-9750000D02*
G75*
G02*
X25460000Y-9750000I-40000J0D01*
G01*
X25460000Y-9750000D02*
G75*
G02*
X25540000Y-9750000I40000J0D01*
G01*
X25590000Y-10350000D02*
G75*
G02*
X25510000Y-10350000I-40000J0D01*
G01*
X25510000Y-10350000D02*
G75*
G02*
X25590000Y-10350000I40000J0D01*
G01*
X25590000Y-11000000D02*
G75*
G02*
X25510000Y-11000000I-40000J0D01*
G01*
X25510000Y-11000000D02*
G75*
G02*
X25590000Y-11000000I40000J0D01*
G01*
X25690000Y-6858000D02*
G75*
G02*
X25610000Y-6858000I-40000J0D01*
G01*
X25610000Y-6858000D02*
G75*
G02*
X25690000Y-6858000I40000J0D01*
G01*
X25740000Y-11950000D02*
G75*
G02*
X25660000Y-11950000I-40000J0D01*
G01*
X25660000Y-11950000D02*
G75*
G02*
X25740000Y-11950000I40000J0D01*
G01*
X25990000Y-11950000D02*
G75*
G02*
X25910000Y-11950000I-40000J0D01*
G01*
X25910000Y-11950000D02*
G75*
G02*
X25990000Y-11950000I40000J0D01*
G01*
X26040000Y-9150000D02*
G75*
G02*
X25960000Y-9150000I-40000J0D01*
G01*
X25960000Y-9150000D02*
G75*
G02*
X26040000Y-9150000I40000J0D01*
G01*
X26040000Y-9750000D02*
G75*
G02*
X25960000Y-9750000I-40000J0D01*
G01*
X25960000Y-9750000D02*
G75*
G02*
X26040000Y-9750000I40000J0D01*
G01*
X26090000Y-10350000D02*
G75*
G02*
X26010000Y-10350000I-40000J0D01*
G01*
X26010000Y-10350000D02*
G75*
G02*
X26090000Y-10350000I40000J0D01*
G01*
X26090000Y-11000000D02*
G75*
G02*
X26010000Y-11000000I-40000J0D01*
G01*
X26010000Y-11000000D02*
G75*
G02*
X26090000Y-11000000I40000J0D01*
G01*
X22860000Y-5797000D02*
X22860000Y-5887000D01*
X22815000Y-5842000D02*
X22905000Y-5842000D01*
X22898000Y-5035000D02*
X22898000Y-5125000D01*
X22853000Y-5080000D02*
X22943000Y-5080000D01*
X22853000Y-4980000D02*
X22853000Y-5180000D01*
X22943000Y-5180000D02*
G75*
G02*
X22853000Y-5180000I-45000J0D01*
G01*
X22943000Y-5180000D02*
X22943000Y-4980000D01*
X22943000Y-4980000D02*
G75*
G03*
X22853000Y-4980000I-45000J0D01*
G01*
X23114000Y-5797000D02*
X23114000Y-5887000D01*
X23069000Y-5842000D02*
X23159000Y-5842000D01*
X23114000Y-6305000D02*
X23114000Y-6395000D01*
X23069000Y-6350000D02*
X23159000Y-6350000D01*
X23114000Y-6813000D02*
X23114000Y-6903000D01*
X23069000Y-6858000D02*
X23159000Y-6858000D01*
X23114000Y-7321000D02*
X23114000Y-7411000D01*
X23069000Y-7366000D02*
X23159000Y-7366000D01*
X23272500Y-12255000D02*
X23272500Y-12345000D01*
X23227500Y-12300000D02*
X23317500Y-12300000D01*
X23368000Y-5035000D02*
X23368000Y-5125000D01*
X23323000Y-5080000D02*
X23413000Y-5080000D01*
X23323000Y-4980000D02*
X23323000Y-5180000D01*
X23413000Y-5180000D02*
G75*
G02*
X23323000Y-5180000I-45000J0D01*
G01*
X23413000Y-5180000D02*
X23413000Y-4980000D01*
X23413000Y-4980000D02*
G75*
G03*
X23323000Y-4980000I-45000J0D01*
G01*
X23526500Y-12255000D02*
X23526500Y-12345000D01*
X23481500Y-12300000D02*
X23571500Y-12300000D01*
X23622000Y-5797000D02*
X23622000Y-5887000D01*
X23577000Y-5842000D02*
X23667000Y-5842000D01*
X23622000Y-6305000D02*
X23622000Y-6395000D01*
X23577000Y-6350000D02*
X23667000Y-6350000D01*
X23622000Y-6813000D02*
X23622000Y-6903000D01*
X23577000Y-6858000D02*
X23667000Y-6858000D01*
X23622000Y-7321000D02*
X23622000Y-7411000D01*
X23577000Y-7366000D02*
X23667000Y-7366000D01*
X23838000Y-5035000D02*
X23838000Y-5125000D01*
X23793000Y-5080000D02*
X23883000Y-5080000D01*
X23793000Y-4980000D02*
X23793000Y-5180000D01*
X23883000Y-5180000D02*
G75*
G02*
X23793000Y-5180000I-45000J0D01*
G01*
X23883000Y-5180000D02*
X23883000Y-4980000D01*
X23883000Y-4980000D02*
G75*
G03*
X23793000Y-4980000I-45000J0D01*
G01*
X23876000Y-5797000D02*
X23876000Y-5887000D01*
X23831000Y-5842000D02*
X23921000Y-5842000D01*
X24468500Y-9099000D02*
X24468500Y-9189000D01*
X24423500Y-9144000D02*
X24513500Y-9144000D01*
X24976500Y-9099000D02*
X24976500Y-9189000D01*
X24931500Y-9144000D02*
X25021500Y-9144000D01*
D12*
X20937962Y-7411962D02*
X20937962Y-7320038D01*
X20846038Y-7320038D01*
X20846038Y-7411962D01*
X20937962Y-7411962D01*
X21445962Y-7411962D02*
X21445962Y-7320038D01*
X21354038Y-7320038D01*
X21354038Y-7411962D01*
X21445962Y-7411962D01*
X21953962Y-7411962D02*
X21953962Y-7320038D01*
X21862038Y-7320038D01*
X21862038Y-7411962D01*
X21953962Y-7411962D01*
X22905962Y-9443962D02*
X22905962Y-9352038D01*
X22814038Y-9352038D01*
X22814038Y-9443962D01*
X22905962Y-9443962D01*
X23413962Y-9443962D02*
X23413962Y-9352038D01*
X23322038Y-9352038D01*
X23322038Y-9443962D01*
X23413962Y-9443962D01*
X23921962Y-9443962D02*
X23921962Y-9352038D01*
X23830038Y-9352038D01*
X23830038Y-9443962D01*
X23921962Y-9443962D01*
X24937962Y-7445962D02*
X24937962Y-7354038D01*
X24846038Y-7354038D01*
X24846038Y-7445962D01*
X24937962Y-7445962D01*
X25445962Y-7445962D02*
X25445962Y-7354038D01*
X25354038Y-7354038D01*
X25354038Y-7445962D01*
X25445962Y-7445962D01*
X25953962Y-7445962D02*
X25953962Y-7354038D01*
X25862038Y-7354038D01*
X25862038Y-7445962D01*
X25953962Y-7445962D01*
D13*
X20750000Y-13841000D02*
X20875000Y-13716000D01*
X20750000Y-13591000D01*
X20625000Y-13716000D01*
X20750000Y-13841000D01*
X21500000Y-13841000D02*
X21625000Y-13716000D01*
X21500000Y-13591000D01*
X21375000Y-13716000D01*
X21500000Y-13841000D01*
X22352000Y-13841000D02*
X22477000Y-13716000D01*
X22352000Y-13591000D01*
X22227000Y-13716000D01*
X22352000Y-13841000D01*
X23114000Y-13841000D02*
X23239000Y-13716000D01*
X23114000Y-13591000D01*
X22989000Y-13716000D01*
X23114000Y-13841000D01*
X23876000Y-13841000D02*
X24001000Y-13716000D01*
X23876000Y-13591000D01*
X23751000Y-13716000D01*
X23876000Y-13841000D01*
X24638000Y-13841000D02*
X24763000Y-13716000D01*
X24638000Y-13591000D01*
X24513000Y-13716000D01*
X24638000Y-13841000D01*
X25400000Y-13841000D02*
X25525000Y-13716000D01*
X25400000Y-13591000D01*
X25275000Y-13716000D01*
X25400000Y-13841000D01*
D11*
X20659777Y-14794484D02*
X20659777Y-14594484D01*
X20659777Y-14594484D02*
X20707396Y-14594484D01*
X20707396Y-14594484D02*
X20735967Y-14604008D01*
X20735967Y-14604008D02*
X20755015Y-14623055D01*
X20755015Y-14623055D02*
X20764539Y-14642103D01*
X20764539Y-14642103D02*
X20774063Y-14680198D01*
X20774063Y-14680198D02*
X20774063Y-14708769D01*
X20774063Y-14708769D02*
X20764539Y-14746865D01*
X20764539Y-14746865D02*
X20755015Y-14765912D01*
X20755015Y-14765912D02*
X20735967Y-14784960D01*
X20735967Y-14784960D02*
X20707396Y-14794484D01*
X20707396Y-14794484D02*
X20659777Y-14794484D01*
X20859777Y-14794484D02*
X20859777Y-14661150D01*
X20859777Y-14699246D02*
X20869301Y-14680198D01*
X20869301Y-14680198D02*
X20878824Y-14670674D01*
X20878824Y-14670674D02*
X20897872Y-14661150D01*
X20897872Y-14661150D02*
X20916920Y-14661150D01*
X20983586Y-14794484D02*
X20983586Y-14661150D01*
X20983586Y-14594484D02*
X20974063Y-14604008D01*
X20974063Y-14604008D02*
X20983586Y-14613531D01*
X20983586Y-14613531D02*
X20993110Y-14604008D01*
X20993110Y-14604008D02*
X20983586Y-14594484D01*
X20983586Y-14594484D02*
X20983586Y-14613531D01*
X21107396Y-14794484D02*
X21088348Y-14784960D01*
X21088348Y-14784960D02*
X21078824Y-14765912D01*
X21078824Y-14765912D02*
X21078824Y-14594484D01*
X21212158Y-14794484D02*
X21193110Y-14784960D01*
X21193110Y-14784960D02*
X21183586Y-14765912D01*
X21183586Y-14765912D02*
X21183586Y-14594484D01*
X21440729Y-14794484D02*
X21440729Y-14594484D01*
X21440729Y-14594484D02*
X21507396Y-14737341D01*
X21507396Y-14737341D02*
X21574063Y-14594484D01*
X21574063Y-14594484D02*
X21574063Y-14794484D01*
X21755015Y-14794484D02*
X21755015Y-14689722D01*
X21755015Y-14689722D02*
X21745491Y-14670674D01*
X21745491Y-14670674D02*
X21726444Y-14661150D01*
X21726444Y-14661150D02*
X21688348Y-14661150D01*
X21688348Y-14661150D02*
X21669301Y-14670674D01*
X21755015Y-14784960D02*
X21735967Y-14794484D01*
X21735967Y-14794484D02*
X21688348Y-14794484D01*
X21688348Y-14794484D02*
X21669301Y-14784960D01*
X21669301Y-14784960D02*
X21659777Y-14765912D01*
X21659777Y-14765912D02*
X21659777Y-14746865D01*
X21659777Y-14746865D02*
X21669301Y-14727817D01*
X21669301Y-14727817D02*
X21688348Y-14718293D01*
X21688348Y-14718293D02*
X21735967Y-14718293D01*
X21735967Y-14718293D02*
X21755015Y-14708769D01*
X21850253Y-14661150D02*
X21850253Y-14861150D01*
X21850253Y-14670674D02*
X21869301Y-14661150D01*
X21869301Y-14661150D02*
X21907396Y-14661150D01*
X21907396Y-14661150D02*
X21926444Y-14670674D01*
X21926444Y-14670674D02*
X21935967Y-14680198D01*
X21935967Y-14680198D02*
X21945491Y-14699246D01*
X21945491Y-14699246D02*
X21945491Y-14756388D01*
X21945491Y-14756388D02*
X21935967Y-14775436D01*
X21935967Y-14775436D02*
X21926444Y-14784960D01*
X21926444Y-14784960D02*
X21907396Y-14794484D01*
X21907396Y-14794484D02*
X21869301Y-14794484D01*
X21869301Y-14794484D02*
X21850253Y-14784960D01*
X22031205Y-14775436D02*
X22040729Y-14784960D01*
X22040729Y-14784960D02*
X22031205Y-14794484D01*
X22031205Y-14794484D02*
X22021682Y-14784960D01*
X22021682Y-14784960D02*
X22031205Y-14775436D01*
X22031205Y-14775436D02*
X22031205Y-14794484D01*
X22031205Y-14670674D02*
X22040729Y-14680198D01*
X22040729Y-14680198D02*
X22031205Y-14689722D01*
X22031205Y-14689722D02*
X22021682Y-14680198D01*
X22021682Y-14680198D02*
X22031205Y-14670674D01*
X22031205Y-14670674D02*
X22031205Y-14689722D01*
D10*
X20359000Y-15103000D02*
X20399000Y-15143000D01*
X20399000Y-15103000D02*
X20359000Y-15143000D01*
D11*
X20697872Y-15014484D02*
X20716920Y-15014484D01*
X20716920Y-15014484D02*
X20735967Y-15024008D01*
X20735967Y-15024008D02*
X20745491Y-15033531D01*
X20745491Y-15033531D02*
X20755015Y-15052579D01*
X20755015Y-15052579D02*
X20764539Y-15090674D01*
X20764539Y-15090674D02*
X20764539Y-15138293D01*
X20764539Y-15138293D02*
X20755015Y-15176388D01*
X20755015Y-15176388D02*
X20745491Y-15195436D01*
X20745491Y-15195436D02*
X20735967Y-15204960D01*
X20735967Y-15204960D02*
X20716920Y-15214484D01*
X20716920Y-15214484D02*
X20697872Y-15214484D01*
X20697872Y-15214484D02*
X20678824Y-15204960D01*
X20678824Y-15204960D02*
X20669301Y-15195436D01*
X20669301Y-15195436D02*
X20659777Y-15176388D01*
X20659777Y-15176388D02*
X20650253Y-15138293D01*
X20650253Y-15138293D02*
X20650253Y-15090674D01*
X20650253Y-15090674D02*
X20659777Y-15052579D01*
X20659777Y-15052579D02*
X20669301Y-15033531D01*
X20669301Y-15033531D02*
X20678824Y-15024008D01*
X20678824Y-15024008D02*
X20697872Y-15014484D01*
X20850253Y-15195436D02*
X20859777Y-15204960D01*
X20859777Y-15204960D02*
X20850253Y-15214484D01*
X20850253Y-15214484D02*
X20840729Y-15204960D01*
X20840729Y-15204960D02*
X20850253Y-15195436D01*
X20850253Y-15195436D02*
X20850253Y-15214484D01*
X21031205Y-15081150D02*
X21031205Y-15214484D01*
X20983586Y-15004960D02*
X20935967Y-15147817D01*
X20935967Y-15147817D02*
X21059777Y-15147817D01*
X21174063Y-15014484D02*
X21193110Y-15014484D01*
X21193110Y-15014484D02*
X21212158Y-15024008D01*
X21212158Y-15024008D02*
X21221682Y-15033531D01*
X21221682Y-15033531D02*
X21231205Y-15052579D01*
X21231205Y-15052579D02*
X21240729Y-15090674D01*
X21240729Y-15090674D02*
X21240729Y-15138293D01*
X21240729Y-15138293D02*
X21231205Y-15176388D01*
X21231205Y-15176388D02*
X21221682Y-15195436D01*
X21221682Y-15195436D02*
X21212158Y-15204960D01*
X21212158Y-15204960D02*
X21193110Y-15214484D01*
X21193110Y-15214484D02*
X21174063Y-15214484D01*
X21174063Y-15214484D02*
X21155015Y-15204960D01*
X21155015Y-15204960D02*
X21145491Y-15195436D01*
X21145491Y-15195436D02*
X21135967Y-15176388D01*
X21135967Y-15176388D02*
X21126444Y-15138293D01*
X21126444Y-15138293D02*
X21126444Y-15090674D01*
X21126444Y-15090674D02*
X21135967Y-15052579D01*
X21135967Y-15052579D02*
X21145491Y-15033531D01*
X21145491Y-15033531D02*
X21155015Y-15024008D01*
X21155015Y-15024008D02*
X21174063Y-15014484D01*
X21364539Y-15014484D02*
X21383586Y-15014484D01*
X21383586Y-15014484D02*
X21402634Y-15024008D01*
X21402634Y-15024008D02*
X21412158Y-15033531D01*
X21412158Y-15033531D02*
X21421682Y-15052579D01*
X21421682Y-15052579D02*
X21431205Y-15090674D01*
X21431205Y-15090674D02*
X21431205Y-15138293D01*
X21431205Y-15138293D02*
X21421682Y-15176388D01*
X21421682Y-15176388D02*
X21412158Y-15195436D01*
X21412158Y-15195436D02*
X21402634Y-15204960D01*
X21402634Y-15204960D02*
X21383586Y-15214484D01*
X21383586Y-15214484D02*
X21364539Y-15214484D01*
X21364539Y-15214484D02*
X21345491Y-15204960D01*
X21345491Y-15204960D02*
X21335967Y-15195436D01*
X21335967Y-15195436D02*
X21326444Y-15176388D01*
X21326444Y-15176388D02*
X21316920Y-15138293D01*
X21316920Y-15138293D02*
X21316920Y-15090674D01*
X21316920Y-15090674D02*
X21326444Y-15052579D01*
X21326444Y-15052579D02*
X21335967Y-15033531D01*
X21335967Y-15033531D02*
X21345491Y-15024008D01*
X21345491Y-15024008D02*
X21364539Y-15014484D01*
X21516920Y-15214484D02*
X21516920Y-15081150D01*
X21516920Y-15100198D02*
X21526444Y-15090674D01*
X21526444Y-15090674D02*
X21545491Y-15081150D01*
X21545491Y-15081150D02*
X21574063Y-15081150D01*
X21574063Y-15081150D02*
X21593110Y-15090674D01*
X21593110Y-15090674D02*
X21602634Y-15109722D01*
X21602634Y-15109722D02*
X21602634Y-15214484D01*
X21602634Y-15109722D02*
X21612158Y-15090674D01*
X21612158Y-15090674D02*
X21631205Y-15081150D01*
X21631205Y-15081150D02*
X21659777Y-15081150D01*
X21659777Y-15081150D02*
X21678825Y-15090674D01*
X21678825Y-15090674D02*
X21688348Y-15109722D01*
X21688348Y-15109722D02*
X21688348Y-15214484D01*
X21783586Y-15214484D02*
X21783586Y-15081150D01*
X21783586Y-15100198D02*
X21793110Y-15090674D01*
X21793110Y-15090674D02*
X21812158Y-15081150D01*
X21812158Y-15081150D02*
X21840729Y-15081150D01*
X21840729Y-15081150D02*
X21859777Y-15090674D01*
X21859777Y-15090674D02*
X21869301Y-15109722D01*
X21869301Y-15109722D02*
X21869301Y-15214484D01*
X21869301Y-15109722D02*
X21878825Y-15090674D01*
X21878825Y-15090674D02*
X21897872Y-15081150D01*
X21897872Y-15081150D02*
X21926444Y-15081150D01*
X21926444Y-15081150D02*
X21945491Y-15090674D01*
X21945491Y-15090674D02*
X21955015Y-15109722D01*
X21955015Y-15109722D02*
X21955015Y-15214484D01*
X22345491Y-15004960D02*
X22174063Y-15262103D01*
X22602634Y-15014484D02*
X22621682Y-15014484D01*
X22621682Y-15014484D02*
X22640729Y-15024008D01*
X22640729Y-15024008D02*
X22650253Y-15033531D01*
X22650253Y-15033531D02*
X22659777Y-15052579D01*
X22659777Y-15052579D02*
X22669301Y-15090674D01*
X22669301Y-15090674D02*
X22669301Y-15138293D01*
X22669301Y-15138293D02*
X22659777Y-15176388D01*
X22659777Y-15176388D02*
X22650253Y-15195436D01*
X22650253Y-15195436D02*
X22640729Y-15204960D01*
X22640729Y-15204960D02*
X22621682Y-15214484D01*
X22621682Y-15214484D02*
X22602634Y-15214484D01*
X22602634Y-15214484D02*
X22583586Y-15204960D01*
X22583586Y-15204960D02*
X22574063Y-15195436D01*
X22574063Y-15195436D02*
X22564539Y-15176388D01*
X22564539Y-15176388D02*
X22555015Y-15138293D01*
X22555015Y-15138293D02*
X22555015Y-15090674D01*
X22555015Y-15090674D02*
X22564539Y-15052579D01*
X22564539Y-15052579D02*
X22574063Y-15033531D01*
X22574063Y-15033531D02*
X22583586Y-15024008D01*
X22583586Y-15024008D02*
X22602634Y-15014484D01*
X22755015Y-15195436D02*
X22764539Y-15204960D01*
X22764539Y-15204960D02*
X22755015Y-15214484D01*
X22755015Y-15214484D02*
X22745491Y-15204960D01*
X22745491Y-15204960D02*
X22755015Y-15195436D01*
X22755015Y-15195436D02*
X22755015Y-15214484D01*
X22888348Y-15014484D02*
X22907396Y-15014484D01*
X22907396Y-15014484D02*
X22926444Y-15024008D01*
X22926444Y-15024008D02*
X22935967Y-15033531D01*
X22935967Y-15033531D02*
X22945491Y-15052579D01*
X22945491Y-15052579D02*
X22955015Y-15090674D01*
X22955015Y-15090674D02*
X22955015Y-15138293D01*
X22955015Y-15138293D02*
X22945491Y-15176388D01*
X22945491Y-15176388D02*
X22935967Y-15195436D01*
X22935967Y-15195436D02*
X22926444Y-15204960D01*
X22926444Y-15204960D02*
X22907396Y-15214484D01*
X22907396Y-15214484D02*
X22888348Y-15214484D01*
X22888348Y-15214484D02*
X22869301Y-15204960D01*
X22869301Y-15204960D02*
X22859777Y-15195436D01*
X22859777Y-15195436D02*
X22850253Y-15176388D01*
X22850253Y-15176388D02*
X22840729Y-15138293D01*
X22840729Y-15138293D02*
X22840729Y-15090674D01*
X22840729Y-15090674D02*
X22850253Y-15052579D01*
X22850253Y-15052579D02*
X22859777Y-15033531D01*
X22859777Y-15033531D02*
X22869301Y-15024008D01*
X22869301Y-15024008D02*
X22888348Y-15014484D01*
X23145491Y-15214484D02*
X23031206Y-15214484D01*
X23088348Y-15214484D02*
X23088348Y-15014484D01*
X23088348Y-15014484D02*
X23069301Y-15043055D01*
X23069301Y-15043055D02*
X23050253Y-15062103D01*
X23050253Y-15062103D02*
X23031206Y-15071627D01*
X23326444Y-15014484D02*
X23231206Y-15014484D01*
X23231206Y-15014484D02*
X23221682Y-15109722D01*
X23221682Y-15109722D02*
X23231206Y-15100198D01*
X23231206Y-15100198D02*
X23250253Y-15090674D01*
X23250253Y-15090674D02*
X23297872Y-15090674D01*
X23297872Y-15090674D02*
X23316920Y-15100198D01*
X23316920Y-15100198D02*
X23326444Y-15109722D01*
X23326444Y-15109722D02*
X23335967Y-15128769D01*
X23335967Y-15128769D02*
X23335967Y-15176388D01*
X23335967Y-15176388D02*
X23326444Y-15195436D01*
X23326444Y-15195436D02*
X23316920Y-15204960D01*
X23316920Y-15204960D02*
X23297872Y-15214484D01*
X23297872Y-15214484D02*
X23250253Y-15214484D01*
X23250253Y-15214484D02*
X23231206Y-15204960D01*
X23231206Y-15204960D02*
X23221682Y-15195436D01*
X23402634Y-15014484D02*
X23535967Y-15014484D01*
X23535967Y-15014484D02*
X23450253Y-15214484D01*
X23602634Y-15014484D02*
X23602634Y-15052579D01*
X23678825Y-15014484D02*
X23678825Y-15052579D01*
X23974063Y-15290674D02*
X23964539Y-15281150D01*
X23964539Y-15281150D02*
X23945491Y-15252579D01*
X23945491Y-15252579D02*
X23935968Y-15233531D01*
X23935968Y-15233531D02*
X23926444Y-15204960D01*
X23926444Y-15204960D02*
X23916920Y-15157341D01*
X23916920Y-15157341D02*
X23916920Y-15119246D01*
X23916920Y-15119246D02*
X23926444Y-15071627D01*
X23926444Y-15071627D02*
X23935968Y-15043055D01*
X23935968Y-15043055D02*
X23945491Y-15024008D01*
X23945491Y-15024008D02*
X23964539Y-14995436D01*
X23964539Y-14995436D02*
X23974063Y-14985912D01*
X24031206Y-15014484D02*
X24164539Y-15014484D01*
X24164539Y-15014484D02*
X24078825Y-15214484D01*
X24393110Y-15214484D02*
X24393110Y-15014484D01*
X24478825Y-15214484D02*
X24478825Y-15109722D01*
X24478825Y-15109722D02*
X24469301Y-15090674D01*
X24469301Y-15090674D02*
X24450253Y-15081150D01*
X24450253Y-15081150D02*
X24421682Y-15081150D01*
X24421682Y-15081150D02*
X24402634Y-15090674D01*
X24402634Y-15090674D02*
X24393110Y-15100198D01*
X24602634Y-15214484D02*
X24583587Y-15204960D01*
X24583587Y-15204960D02*
X24574063Y-15195436D01*
X24574063Y-15195436D02*
X24564539Y-15176388D01*
X24564539Y-15176388D02*
X24564539Y-15119246D01*
X24564539Y-15119246D02*
X24574063Y-15100198D01*
X24574063Y-15100198D02*
X24583587Y-15090674D01*
X24583587Y-15090674D02*
X24602634Y-15081150D01*
X24602634Y-15081150D02*
X24631206Y-15081150D01*
X24631206Y-15081150D02*
X24650253Y-15090674D01*
X24650253Y-15090674D02*
X24659777Y-15100198D01*
X24659777Y-15100198D02*
X24669301Y-15119246D01*
X24669301Y-15119246D02*
X24669301Y-15176388D01*
X24669301Y-15176388D02*
X24659777Y-15195436D01*
X24659777Y-15195436D02*
X24650253Y-15204960D01*
X24650253Y-15204960D02*
X24631206Y-15214484D01*
X24631206Y-15214484D02*
X24602634Y-15214484D01*
X24783587Y-15214484D02*
X24764539Y-15204960D01*
X24764539Y-15204960D02*
X24755015Y-15185912D01*
X24755015Y-15185912D02*
X24755015Y-15014484D01*
X24935968Y-15204960D02*
X24916920Y-15214484D01*
X24916920Y-15214484D02*
X24878825Y-15214484D01*
X24878825Y-15214484D02*
X24859777Y-15204960D01*
X24859777Y-15204960D02*
X24850253Y-15185912D01*
X24850253Y-15185912D02*
X24850253Y-15109722D01*
X24850253Y-15109722D02*
X24859777Y-15090674D01*
X24859777Y-15090674D02*
X24878825Y-15081150D01*
X24878825Y-15081150D02*
X24916920Y-15081150D01*
X24916920Y-15081150D02*
X24935968Y-15090674D01*
X24935968Y-15090674D02*
X24945491Y-15109722D01*
X24945491Y-15109722D02*
X24945491Y-15128769D01*
X24945491Y-15128769D02*
X24850253Y-15147817D01*
X25021682Y-15204960D02*
X25040730Y-15214484D01*
X25040730Y-15214484D02*
X25078825Y-15214484D01*
X25078825Y-15214484D02*
X25097872Y-15204960D01*
X25097872Y-15204960D02*
X25107396Y-15185912D01*
X25107396Y-15185912D02*
X25107396Y-15176388D01*
X25107396Y-15176388D02*
X25097872Y-15157341D01*
X25097872Y-15157341D02*
X25078825Y-15147817D01*
X25078825Y-15147817D02*
X25050253Y-15147817D01*
X25050253Y-15147817D02*
X25031206Y-15138293D01*
X25031206Y-15138293D02*
X25021682Y-15119246D01*
X25021682Y-15119246D02*
X25021682Y-15109722D01*
X25021682Y-15109722D02*
X25031206Y-15090674D01*
X25031206Y-15090674D02*
X25050253Y-15081150D01*
X25050253Y-15081150D02*
X25078825Y-15081150D01*
X25078825Y-15081150D02*
X25097872Y-15090674D01*
X25174063Y-15290674D02*
X25183587Y-15281150D01*
X25183587Y-15281150D02*
X25202634Y-15252579D01*
X25202634Y-15252579D02*
X25212158Y-15233531D01*
X25212158Y-15233531D02*
X25221682Y-15204960D01*
X25221682Y-15204960D02*
X25231206Y-15157341D01*
X25231206Y-15157341D02*
X25231206Y-15119246D01*
X25231206Y-15119246D02*
X25221682Y-15071627D01*
X25221682Y-15071627D02*
X25212158Y-15043055D01*
X25212158Y-15043055D02*
X25202634Y-15024008D01*
X25202634Y-15024008D02*
X25183587Y-14995436D01*
X25183587Y-14995436D02*
X25174063Y-14985912D01*
D10*
X20399000Y-15387000D02*
G75*
G02*
X20319000Y-15387000I-40000J0D01*
G01*
X20319000Y-15387000D02*
G75*
G02*
X20399000Y-15387000I40000J0D01*
G01*
D11*
X20697872Y-15278484D02*
X20716920Y-15278484D01*
X20716920Y-15278484D02*
X20735967Y-15288008D01*
X20735967Y-15288008D02*
X20745491Y-15297531D01*
X20745491Y-15297531D02*
X20755015Y-15316579D01*
X20755015Y-15316579D02*
X20764539Y-15354674D01*
X20764539Y-15354674D02*
X20764539Y-15402293D01*
X20764539Y-15402293D02*
X20755015Y-15440388D01*
X20755015Y-15440388D02*
X20745491Y-15459436D01*
X20745491Y-15459436D02*
X20735967Y-15468960D01*
X20735967Y-15468960D02*
X20716920Y-15478484D01*
X20716920Y-15478484D02*
X20697872Y-15478484D01*
X20697872Y-15478484D02*
X20678824Y-15468960D01*
X20678824Y-15468960D02*
X20669301Y-15459436D01*
X20669301Y-15459436D02*
X20659777Y-15440388D01*
X20659777Y-15440388D02*
X20650253Y-15402293D01*
X20650253Y-15402293D02*
X20650253Y-15354674D01*
X20650253Y-15354674D02*
X20659777Y-15316579D01*
X20659777Y-15316579D02*
X20669301Y-15297531D01*
X20669301Y-15297531D02*
X20678824Y-15288008D01*
X20678824Y-15288008D02*
X20697872Y-15278484D01*
X20850253Y-15459436D02*
X20859777Y-15468960D01*
X20859777Y-15468960D02*
X20850253Y-15478484D01*
X20850253Y-15478484D02*
X20840729Y-15468960D01*
X20840729Y-15468960D02*
X20850253Y-15459436D01*
X20850253Y-15459436D02*
X20850253Y-15478484D01*
X20974063Y-15364198D02*
X20955015Y-15354674D01*
X20955015Y-15354674D02*
X20945491Y-15345150D01*
X20945491Y-15345150D02*
X20935967Y-15326103D01*
X20935967Y-15326103D02*
X20935967Y-15316579D01*
X20935967Y-15316579D02*
X20945491Y-15297531D01*
X20945491Y-15297531D02*
X20955015Y-15288008D01*
X20955015Y-15288008D02*
X20974063Y-15278484D01*
X20974063Y-15278484D02*
X21012158Y-15278484D01*
X21012158Y-15278484D02*
X21031205Y-15288008D01*
X21031205Y-15288008D02*
X21040729Y-15297531D01*
X21040729Y-15297531D02*
X21050253Y-15316579D01*
X21050253Y-15316579D02*
X21050253Y-15326103D01*
X21050253Y-15326103D02*
X21040729Y-15345150D01*
X21040729Y-15345150D02*
X21031205Y-15354674D01*
X21031205Y-15354674D02*
X21012158Y-15364198D01*
X21012158Y-15364198D02*
X20974063Y-15364198D01*
X20974063Y-15364198D02*
X20955015Y-15373722D01*
X20955015Y-15373722D02*
X20945491Y-15383246D01*
X20945491Y-15383246D02*
X20935967Y-15402293D01*
X20935967Y-15402293D02*
X20935967Y-15440388D01*
X20935967Y-15440388D02*
X20945491Y-15459436D01*
X20945491Y-15459436D02*
X20955015Y-15468960D01*
X20955015Y-15468960D02*
X20974063Y-15478484D01*
X20974063Y-15478484D02*
X21012158Y-15478484D01*
X21012158Y-15478484D02*
X21031205Y-15468960D01*
X21031205Y-15468960D02*
X21040729Y-15459436D01*
X21040729Y-15459436D02*
X21050253Y-15440388D01*
X21050253Y-15440388D02*
X21050253Y-15402293D01*
X21050253Y-15402293D02*
X21040729Y-15383246D01*
X21040729Y-15383246D02*
X21031205Y-15373722D01*
X21031205Y-15373722D02*
X21012158Y-15364198D01*
X21174063Y-15278484D02*
X21193110Y-15278484D01*
X21193110Y-15278484D02*
X21212158Y-15288008D01*
X21212158Y-15288008D02*
X21221682Y-15297531D01*
X21221682Y-15297531D02*
X21231205Y-15316579D01*
X21231205Y-15316579D02*
X21240729Y-15354674D01*
X21240729Y-15354674D02*
X21240729Y-15402293D01*
X21240729Y-15402293D02*
X21231205Y-15440388D01*
X21231205Y-15440388D02*
X21221682Y-15459436D01*
X21221682Y-15459436D02*
X21212158Y-15468960D01*
X21212158Y-15468960D02*
X21193110Y-15478484D01*
X21193110Y-15478484D02*
X21174063Y-15478484D01*
X21174063Y-15478484D02*
X21155015Y-15468960D01*
X21155015Y-15468960D02*
X21145491Y-15459436D01*
X21145491Y-15459436D02*
X21135967Y-15440388D01*
X21135967Y-15440388D02*
X21126444Y-15402293D01*
X21126444Y-15402293D02*
X21126444Y-15354674D01*
X21126444Y-15354674D02*
X21135967Y-15316579D01*
X21135967Y-15316579D02*
X21145491Y-15297531D01*
X21145491Y-15297531D02*
X21155015Y-15288008D01*
X21155015Y-15288008D02*
X21174063Y-15278484D01*
X21364539Y-15278484D02*
X21383586Y-15278484D01*
X21383586Y-15278484D02*
X21402634Y-15288008D01*
X21402634Y-15288008D02*
X21412158Y-15297531D01*
X21412158Y-15297531D02*
X21421682Y-15316579D01*
X21421682Y-15316579D02*
X21431205Y-15354674D01*
X21431205Y-15354674D02*
X21431205Y-15402293D01*
X21431205Y-15402293D02*
X21421682Y-15440388D01*
X21421682Y-15440388D02*
X21412158Y-15459436D01*
X21412158Y-15459436D02*
X21402634Y-15468960D01*
X21402634Y-15468960D02*
X21383586Y-15478484D01*
X21383586Y-15478484D02*
X21364539Y-15478484D01*
X21364539Y-15478484D02*
X21345491Y-15468960D01*
X21345491Y-15468960D02*
X21335967Y-15459436D01*
X21335967Y-15459436D02*
X21326444Y-15440388D01*
X21326444Y-15440388D02*
X21316920Y-15402293D01*
X21316920Y-15402293D02*
X21316920Y-15354674D01*
X21316920Y-15354674D02*
X21326444Y-15316579D01*
X21326444Y-15316579D02*
X21335967Y-15297531D01*
X21335967Y-15297531D02*
X21345491Y-15288008D01*
X21345491Y-15288008D02*
X21364539Y-15278484D01*
X21516920Y-15478484D02*
X21516920Y-15345150D01*
X21516920Y-15364198D02*
X21526444Y-15354674D01*
X21526444Y-15354674D02*
X21545491Y-15345150D01*
X21545491Y-15345150D02*
X21574063Y-15345150D01*
X21574063Y-15345150D02*
X21593110Y-15354674D01*
X21593110Y-15354674D02*
X21602634Y-15373722D01*
X21602634Y-15373722D02*
X21602634Y-15478484D01*
X21602634Y-15373722D02*
X21612158Y-15354674D01*
X21612158Y-15354674D02*
X21631205Y-15345150D01*
X21631205Y-15345150D02*
X21659777Y-15345150D01*
X21659777Y-15345150D02*
X21678825Y-15354674D01*
X21678825Y-15354674D02*
X21688348Y-15373722D01*
X21688348Y-15373722D02*
X21688348Y-15478484D01*
X21783586Y-15478484D02*
X21783586Y-15345150D01*
X21783586Y-15364198D02*
X21793110Y-15354674D01*
X21793110Y-15354674D02*
X21812158Y-15345150D01*
X21812158Y-15345150D02*
X21840729Y-15345150D01*
X21840729Y-15345150D02*
X21859777Y-15354674D01*
X21859777Y-15354674D02*
X21869301Y-15373722D01*
X21869301Y-15373722D02*
X21869301Y-15478484D01*
X21869301Y-15373722D02*
X21878825Y-15354674D01*
X21878825Y-15354674D02*
X21897872Y-15345150D01*
X21897872Y-15345150D02*
X21926444Y-15345150D01*
X21926444Y-15345150D02*
X21945491Y-15354674D01*
X21945491Y-15354674D02*
X21955015Y-15373722D01*
X21955015Y-15373722D02*
X21955015Y-15478484D01*
X22345491Y-15268960D02*
X22174063Y-15526103D01*
X22602634Y-15278484D02*
X22621682Y-15278484D01*
X22621682Y-15278484D02*
X22640729Y-15288008D01*
X22640729Y-15288008D02*
X22650253Y-15297531D01*
X22650253Y-15297531D02*
X22659777Y-15316579D01*
X22659777Y-15316579D02*
X22669301Y-15354674D01*
X22669301Y-15354674D02*
X22669301Y-15402293D01*
X22669301Y-15402293D02*
X22659777Y-15440388D01*
X22659777Y-15440388D02*
X22650253Y-15459436D01*
X22650253Y-15459436D02*
X22640729Y-15468960D01*
X22640729Y-15468960D02*
X22621682Y-15478484D01*
X22621682Y-15478484D02*
X22602634Y-15478484D01*
X22602634Y-15478484D02*
X22583586Y-15468960D01*
X22583586Y-15468960D02*
X22574063Y-15459436D01*
X22574063Y-15459436D02*
X22564539Y-15440388D01*
X22564539Y-15440388D02*
X22555015Y-15402293D01*
X22555015Y-15402293D02*
X22555015Y-15354674D01*
X22555015Y-15354674D02*
X22564539Y-15316579D01*
X22564539Y-15316579D02*
X22574063Y-15297531D01*
X22574063Y-15297531D02*
X22583586Y-15288008D01*
X22583586Y-15288008D02*
X22602634Y-15278484D01*
X22755015Y-15459436D02*
X22764539Y-15468960D01*
X22764539Y-15468960D02*
X22755015Y-15478484D01*
X22755015Y-15478484D02*
X22745491Y-15468960D01*
X22745491Y-15468960D02*
X22755015Y-15459436D01*
X22755015Y-15459436D02*
X22755015Y-15478484D01*
X22888348Y-15278484D02*
X22907396Y-15278484D01*
X22907396Y-15278484D02*
X22926444Y-15288008D01*
X22926444Y-15288008D02*
X22935967Y-15297531D01*
X22935967Y-15297531D02*
X22945491Y-15316579D01*
X22945491Y-15316579D02*
X22955015Y-15354674D01*
X22955015Y-15354674D02*
X22955015Y-15402293D01*
X22955015Y-15402293D02*
X22945491Y-15440388D01*
X22945491Y-15440388D02*
X22935967Y-15459436D01*
X22935967Y-15459436D02*
X22926444Y-15468960D01*
X22926444Y-15468960D02*
X22907396Y-15478484D01*
X22907396Y-15478484D02*
X22888348Y-15478484D01*
X22888348Y-15478484D02*
X22869301Y-15468960D01*
X22869301Y-15468960D02*
X22859777Y-15459436D01*
X22859777Y-15459436D02*
X22850253Y-15440388D01*
X22850253Y-15440388D02*
X22840729Y-15402293D01*
X22840729Y-15402293D02*
X22840729Y-15354674D01*
X22840729Y-15354674D02*
X22850253Y-15316579D01*
X22850253Y-15316579D02*
X22859777Y-15297531D01*
X22859777Y-15297531D02*
X22869301Y-15288008D01*
X22869301Y-15288008D02*
X22888348Y-15278484D01*
X23021682Y-15278484D02*
X23145491Y-15278484D01*
X23145491Y-15278484D02*
X23078825Y-15354674D01*
X23078825Y-15354674D02*
X23107396Y-15354674D01*
X23107396Y-15354674D02*
X23126444Y-15364198D01*
X23126444Y-15364198D02*
X23135967Y-15373722D01*
X23135967Y-15373722D02*
X23145491Y-15392769D01*
X23145491Y-15392769D02*
X23145491Y-15440388D01*
X23145491Y-15440388D02*
X23135967Y-15459436D01*
X23135967Y-15459436D02*
X23126444Y-15468960D01*
X23126444Y-15468960D02*
X23107396Y-15478484D01*
X23107396Y-15478484D02*
X23050253Y-15478484D01*
X23050253Y-15478484D02*
X23031206Y-15468960D01*
X23031206Y-15468960D02*
X23021682Y-15459436D01*
X23335967Y-15478484D02*
X23221682Y-15478484D01*
X23278825Y-15478484D02*
X23278825Y-15278484D01*
X23278825Y-15278484D02*
X23259777Y-15307055D01*
X23259777Y-15307055D02*
X23240729Y-15326103D01*
X23240729Y-15326103D02*
X23221682Y-15335627D01*
X23516920Y-15278484D02*
X23421682Y-15278484D01*
X23421682Y-15278484D02*
X23412158Y-15373722D01*
X23412158Y-15373722D02*
X23421682Y-15364198D01*
X23421682Y-15364198D02*
X23440729Y-15354674D01*
X23440729Y-15354674D02*
X23488348Y-15354674D01*
X23488348Y-15354674D02*
X23507396Y-15364198D01*
X23507396Y-15364198D02*
X23516920Y-15373722D01*
X23516920Y-15373722D02*
X23526444Y-15392769D01*
X23526444Y-15392769D02*
X23526444Y-15440388D01*
X23526444Y-15440388D02*
X23516920Y-15459436D01*
X23516920Y-15459436D02*
X23507396Y-15468960D01*
X23507396Y-15468960D02*
X23488348Y-15478484D01*
X23488348Y-15478484D02*
X23440729Y-15478484D01*
X23440729Y-15478484D02*
X23421682Y-15468960D01*
X23421682Y-15468960D02*
X23412158Y-15459436D01*
X23602634Y-15278484D02*
X23602634Y-15316579D01*
X23678825Y-15278484D02*
X23678825Y-15316579D01*
X23974063Y-15554674D02*
X23964539Y-15545150D01*
X23964539Y-15545150D02*
X23945491Y-15516579D01*
X23945491Y-15516579D02*
X23935968Y-15497531D01*
X23935968Y-15497531D02*
X23926444Y-15468960D01*
X23926444Y-15468960D02*
X23916920Y-15421341D01*
X23916920Y-15421341D02*
X23916920Y-15383246D01*
X23916920Y-15383246D02*
X23926444Y-15335627D01*
X23926444Y-15335627D02*
X23935968Y-15307055D01*
X23935968Y-15307055D02*
X23945491Y-15288008D01*
X23945491Y-15288008D02*
X23964539Y-15259436D01*
X23964539Y-15259436D02*
X23974063Y-15249912D01*
X24031206Y-15278484D02*
X24164539Y-15278484D01*
X24164539Y-15278484D02*
X24078825Y-15478484D01*
X24269301Y-15364198D02*
X24250253Y-15354674D01*
X24250253Y-15354674D02*
X24240729Y-15345150D01*
X24240729Y-15345150D02*
X24231206Y-15326103D01*
X24231206Y-15326103D02*
X24231206Y-15316579D01*
X24231206Y-15316579D02*
X24240729Y-15297531D01*
X24240729Y-15297531D02*
X24250253Y-15288008D01*
X24250253Y-15288008D02*
X24269301Y-15278484D01*
X24269301Y-15278484D02*
X24307396Y-15278484D01*
X24307396Y-15278484D02*
X24326444Y-15288008D01*
X24326444Y-15288008D02*
X24335968Y-15297531D01*
X24335968Y-15297531D02*
X24345491Y-15316579D01*
X24345491Y-15316579D02*
X24345491Y-15326103D01*
X24345491Y-15326103D02*
X24335968Y-15345150D01*
X24335968Y-15345150D02*
X24326444Y-15354674D01*
X24326444Y-15354674D02*
X24307396Y-15364198D01*
X24307396Y-15364198D02*
X24269301Y-15364198D01*
X24269301Y-15364198D02*
X24250253Y-15373722D01*
X24250253Y-15373722D02*
X24240729Y-15383246D01*
X24240729Y-15383246D02*
X24231206Y-15402293D01*
X24231206Y-15402293D02*
X24231206Y-15440388D01*
X24231206Y-15440388D02*
X24240729Y-15459436D01*
X24240729Y-15459436D02*
X24250253Y-15468960D01*
X24250253Y-15468960D02*
X24269301Y-15478484D01*
X24269301Y-15478484D02*
X24307396Y-15478484D01*
X24307396Y-15478484D02*
X24326444Y-15468960D01*
X24326444Y-15468960D02*
X24335968Y-15459436D01*
X24335968Y-15459436D02*
X24345491Y-15440388D01*
X24345491Y-15440388D02*
X24345491Y-15402293D01*
X24345491Y-15402293D02*
X24335968Y-15383246D01*
X24335968Y-15383246D02*
X24326444Y-15373722D01*
X24326444Y-15373722D02*
X24307396Y-15364198D01*
X24583587Y-15478484D02*
X24583587Y-15278484D01*
X24669301Y-15478484D02*
X24669301Y-15373722D01*
X24669301Y-15373722D02*
X24659777Y-15354674D01*
X24659777Y-15354674D02*
X24640730Y-15345150D01*
X24640730Y-15345150D02*
X24612158Y-15345150D01*
X24612158Y-15345150D02*
X24593110Y-15354674D01*
X24593110Y-15354674D02*
X24583587Y-15364198D01*
X24793110Y-15478484D02*
X24774063Y-15468960D01*
X24774063Y-15468960D02*
X24764539Y-15459436D01*
X24764539Y-15459436D02*
X24755015Y-15440388D01*
X24755015Y-15440388D02*
X24755015Y-15383246D01*
X24755015Y-15383246D02*
X24764539Y-15364198D01*
X24764539Y-15364198D02*
X24774063Y-15354674D01*
X24774063Y-15354674D02*
X24793110Y-15345150D01*
X24793110Y-15345150D02*
X24821682Y-15345150D01*
X24821682Y-15345150D02*
X24840730Y-15354674D01*
X24840730Y-15354674D02*
X24850253Y-15364198D01*
X24850253Y-15364198D02*
X24859777Y-15383246D01*
X24859777Y-15383246D02*
X24859777Y-15440388D01*
X24859777Y-15440388D02*
X24850253Y-15459436D01*
X24850253Y-15459436D02*
X24840730Y-15468960D01*
X24840730Y-15468960D02*
X24821682Y-15478484D01*
X24821682Y-15478484D02*
X24793110Y-15478484D01*
X24974063Y-15478484D02*
X24955015Y-15468960D01*
X24955015Y-15468960D02*
X24945491Y-15449912D01*
X24945491Y-15449912D02*
X24945491Y-15278484D01*
X25126444Y-15468960D02*
X25107396Y-15478484D01*
X25107396Y-15478484D02*
X25069301Y-15478484D01*
X25069301Y-15478484D02*
X25050253Y-15468960D01*
X25050253Y-15468960D02*
X25040730Y-15449912D01*
X25040730Y-15449912D02*
X25040730Y-15373722D01*
X25040730Y-15373722D02*
X25050253Y-15354674D01*
X25050253Y-15354674D02*
X25069301Y-15345150D01*
X25069301Y-15345150D02*
X25107396Y-15345150D01*
X25107396Y-15345150D02*
X25126444Y-15354674D01*
X25126444Y-15354674D02*
X25135968Y-15373722D01*
X25135968Y-15373722D02*
X25135968Y-15392769D01*
X25135968Y-15392769D02*
X25040730Y-15411817D01*
X25212158Y-15468960D02*
X25231206Y-15478484D01*
X25231206Y-15478484D02*
X25269301Y-15478484D01*
X25269301Y-15478484D02*
X25288349Y-15468960D01*
X25288349Y-15468960D02*
X25297872Y-15449912D01*
X25297872Y-15449912D02*
X25297872Y-15440388D01*
X25297872Y-15440388D02*
X25288349Y-15421341D01*
X25288349Y-15421341D02*
X25269301Y-15411817D01*
X25269301Y-15411817D02*
X25240730Y-15411817D01*
X25240730Y-15411817D02*
X25221682Y-15402293D01*
X25221682Y-15402293D02*
X25212158Y-15383246D01*
X25212158Y-15383246D02*
X25212158Y-15373722D01*
X25212158Y-15373722D02*
X25221682Y-15354674D01*
X25221682Y-15354674D02*
X25240730Y-15345150D01*
X25240730Y-15345150D02*
X25269301Y-15345150D01*
X25269301Y-15345150D02*
X25288349Y-15354674D01*
X25364539Y-15554674D02*
X25374063Y-15545150D01*
X25374063Y-15545150D02*
X25393111Y-15516579D01*
X25393111Y-15516579D02*
X25402634Y-15497531D01*
X25402634Y-15497531D02*
X25412158Y-15468960D01*
X25412158Y-15468960D02*
X25421682Y-15421341D01*
X25421682Y-15421341D02*
X25421682Y-15383246D01*
X25421682Y-15383246D02*
X25412158Y-15335627D01*
X25412158Y-15335627D02*
X25402634Y-15307055D01*
X25402634Y-15307055D02*
X25393111Y-15288008D01*
X25393111Y-15288008D02*
X25374063Y-15259436D01*
X25374063Y-15259436D02*
X25364539Y-15249912D01*
D10*
X20354000Y-15606000D02*
X20354000Y-15696000D01*
X20309000Y-15651000D02*
X20399000Y-15651000D01*
D11*
X20697872Y-15542484D02*
X20716920Y-15542484D01*
X20716920Y-15542484D02*
X20735967Y-15552008D01*
X20735967Y-15552008D02*
X20745491Y-15561531D01*
X20745491Y-15561531D02*
X20755015Y-15580579D01*
X20755015Y-15580579D02*
X20764539Y-15618674D01*
X20764539Y-15618674D02*
X20764539Y-15666293D01*
X20764539Y-15666293D02*
X20755015Y-15704388D01*
X20755015Y-15704388D02*
X20745491Y-15723436D01*
X20745491Y-15723436D02*
X20735967Y-15732960D01*
X20735967Y-15732960D02*
X20716920Y-15742484D01*
X20716920Y-15742484D02*
X20697872Y-15742484D01*
X20697872Y-15742484D02*
X20678824Y-15732960D01*
X20678824Y-15732960D02*
X20669301Y-15723436D01*
X20669301Y-15723436D02*
X20659777Y-15704388D01*
X20659777Y-15704388D02*
X20650253Y-15666293D01*
X20650253Y-15666293D02*
X20650253Y-15618674D01*
X20650253Y-15618674D02*
X20659777Y-15580579D01*
X20659777Y-15580579D02*
X20669301Y-15561531D01*
X20669301Y-15561531D02*
X20678824Y-15552008D01*
X20678824Y-15552008D02*
X20697872Y-15542484D01*
X20850253Y-15723436D02*
X20859777Y-15732960D01*
X20859777Y-15732960D02*
X20850253Y-15742484D01*
X20850253Y-15742484D02*
X20840729Y-15732960D01*
X20840729Y-15732960D02*
X20850253Y-15723436D01*
X20850253Y-15723436D02*
X20850253Y-15742484D01*
X20955015Y-15742484D02*
X20993110Y-15742484D01*
X20993110Y-15742484D02*
X21012158Y-15732960D01*
X21012158Y-15732960D02*
X21021682Y-15723436D01*
X21021682Y-15723436D02*
X21040729Y-15694865D01*
X21040729Y-15694865D02*
X21050253Y-15656769D01*
X21050253Y-15656769D02*
X21050253Y-15580579D01*
X21050253Y-15580579D02*
X21040729Y-15561531D01*
X21040729Y-15561531D02*
X21031205Y-15552008D01*
X21031205Y-15552008D02*
X21012158Y-15542484D01*
X21012158Y-15542484D02*
X20974063Y-15542484D01*
X20974063Y-15542484D02*
X20955015Y-15552008D01*
X20955015Y-15552008D02*
X20945491Y-15561531D01*
X20945491Y-15561531D02*
X20935967Y-15580579D01*
X20935967Y-15580579D02*
X20935967Y-15628198D01*
X20935967Y-15628198D02*
X20945491Y-15647246D01*
X20945491Y-15647246D02*
X20955015Y-15656769D01*
X20955015Y-15656769D02*
X20974063Y-15666293D01*
X20974063Y-15666293D02*
X21012158Y-15666293D01*
X21012158Y-15666293D02*
X21031205Y-15656769D01*
X21031205Y-15656769D02*
X21040729Y-15647246D01*
X21040729Y-15647246D02*
X21050253Y-15628198D01*
X21174063Y-15542484D02*
X21193110Y-15542484D01*
X21193110Y-15542484D02*
X21212158Y-15552008D01*
X21212158Y-15552008D02*
X21221682Y-15561531D01*
X21221682Y-15561531D02*
X21231205Y-15580579D01*
X21231205Y-15580579D02*
X21240729Y-15618674D01*
X21240729Y-15618674D02*
X21240729Y-15666293D01*
X21240729Y-15666293D02*
X21231205Y-15704388D01*
X21231205Y-15704388D02*
X21221682Y-15723436D01*
X21221682Y-15723436D02*
X21212158Y-15732960D01*
X21212158Y-15732960D02*
X21193110Y-15742484D01*
X21193110Y-15742484D02*
X21174063Y-15742484D01*
X21174063Y-15742484D02*
X21155015Y-15732960D01*
X21155015Y-15732960D02*
X21145491Y-15723436D01*
X21145491Y-15723436D02*
X21135967Y-15704388D01*
X21135967Y-15704388D02*
X21126444Y-15666293D01*
X21126444Y-15666293D02*
X21126444Y-15618674D01*
X21126444Y-15618674D02*
X21135967Y-15580579D01*
X21135967Y-15580579D02*
X21145491Y-15561531D01*
X21145491Y-15561531D02*
X21155015Y-15552008D01*
X21155015Y-15552008D02*
X21174063Y-15542484D01*
X21364539Y-15542484D02*
X21383586Y-15542484D01*
X21383586Y-15542484D02*
X21402634Y-15552008D01*
X21402634Y-15552008D02*
X21412158Y-15561531D01*
X21412158Y-15561531D02*
X21421682Y-15580579D01*
X21421682Y-15580579D02*
X21431205Y-15618674D01*
X21431205Y-15618674D02*
X21431205Y-15666293D01*
X21431205Y-15666293D02*
X21421682Y-15704388D01*
X21421682Y-15704388D02*
X21412158Y-15723436D01*
X21412158Y-15723436D02*
X21402634Y-15732960D01*
X21402634Y-15732960D02*
X21383586Y-15742484D01*
X21383586Y-15742484D02*
X21364539Y-15742484D01*
X21364539Y-15742484D02*
X21345491Y-15732960D01*
X21345491Y-15732960D02*
X21335967Y-15723436D01*
X21335967Y-15723436D02*
X21326444Y-15704388D01*
X21326444Y-15704388D02*
X21316920Y-15666293D01*
X21316920Y-15666293D02*
X21316920Y-15618674D01*
X21316920Y-15618674D02*
X21326444Y-15580579D01*
X21326444Y-15580579D02*
X21335967Y-15561531D01*
X21335967Y-15561531D02*
X21345491Y-15552008D01*
X21345491Y-15552008D02*
X21364539Y-15542484D01*
X21516920Y-15742484D02*
X21516920Y-15609150D01*
X21516920Y-15628198D02*
X21526444Y-15618674D01*
X21526444Y-15618674D02*
X21545491Y-15609150D01*
X21545491Y-15609150D02*
X21574063Y-15609150D01*
X21574063Y-15609150D02*
X21593110Y-15618674D01*
X21593110Y-15618674D02*
X21602634Y-15637722D01*
X21602634Y-15637722D02*
X21602634Y-15742484D01*
X21602634Y-15637722D02*
X21612158Y-15618674D01*
X21612158Y-15618674D02*
X21631205Y-15609150D01*
X21631205Y-15609150D02*
X21659777Y-15609150D01*
X21659777Y-15609150D02*
X21678825Y-15618674D01*
X21678825Y-15618674D02*
X21688348Y-15637722D01*
X21688348Y-15637722D02*
X21688348Y-15742484D01*
X21783586Y-15742484D02*
X21783586Y-15609150D01*
X21783586Y-15628198D02*
X21793110Y-15618674D01*
X21793110Y-15618674D02*
X21812158Y-15609150D01*
X21812158Y-15609150D02*
X21840729Y-15609150D01*
X21840729Y-15609150D02*
X21859777Y-15618674D01*
X21859777Y-15618674D02*
X21869301Y-15637722D01*
X21869301Y-15637722D02*
X21869301Y-15742484D01*
X21869301Y-15637722D02*
X21878825Y-15618674D01*
X21878825Y-15618674D02*
X21897872Y-15609150D01*
X21897872Y-15609150D02*
X21926444Y-15609150D01*
X21926444Y-15609150D02*
X21945491Y-15618674D01*
X21945491Y-15618674D02*
X21955015Y-15637722D01*
X21955015Y-15637722D02*
X21955015Y-15742484D01*
X22345491Y-15532960D02*
X22174063Y-15790103D01*
X22602634Y-15542484D02*
X22621682Y-15542484D01*
X22621682Y-15542484D02*
X22640729Y-15552008D01*
X22640729Y-15552008D02*
X22650253Y-15561531D01*
X22650253Y-15561531D02*
X22659777Y-15580579D01*
X22659777Y-15580579D02*
X22669301Y-15618674D01*
X22669301Y-15618674D02*
X22669301Y-15666293D01*
X22669301Y-15666293D02*
X22659777Y-15704388D01*
X22659777Y-15704388D02*
X22650253Y-15723436D01*
X22650253Y-15723436D02*
X22640729Y-15732960D01*
X22640729Y-15732960D02*
X22621682Y-15742484D01*
X22621682Y-15742484D02*
X22602634Y-15742484D01*
X22602634Y-15742484D02*
X22583586Y-15732960D01*
X22583586Y-15732960D02*
X22574063Y-15723436D01*
X22574063Y-15723436D02*
X22564539Y-15704388D01*
X22564539Y-15704388D02*
X22555015Y-15666293D01*
X22555015Y-15666293D02*
X22555015Y-15618674D01*
X22555015Y-15618674D02*
X22564539Y-15580579D01*
X22564539Y-15580579D02*
X22574063Y-15561531D01*
X22574063Y-15561531D02*
X22583586Y-15552008D01*
X22583586Y-15552008D02*
X22602634Y-15542484D01*
X22755015Y-15723436D02*
X22764539Y-15732960D01*
X22764539Y-15732960D02*
X22755015Y-15742484D01*
X22755015Y-15742484D02*
X22745491Y-15732960D01*
X22745491Y-15732960D02*
X22755015Y-15723436D01*
X22755015Y-15723436D02*
X22755015Y-15742484D01*
X22888348Y-15542484D02*
X22907396Y-15542484D01*
X22907396Y-15542484D02*
X22926444Y-15552008D01*
X22926444Y-15552008D02*
X22935967Y-15561531D01*
X22935967Y-15561531D02*
X22945491Y-15580579D01*
X22945491Y-15580579D02*
X22955015Y-15618674D01*
X22955015Y-15618674D02*
X22955015Y-15666293D01*
X22955015Y-15666293D02*
X22945491Y-15704388D01*
X22945491Y-15704388D02*
X22935967Y-15723436D01*
X22935967Y-15723436D02*
X22926444Y-15732960D01*
X22926444Y-15732960D02*
X22907396Y-15742484D01*
X22907396Y-15742484D02*
X22888348Y-15742484D01*
X22888348Y-15742484D02*
X22869301Y-15732960D01*
X22869301Y-15732960D02*
X22859777Y-15723436D01*
X22859777Y-15723436D02*
X22850253Y-15704388D01*
X22850253Y-15704388D02*
X22840729Y-15666293D01*
X22840729Y-15666293D02*
X22840729Y-15618674D01*
X22840729Y-15618674D02*
X22850253Y-15580579D01*
X22850253Y-15580579D02*
X22859777Y-15561531D01*
X22859777Y-15561531D02*
X22869301Y-15552008D01*
X22869301Y-15552008D02*
X22888348Y-15542484D01*
X23021682Y-15542484D02*
X23145491Y-15542484D01*
X23145491Y-15542484D02*
X23078825Y-15618674D01*
X23078825Y-15618674D02*
X23107396Y-15618674D01*
X23107396Y-15618674D02*
X23126444Y-15628198D01*
X23126444Y-15628198D02*
X23135967Y-15637722D01*
X23135967Y-15637722D02*
X23145491Y-15656769D01*
X23145491Y-15656769D02*
X23145491Y-15704388D01*
X23145491Y-15704388D02*
X23135967Y-15723436D01*
X23135967Y-15723436D02*
X23126444Y-15732960D01*
X23126444Y-15732960D02*
X23107396Y-15742484D01*
X23107396Y-15742484D02*
X23050253Y-15742484D01*
X23050253Y-15742484D02*
X23031206Y-15732960D01*
X23031206Y-15732960D02*
X23021682Y-15723436D01*
X23326444Y-15542484D02*
X23231206Y-15542484D01*
X23231206Y-15542484D02*
X23221682Y-15637722D01*
X23221682Y-15637722D02*
X23231206Y-15628198D01*
X23231206Y-15628198D02*
X23250253Y-15618674D01*
X23250253Y-15618674D02*
X23297872Y-15618674D01*
X23297872Y-15618674D02*
X23316920Y-15628198D01*
X23316920Y-15628198D02*
X23326444Y-15637722D01*
X23326444Y-15637722D02*
X23335967Y-15656769D01*
X23335967Y-15656769D02*
X23335967Y-15704388D01*
X23335967Y-15704388D02*
X23326444Y-15723436D01*
X23326444Y-15723436D02*
X23316920Y-15732960D01*
X23316920Y-15732960D02*
X23297872Y-15742484D01*
X23297872Y-15742484D02*
X23250253Y-15742484D01*
X23250253Y-15742484D02*
X23231206Y-15732960D01*
X23231206Y-15732960D02*
X23221682Y-15723436D01*
X23507396Y-15609150D02*
X23507396Y-15742484D01*
X23459777Y-15532960D02*
X23412158Y-15675817D01*
X23412158Y-15675817D02*
X23535967Y-15675817D01*
X23602634Y-15542484D02*
X23602634Y-15580579D01*
X23678825Y-15542484D02*
X23678825Y-15580579D01*
X23974063Y-15818674D02*
X23964539Y-15809150D01*
X23964539Y-15809150D02*
X23945491Y-15780579D01*
X23945491Y-15780579D02*
X23935968Y-15761531D01*
X23935968Y-15761531D02*
X23926444Y-15732960D01*
X23926444Y-15732960D02*
X23916920Y-15685341D01*
X23916920Y-15685341D02*
X23916920Y-15647246D01*
X23916920Y-15647246D02*
X23926444Y-15599627D01*
X23926444Y-15599627D02*
X23935968Y-15571055D01*
X23935968Y-15571055D02*
X23945491Y-15552008D01*
X23945491Y-15552008D02*
X23964539Y-15523436D01*
X23964539Y-15523436D02*
X23974063Y-15513912D01*
X24155015Y-15742484D02*
X24040729Y-15742484D01*
X24097872Y-15742484D02*
X24097872Y-15542484D01*
X24097872Y-15542484D02*
X24078825Y-15571055D01*
X24078825Y-15571055D02*
X24059777Y-15590103D01*
X24059777Y-15590103D02*
X24040729Y-15599627D01*
X24326444Y-15609150D02*
X24326444Y-15742484D01*
X24278825Y-15532960D02*
X24231206Y-15675817D01*
X24231206Y-15675817D02*
X24355015Y-15675817D01*
X24583587Y-15742484D02*
X24583587Y-15542484D01*
X24669301Y-15742484D02*
X24669301Y-15637722D01*
X24669301Y-15637722D02*
X24659777Y-15618674D01*
X24659777Y-15618674D02*
X24640730Y-15609150D01*
X24640730Y-15609150D02*
X24612158Y-15609150D01*
X24612158Y-15609150D02*
X24593110Y-15618674D01*
X24593110Y-15618674D02*
X24583587Y-15628198D01*
X24793110Y-15742484D02*
X24774063Y-15732960D01*
X24774063Y-15732960D02*
X24764539Y-15723436D01*
X24764539Y-15723436D02*
X24755015Y-15704388D01*
X24755015Y-15704388D02*
X24755015Y-15647246D01*
X24755015Y-15647246D02*
X24764539Y-15628198D01*
X24764539Y-15628198D02*
X24774063Y-15618674D01*
X24774063Y-15618674D02*
X24793110Y-15609150D01*
X24793110Y-15609150D02*
X24821682Y-15609150D01*
X24821682Y-15609150D02*
X24840730Y-15618674D01*
X24840730Y-15618674D02*
X24850253Y-15628198D01*
X24850253Y-15628198D02*
X24859777Y-15647246D01*
X24859777Y-15647246D02*
X24859777Y-15704388D01*
X24859777Y-15704388D02*
X24850253Y-15723436D01*
X24850253Y-15723436D02*
X24840730Y-15732960D01*
X24840730Y-15732960D02*
X24821682Y-15742484D01*
X24821682Y-15742484D02*
X24793110Y-15742484D01*
X24974063Y-15742484D02*
X24955015Y-15732960D01*
X24955015Y-15732960D02*
X24945491Y-15713912D01*
X24945491Y-15713912D02*
X24945491Y-15542484D01*
X25126444Y-15732960D02*
X25107396Y-15742484D01*
X25107396Y-15742484D02*
X25069301Y-15742484D01*
X25069301Y-15742484D02*
X25050253Y-15732960D01*
X25050253Y-15732960D02*
X25040730Y-15713912D01*
X25040730Y-15713912D02*
X25040730Y-15637722D01*
X25040730Y-15637722D02*
X25050253Y-15618674D01*
X25050253Y-15618674D02*
X25069301Y-15609150D01*
X25069301Y-15609150D02*
X25107396Y-15609150D01*
X25107396Y-15609150D02*
X25126444Y-15618674D01*
X25126444Y-15618674D02*
X25135968Y-15637722D01*
X25135968Y-15637722D02*
X25135968Y-15656769D01*
X25135968Y-15656769D02*
X25040730Y-15675817D01*
X25212158Y-15732960D02*
X25231206Y-15742484D01*
X25231206Y-15742484D02*
X25269301Y-15742484D01*
X25269301Y-15742484D02*
X25288349Y-15732960D01*
X25288349Y-15732960D02*
X25297872Y-15713912D01*
X25297872Y-15713912D02*
X25297872Y-15704388D01*
X25297872Y-15704388D02*
X25288349Y-15685341D01*
X25288349Y-15685341D02*
X25269301Y-15675817D01*
X25269301Y-15675817D02*
X25240730Y-15675817D01*
X25240730Y-15675817D02*
X25221682Y-15666293D01*
X25221682Y-15666293D02*
X25212158Y-15647246D01*
X25212158Y-15647246D02*
X25212158Y-15637722D01*
X25212158Y-15637722D02*
X25221682Y-15618674D01*
X25221682Y-15618674D02*
X25240730Y-15609150D01*
X25240730Y-15609150D02*
X25269301Y-15609150D01*
X25269301Y-15609150D02*
X25288349Y-15618674D01*
X25535968Y-15666293D02*
X25688349Y-15666293D01*
X25612158Y-15742484D02*
X25612158Y-15590103D01*
X25916920Y-15542484D02*
X26040730Y-15542484D01*
X26040730Y-15542484D02*
X25974063Y-15618674D01*
X25974063Y-15618674D02*
X26002634Y-15618674D01*
X26002634Y-15618674D02*
X26021682Y-15628198D01*
X26021682Y-15628198D02*
X26031206Y-15637722D01*
X26031206Y-15637722D02*
X26040730Y-15656769D01*
X26040730Y-15656769D02*
X26040730Y-15704388D01*
X26040730Y-15704388D02*
X26031206Y-15723436D01*
X26031206Y-15723436D02*
X26021682Y-15732960D01*
X26021682Y-15732960D02*
X26002634Y-15742484D01*
X26002634Y-15742484D02*
X25945492Y-15742484D01*
X25945492Y-15742484D02*
X25926444Y-15732960D01*
X25926444Y-15732960D02*
X25916920Y-15723436D01*
X26269301Y-15732960D02*
X26288349Y-15742484D01*
X26288349Y-15742484D02*
X26326444Y-15742484D01*
X26326444Y-15742484D02*
X26345492Y-15732960D01*
X26345492Y-15732960D02*
X26355015Y-15713912D01*
X26355015Y-15713912D02*
X26355015Y-15704388D01*
X26355015Y-15704388D02*
X26345492Y-15685341D01*
X26345492Y-15685341D02*
X26326444Y-15675817D01*
X26326444Y-15675817D02*
X26297873Y-15675817D01*
X26297873Y-15675817D02*
X26278825Y-15666293D01*
X26278825Y-15666293D02*
X26269301Y-15647246D01*
X26269301Y-15647246D02*
X26269301Y-15637722D01*
X26269301Y-15637722D02*
X26278825Y-15618674D01*
X26278825Y-15618674D02*
X26297873Y-15609150D01*
X26297873Y-15609150D02*
X26326444Y-15609150D01*
X26326444Y-15609150D02*
X26345492Y-15618674D01*
X26469301Y-15742484D02*
X26450254Y-15732960D01*
X26450254Y-15732960D02*
X26440730Y-15713912D01*
X26440730Y-15713912D02*
X26440730Y-15542484D01*
X26574063Y-15742484D02*
X26555015Y-15732960D01*
X26555015Y-15732960D02*
X26545492Y-15723436D01*
X26545492Y-15723436D02*
X26535968Y-15704388D01*
X26535968Y-15704388D02*
X26535968Y-15647246D01*
X26535968Y-15647246D02*
X26545492Y-15628198D01*
X26545492Y-15628198D02*
X26555015Y-15618674D01*
X26555015Y-15618674D02*
X26574063Y-15609150D01*
X26574063Y-15609150D02*
X26602635Y-15609150D01*
X26602635Y-15609150D02*
X26621682Y-15618674D01*
X26621682Y-15618674D02*
X26631206Y-15628198D01*
X26631206Y-15628198D02*
X26640730Y-15647246D01*
X26640730Y-15647246D02*
X26640730Y-15704388D01*
X26640730Y-15704388D02*
X26631206Y-15723436D01*
X26631206Y-15723436D02*
X26621682Y-15732960D01*
X26621682Y-15732960D02*
X26602635Y-15742484D01*
X26602635Y-15742484D02*
X26574063Y-15742484D01*
X26697873Y-15609150D02*
X26774063Y-15609150D01*
X26726444Y-15542484D02*
X26726444Y-15713912D01*
X26726444Y-15713912D02*
X26735968Y-15732960D01*
X26735968Y-15732960D02*
X26755015Y-15742484D01*
X26755015Y-15742484D02*
X26774063Y-15742484D01*
X26831206Y-15732960D02*
X26850254Y-15742484D01*
X26850254Y-15742484D02*
X26888349Y-15742484D01*
X26888349Y-15742484D02*
X26907396Y-15732960D01*
X26907396Y-15732960D02*
X26916920Y-15713912D01*
X26916920Y-15713912D02*
X26916920Y-15704388D01*
X26916920Y-15704388D02*
X26907396Y-15685341D01*
X26907396Y-15685341D02*
X26888349Y-15675817D01*
X26888349Y-15675817D02*
X26859777Y-15675817D01*
X26859777Y-15675817D02*
X26840730Y-15666293D01*
X26840730Y-15666293D02*
X26831206Y-15647246D01*
X26831206Y-15647246D02*
X26831206Y-15637722D01*
X26831206Y-15637722D02*
X26840730Y-15618674D01*
X26840730Y-15618674D02*
X26859777Y-15609150D01*
X26859777Y-15609150D02*
X26888349Y-15609150D01*
X26888349Y-15609150D02*
X26907396Y-15618674D01*
X26983587Y-15818674D02*
X26993111Y-15809150D01*
X26993111Y-15809150D02*
X27012158Y-15780579D01*
X27012158Y-15780579D02*
X27021682Y-15761531D01*
X27021682Y-15761531D02*
X27031206Y-15732960D01*
X27031206Y-15732960D02*
X27040730Y-15685341D01*
X27040730Y-15685341D02*
X27040730Y-15647246D01*
X27040730Y-15647246D02*
X27031206Y-15599627D01*
X27031206Y-15599627D02*
X27021682Y-15571055D01*
X27021682Y-15571055D02*
X27012158Y-15552008D01*
X27012158Y-15552008D02*
X26993111Y-15523436D01*
X26993111Y-15523436D02*
X26983587Y-15513912D01*
D12*
X20379962Y-15960962D02*
X20379962Y-15869038D01*
X20288038Y-15869038D01*
X20288038Y-15960962D01*
X20379962Y-15960962D01*
D11*
X20764539Y-16006484D02*
X20650253Y-16006484D01*
X20707396Y-16006484D02*
X20707396Y-15806484D01*
X20707396Y-15806484D02*
X20688348Y-15835055D01*
X20688348Y-15835055D02*
X20669301Y-15854103D01*
X20669301Y-15854103D02*
X20650253Y-15863627D01*
X20850253Y-15987436D02*
X20859777Y-15996960D01*
X20859777Y-15996960D02*
X20850253Y-16006484D01*
X20850253Y-16006484D02*
X20840729Y-15996960D01*
X20840729Y-15996960D02*
X20850253Y-15987436D01*
X20850253Y-15987436D02*
X20850253Y-16006484D01*
X20926444Y-15806484D02*
X21050253Y-15806484D01*
X21050253Y-15806484D02*
X20983586Y-15882674D01*
X20983586Y-15882674D02*
X21012158Y-15882674D01*
X21012158Y-15882674D02*
X21031205Y-15892198D01*
X21031205Y-15892198D02*
X21040729Y-15901722D01*
X21040729Y-15901722D02*
X21050253Y-15920769D01*
X21050253Y-15920769D02*
X21050253Y-15968388D01*
X21050253Y-15968388D02*
X21040729Y-15987436D01*
X21040729Y-15987436D02*
X21031205Y-15996960D01*
X21031205Y-15996960D02*
X21012158Y-16006484D01*
X21012158Y-16006484D02*
X20955015Y-16006484D01*
X20955015Y-16006484D02*
X20935967Y-15996960D01*
X20935967Y-15996960D02*
X20926444Y-15987436D01*
X21174063Y-15806484D02*
X21193110Y-15806484D01*
X21193110Y-15806484D02*
X21212158Y-15816008D01*
X21212158Y-15816008D02*
X21221682Y-15825531D01*
X21221682Y-15825531D02*
X21231205Y-15844579D01*
X21231205Y-15844579D02*
X21240729Y-15882674D01*
X21240729Y-15882674D02*
X21240729Y-15930293D01*
X21240729Y-15930293D02*
X21231205Y-15968388D01*
X21231205Y-15968388D02*
X21221682Y-15987436D01*
X21221682Y-15987436D02*
X21212158Y-15996960D01*
X21212158Y-15996960D02*
X21193110Y-16006484D01*
X21193110Y-16006484D02*
X21174063Y-16006484D01*
X21174063Y-16006484D02*
X21155015Y-15996960D01*
X21155015Y-15996960D02*
X21145491Y-15987436D01*
X21145491Y-15987436D02*
X21135967Y-15968388D01*
X21135967Y-15968388D02*
X21126444Y-15930293D01*
X21126444Y-15930293D02*
X21126444Y-15882674D01*
X21126444Y-15882674D02*
X21135967Y-15844579D01*
X21135967Y-15844579D02*
X21145491Y-15825531D01*
X21145491Y-15825531D02*
X21155015Y-15816008D01*
X21155015Y-15816008D02*
X21174063Y-15806484D01*
X21364539Y-15806484D02*
X21383586Y-15806484D01*
X21383586Y-15806484D02*
X21402634Y-15816008D01*
X21402634Y-15816008D02*
X21412158Y-15825531D01*
X21412158Y-15825531D02*
X21421682Y-15844579D01*
X21421682Y-15844579D02*
X21431205Y-15882674D01*
X21431205Y-15882674D02*
X21431205Y-15930293D01*
X21431205Y-15930293D02*
X21421682Y-15968388D01*
X21421682Y-15968388D02*
X21412158Y-15987436D01*
X21412158Y-15987436D02*
X21402634Y-15996960D01*
X21402634Y-15996960D02*
X21383586Y-16006484D01*
X21383586Y-16006484D02*
X21364539Y-16006484D01*
X21364539Y-16006484D02*
X21345491Y-15996960D01*
X21345491Y-15996960D02*
X21335967Y-15987436D01*
X21335967Y-15987436D02*
X21326444Y-15968388D01*
X21326444Y-15968388D02*
X21316920Y-15930293D01*
X21316920Y-15930293D02*
X21316920Y-15882674D01*
X21316920Y-15882674D02*
X21326444Y-15844579D01*
X21326444Y-15844579D02*
X21335967Y-15825531D01*
X21335967Y-15825531D02*
X21345491Y-15816008D01*
X21345491Y-15816008D02*
X21364539Y-15806484D01*
X21516920Y-16006484D02*
X21516920Y-15873150D01*
X21516920Y-15892198D02*
X21526444Y-15882674D01*
X21526444Y-15882674D02*
X21545491Y-15873150D01*
X21545491Y-15873150D02*
X21574063Y-15873150D01*
X21574063Y-15873150D02*
X21593110Y-15882674D01*
X21593110Y-15882674D02*
X21602634Y-15901722D01*
X21602634Y-15901722D02*
X21602634Y-16006484D01*
X21602634Y-15901722D02*
X21612158Y-15882674D01*
X21612158Y-15882674D02*
X21631205Y-15873150D01*
X21631205Y-15873150D02*
X21659777Y-15873150D01*
X21659777Y-15873150D02*
X21678825Y-15882674D01*
X21678825Y-15882674D02*
X21688348Y-15901722D01*
X21688348Y-15901722D02*
X21688348Y-16006484D01*
X21783586Y-16006484D02*
X21783586Y-15873150D01*
X21783586Y-15892198D02*
X21793110Y-15882674D01*
X21793110Y-15882674D02*
X21812158Y-15873150D01*
X21812158Y-15873150D02*
X21840729Y-15873150D01*
X21840729Y-15873150D02*
X21859777Y-15882674D01*
X21859777Y-15882674D02*
X21869301Y-15901722D01*
X21869301Y-15901722D02*
X21869301Y-16006484D01*
X21869301Y-15901722D02*
X21878825Y-15882674D01*
X21878825Y-15882674D02*
X21897872Y-15873150D01*
X21897872Y-15873150D02*
X21926444Y-15873150D01*
X21926444Y-15873150D02*
X21945491Y-15882674D01*
X21945491Y-15882674D02*
X21955015Y-15901722D01*
X21955015Y-15901722D02*
X21955015Y-16006484D01*
X22345491Y-15796960D02*
X22174063Y-16054103D01*
X22602634Y-15806484D02*
X22621682Y-15806484D01*
X22621682Y-15806484D02*
X22640729Y-15816008D01*
X22640729Y-15816008D02*
X22650253Y-15825531D01*
X22650253Y-15825531D02*
X22659777Y-15844579D01*
X22659777Y-15844579D02*
X22669301Y-15882674D01*
X22669301Y-15882674D02*
X22669301Y-15930293D01*
X22669301Y-15930293D02*
X22659777Y-15968388D01*
X22659777Y-15968388D02*
X22650253Y-15987436D01*
X22650253Y-15987436D02*
X22640729Y-15996960D01*
X22640729Y-15996960D02*
X22621682Y-16006484D01*
X22621682Y-16006484D02*
X22602634Y-16006484D01*
X22602634Y-16006484D02*
X22583586Y-15996960D01*
X22583586Y-15996960D02*
X22574063Y-15987436D01*
X22574063Y-15987436D02*
X22564539Y-15968388D01*
X22564539Y-15968388D02*
X22555015Y-15930293D01*
X22555015Y-15930293D02*
X22555015Y-15882674D01*
X22555015Y-15882674D02*
X22564539Y-15844579D01*
X22564539Y-15844579D02*
X22574063Y-15825531D01*
X22574063Y-15825531D02*
X22583586Y-15816008D01*
X22583586Y-15816008D02*
X22602634Y-15806484D01*
X22755015Y-15987436D02*
X22764539Y-15996960D01*
X22764539Y-15996960D02*
X22755015Y-16006484D01*
X22755015Y-16006484D02*
X22745491Y-15996960D01*
X22745491Y-15996960D02*
X22755015Y-15987436D01*
X22755015Y-15987436D02*
X22755015Y-16006484D01*
X22888348Y-15806484D02*
X22907396Y-15806484D01*
X22907396Y-15806484D02*
X22926444Y-15816008D01*
X22926444Y-15816008D02*
X22935967Y-15825531D01*
X22935967Y-15825531D02*
X22945491Y-15844579D01*
X22945491Y-15844579D02*
X22955015Y-15882674D01*
X22955015Y-15882674D02*
X22955015Y-15930293D01*
X22955015Y-15930293D02*
X22945491Y-15968388D01*
X22945491Y-15968388D02*
X22935967Y-15987436D01*
X22935967Y-15987436D02*
X22926444Y-15996960D01*
X22926444Y-15996960D02*
X22907396Y-16006484D01*
X22907396Y-16006484D02*
X22888348Y-16006484D01*
X22888348Y-16006484D02*
X22869301Y-15996960D01*
X22869301Y-15996960D02*
X22859777Y-15987436D01*
X22859777Y-15987436D02*
X22850253Y-15968388D01*
X22850253Y-15968388D02*
X22840729Y-15930293D01*
X22840729Y-15930293D02*
X22840729Y-15882674D01*
X22840729Y-15882674D02*
X22850253Y-15844579D01*
X22850253Y-15844579D02*
X22859777Y-15825531D01*
X22859777Y-15825531D02*
X22869301Y-15816008D01*
X22869301Y-15816008D02*
X22888348Y-15806484D01*
X23135967Y-15806484D02*
X23040729Y-15806484D01*
X23040729Y-15806484D02*
X23031206Y-15901722D01*
X23031206Y-15901722D02*
X23040729Y-15892198D01*
X23040729Y-15892198D02*
X23059777Y-15882674D01*
X23059777Y-15882674D02*
X23107396Y-15882674D01*
X23107396Y-15882674D02*
X23126444Y-15892198D01*
X23126444Y-15892198D02*
X23135967Y-15901722D01*
X23135967Y-15901722D02*
X23145491Y-15920769D01*
X23145491Y-15920769D02*
X23145491Y-15968388D01*
X23145491Y-15968388D02*
X23135967Y-15987436D01*
X23135967Y-15987436D02*
X23126444Y-15996960D01*
X23126444Y-15996960D02*
X23107396Y-16006484D01*
X23107396Y-16006484D02*
X23059777Y-16006484D01*
X23059777Y-16006484D02*
X23040729Y-15996960D01*
X23040729Y-15996960D02*
X23031206Y-15987436D01*
X23335967Y-16006484D02*
X23221682Y-16006484D01*
X23278825Y-16006484D02*
X23278825Y-15806484D01*
X23278825Y-15806484D02*
X23259777Y-15835055D01*
X23259777Y-15835055D02*
X23240729Y-15854103D01*
X23240729Y-15854103D02*
X23221682Y-15863627D01*
X23412158Y-15825531D02*
X23421682Y-15816008D01*
X23421682Y-15816008D02*
X23440729Y-15806484D01*
X23440729Y-15806484D02*
X23488348Y-15806484D01*
X23488348Y-15806484D02*
X23507396Y-15816008D01*
X23507396Y-15816008D02*
X23516920Y-15825531D01*
X23516920Y-15825531D02*
X23526444Y-15844579D01*
X23526444Y-15844579D02*
X23526444Y-15863627D01*
X23526444Y-15863627D02*
X23516920Y-15892198D01*
X23516920Y-15892198D02*
X23402634Y-16006484D01*
X23402634Y-16006484D02*
X23526444Y-16006484D01*
X23602634Y-15806484D02*
X23602634Y-15844579D01*
X23678825Y-15806484D02*
X23678825Y-15844579D01*
X23974063Y-16082674D02*
X23964539Y-16073150D01*
X23964539Y-16073150D02*
X23945491Y-16044579D01*
X23945491Y-16044579D02*
X23935968Y-16025531D01*
X23935968Y-16025531D02*
X23926444Y-15996960D01*
X23926444Y-15996960D02*
X23916920Y-15949341D01*
X23916920Y-15949341D02*
X23916920Y-15911246D01*
X23916920Y-15911246D02*
X23926444Y-15863627D01*
X23926444Y-15863627D02*
X23935968Y-15835055D01*
X23935968Y-15835055D02*
X23945491Y-15816008D01*
X23945491Y-15816008D02*
X23964539Y-15787436D01*
X23964539Y-15787436D02*
X23974063Y-15777912D01*
X24059777Y-16006484D02*
X24097872Y-16006484D01*
X24097872Y-16006484D02*
X24116920Y-15996960D01*
X24116920Y-15996960D02*
X24126444Y-15987436D01*
X24126444Y-15987436D02*
X24145491Y-15958865D01*
X24145491Y-15958865D02*
X24155015Y-15920769D01*
X24155015Y-15920769D02*
X24155015Y-15844579D01*
X24155015Y-15844579D02*
X24145491Y-15825531D01*
X24145491Y-15825531D02*
X24135968Y-15816008D01*
X24135968Y-15816008D02*
X24116920Y-15806484D01*
X24116920Y-15806484D02*
X24078825Y-15806484D01*
X24078825Y-15806484D02*
X24059777Y-15816008D01*
X24059777Y-15816008D02*
X24050253Y-15825531D01*
X24050253Y-15825531D02*
X24040729Y-15844579D01*
X24040729Y-15844579D02*
X24040729Y-15892198D01*
X24040729Y-15892198D02*
X24050253Y-15911246D01*
X24050253Y-15911246D02*
X24059777Y-15920769D01*
X24059777Y-15920769D02*
X24078825Y-15930293D01*
X24078825Y-15930293D02*
X24116920Y-15930293D01*
X24116920Y-15930293D02*
X24135968Y-15920769D01*
X24135968Y-15920769D02*
X24145491Y-15911246D01*
X24145491Y-15911246D02*
X24155015Y-15892198D01*
X24393110Y-16006484D02*
X24393110Y-15806484D01*
X24478825Y-16006484D02*
X24478825Y-15901722D01*
X24478825Y-15901722D02*
X24469301Y-15882674D01*
X24469301Y-15882674D02*
X24450253Y-15873150D01*
X24450253Y-15873150D02*
X24421682Y-15873150D01*
X24421682Y-15873150D02*
X24402634Y-15882674D01*
X24402634Y-15882674D02*
X24393110Y-15892198D01*
X24602634Y-16006484D02*
X24583587Y-15996960D01*
X24583587Y-15996960D02*
X24574063Y-15987436D01*
X24574063Y-15987436D02*
X24564539Y-15968388D01*
X24564539Y-15968388D02*
X24564539Y-15911246D01*
X24564539Y-15911246D02*
X24574063Y-15892198D01*
X24574063Y-15892198D02*
X24583587Y-15882674D01*
X24583587Y-15882674D02*
X24602634Y-15873150D01*
X24602634Y-15873150D02*
X24631206Y-15873150D01*
X24631206Y-15873150D02*
X24650253Y-15882674D01*
X24650253Y-15882674D02*
X24659777Y-15892198D01*
X24659777Y-15892198D02*
X24669301Y-15911246D01*
X24669301Y-15911246D02*
X24669301Y-15968388D01*
X24669301Y-15968388D02*
X24659777Y-15987436D01*
X24659777Y-15987436D02*
X24650253Y-15996960D01*
X24650253Y-15996960D02*
X24631206Y-16006484D01*
X24631206Y-16006484D02*
X24602634Y-16006484D01*
X24783587Y-16006484D02*
X24764539Y-15996960D01*
X24764539Y-15996960D02*
X24755015Y-15977912D01*
X24755015Y-15977912D02*
X24755015Y-15806484D01*
X24935968Y-15996960D02*
X24916920Y-16006484D01*
X24916920Y-16006484D02*
X24878825Y-16006484D01*
X24878825Y-16006484D02*
X24859777Y-15996960D01*
X24859777Y-15996960D02*
X24850253Y-15977912D01*
X24850253Y-15977912D02*
X24850253Y-15901722D01*
X24850253Y-15901722D02*
X24859777Y-15882674D01*
X24859777Y-15882674D02*
X24878825Y-15873150D01*
X24878825Y-15873150D02*
X24916920Y-15873150D01*
X24916920Y-15873150D02*
X24935968Y-15882674D01*
X24935968Y-15882674D02*
X24945491Y-15901722D01*
X24945491Y-15901722D02*
X24945491Y-15920769D01*
X24945491Y-15920769D02*
X24850253Y-15939817D01*
X25021682Y-15996960D02*
X25040730Y-16006484D01*
X25040730Y-16006484D02*
X25078825Y-16006484D01*
X25078825Y-16006484D02*
X25097872Y-15996960D01*
X25097872Y-15996960D02*
X25107396Y-15977912D01*
X25107396Y-15977912D02*
X25107396Y-15968388D01*
X25107396Y-15968388D02*
X25097872Y-15949341D01*
X25097872Y-15949341D02*
X25078825Y-15939817D01*
X25078825Y-15939817D02*
X25050253Y-15939817D01*
X25050253Y-15939817D02*
X25031206Y-15930293D01*
X25031206Y-15930293D02*
X25021682Y-15911246D01*
X25021682Y-15911246D02*
X25021682Y-15901722D01*
X25021682Y-15901722D02*
X25031206Y-15882674D01*
X25031206Y-15882674D02*
X25050253Y-15873150D01*
X25050253Y-15873150D02*
X25078825Y-15873150D01*
X25078825Y-15873150D02*
X25097872Y-15882674D01*
X25174063Y-16082674D02*
X25183587Y-16073150D01*
X25183587Y-16073150D02*
X25202634Y-16044579D01*
X25202634Y-16044579D02*
X25212158Y-16025531D01*
X25212158Y-16025531D02*
X25221682Y-15996960D01*
X25221682Y-15996960D02*
X25231206Y-15949341D01*
X25231206Y-15949341D02*
X25231206Y-15911246D01*
X25231206Y-15911246D02*
X25221682Y-15863627D01*
X25221682Y-15863627D02*
X25212158Y-15835055D01*
X25212158Y-15835055D02*
X25202634Y-15816008D01*
X25202634Y-15816008D02*
X25183587Y-15787436D01*
X25183587Y-15787436D02*
X25174063Y-15777912D01*
X20299000Y-16279000D02*
X20399000Y-16179000D01*
X20299000Y-16079000D01*
X20199000Y-16179000D01*
X20299000Y-16279000D01*
X20650253Y-16089531D02*
X20659777Y-16080008D01*
X20659777Y-16080008D02*
X20678824Y-16070484D01*
X20678824Y-16070484D02*
X20726444Y-16070484D01*
X20726444Y-16070484D02*
X20745491Y-16080008D01*
X20745491Y-16080008D02*
X20755015Y-16089531D01*
X20755015Y-16089531D02*
X20764539Y-16108579D01*
X20764539Y-16108579D02*
X20764539Y-16127627D01*
X20764539Y-16127627D02*
X20755015Y-16156198D01*
X20755015Y-16156198D02*
X20640729Y-16270484D01*
X20640729Y-16270484D02*
X20764539Y-16270484D01*
X20850253Y-16251436D02*
X20859777Y-16260960D01*
X20859777Y-16260960D02*
X20850253Y-16270484D01*
X20850253Y-16270484D02*
X20840729Y-16260960D01*
X20840729Y-16260960D02*
X20850253Y-16251436D01*
X20850253Y-16251436D02*
X20850253Y-16270484D01*
X21040729Y-16070484D02*
X20945491Y-16070484D01*
X20945491Y-16070484D02*
X20935967Y-16165722D01*
X20935967Y-16165722D02*
X20945491Y-16156198D01*
X20945491Y-16156198D02*
X20964539Y-16146674D01*
X20964539Y-16146674D02*
X21012158Y-16146674D01*
X21012158Y-16146674D02*
X21031205Y-16156198D01*
X21031205Y-16156198D02*
X21040729Y-16165722D01*
X21040729Y-16165722D02*
X21050253Y-16184769D01*
X21050253Y-16184769D02*
X21050253Y-16232388D01*
X21050253Y-16232388D02*
X21040729Y-16251436D01*
X21040729Y-16251436D02*
X21031205Y-16260960D01*
X21031205Y-16260960D02*
X21012158Y-16270484D01*
X21012158Y-16270484D02*
X20964539Y-16270484D01*
X20964539Y-16270484D02*
X20945491Y-16260960D01*
X20945491Y-16260960D02*
X20935967Y-16251436D01*
X21174063Y-16070484D02*
X21193110Y-16070484D01*
X21193110Y-16070484D02*
X21212158Y-16080008D01*
X21212158Y-16080008D02*
X21221682Y-16089531D01*
X21221682Y-16089531D02*
X21231205Y-16108579D01*
X21231205Y-16108579D02*
X21240729Y-16146674D01*
X21240729Y-16146674D02*
X21240729Y-16194293D01*
X21240729Y-16194293D02*
X21231205Y-16232388D01*
X21231205Y-16232388D02*
X21221682Y-16251436D01*
X21221682Y-16251436D02*
X21212158Y-16260960D01*
X21212158Y-16260960D02*
X21193110Y-16270484D01*
X21193110Y-16270484D02*
X21174063Y-16270484D01*
X21174063Y-16270484D02*
X21155015Y-16260960D01*
X21155015Y-16260960D02*
X21145491Y-16251436D01*
X21145491Y-16251436D02*
X21135967Y-16232388D01*
X21135967Y-16232388D02*
X21126444Y-16194293D01*
X21126444Y-16194293D02*
X21126444Y-16146674D01*
X21126444Y-16146674D02*
X21135967Y-16108579D01*
X21135967Y-16108579D02*
X21145491Y-16089531D01*
X21145491Y-16089531D02*
X21155015Y-16080008D01*
X21155015Y-16080008D02*
X21174063Y-16070484D01*
X21364539Y-16070484D02*
X21383586Y-16070484D01*
X21383586Y-16070484D02*
X21402634Y-16080008D01*
X21402634Y-16080008D02*
X21412158Y-16089531D01*
X21412158Y-16089531D02*
X21421682Y-16108579D01*
X21421682Y-16108579D02*
X21431205Y-16146674D01*
X21431205Y-16146674D02*
X21431205Y-16194293D01*
X21431205Y-16194293D02*
X21421682Y-16232388D01*
X21421682Y-16232388D02*
X21412158Y-16251436D01*
X21412158Y-16251436D02*
X21402634Y-16260960D01*
X21402634Y-16260960D02*
X21383586Y-16270484D01*
X21383586Y-16270484D02*
X21364539Y-16270484D01*
X21364539Y-16270484D02*
X21345491Y-16260960D01*
X21345491Y-16260960D02*
X21335967Y-16251436D01*
X21335967Y-16251436D02*
X21326444Y-16232388D01*
X21326444Y-16232388D02*
X21316920Y-16194293D01*
X21316920Y-16194293D02*
X21316920Y-16146674D01*
X21316920Y-16146674D02*
X21326444Y-16108579D01*
X21326444Y-16108579D02*
X21335967Y-16089531D01*
X21335967Y-16089531D02*
X21345491Y-16080008D01*
X21345491Y-16080008D02*
X21364539Y-16070484D01*
X21516920Y-16270484D02*
X21516920Y-16137150D01*
X21516920Y-16156198D02*
X21526444Y-16146674D01*
X21526444Y-16146674D02*
X21545491Y-16137150D01*
X21545491Y-16137150D02*
X21574063Y-16137150D01*
X21574063Y-16137150D02*
X21593110Y-16146674D01*
X21593110Y-16146674D02*
X21602634Y-16165722D01*
X21602634Y-16165722D02*
X21602634Y-16270484D01*
X21602634Y-16165722D02*
X21612158Y-16146674D01*
X21612158Y-16146674D02*
X21631205Y-16137150D01*
X21631205Y-16137150D02*
X21659777Y-16137150D01*
X21659777Y-16137150D02*
X21678825Y-16146674D01*
X21678825Y-16146674D02*
X21688348Y-16165722D01*
X21688348Y-16165722D02*
X21688348Y-16270484D01*
X21783586Y-16270484D02*
X21783586Y-16137150D01*
X21783586Y-16156198D02*
X21793110Y-16146674D01*
X21793110Y-16146674D02*
X21812158Y-16137150D01*
X21812158Y-16137150D02*
X21840729Y-16137150D01*
X21840729Y-16137150D02*
X21859777Y-16146674D01*
X21859777Y-16146674D02*
X21869301Y-16165722D01*
X21869301Y-16165722D02*
X21869301Y-16270484D01*
X21869301Y-16165722D02*
X21878825Y-16146674D01*
X21878825Y-16146674D02*
X21897872Y-16137150D01*
X21897872Y-16137150D02*
X21926444Y-16137150D01*
X21926444Y-16137150D02*
X21945491Y-16146674D01*
X21945491Y-16146674D02*
X21955015Y-16165722D01*
X21955015Y-16165722D02*
X21955015Y-16270484D01*
X22345491Y-16060960D02*
X22174063Y-16318103D01*
X22602634Y-16070484D02*
X22621682Y-16070484D01*
X22621682Y-16070484D02*
X22640729Y-16080008D01*
X22640729Y-16080008D02*
X22650253Y-16089531D01*
X22650253Y-16089531D02*
X22659777Y-16108579D01*
X22659777Y-16108579D02*
X22669301Y-16146674D01*
X22669301Y-16146674D02*
X22669301Y-16194293D01*
X22669301Y-16194293D02*
X22659777Y-16232388D01*
X22659777Y-16232388D02*
X22650253Y-16251436D01*
X22650253Y-16251436D02*
X22640729Y-16260960D01*
X22640729Y-16260960D02*
X22621682Y-16270484D01*
X22621682Y-16270484D02*
X22602634Y-16270484D01*
X22602634Y-16270484D02*
X22583586Y-16260960D01*
X22583586Y-16260960D02*
X22574063Y-16251436D01*
X22574063Y-16251436D02*
X22564539Y-16232388D01*
X22564539Y-16232388D02*
X22555015Y-16194293D01*
X22555015Y-16194293D02*
X22555015Y-16146674D01*
X22555015Y-16146674D02*
X22564539Y-16108579D01*
X22564539Y-16108579D02*
X22574063Y-16089531D01*
X22574063Y-16089531D02*
X22583586Y-16080008D01*
X22583586Y-16080008D02*
X22602634Y-16070484D01*
X22755015Y-16251436D02*
X22764539Y-16260960D01*
X22764539Y-16260960D02*
X22755015Y-16270484D01*
X22755015Y-16270484D02*
X22745491Y-16260960D01*
X22745491Y-16260960D02*
X22755015Y-16251436D01*
X22755015Y-16251436D02*
X22755015Y-16270484D01*
X22888348Y-16070484D02*
X22907396Y-16070484D01*
X22907396Y-16070484D02*
X22926444Y-16080008D01*
X22926444Y-16080008D02*
X22935967Y-16089531D01*
X22935967Y-16089531D02*
X22945491Y-16108579D01*
X22945491Y-16108579D02*
X22955015Y-16146674D01*
X22955015Y-16146674D02*
X22955015Y-16194293D01*
X22955015Y-16194293D02*
X22945491Y-16232388D01*
X22945491Y-16232388D02*
X22935967Y-16251436D01*
X22935967Y-16251436D02*
X22926444Y-16260960D01*
X22926444Y-16260960D02*
X22907396Y-16270484D01*
X22907396Y-16270484D02*
X22888348Y-16270484D01*
X22888348Y-16270484D02*
X22869301Y-16260960D01*
X22869301Y-16260960D02*
X22859777Y-16251436D01*
X22859777Y-16251436D02*
X22850253Y-16232388D01*
X22850253Y-16232388D02*
X22840729Y-16194293D01*
X22840729Y-16194293D02*
X22840729Y-16146674D01*
X22840729Y-16146674D02*
X22850253Y-16108579D01*
X22850253Y-16108579D02*
X22859777Y-16089531D01*
X22859777Y-16089531D02*
X22869301Y-16080008D01*
X22869301Y-16080008D02*
X22888348Y-16070484D01*
X23050253Y-16270484D02*
X23088348Y-16270484D01*
X23088348Y-16270484D02*
X23107396Y-16260960D01*
X23107396Y-16260960D02*
X23116920Y-16251436D01*
X23116920Y-16251436D02*
X23135967Y-16222865D01*
X23135967Y-16222865D02*
X23145491Y-16184769D01*
X23145491Y-16184769D02*
X23145491Y-16108579D01*
X23145491Y-16108579D02*
X23135967Y-16089531D01*
X23135967Y-16089531D02*
X23126444Y-16080008D01*
X23126444Y-16080008D02*
X23107396Y-16070484D01*
X23107396Y-16070484D02*
X23069301Y-16070484D01*
X23069301Y-16070484D02*
X23050253Y-16080008D01*
X23050253Y-16080008D02*
X23040729Y-16089531D01*
X23040729Y-16089531D02*
X23031206Y-16108579D01*
X23031206Y-16108579D02*
X23031206Y-16156198D01*
X23031206Y-16156198D02*
X23040729Y-16175246D01*
X23040729Y-16175246D02*
X23050253Y-16184769D01*
X23050253Y-16184769D02*
X23069301Y-16194293D01*
X23069301Y-16194293D02*
X23107396Y-16194293D01*
X23107396Y-16194293D02*
X23126444Y-16184769D01*
X23126444Y-16184769D02*
X23135967Y-16175246D01*
X23135967Y-16175246D02*
X23145491Y-16156198D01*
X23259777Y-16156198D02*
X23240729Y-16146674D01*
X23240729Y-16146674D02*
X23231206Y-16137150D01*
X23231206Y-16137150D02*
X23221682Y-16118103D01*
X23221682Y-16118103D02*
X23221682Y-16108579D01*
X23221682Y-16108579D02*
X23231206Y-16089531D01*
X23231206Y-16089531D02*
X23240729Y-16080008D01*
X23240729Y-16080008D02*
X23259777Y-16070484D01*
X23259777Y-16070484D02*
X23297872Y-16070484D01*
X23297872Y-16070484D02*
X23316920Y-16080008D01*
X23316920Y-16080008D02*
X23326444Y-16089531D01*
X23326444Y-16089531D02*
X23335967Y-16108579D01*
X23335967Y-16108579D02*
X23335967Y-16118103D01*
X23335967Y-16118103D02*
X23326444Y-16137150D01*
X23326444Y-16137150D02*
X23316920Y-16146674D01*
X23316920Y-16146674D02*
X23297872Y-16156198D01*
X23297872Y-16156198D02*
X23259777Y-16156198D01*
X23259777Y-16156198D02*
X23240729Y-16165722D01*
X23240729Y-16165722D02*
X23231206Y-16175246D01*
X23231206Y-16175246D02*
X23221682Y-16194293D01*
X23221682Y-16194293D02*
X23221682Y-16232388D01*
X23221682Y-16232388D02*
X23231206Y-16251436D01*
X23231206Y-16251436D02*
X23240729Y-16260960D01*
X23240729Y-16260960D02*
X23259777Y-16270484D01*
X23259777Y-16270484D02*
X23297872Y-16270484D01*
X23297872Y-16270484D02*
X23316920Y-16260960D01*
X23316920Y-16260960D02*
X23326444Y-16251436D01*
X23326444Y-16251436D02*
X23335967Y-16232388D01*
X23335967Y-16232388D02*
X23335967Y-16194293D01*
X23335967Y-16194293D02*
X23326444Y-16175246D01*
X23326444Y-16175246D02*
X23316920Y-16165722D01*
X23316920Y-16165722D02*
X23297872Y-16156198D01*
X23507396Y-16137150D02*
X23507396Y-16270484D01*
X23459777Y-16060960D02*
X23412158Y-16203817D01*
X23412158Y-16203817D02*
X23535967Y-16203817D01*
X23602634Y-16070484D02*
X23602634Y-16108579D01*
X23678825Y-16070484D02*
X23678825Y-16108579D01*
X23974063Y-16346674D02*
X23964539Y-16337150D01*
X23964539Y-16337150D02*
X23945491Y-16308579D01*
X23945491Y-16308579D02*
X23935968Y-16289531D01*
X23935968Y-16289531D02*
X23926444Y-16260960D01*
X23926444Y-16260960D02*
X23916920Y-16213341D01*
X23916920Y-16213341D02*
X23916920Y-16175246D01*
X23916920Y-16175246D02*
X23926444Y-16127627D01*
X23926444Y-16127627D02*
X23935968Y-16099055D01*
X23935968Y-16099055D02*
X23945491Y-16080008D01*
X23945491Y-16080008D02*
X23964539Y-16051436D01*
X23964539Y-16051436D02*
X23974063Y-16041912D01*
X24031206Y-16070484D02*
X24164539Y-16070484D01*
X24164539Y-16070484D02*
X24078825Y-16270484D01*
X24393110Y-16270484D02*
X24393110Y-16070484D01*
X24478825Y-16270484D02*
X24478825Y-16165722D01*
X24478825Y-16165722D02*
X24469301Y-16146674D01*
X24469301Y-16146674D02*
X24450253Y-16137150D01*
X24450253Y-16137150D02*
X24421682Y-16137150D01*
X24421682Y-16137150D02*
X24402634Y-16146674D01*
X24402634Y-16146674D02*
X24393110Y-16156198D01*
X24602634Y-16270484D02*
X24583587Y-16260960D01*
X24583587Y-16260960D02*
X24574063Y-16251436D01*
X24574063Y-16251436D02*
X24564539Y-16232388D01*
X24564539Y-16232388D02*
X24564539Y-16175246D01*
X24564539Y-16175246D02*
X24574063Y-16156198D01*
X24574063Y-16156198D02*
X24583587Y-16146674D01*
X24583587Y-16146674D02*
X24602634Y-16137150D01*
X24602634Y-16137150D02*
X24631206Y-16137150D01*
X24631206Y-16137150D02*
X24650253Y-16146674D01*
X24650253Y-16146674D02*
X24659777Y-16156198D01*
X24659777Y-16156198D02*
X24669301Y-16175246D01*
X24669301Y-16175246D02*
X24669301Y-16232388D01*
X24669301Y-16232388D02*
X24659777Y-16251436D01*
X24659777Y-16251436D02*
X24650253Y-16260960D01*
X24650253Y-16260960D02*
X24631206Y-16270484D01*
X24631206Y-16270484D02*
X24602634Y-16270484D01*
X24783587Y-16270484D02*
X24764539Y-16260960D01*
X24764539Y-16260960D02*
X24755015Y-16241912D01*
X24755015Y-16241912D02*
X24755015Y-16070484D01*
X24935968Y-16260960D02*
X24916920Y-16270484D01*
X24916920Y-16270484D02*
X24878825Y-16270484D01*
X24878825Y-16270484D02*
X24859777Y-16260960D01*
X24859777Y-16260960D02*
X24850253Y-16241912D01*
X24850253Y-16241912D02*
X24850253Y-16165722D01*
X24850253Y-16165722D02*
X24859777Y-16146674D01*
X24859777Y-16146674D02*
X24878825Y-16137150D01*
X24878825Y-16137150D02*
X24916920Y-16137150D01*
X24916920Y-16137150D02*
X24935968Y-16146674D01*
X24935968Y-16146674D02*
X24945491Y-16165722D01*
X24945491Y-16165722D02*
X24945491Y-16184769D01*
X24945491Y-16184769D02*
X24850253Y-16203817D01*
X25021682Y-16260960D02*
X25040730Y-16270484D01*
X25040730Y-16270484D02*
X25078825Y-16270484D01*
X25078825Y-16270484D02*
X25097872Y-16260960D01*
X25097872Y-16260960D02*
X25107396Y-16241912D01*
X25107396Y-16241912D02*
X25107396Y-16232388D01*
X25107396Y-16232388D02*
X25097872Y-16213341D01*
X25097872Y-16213341D02*
X25078825Y-16203817D01*
X25078825Y-16203817D02*
X25050253Y-16203817D01*
X25050253Y-16203817D02*
X25031206Y-16194293D01*
X25031206Y-16194293D02*
X25021682Y-16175246D01*
X25021682Y-16175246D02*
X25021682Y-16165722D01*
X25021682Y-16165722D02*
X25031206Y-16146674D01*
X25031206Y-16146674D02*
X25050253Y-16137150D01*
X25050253Y-16137150D02*
X25078825Y-16137150D01*
X25078825Y-16137150D02*
X25097872Y-16146674D01*
X25174063Y-16346674D02*
X25183587Y-16337150D01*
X25183587Y-16337150D02*
X25202634Y-16308579D01*
X25202634Y-16308579D02*
X25212158Y-16289531D01*
X25212158Y-16289531D02*
X25221682Y-16260960D01*
X25221682Y-16260960D02*
X25231206Y-16213341D01*
X25231206Y-16213341D02*
X25231206Y-16175246D01*
X25231206Y-16175246D02*
X25221682Y-16127627D01*
X25221682Y-16127627D02*
X25212158Y-16099055D01*
X25212158Y-16099055D02*
X25202634Y-16080008D01*
X25202634Y-16080008D02*
X25183587Y-16051436D01*
X25183587Y-16051436D02*
X25174063Y-16041912D01*
M02*
