%TF.GenerationSoftware,KiCad,Pcbnew,8.0.7*%
%TF.CreationDate,2024-12-12T07:23:30-07:00*%
%TF.ProjectId,Yule screamer,59756c65-2073-4637-9265-616d65722e6b,rev?*%
%TF.SameCoordinates,Original*%
%TF.FileFunction,Legend,Top*%
%TF.FilePolarity,Positive*%
%FSLAX46Y46*%
G04 Gerber Fmt 4.6, Leading zero omitted, Abs format (unit mm)*
G04 Created by KiCad (PCBNEW 8.0.7) date 2024-12-12 07:23:30*
%MOMM*%
%LPD*%
G01*
G04 APERTURE LIST*
%ADD10C,0.100000*%
%ADD11C,0.150000*%
%ADD12C,0.300000*%
%ADD13C,0.400000*%
%ADD14C,0.092659*%
%ADD15C,0.121920*%
%ADD16C,0.120000*%
%ADD17C,0.127000*%
%ADD18C,0.152400*%
G04 APERTURE END LIST*
D10*
D11*
X177002200Y-166007200D02*
X285002200Y-166007200D01*
X285002200Y-198007200D01*
X177002200Y-198007200D01*
X177002200Y-166007200D01*
D10*
D11*
X10000000Y-10000000D02*
X287002200Y-10000000D01*
X287002200Y-200007200D01*
X10000000Y-200007200D01*
X10000000Y-10000000D01*
D10*
D11*
X12000000Y-12000000D02*
X285002200Y-12000000D01*
X285002200Y-198007200D01*
X12000000Y-198007200D01*
X12000000Y-12000000D01*
D10*
D11*
X60000000Y-12000000D02*
X60000000Y-10000000D01*
D10*
D11*
X110000000Y-12000000D02*
X110000000Y-10000000D01*
D10*
D11*
X160000000Y-12000000D02*
X160000000Y-10000000D01*
D10*
D11*
X210000000Y-12000000D02*
X210000000Y-10000000D01*
D10*
D11*
X260000000Y-12000000D02*
X260000000Y-10000000D01*
D10*
D11*
X36089160Y-11593604D02*
X35346303Y-11593604D01*
X35717731Y-11593604D02*
X35717731Y-10293604D01*
X35717731Y-10293604D02*
X35593922Y-10479319D01*
X35593922Y-10479319D02*
X35470112Y-10603128D01*
X35470112Y-10603128D02*
X35346303Y-10665033D01*
D10*
D11*
X85346303Y-10417414D02*
X85408207Y-10355509D01*
X85408207Y-10355509D02*
X85532017Y-10293604D01*
X85532017Y-10293604D02*
X85841541Y-10293604D01*
X85841541Y-10293604D02*
X85965350Y-10355509D01*
X85965350Y-10355509D02*
X86027255Y-10417414D01*
X86027255Y-10417414D02*
X86089160Y-10541223D01*
X86089160Y-10541223D02*
X86089160Y-10665033D01*
X86089160Y-10665033D02*
X86027255Y-10850747D01*
X86027255Y-10850747D02*
X85284398Y-11593604D01*
X85284398Y-11593604D02*
X86089160Y-11593604D01*
D10*
D11*
X135284398Y-10293604D02*
X136089160Y-10293604D01*
X136089160Y-10293604D02*
X135655826Y-10788842D01*
X135655826Y-10788842D02*
X135841541Y-10788842D01*
X135841541Y-10788842D02*
X135965350Y-10850747D01*
X135965350Y-10850747D02*
X136027255Y-10912652D01*
X136027255Y-10912652D02*
X136089160Y-11036461D01*
X136089160Y-11036461D02*
X136089160Y-11345985D01*
X136089160Y-11345985D02*
X136027255Y-11469795D01*
X136027255Y-11469795D02*
X135965350Y-11531700D01*
X135965350Y-11531700D02*
X135841541Y-11593604D01*
X135841541Y-11593604D02*
X135470112Y-11593604D01*
X135470112Y-11593604D02*
X135346303Y-11531700D01*
X135346303Y-11531700D02*
X135284398Y-11469795D01*
D10*
D11*
X185965350Y-10726938D02*
X185965350Y-11593604D01*
X185655826Y-10231700D02*
X185346303Y-11160271D01*
X185346303Y-11160271D02*
X186151064Y-11160271D01*
D10*
D11*
X236027255Y-10293604D02*
X235408207Y-10293604D01*
X235408207Y-10293604D02*
X235346303Y-10912652D01*
X235346303Y-10912652D02*
X235408207Y-10850747D01*
X235408207Y-10850747D02*
X235532017Y-10788842D01*
X235532017Y-10788842D02*
X235841541Y-10788842D01*
X235841541Y-10788842D02*
X235965350Y-10850747D01*
X235965350Y-10850747D02*
X236027255Y-10912652D01*
X236027255Y-10912652D02*
X236089160Y-11036461D01*
X236089160Y-11036461D02*
X236089160Y-11345985D01*
X236089160Y-11345985D02*
X236027255Y-11469795D01*
X236027255Y-11469795D02*
X235965350Y-11531700D01*
X235965350Y-11531700D02*
X235841541Y-11593604D01*
X235841541Y-11593604D02*
X235532017Y-11593604D01*
X235532017Y-11593604D02*
X235408207Y-11531700D01*
X235408207Y-11531700D02*
X235346303Y-11469795D01*
D10*
D11*
X285965350Y-10293604D02*
X285717731Y-10293604D01*
X285717731Y-10293604D02*
X285593922Y-10355509D01*
X285593922Y-10355509D02*
X285532017Y-10417414D01*
X285532017Y-10417414D02*
X285408207Y-10603128D01*
X285408207Y-10603128D02*
X285346303Y-10850747D01*
X285346303Y-10850747D02*
X285346303Y-11345985D01*
X285346303Y-11345985D02*
X285408207Y-11469795D01*
X285408207Y-11469795D02*
X285470112Y-11531700D01*
X285470112Y-11531700D02*
X285593922Y-11593604D01*
X285593922Y-11593604D02*
X285841541Y-11593604D01*
X285841541Y-11593604D02*
X285965350Y-11531700D01*
X285965350Y-11531700D02*
X286027255Y-11469795D01*
X286027255Y-11469795D02*
X286089160Y-11345985D01*
X286089160Y-11345985D02*
X286089160Y-11036461D01*
X286089160Y-11036461D02*
X286027255Y-10912652D01*
X286027255Y-10912652D02*
X285965350Y-10850747D01*
X285965350Y-10850747D02*
X285841541Y-10788842D01*
X285841541Y-10788842D02*
X285593922Y-10788842D01*
X285593922Y-10788842D02*
X285470112Y-10850747D01*
X285470112Y-10850747D02*
X285408207Y-10912652D01*
X285408207Y-10912652D02*
X285346303Y-11036461D01*
D10*
D11*
X60000000Y-198007200D02*
X60000000Y-200007200D01*
D10*
D11*
X110000000Y-198007200D02*
X110000000Y-200007200D01*
D10*
D11*
X160000000Y-198007200D02*
X160000000Y-200007200D01*
D10*
D11*
X210000000Y-198007200D02*
X210000000Y-200007200D01*
D10*
D11*
X260000000Y-198007200D02*
X260000000Y-200007200D01*
D10*
D11*
X36089160Y-199600804D02*
X35346303Y-199600804D01*
X35717731Y-199600804D02*
X35717731Y-198300804D01*
X35717731Y-198300804D02*
X35593922Y-198486519D01*
X35593922Y-198486519D02*
X35470112Y-198610328D01*
X35470112Y-198610328D02*
X35346303Y-198672233D01*
D10*
D11*
X85346303Y-198424614D02*
X85408207Y-198362709D01*
X85408207Y-198362709D02*
X85532017Y-198300804D01*
X85532017Y-198300804D02*
X85841541Y-198300804D01*
X85841541Y-198300804D02*
X85965350Y-198362709D01*
X85965350Y-198362709D02*
X86027255Y-198424614D01*
X86027255Y-198424614D02*
X86089160Y-198548423D01*
X86089160Y-198548423D02*
X86089160Y-198672233D01*
X86089160Y-198672233D02*
X86027255Y-198857947D01*
X86027255Y-198857947D02*
X85284398Y-199600804D01*
X85284398Y-199600804D02*
X86089160Y-199600804D01*
D10*
D11*
X135284398Y-198300804D02*
X136089160Y-198300804D01*
X136089160Y-198300804D02*
X135655826Y-198796042D01*
X135655826Y-198796042D02*
X135841541Y-198796042D01*
X135841541Y-198796042D02*
X135965350Y-198857947D01*
X135965350Y-198857947D02*
X136027255Y-198919852D01*
X136027255Y-198919852D02*
X136089160Y-199043661D01*
X136089160Y-199043661D02*
X136089160Y-199353185D01*
X136089160Y-199353185D02*
X136027255Y-199476995D01*
X136027255Y-199476995D02*
X135965350Y-199538900D01*
X135965350Y-199538900D02*
X135841541Y-199600804D01*
X135841541Y-199600804D02*
X135470112Y-199600804D01*
X135470112Y-199600804D02*
X135346303Y-199538900D01*
X135346303Y-199538900D02*
X135284398Y-199476995D01*
D10*
D11*
X185965350Y-198734138D02*
X185965350Y-199600804D01*
X185655826Y-198238900D02*
X185346303Y-199167471D01*
X185346303Y-199167471D02*
X186151064Y-199167471D01*
D10*
D11*
X236027255Y-198300804D02*
X235408207Y-198300804D01*
X235408207Y-198300804D02*
X235346303Y-198919852D01*
X235346303Y-198919852D02*
X235408207Y-198857947D01*
X235408207Y-198857947D02*
X235532017Y-198796042D01*
X235532017Y-198796042D02*
X235841541Y-198796042D01*
X235841541Y-198796042D02*
X235965350Y-198857947D01*
X235965350Y-198857947D02*
X236027255Y-198919852D01*
X236027255Y-198919852D02*
X236089160Y-199043661D01*
X236089160Y-199043661D02*
X236089160Y-199353185D01*
X236089160Y-199353185D02*
X236027255Y-199476995D01*
X236027255Y-199476995D02*
X235965350Y-199538900D01*
X235965350Y-199538900D02*
X235841541Y-199600804D01*
X235841541Y-199600804D02*
X235532017Y-199600804D01*
X235532017Y-199600804D02*
X235408207Y-199538900D01*
X235408207Y-199538900D02*
X235346303Y-199476995D01*
D10*
D11*
X285965350Y-198300804D02*
X285717731Y-198300804D01*
X285717731Y-198300804D02*
X285593922Y-198362709D01*
X285593922Y-198362709D02*
X285532017Y-198424614D01*
X285532017Y-198424614D02*
X285408207Y-198610328D01*
X285408207Y-198610328D02*
X285346303Y-198857947D01*
X285346303Y-198857947D02*
X285346303Y-199353185D01*
X285346303Y-199353185D02*
X285408207Y-199476995D01*
X285408207Y-199476995D02*
X285470112Y-199538900D01*
X285470112Y-199538900D02*
X285593922Y-199600804D01*
X285593922Y-199600804D02*
X285841541Y-199600804D01*
X285841541Y-199600804D02*
X285965350Y-199538900D01*
X285965350Y-199538900D02*
X286027255Y-199476995D01*
X286027255Y-199476995D02*
X286089160Y-199353185D01*
X286089160Y-199353185D02*
X286089160Y-199043661D01*
X286089160Y-199043661D02*
X286027255Y-198919852D01*
X286027255Y-198919852D02*
X285965350Y-198857947D01*
X285965350Y-198857947D02*
X285841541Y-198796042D01*
X285841541Y-198796042D02*
X285593922Y-198796042D01*
X285593922Y-198796042D02*
X285470112Y-198857947D01*
X285470112Y-198857947D02*
X285408207Y-198919852D01*
X285408207Y-198919852D02*
X285346303Y-199043661D01*
D10*
D11*
X10000000Y-60000000D02*
X12000000Y-60000000D01*
D10*
D11*
X10000000Y-110000000D02*
X12000000Y-110000000D01*
D10*
D11*
X10000000Y-160000000D02*
X12000000Y-160000000D01*
D10*
D11*
X10690476Y-35222176D02*
X11309523Y-35222176D01*
X10566666Y-35593604D02*
X10999999Y-34293604D01*
X10999999Y-34293604D02*
X11433333Y-35593604D01*
D10*
D11*
X11092857Y-84912652D02*
X11278571Y-84974557D01*
X11278571Y-84974557D02*
X11340476Y-85036461D01*
X11340476Y-85036461D02*
X11402380Y-85160271D01*
X11402380Y-85160271D02*
X11402380Y-85345985D01*
X11402380Y-85345985D02*
X11340476Y-85469795D01*
X11340476Y-85469795D02*
X11278571Y-85531700D01*
X11278571Y-85531700D02*
X11154761Y-85593604D01*
X11154761Y-85593604D02*
X10659523Y-85593604D01*
X10659523Y-85593604D02*
X10659523Y-84293604D01*
X10659523Y-84293604D02*
X11092857Y-84293604D01*
X11092857Y-84293604D02*
X11216666Y-84355509D01*
X11216666Y-84355509D02*
X11278571Y-84417414D01*
X11278571Y-84417414D02*
X11340476Y-84541223D01*
X11340476Y-84541223D02*
X11340476Y-84665033D01*
X11340476Y-84665033D02*
X11278571Y-84788842D01*
X11278571Y-84788842D02*
X11216666Y-84850747D01*
X11216666Y-84850747D02*
X11092857Y-84912652D01*
X11092857Y-84912652D02*
X10659523Y-84912652D01*
D10*
D11*
X11402380Y-135469795D02*
X11340476Y-135531700D01*
X11340476Y-135531700D02*
X11154761Y-135593604D01*
X11154761Y-135593604D02*
X11030952Y-135593604D01*
X11030952Y-135593604D02*
X10845238Y-135531700D01*
X10845238Y-135531700D02*
X10721428Y-135407890D01*
X10721428Y-135407890D02*
X10659523Y-135284080D01*
X10659523Y-135284080D02*
X10597619Y-135036461D01*
X10597619Y-135036461D02*
X10597619Y-134850747D01*
X10597619Y-134850747D02*
X10659523Y-134603128D01*
X10659523Y-134603128D02*
X10721428Y-134479319D01*
X10721428Y-134479319D02*
X10845238Y-134355509D01*
X10845238Y-134355509D02*
X11030952Y-134293604D01*
X11030952Y-134293604D02*
X11154761Y-134293604D01*
X11154761Y-134293604D02*
X11340476Y-134355509D01*
X11340476Y-134355509D02*
X11402380Y-134417414D01*
D10*
D11*
X10659523Y-185593604D02*
X10659523Y-184293604D01*
X10659523Y-184293604D02*
X10969047Y-184293604D01*
X10969047Y-184293604D02*
X11154761Y-184355509D01*
X11154761Y-184355509D02*
X11278571Y-184479319D01*
X11278571Y-184479319D02*
X11340476Y-184603128D01*
X11340476Y-184603128D02*
X11402380Y-184850747D01*
X11402380Y-184850747D02*
X11402380Y-185036461D01*
X11402380Y-185036461D02*
X11340476Y-185284080D01*
X11340476Y-185284080D02*
X11278571Y-185407890D01*
X11278571Y-185407890D02*
X11154761Y-185531700D01*
X11154761Y-185531700D02*
X10969047Y-185593604D01*
X10969047Y-185593604D02*
X10659523Y-185593604D01*
D10*
D11*
X287002200Y-60000000D02*
X285002200Y-60000000D01*
D10*
D11*
X287002200Y-110000000D02*
X285002200Y-110000000D01*
D10*
D11*
X287002200Y-160000000D02*
X285002200Y-160000000D01*
D10*
D11*
X285692676Y-35222176D02*
X286311723Y-35222176D01*
X285568866Y-35593604D02*
X286002199Y-34293604D01*
X286002199Y-34293604D02*
X286435533Y-35593604D01*
D10*
D11*
X286095057Y-84912652D02*
X286280771Y-84974557D01*
X286280771Y-84974557D02*
X286342676Y-85036461D01*
X286342676Y-85036461D02*
X286404580Y-85160271D01*
X286404580Y-85160271D02*
X286404580Y-85345985D01*
X286404580Y-85345985D02*
X286342676Y-85469795D01*
X286342676Y-85469795D02*
X286280771Y-85531700D01*
X286280771Y-85531700D02*
X286156961Y-85593604D01*
X286156961Y-85593604D02*
X285661723Y-85593604D01*
X285661723Y-85593604D02*
X285661723Y-84293604D01*
X285661723Y-84293604D02*
X286095057Y-84293604D01*
X286095057Y-84293604D02*
X286218866Y-84355509D01*
X286218866Y-84355509D02*
X286280771Y-84417414D01*
X286280771Y-84417414D02*
X286342676Y-84541223D01*
X286342676Y-84541223D02*
X286342676Y-84665033D01*
X286342676Y-84665033D02*
X286280771Y-84788842D01*
X286280771Y-84788842D02*
X286218866Y-84850747D01*
X286218866Y-84850747D02*
X286095057Y-84912652D01*
X286095057Y-84912652D02*
X285661723Y-84912652D01*
D10*
D11*
X286404580Y-135469795D02*
X286342676Y-135531700D01*
X286342676Y-135531700D02*
X286156961Y-135593604D01*
X286156961Y-135593604D02*
X286033152Y-135593604D01*
X286033152Y-135593604D02*
X285847438Y-135531700D01*
X285847438Y-135531700D02*
X285723628Y-135407890D01*
X285723628Y-135407890D02*
X285661723Y-135284080D01*
X285661723Y-135284080D02*
X285599819Y-135036461D01*
X285599819Y-135036461D02*
X285599819Y-134850747D01*
X285599819Y-134850747D02*
X285661723Y-134603128D01*
X285661723Y-134603128D02*
X285723628Y-134479319D01*
X285723628Y-134479319D02*
X285847438Y-134355509D01*
X285847438Y-134355509D02*
X286033152Y-134293604D01*
X286033152Y-134293604D02*
X286156961Y-134293604D01*
X286156961Y-134293604D02*
X286342676Y-134355509D01*
X286342676Y-134355509D02*
X286404580Y-134417414D01*
D10*
D11*
X285661723Y-185593604D02*
X285661723Y-184293604D01*
X285661723Y-184293604D02*
X285971247Y-184293604D01*
X285971247Y-184293604D02*
X286156961Y-184355509D01*
X286156961Y-184355509D02*
X286280771Y-184479319D01*
X286280771Y-184479319D02*
X286342676Y-184603128D01*
X286342676Y-184603128D02*
X286404580Y-184850747D01*
X286404580Y-184850747D02*
X286404580Y-185036461D01*
X286404580Y-185036461D02*
X286342676Y-185284080D01*
X286342676Y-185284080D02*
X286280771Y-185407890D01*
X286280771Y-185407890D02*
X286156961Y-185531700D01*
X286156961Y-185531700D02*
X285971247Y-185593604D01*
X285971247Y-185593604D02*
X285661723Y-185593604D01*
D10*
D11*
X200458026Y-193793328D02*
X200458026Y-192293328D01*
X200458026Y-192293328D02*
X200815169Y-192293328D01*
X200815169Y-192293328D02*
X201029455Y-192364757D01*
X201029455Y-192364757D02*
X201172312Y-192507614D01*
X201172312Y-192507614D02*
X201243741Y-192650471D01*
X201243741Y-192650471D02*
X201315169Y-192936185D01*
X201315169Y-192936185D02*
X201315169Y-193150471D01*
X201315169Y-193150471D02*
X201243741Y-193436185D01*
X201243741Y-193436185D02*
X201172312Y-193579042D01*
X201172312Y-193579042D02*
X201029455Y-193721900D01*
X201029455Y-193721900D02*
X200815169Y-193793328D01*
X200815169Y-193793328D02*
X200458026Y-193793328D01*
X202600884Y-193793328D02*
X202600884Y-193007614D01*
X202600884Y-193007614D02*
X202529455Y-192864757D01*
X202529455Y-192864757D02*
X202386598Y-192793328D01*
X202386598Y-192793328D02*
X202100884Y-192793328D01*
X202100884Y-192793328D02*
X201958026Y-192864757D01*
X202600884Y-193721900D02*
X202458026Y-193793328D01*
X202458026Y-193793328D02*
X202100884Y-193793328D01*
X202100884Y-193793328D02*
X201958026Y-193721900D01*
X201958026Y-193721900D02*
X201886598Y-193579042D01*
X201886598Y-193579042D02*
X201886598Y-193436185D01*
X201886598Y-193436185D02*
X201958026Y-193293328D01*
X201958026Y-193293328D02*
X202100884Y-193221900D01*
X202100884Y-193221900D02*
X202458026Y-193221900D01*
X202458026Y-193221900D02*
X202600884Y-193150471D01*
X203100884Y-192793328D02*
X203672312Y-192793328D01*
X203315169Y-192293328D02*
X203315169Y-193579042D01*
X203315169Y-193579042D02*
X203386598Y-193721900D01*
X203386598Y-193721900D02*
X203529455Y-193793328D01*
X203529455Y-193793328D02*
X203672312Y-193793328D01*
X204743741Y-193721900D02*
X204600884Y-193793328D01*
X204600884Y-193793328D02*
X204315170Y-193793328D01*
X204315170Y-193793328D02*
X204172312Y-193721900D01*
X204172312Y-193721900D02*
X204100884Y-193579042D01*
X204100884Y-193579042D02*
X204100884Y-193007614D01*
X204100884Y-193007614D02*
X204172312Y-192864757D01*
X204172312Y-192864757D02*
X204315170Y-192793328D01*
X204315170Y-192793328D02*
X204600884Y-192793328D01*
X204600884Y-192793328D02*
X204743741Y-192864757D01*
X204743741Y-192864757D02*
X204815170Y-193007614D01*
X204815170Y-193007614D02*
X204815170Y-193150471D01*
X204815170Y-193150471D02*
X204100884Y-193293328D01*
X205458026Y-193650471D02*
X205529455Y-193721900D01*
X205529455Y-193721900D02*
X205458026Y-193793328D01*
X205458026Y-193793328D02*
X205386598Y-193721900D01*
X205386598Y-193721900D02*
X205458026Y-193650471D01*
X205458026Y-193650471D02*
X205458026Y-193793328D01*
X205458026Y-192864757D02*
X205529455Y-192936185D01*
X205529455Y-192936185D02*
X205458026Y-193007614D01*
X205458026Y-193007614D02*
X205386598Y-192936185D01*
X205386598Y-192936185D02*
X205458026Y-192864757D01*
X205458026Y-192864757D02*
X205458026Y-193007614D01*
D10*
D11*
X177002200Y-194507200D02*
X285002200Y-194507200D01*
D10*
D11*
X178458026Y-196593328D02*
X178458026Y-195093328D01*
X179315169Y-196593328D02*
X178672312Y-195736185D01*
X179315169Y-195093328D02*
X178458026Y-195950471D01*
X179958026Y-196593328D02*
X179958026Y-195593328D01*
X179958026Y-195093328D02*
X179886598Y-195164757D01*
X179886598Y-195164757D02*
X179958026Y-195236185D01*
X179958026Y-195236185D02*
X180029455Y-195164757D01*
X180029455Y-195164757D02*
X179958026Y-195093328D01*
X179958026Y-195093328D02*
X179958026Y-195236185D01*
X181529455Y-196450471D02*
X181458027Y-196521900D01*
X181458027Y-196521900D02*
X181243741Y-196593328D01*
X181243741Y-196593328D02*
X181100884Y-196593328D01*
X181100884Y-196593328D02*
X180886598Y-196521900D01*
X180886598Y-196521900D02*
X180743741Y-196379042D01*
X180743741Y-196379042D02*
X180672312Y-196236185D01*
X180672312Y-196236185D02*
X180600884Y-195950471D01*
X180600884Y-195950471D02*
X180600884Y-195736185D01*
X180600884Y-195736185D02*
X180672312Y-195450471D01*
X180672312Y-195450471D02*
X180743741Y-195307614D01*
X180743741Y-195307614D02*
X180886598Y-195164757D01*
X180886598Y-195164757D02*
X181100884Y-195093328D01*
X181100884Y-195093328D02*
X181243741Y-195093328D01*
X181243741Y-195093328D02*
X181458027Y-195164757D01*
X181458027Y-195164757D02*
X181529455Y-195236185D01*
X182815170Y-196593328D02*
X182815170Y-195807614D01*
X182815170Y-195807614D02*
X182743741Y-195664757D01*
X182743741Y-195664757D02*
X182600884Y-195593328D01*
X182600884Y-195593328D02*
X182315170Y-195593328D01*
X182315170Y-195593328D02*
X182172312Y-195664757D01*
X182815170Y-196521900D02*
X182672312Y-196593328D01*
X182672312Y-196593328D02*
X182315170Y-196593328D01*
X182315170Y-196593328D02*
X182172312Y-196521900D01*
X182172312Y-196521900D02*
X182100884Y-196379042D01*
X182100884Y-196379042D02*
X182100884Y-196236185D01*
X182100884Y-196236185D02*
X182172312Y-196093328D01*
X182172312Y-196093328D02*
X182315170Y-196021900D01*
X182315170Y-196021900D02*
X182672312Y-196021900D01*
X182672312Y-196021900D02*
X182815170Y-195950471D01*
X184172313Y-196593328D02*
X184172313Y-195093328D01*
X184172313Y-196521900D02*
X184029455Y-196593328D01*
X184029455Y-196593328D02*
X183743741Y-196593328D01*
X183743741Y-196593328D02*
X183600884Y-196521900D01*
X183600884Y-196521900D02*
X183529455Y-196450471D01*
X183529455Y-196450471D02*
X183458027Y-196307614D01*
X183458027Y-196307614D02*
X183458027Y-195879042D01*
X183458027Y-195879042D02*
X183529455Y-195736185D01*
X183529455Y-195736185D02*
X183600884Y-195664757D01*
X183600884Y-195664757D02*
X183743741Y-195593328D01*
X183743741Y-195593328D02*
X184029455Y-195593328D01*
X184029455Y-195593328D02*
X184172313Y-195664757D01*
X186029455Y-195807614D02*
X186529455Y-195807614D01*
X186743741Y-196593328D02*
X186029455Y-196593328D01*
X186029455Y-196593328D02*
X186029455Y-195093328D01*
X186029455Y-195093328D02*
X186743741Y-195093328D01*
X187386598Y-196450471D02*
X187458027Y-196521900D01*
X187458027Y-196521900D02*
X187386598Y-196593328D01*
X187386598Y-196593328D02*
X187315170Y-196521900D01*
X187315170Y-196521900D02*
X187386598Y-196450471D01*
X187386598Y-196450471D02*
X187386598Y-196593328D01*
X188100884Y-196593328D02*
X188100884Y-195093328D01*
X188100884Y-195093328D02*
X188458027Y-195093328D01*
X188458027Y-195093328D02*
X188672313Y-195164757D01*
X188672313Y-195164757D02*
X188815170Y-195307614D01*
X188815170Y-195307614D02*
X188886599Y-195450471D01*
X188886599Y-195450471D02*
X188958027Y-195736185D01*
X188958027Y-195736185D02*
X188958027Y-195950471D01*
X188958027Y-195950471D02*
X188886599Y-196236185D01*
X188886599Y-196236185D02*
X188815170Y-196379042D01*
X188815170Y-196379042D02*
X188672313Y-196521900D01*
X188672313Y-196521900D02*
X188458027Y-196593328D01*
X188458027Y-196593328D02*
X188100884Y-196593328D01*
X189600884Y-196450471D02*
X189672313Y-196521900D01*
X189672313Y-196521900D02*
X189600884Y-196593328D01*
X189600884Y-196593328D02*
X189529456Y-196521900D01*
X189529456Y-196521900D02*
X189600884Y-196450471D01*
X189600884Y-196450471D02*
X189600884Y-196593328D01*
X190243742Y-196164757D02*
X190958028Y-196164757D01*
X190100885Y-196593328D02*
X190600885Y-195093328D01*
X190600885Y-195093328D02*
X191100885Y-196593328D01*
X191600884Y-196450471D02*
X191672313Y-196521900D01*
X191672313Y-196521900D02*
X191600884Y-196593328D01*
X191600884Y-196593328D02*
X191529456Y-196521900D01*
X191529456Y-196521900D02*
X191600884Y-196450471D01*
X191600884Y-196450471D02*
X191600884Y-196593328D01*
X193672313Y-195736185D02*
X193529456Y-195664757D01*
X193529456Y-195664757D02*
X193458027Y-195593328D01*
X193458027Y-195593328D02*
X193386599Y-195450471D01*
X193386599Y-195450471D02*
X193386599Y-195379042D01*
X193386599Y-195379042D02*
X193458027Y-195236185D01*
X193458027Y-195236185D02*
X193529456Y-195164757D01*
X193529456Y-195164757D02*
X193672313Y-195093328D01*
X193672313Y-195093328D02*
X193958027Y-195093328D01*
X193958027Y-195093328D02*
X194100885Y-195164757D01*
X194100885Y-195164757D02*
X194172313Y-195236185D01*
X194172313Y-195236185D02*
X194243742Y-195379042D01*
X194243742Y-195379042D02*
X194243742Y-195450471D01*
X194243742Y-195450471D02*
X194172313Y-195593328D01*
X194172313Y-195593328D02*
X194100885Y-195664757D01*
X194100885Y-195664757D02*
X193958027Y-195736185D01*
X193958027Y-195736185D02*
X193672313Y-195736185D01*
X193672313Y-195736185D02*
X193529456Y-195807614D01*
X193529456Y-195807614D02*
X193458027Y-195879042D01*
X193458027Y-195879042D02*
X193386599Y-196021900D01*
X193386599Y-196021900D02*
X193386599Y-196307614D01*
X193386599Y-196307614D02*
X193458027Y-196450471D01*
X193458027Y-196450471D02*
X193529456Y-196521900D01*
X193529456Y-196521900D02*
X193672313Y-196593328D01*
X193672313Y-196593328D02*
X193958027Y-196593328D01*
X193958027Y-196593328D02*
X194100885Y-196521900D01*
X194100885Y-196521900D02*
X194172313Y-196450471D01*
X194172313Y-196450471D02*
X194243742Y-196307614D01*
X194243742Y-196307614D02*
X194243742Y-196021900D01*
X194243742Y-196021900D02*
X194172313Y-195879042D01*
X194172313Y-195879042D02*
X194100885Y-195807614D01*
X194100885Y-195807614D02*
X193958027Y-195736185D01*
X194886598Y-196450471D02*
X194958027Y-196521900D01*
X194958027Y-196521900D02*
X194886598Y-196593328D01*
X194886598Y-196593328D02*
X194815170Y-196521900D01*
X194815170Y-196521900D02*
X194886598Y-196450471D01*
X194886598Y-196450471D02*
X194886598Y-196593328D01*
X195886599Y-195093328D02*
X196029456Y-195093328D01*
X196029456Y-195093328D02*
X196172313Y-195164757D01*
X196172313Y-195164757D02*
X196243742Y-195236185D01*
X196243742Y-195236185D02*
X196315170Y-195379042D01*
X196315170Y-195379042D02*
X196386599Y-195664757D01*
X196386599Y-195664757D02*
X196386599Y-196021900D01*
X196386599Y-196021900D02*
X196315170Y-196307614D01*
X196315170Y-196307614D02*
X196243742Y-196450471D01*
X196243742Y-196450471D02*
X196172313Y-196521900D01*
X196172313Y-196521900D02*
X196029456Y-196593328D01*
X196029456Y-196593328D02*
X195886599Y-196593328D01*
X195886599Y-196593328D02*
X195743742Y-196521900D01*
X195743742Y-196521900D02*
X195672313Y-196450471D01*
X195672313Y-196450471D02*
X195600884Y-196307614D01*
X195600884Y-196307614D02*
X195529456Y-196021900D01*
X195529456Y-196021900D02*
X195529456Y-195664757D01*
X195529456Y-195664757D02*
X195600884Y-195379042D01*
X195600884Y-195379042D02*
X195672313Y-195236185D01*
X195672313Y-195236185D02*
X195743742Y-195164757D01*
X195743742Y-195164757D02*
X195886599Y-195093328D01*
X197029455Y-196450471D02*
X197100884Y-196521900D01*
X197100884Y-196521900D02*
X197029455Y-196593328D01*
X197029455Y-196593328D02*
X196958027Y-196521900D01*
X196958027Y-196521900D02*
X197029455Y-196450471D01*
X197029455Y-196450471D02*
X197029455Y-196593328D01*
X197600884Y-195093328D02*
X198600884Y-195093328D01*
X198600884Y-195093328D02*
X197958027Y-196593328D01*
D10*
D11*
X177002200Y-191507200D02*
X285002200Y-191507200D01*
D10*
D12*
X264413853Y-193785528D02*
X263913853Y-193071242D01*
X263556710Y-193785528D02*
X263556710Y-192285528D01*
X263556710Y-192285528D02*
X264128139Y-192285528D01*
X264128139Y-192285528D02*
X264270996Y-192356957D01*
X264270996Y-192356957D02*
X264342425Y-192428385D01*
X264342425Y-192428385D02*
X264413853Y-192571242D01*
X264413853Y-192571242D02*
X264413853Y-192785528D01*
X264413853Y-192785528D02*
X264342425Y-192928385D01*
X264342425Y-192928385D02*
X264270996Y-192999814D01*
X264270996Y-192999814D02*
X264128139Y-193071242D01*
X264128139Y-193071242D02*
X263556710Y-193071242D01*
X265628139Y-193714100D02*
X265485282Y-193785528D01*
X265485282Y-193785528D02*
X265199568Y-193785528D01*
X265199568Y-193785528D02*
X265056710Y-193714100D01*
X265056710Y-193714100D02*
X264985282Y-193571242D01*
X264985282Y-193571242D02*
X264985282Y-192999814D01*
X264985282Y-192999814D02*
X265056710Y-192856957D01*
X265056710Y-192856957D02*
X265199568Y-192785528D01*
X265199568Y-192785528D02*
X265485282Y-192785528D01*
X265485282Y-192785528D02*
X265628139Y-192856957D01*
X265628139Y-192856957D02*
X265699568Y-192999814D01*
X265699568Y-192999814D02*
X265699568Y-193142671D01*
X265699568Y-193142671D02*
X264985282Y-193285528D01*
X266199567Y-192785528D02*
X266556710Y-193785528D01*
X266556710Y-193785528D02*
X266913853Y-192785528D01*
X267485281Y-193642671D02*
X267556710Y-193714100D01*
X267556710Y-193714100D02*
X267485281Y-193785528D01*
X267485281Y-193785528D02*
X267413853Y-193714100D01*
X267413853Y-193714100D02*
X267485281Y-193642671D01*
X267485281Y-193642671D02*
X267485281Y-193785528D01*
X267485281Y-192856957D02*
X267556710Y-192928385D01*
X267556710Y-192928385D02*
X267485281Y-192999814D01*
X267485281Y-192999814D02*
X267413853Y-192928385D01*
X267413853Y-192928385D02*
X267485281Y-192856957D01*
X267485281Y-192856957D02*
X267485281Y-192999814D01*
D10*
D11*
X178386598Y-193721900D02*
X178600884Y-193793328D01*
X178600884Y-193793328D02*
X178958026Y-193793328D01*
X178958026Y-193793328D02*
X179100884Y-193721900D01*
X179100884Y-193721900D02*
X179172312Y-193650471D01*
X179172312Y-193650471D02*
X179243741Y-193507614D01*
X179243741Y-193507614D02*
X179243741Y-193364757D01*
X179243741Y-193364757D02*
X179172312Y-193221900D01*
X179172312Y-193221900D02*
X179100884Y-193150471D01*
X179100884Y-193150471D02*
X178958026Y-193079042D01*
X178958026Y-193079042D02*
X178672312Y-193007614D01*
X178672312Y-193007614D02*
X178529455Y-192936185D01*
X178529455Y-192936185D02*
X178458026Y-192864757D01*
X178458026Y-192864757D02*
X178386598Y-192721900D01*
X178386598Y-192721900D02*
X178386598Y-192579042D01*
X178386598Y-192579042D02*
X178458026Y-192436185D01*
X178458026Y-192436185D02*
X178529455Y-192364757D01*
X178529455Y-192364757D02*
X178672312Y-192293328D01*
X178672312Y-192293328D02*
X179029455Y-192293328D01*
X179029455Y-192293328D02*
X179243741Y-192364757D01*
X179886597Y-193793328D02*
X179886597Y-192793328D01*
X179886597Y-192293328D02*
X179815169Y-192364757D01*
X179815169Y-192364757D02*
X179886597Y-192436185D01*
X179886597Y-192436185D02*
X179958026Y-192364757D01*
X179958026Y-192364757D02*
X179886597Y-192293328D01*
X179886597Y-192293328D02*
X179886597Y-192436185D01*
X180458026Y-192793328D02*
X181243741Y-192793328D01*
X181243741Y-192793328D02*
X180458026Y-193793328D01*
X180458026Y-193793328D02*
X181243741Y-193793328D01*
X182386598Y-193721900D02*
X182243741Y-193793328D01*
X182243741Y-193793328D02*
X181958027Y-193793328D01*
X181958027Y-193793328D02*
X181815169Y-193721900D01*
X181815169Y-193721900D02*
X181743741Y-193579042D01*
X181743741Y-193579042D02*
X181743741Y-193007614D01*
X181743741Y-193007614D02*
X181815169Y-192864757D01*
X181815169Y-192864757D02*
X181958027Y-192793328D01*
X181958027Y-192793328D02*
X182243741Y-192793328D01*
X182243741Y-192793328D02*
X182386598Y-192864757D01*
X182386598Y-192864757D02*
X182458027Y-193007614D01*
X182458027Y-193007614D02*
X182458027Y-193150471D01*
X182458027Y-193150471D02*
X181743741Y-193293328D01*
X183100883Y-193650471D02*
X183172312Y-193721900D01*
X183172312Y-193721900D02*
X183100883Y-193793328D01*
X183100883Y-193793328D02*
X183029455Y-193721900D01*
X183029455Y-193721900D02*
X183100883Y-193650471D01*
X183100883Y-193650471D02*
X183100883Y-193793328D01*
X183100883Y-192864757D02*
X183172312Y-192936185D01*
X183172312Y-192936185D02*
X183100883Y-193007614D01*
X183100883Y-193007614D02*
X183029455Y-192936185D01*
X183029455Y-192936185D02*
X183100883Y-192864757D01*
X183100883Y-192864757D02*
X183100883Y-193007614D01*
X184886598Y-193364757D02*
X185600884Y-193364757D01*
X184743741Y-193793328D02*
X185243741Y-192293328D01*
X185243741Y-192293328D02*
X185743741Y-193793328D01*
X186886598Y-192793328D02*
X186886598Y-193793328D01*
X186529455Y-192221900D02*
X186172312Y-193293328D01*
X186172312Y-193293328D02*
X187100883Y-193293328D01*
D10*
D11*
X263458026Y-196593328D02*
X263458026Y-195093328D01*
X264815170Y-196593328D02*
X264815170Y-195093328D01*
X264815170Y-196521900D02*
X264672312Y-196593328D01*
X264672312Y-196593328D02*
X264386598Y-196593328D01*
X264386598Y-196593328D02*
X264243741Y-196521900D01*
X264243741Y-196521900D02*
X264172312Y-196450471D01*
X264172312Y-196450471D02*
X264100884Y-196307614D01*
X264100884Y-196307614D02*
X264100884Y-195879042D01*
X264100884Y-195879042D02*
X264172312Y-195736185D01*
X264172312Y-195736185D02*
X264243741Y-195664757D01*
X264243741Y-195664757D02*
X264386598Y-195593328D01*
X264386598Y-195593328D02*
X264672312Y-195593328D01*
X264672312Y-195593328D02*
X264815170Y-195664757D01*
X265529455Y-196450471D02*
X265600884Y-196521900D01*
X265600884Y-196521900D02*
X265529455Y-196593328D01*
X265529455Y-196593328D02*
X265458027Y-196521900D01*
X265458027Y-196521900D02*
X265529455Y-196450471D01*
X265529455Y-196450471D02*
X265529455Y-196593328D01*
X265529455Y-195664757D02*
X265600884Y-195736185D01*
X265600884Y-195736185D02*
X265529455Y-195807614D01*
X265529455Y-195807614D02*
X265458027Y-195736185D01*
X265458027Y-195736185D02*
X265529455Y-195664757D01*
X265529455Y-195664757D02*
X265529455Y-195807614D01*
X268172313Y-196593328D02*
X267315170Y-196593328D01*
X267743741Y-196593328D02*
X267743741Y-195093328D01*
X267743741Y-195093328D02*
X267600884Y-195307614D01*
X267600884Y-195307614D02*
X267458027Y-195450471D01*
X267458027Y-195450471D02*
X267315170Y-195521900D01*
X269886598Y-195021900D02*
X268600884Y-196950471D01*
X271172313Y-196593328D02*
X270315170Y-196593328D01*
X270743741Y-196593328D02*
X270743741Y-195093328D01*
X270743741Y-195093328D02*
X270600884Y-195307614D01*
X270600884Y-195307614D02*
X270458027Y-195450471D01*
X270458027Y-195450471D02*
X270315170Y-195521900D01*
D10*
D11*
X177002200Y-187507200D02*
X285002200Y-187507200D01*
D10*
D13*
X178693928Y-188211638D02*
X179836785Y-188211638D01*
X179015357Y-190211638D02*
X179265357Y-188211638D01*
X180253452Y-190211638D02*
X180420119Y-188878304D01*
X180503452Y-188211638D02*
X180396309Y-188306876D01*
X180396309Y-188306876D02*
X180479643Y-188402114D01*
X180479643Y-188402114D02*
X180586786Y-188306876D01*
X180586786Y-188306876D02*
X180503452Y-188211638D01*
X180503452Y-188211638D02*
X180479643Y-188402114D01*
X181086786Y-188878304D02*
X181848690Y-188878304D01*
X181455833Y-188211638D02*
X181241548Y-189925923D01*
X181241548Y-189925923D02*
X181312976Y-190116400D01*
X181312976Y-190116400D02*
X181491548Y-190211638D01*
X181491548Y-190211638D02*
X181682024Y-190211638D01*
X182634405Y-190211638D02*
X182455833Y-190116400D01*
X182455833Y-190116400D02*
X182384405Y-189925923D01*
X182384405Y-189925923D02*
X182598690Y-188211638D01*
X184170119Y-190116400D02*
X183967738Y-190211638D01*
X183967738Y-190211638D02*
X183586785Y-190211638D01*
X183586785Y-190211638D02*
X183408214Y-190116400D01*
X183408214Y-190116400D02*
X183336785Y-189925923D01*
X183336785Y-189925923D02*
X183432024Y-189164019D01*
X183432024Y-189164019D02*
X183551071Y-188973542D01*
X183551071Y-188973542D02*
X183753452Y-188878304D01*
X183753452Y-188878304D02*
X184134404Y-188878304D01*
X184134404Y-188878304D02*
X184312976Y-188973542D01*
X184312976Y-188973542D02*
X184384404Y-189164019D01*
X184384404Y-189164019D02*
X184360595Y-189354495D01*
X184360595Y-189354495D02*
X183384404Y-189544971D01*
X185134405Y-190021161D02*
X185217738Y-190116400D01*
X185217738Y-190116400D02*
X185110595Y-190211638D01*
X185110595Y-190211638D02*
X185027262Y-190116400D01*
X185027262Y-190116400D02*
X185134405Y-190021161D01*
X185134405Y-190021161D02*
X185110595Y-190211638D01*
X185265357Y-188973542D02*
X185348690Y-189068780D01*
X185348690Y-189068780D02*
X185241548Y-189164019D01*
X185241548Y-189164019D02*
X185158214Y-189068780D01*
X185158214Y-189068780D02*
X185265357Y-188973542D01*
X185265357Y-188973542D02*
X185241548Y-189164019D01*
D10*
D11*
X178958026Y-185607614D02*
X178458026Y-185607614D01*
X178458026Y-186393328D02*
X178458026Y-184893328D01*
X178458026Y-184893328D02*
X179172312Y-184893328D01*
X179743740Y-186393328D02*
X179743740Y-185393328D01*
X179743740Y-184893328D02*
X179672312Y-184964757D01*
X179672312Y-184964757D02*
X179743740Y-185036185D01*
X179743740Y-185036185D02*
X179815169Y-184964757D01*
X179815169Y-184964757D02*
X179743740Y-184893328D01*
X179743740Y-184893328D02*
X179743740Y-185036185D01*
X180672312Y-186393328D02*
X180529455Y-186321900D01*
X180529455Y-186321900D02*
X180458026Y-186179042D01*
X180458026Y-186179042D02*
X180458026Y-184893328D01*
X181815169Y-186321900D02*
X181672312Y-186393328D01*
X181672312Y-186393328D02*
X181386598Y-186393328D01*
X181386598Y-186393328D02*
X181243740Y-186321900D01*
X181243740Y-186321900D02*
X181172312Y-186179042D01*
X181172312Y-186179042D02*
X181172312Y-185607614D01*
X181172312Y-185607614D02*
X181243740Y-185464757D01*
X181243740Y-185464757D02*
X181386598Y-185393328D01*
X181386598Y-185393328D02*
X181672312Y-185393328D01*
X181672312Y-185393328D02*
X181815169Y-185464757D01*
X181815169Y-185464757D02*
X181886598Y-185607614D01*
X181886598Y-185607614D02*
X181886598Y-185750471D01*
X181886598Y-185750471D02*
X181172312Y-185893328D01*
X182529454Y-186250471D02*
X182600883Y-186321900D01*
X182600883Y-186321900D02*
X182529454Y-186393328D01*
X182529454Y-186393328D02*
X182458026Y-186321900D01*
X182458026Y-186321900D02*
X182529454Y-186250471D01*
X182529454Y-186250471D02*
X182529454Y-186393328D01*
X182529454Y-185464757D02*
X182600883Y-185536185D01*
X182600883Y-185536185D02*
X182529454Y-185607614D01*
X182529454Y-185607614D02*
X182458026Y-185536185D01*
X182458026Y-185536185D02*
X182529454Y-185464757D01*
X182529454Y-185464757D02*
X182529454Y-185607614D01*
X184672312Y-185679042D02*
X184672312Y-186393328D01*
X184172312Y-184893328D02*
X184672312Y-185679042D01*
X184672312Y-185679042D02*
X185172312Y-184893328D01*
X186315169Y-185393328D02*
X186315169Y-186393328D01*
X185672311Y-185393328D02*
X185672311Y-186179042D01*
X185672311Y-186179042D02*
X185743740Y-186321900D01*
X185743740Y-186321900D02*
X185886597Y-186393328D01*
X185886597Y-186393328D02*
X186100883Y-186393328D01*
X186100883Y-186393328D02*
X186243740Y-186321900D01*
X186243740Y-186321900D02*
X186315169Y-186250471D01*
X187243740Y-186393328D02*
X187100883Y-186321900D01*
X187100883Y-186321900D02*
X187029454Y-186179042D01*
X187029454Y-186179042D02*
X187029454Y-184893328D01*
X188386597Y-186321900D02*
X188243740Y-186393328D01*
X188243740Y-186393328D02*
X187958026Y-186393328D01*
X187958026Y-186393328D02*
X187815168Y-186321900D01*
X187815168Y-186321900D02*
X187743740Y-186179042D01*
X187743740Y-186179042D02*
X187743740Y-185607614D01*
X187743740Y-185607614D02*
X187815168Y-185464757D01*
X187815168Y-185464757D02*
X187958026Y-185393328D01*
X187958026Y-185393328D02*
X188243740Y-185393328D01*
X188243740Y-185393328D02*
X188386597Y-185464757D01*
X188386597Y-185464757D02*
X188458026Y-185607614D01*
X188458026Y-185607614D02*
X188458026Y-185750471D01*
X188458026Y-185750471D02*
X187743740Y-185893328D01*
X190172311Y-186321900D02*
X190315168Y-186393328D01*
X190315168Y-186393328D02*
X190600882Y-186393328D01*
X190600882Y-186393328D02*
X190743739Y-186321900D01*
X190743739Y-186321900D02*
X190815168Y-186179042D01*
X190815168Y-186179042D02*
X190815168Y-186107614D01*
X190815168Y-186107614D02*
X190743739Y-185964757D01*
X190743739Y-185964757D02*
X190600882Y-185893328D01*
X190600882Y-185893328D02*
X190386597Y-185893328D01*
X190386597Y-185893328D02*
X190243739Y-185821900D01*
X190243739Y-185821900D02*
X190172311Y-185679042D01*
X190172311Y-185679042D02*
X190172311Y-185607614D01*
X190172311Y-185607614D02*
X190243739Y-185464757D01*
X190243739Y-185464757D02*
X190386597Y-185393328D01*
X190386597Y-185393328D02*
X190600882Y-185393328D01*
X190600882Y-185393328D02*
X190743739Y-185464757D01*
X192100883Y-186321900D02*
X191958025Y-186393328D01*
X191958025Y-186393328D02*
X191672311Y-186393328D01*
X191672311Y-186393328D02*
X191529454Y-186321900D01*
X191529454Y-186321900D02*
X191458025Y-186250471D01*
X191458025Y-186250471D02*
X191386597Y-186107614D01*
X191386597Y-186107614D02*
X191386597Y-185679042D01*
X191386597Y-185679042D02*
X191458025Y-185536185D01*
X191458025Y-185536185D02*
X191529454Y-185464757D01*
X191529454Y-185464757D02*
X191672311Y-185393328D01*
X191672311Y-185393328D02*
X191958025Y-185393328D01*
X191958025Y-185393328D02*
X192100883Y-185464757D01*
X192743739Y-186393328D02*
X192743739Y-185393328D01*
X192743739Y-185679042D02*
X192815168Y-185536185D01*
X192815168Y-185536185D02*
X192886597Y-185464757D01*
X192886597Y-185464757D02*
X193029454Y-185393328D01*
X193029454Y-185393328D02*
X193172311Y-185393328D01*
X194243739Y-186321900D02*
X194100882Y-186393328D01*
X194100882Y-186393328D02*
X193815168Y-186393328D01*
X193815168Y-186393328D02*
X193672310Y-186321900D01*
X193672310Y-186321900D02*
X193600882Y-186179042D01*
X193600882Y-186179042D02*
X193600882Y-185607614D01*
X193600882Y-185607614D02*
X193672310Y-185464757D01*
X193672310Y-185464757D02*
X193815168Y-185393328D01*
X193815168Y-185393328D02*
X194100882Y-185393328D01*
X194100882Y-185393328D02*
X194243739Y-185464757D01*
X194243739Y-185464757D02*
X194315168Y-185607614D01*
X194315168Y-185607614D02*
X194315168Y-185750471D01*
X194315168Y-185750471D02*
X193600882Y-185893328D01*
X195600882Y-186393328D02*
X195600882Y-185607614D01*
X195600882Y-185607614D02*
X195529453Y-185464757D01*
X195529453Y-185464757D02*
X195386596Y-185393328D01*
X195386596Y-185393328D02*
X195100882Y-185393328D01*
X195100882Y-185393328D02*
X194958024Y-185464757D01*
X195600882Y-186321900D02*
X195458024Y-186393328D01*
X195458024Y-186393328D02*
X195100882Y-186393328D01*
X195100882Y-186393328D02*
X194958024Y-186321900D01*
X194958024Y-186321900D02*
X194886596Y-186179042D01*
X194886596Y-186179042D02*
X194886596Y-186036185D01*
X194886596Y-186036185D02*
X194958024Y-185893328D01*
X194958024Y-185893328D02*
X195100882Y-185821900D01*
X195100882Y-185821900D02*
X195458024Y-185821900D01*
X195458024Y-185821900D02*
X195600882Y-185750471D01*
X196315167Y-186393328D02*
X196315167Y-185393328D01*
X196315167Y-185536185D02*
X196386596Y-185464757D01*
X196386596Y-185464757D02*
X196529453Y-185393328D01*
X196529453Y-185393328D02*
X196743739Y-185393328D01*
X196743739Y-185393328D02*
X196886596Y-185464757D01*
X196886596Y-185464757D02*
X196958025Y-185607614D01*
X196958025Y-185607614D02*
X196958025Y-186393328D01*
X196958025Y-185607614D02*
X197029453Y-185464757D01*
X197029453Y-185464757D02*
X197172310Y-185393328D01*
X197172310Y-185393328D02*
X197386596Y-185393328D01*
X197386596Y-185393328D02*
X197529453Y-185464757D01*
X197529453Y-185464757D02*
X197600882Y-185607614D01*
X197600882Y-185607614D02*
X197600882Y-186393328D01*
X198886596Y-186321900D02*
X198743739Y-186393328D01*
X198743739Y-186393328D02*
X198458025Y-186393328D01*
X198458025Y-186393328D02*
X198315167Y-186321900D01*
X198315167Y-186321900D02*
X198243739Y-186179042D01*
X198243739Y-186179042D02*
X198243739Y-185607614D01*
X198243739Y-185607614D02*
X198315167Y-185464757D01*
X198315167Y-185464757D02*
X198458025Y-185393328D01*
X198458025Y-185393328D02*
X198743739Y-185393328D01*
X198743739Y-185393328D02*
X198886596Y-185464757D01*
X198886596Y-185464757D02*
X198958025Y-185607614D01*
X198958025Y-185607614D02*
X198958025Y-185750471D01*
X198958025Y-185750471D02*
X198243739Y-185893328D01*
X199600881Y-186393328D02*
X199600881Y-185393328D01*
X199600881Y-185679042D02*
X199672310Y-185536185D01*
X199672310Y-185536185D02*
X199743739Y-185464757D01*
X199743739Y-185464757D02*
X199886596Y-185393328D01*
X199886596Y-185393328D02*
X200029453Y-185393328D01*
X200529452Y-186250471D02*
X200600881Y-186321900D01*
X200600881Y-186321900D02*
X200529452Y-186393328D01*
X200529452Y-186393328D02*
X200458024Y-186321900D01*
X200458024Y-186321900D02*
X200529452Y-186250471D01*
X200529452Y-186250471D02*
X200529452Y-186393328D01*
X201243738Y-186393328D02*
X201243738Y-184893328D01*
X201386596Y-185821900D02*
X201815167Y-186393328D01*
X201815167Y-185393328D02*
X201243738Y-185964757D01*
X202458024Y-186393328D02*
X202458024Y-185393328D01*
X202458024Y-184893328D02*
X202386596Y-184964757D01*
X202386596Y-184964757D02*
X202458024Y-185036185D01*
X202458024Y-185036185D02*
X202529453Y-184964757D01*
X202529453Y-184964757D02*
X202458024Y-184893328D01*
X202458024Y-184893328D02*
X202458024Y-185036185D01*
X203815168Y-186321900D02*
X203672310Y-186393328D01*
X203672310Y-186393328D02*
X203386596Y-186393328D01*
X203386596Y-186393328D02*
X203243739Y-186321900D01*
X203243739Y-186321900D02*
X203172310Y-186250471D01*
X203172310Y-186250471D02*
X203100882Y-186107614D01*
X203100882Y-186107614D02*
X203100882Y-185679042D01*
X203100882Y-185679042D02*
X203172310Y-185536185D01*
X203172310Y-185536185D02*
X203243739Y-185464757D01*
X203243739Y-185464757D02*
X203386596Y-185393328D01*
X203386596Y-185393328D02*
X203672310Y-185393328D01*
X203672310Y-185393328D02*
X203815168Y-185464757D01*
X205100882Y-186393328D02*
X205100882Y-185607614D01*
X205100882Y-185607614D02*
X205029453Y-185464757D01*
X205029453Y-185464757D02*
X204886596Y-185393328D01*
X204886596Y-185393328D02*
X204600882Y-185393328D01*
X204600882Y-185393328D02*
X204458024Y-185464757D01*
X205100882Y-186321900D02*
X204958024Y-186393328D01*
X204958024Y-186393328D02*
X204600882Y-186393328D01*
X204600882Y-186393328D02*
X204458024Y-186321900D01*
X204458024Y-186321900D02*
X204386596Y-186179042D01*
X204386596Y-186179042D02*
X204386596Y-186036185D01*
X204386596Y-186036185D02*
X204458024Y-185893328D01*
X204458024Y-185893328D02*
X204600882Y-185821900D01*
X204600882Y-185821900D02*
X204958024Y-185821900D01*
X204958024Y-185821900D02*
X205100882Y-185750471D01*
X206458025Y-186393328D02*
X206458025Y-184893328D01*
X206458025Y-186321900D02*
X206315167Y-186393328D01*
X206315167Y-186393328D02*
X206029453Y-186393328D01*
X206029453Y-186393328D02*
X205886596Y-186321900D01*
X205886596Y-186321900D02*
X205815167Y-186250471D01*
X205815167Y-186250471D02*
X205743739Y-186107614D01*
X205743739Y-186107614D02*
X205743739Y-185679042D01*
X205743739Y-185679042D02*
X205815167Y-185536185D01*
X205815167Y-185536185D02*
X205886596Y-185464757D01*
X205886596Y-185464757D02*
X206029453Y-185393328D01*
X206029453Y-185393328D02*
X206315167Y-185393328D01*
X206315167Y-185393328D02*
X206458025Y-185464757D01*
X206815168Y-186536185D02*
X207958025Y-186536185D01*
X208315167Y-185393328D02*
X208315167Y-186893328D01*
X208315167Y-185464757D02*
X208458025Y-185393328D01*
X208458025Y-185393328D02*
X208743739Y-185393328D01*
X208743739Y-185393328D02*
X208886596Y-185464757D01*
X208886596Y-185464757D02*
X208958025Y-185536185D01*
X208958025Y-185536185D02*
X209029453Y-185679042D01*
X209029453Y-185679042D02*
X209029453Y-186107614D01*
X209029453Y-186107614D02*
X208958025Y-186250471D01*
X208958025Y-186250471D02*
X208886596Y-186321900D01*
X208886596Y-186321900D02*
X208743739Y-186393328D01*
X208743739Y-186393328D02*
X208458025Y-186393328D01*
X208458025Y-186393328D02*
X208315167Y-186321900D01*
X210315168Y-186321900D02*
X210172310Y-186393328D01*
X210172310Y-186393328D02*
X209886596Y-186393328D01*
X209886596Y-186393328D02*
X209743739Y-186321900D01*
X209743739Y-186321900D02*
X209672310Y-186250471D01*
X209672310Y-186250471D02*
X209600882Y-186107614D01*
X209600882Y-186107614D02*
X209600882Y-185679042D01*
X209600882Y-185679042D02*
X209672310Y-185536185D01*
X209672310Y-185536185D02*
X209743739Y-185464757D01*
X209743739Y-185464757D02*
X209886596Y-185393328D01*
X209886596Y-185393328D02*
X210172310Y-185393328D01*
X210172310Y-185393328D02*
X210315168Y-185464757D01*
X210958024Y-186393328D02*
X210958024Y-184893328D01*
X210958024Y-185464757D02*
X211100882Y-185393328D01*
X211100882Y-185393328D02*
X211386596Y-185393328D01*
X211386596Y-185393328D02*
X211529453Y-185464757D01*
X211529453Y-185464757D02*
X211600882Y-185536185D01*
X211600882Y-185536185D02*
X211672310Y-185679042D01*
X211672310Y-185679042D02*
X211672310Y-186107614D01*
X211672310Y-186107614D02*
X211600882Y-186250471D01*
X211600882Y-186250471D02*
X211529453Y-186321900D01*
X211529453Y-186321900D02*
X211386596Y-186393328D01*
X211386596Y-186393328D02*
X211100882Y-186393328D01*
X211100882Y-186393328D02*
X210958024Y-186321900D01*
D10*
D11*
X177002200Y-181507200D02*
X285002200Y-181507200D01*
D10*
D11*
X178386598Y-183621900D02*
X178600884Y-183693328D01*
X178600884Y-183693328D02*
X178958026Y-183693328D01*
X178958026Y-183693328D02*
X179100884Y-183621900D01*
X179100884Y-183621900D02*
X179172312Y-183550471D01*
X179172312Y-183550471D02*
X179243741Y-183407614D01*
X179243741Y-183407614D02*
X179243741Y-183264757D01*
X179243741Y-183264757D02*
X179172312Y-183121900D01*
X179172312Y-183121900D02*
X179100884Y-183050471D01*
X179100884Y-183050471D02*
X178958026Y-182979042D01*
X178958026Y-182979042D02*
X178672312Y-182907614D01*
X178672312Y-182907614D02*
X178529455Y-182836185D01*
X178529455Y-182836185D02*
X178458026Y-182764757D01*
X178458026Y-182764757D02*
X178386598Y-182621900D01*
X178386598Y-182621900D02*
X178386598Y-182479042D01*
X178386598Y-182479042D02*
X178458026Y-182336185D01*
X178458026Y-182336185D02*
X178529455Y-182264757D01*
X178529455Y-182264757D02*
X178672312Y-182193328D01*
X178672312Y-182193328D02*
X179029455Y-182193328D01*
X179029455Y-182193328D02*
X179243741Y-182264757D01*
X179886597Y-183693328D02*
X179886597Y-182193328D01*
X180529455Y-183693328D02*
X180529455Y-182907614D01*
X180529455Y-182907614D02*
X180458026Y-182764757D01*
X180458026Y-182764757D02*
X180315169Y-182693328D01*
X180315169Y-182693328D02*
X180100883Y-182693328D01*
X180100883Y-182693328D02*
X179958026Y-182764757D01*
X179958026Y-182764757D02*
X179886597Y-182836185D01*
X181815169Y-183621900D02*
X181672312Y-183693328D01*
X181672312Y-183693328D02*
X181386598Y-183693328D01*
X181386598Y-183693328D02*
X181243740Y-183621900D01*
X181243740Y-183621900D02*
X181172312Y-183479042D01*
X181172312Y-183479042D02*
X181172312Y-182907614D01*
X181172312Y-182907614D02*
X181243740Y-182764757D01*
X181243740Y-182764757D02*
X181386598Y-182693328D01*
X181386598Y-182693328D02*
X181672312Y-182693328D01*
X181672312Y-182693328D02*
X181815169Y-182764757D01*
X181815169Y-182764757D02*
X181886598Y-182907614D01*
X181886598Y-182907614D02*
X181886598Y-183050471D01*
X181886598Y-183050471D02*
X181172312Y-183193328D01*
X183100883Y-183621900D02*
X182958026Y-183693328D01*
X182958026Y-183693328D02*
X182672312Y-183693328D01*
X182672312Y-183693328D02*
X182529454Y-183621900D01*
X182529454Y-183621900D02*
X182458026Y-183479042D01*
X182458026Y-183479042D02*
X182458026Y-182907614D01*
X182458026Y-182907614D02*
X182529454Y-182764757D01*
X182529454Y-182764757D02*
X182672312Y-182693328D01*
X182672312Y-182693328D02*
X182958026Y-182693328D01*
X182958026Y-182693328D02*
X183100883Y-182764757D01*
X183100883Y-182764757D02*
X183172312Y-182907614D01*
X183172312Y-182907614D02*
X183172312Y-183050471D01*
X183172312Y-183050471D02*
X182458026Y-183193328D01*
X183600883Y-182693328D02*
X184172311Y-182693328D01*
X183815168Y-182193328D02*
X183815168Y-183479042D01*
X183815168Y-183479042D02*
X183886597Y-183621900D01*
X183886597Y-183621900D02*
X184029454Y-183693328D01*
X184029454Y-183693328D02*
X184172311Y-183693328D01*
X184672311Y-183550471D02*
X184743740Y-183621900D01*
X184743740Y-183621900D02*
X184672311Y-183693328D01*
X184672311Y-183693328D02*
X184600883Y-183621900D01*
X184600883Y-183621900D02*
X184672311Y-183550471D01*
X184672311Y-183550471D02*
X184672311Y-183693328D01*
X184672311Y-182764757D02*
X184743740Y-182836185D01*
X184743740Y-182836185D02*
X184672311Y-182907614D01*
X184672311Y-182907614D02*
X184600883Y-182836185D01*
X184600883Y-182836185D02*
X184672311Y-182764757D01*
X184672311Y-182764757D02*
X184672311Y-182907614D01*
D10*
D11*
X197002200Y-191507200D02*
X197002200Y-194507200D01*
D10*
D11*
X261002200Y-191507200D02*
X261002200Y-198007200D01*
X246047142Y-110084819D02*
X245713809Y-109608628D01*
X245475714Y-110084819D02*
X245475714Y-109084819D01*
X245475714Y-109084819D02*
X245856666Y-109084819D01*
X245856666Y-109084819D02*
X245951904Y-109132438D01*
X245951904Y-109132438D02*
X245999523Y-109180057D01*
X245999523Y-109180057D02*
X246047142Y-109275295D01*
X246047142Y-109275295D02*
X246047142Y-109418152D01*
X246047142Y-109418152D02*
X245999523Y-109513390D01*
X245999523Y-109513390D02*
X245951904Y-109561009D01*
X245951904Y-109561009D02*
X245856666Y-109608628D01*
X245856666Y-109608628D02*
X245475714Y-109608628D01*
X246999523Y-110084819D02*
X246428095Y-110084819D01*
X246713809Y-110084819D02*
X246713809Y-109084819D01*
X246713809Y-109084819D02*
X246618571Y-109227676D01*
X246618571Y-109227676D02*
X246523333Y-109322914D01*
X246523333Y-109322914D02*
X246428095Y-109370533D01*
X247332857Y-109084819D02*
X247951904Y-109084819D01*
X247951904Y-109084819D02*
X247618571Y-109465771D01*
X247618571Y-109465771D02*
X247761428Y-109465771D01*
X247761428Y-109465771D02*
X247856666Y-109513390D01*
X247856666Y-109513390D02*
X247904285Y-109561009D01*
X247904285Y-109561009D02*
X247951904Y-109656247D01*
X247951904Y-109656247D02*
X247951904Y-109894342D01*
X247951904Y-109894342D02*
X247904285Y-109989580D01*
X247904285Y-109989580D02*
X247856666Y-110037200D01*
X247856666Y-110037200D02*
X247761428Y-110084819D01*
X247761428Y-110084819D02*
X247475714Y-110084819D01*
X247475714Y-110084819D02*
X247380476Y-110037200D01*
X247380476Y-110037200D02*
X247332857Y-109989580D01*
X214666666Y-133114819D02*
X214666666Y-133829104D01*
X214666666Y-133829104D02*
X214619047Y-133971961D01*
X214619047Y-133971961D02*
X214523809Y-134067200D01*
X214523809Y-134067200D02*
X214380952Y-134114819D01*
X214380952Y-134114819D02*
X214285714Y-134114819D01*
X215047619Y-133114819D02*
X215666666Y-133114819D01*
X215666666Y-133114819D02*
X215333333Y-133495771D01*
X215333333Y-133495771D02*
X215476190Y-133495771D01*
X215476190Y-133495771D02*
X215571428Y-133543390D01*
X215571428Y-133543390D02*
X215619047Y-133591009D01*
X215619047Y-133591009D02*
X215666666Y-133686247D01*
X215666666Y-133686247D02*
X215666666Y-133924342D01*
X215666666Y-133924342D02*
X215619047Y-134019580D01*
X215619047Y-134019580D02*
X215571428Y-134067200D01*
X215571428Y-134067200D02*
X215476190Y-134114819D01*
X215476190Y-134114819D02*
X215190476Y-134114819D01*
X215190476Y-134114819D02*
X215095238Y-134067200D01*
X215095238Y-134067200D02*
X215047619Y-134019580D01*
X209833333Y-97359580D02*
X209785714Y-97407200D01*
X209785714Y-97407200D02*
X209642857Y-97454819D01*
X209642857Y-97454819D02*
X209547619Y-97454819D01*
X209547619Y-97454819D02*
X209404762Y-97407200D01*
X209404762Y-97407200D02*
X209309524Y-97311961D01*
X209309524Y-97311961D02*
X209261905Y-97216723D01*
X209261905Y-97216723D02*
X209214286Y-97026247D01*
X209214286Y-97026247D02*
X209214286Y-96883390D01*
X209214286Y-96883390D02*
X209261905Y-96692914D01*
X209261905Y-96692914D02*
X209309524Y-96597676D01*
X209309524Y-96597676D02*
X209404762Y-96502438D01*
X209404762Y-96502438D02*
X209547619Y-96454819D01*
X209547619Y-96454819D02*
X209642857Y-96454819D01*
X209642857Y-96454819D02*
X209785714Y-96502438D01*
X209785714Y-96502438D02*
X209833333Y-96550057D01*
X210214286Y-96550057D02*
X210261905Y-96502438D01*
X210261905Y-96502438D02*
X210357143Y-96454819D01*
X210357143Y-96454819D02*
X210595238Y-96454819D01*
X210595238Y-96454819D02*
X210690476Y-96502438D01*
X210690476Y-96502438D02*
X210738095Y-96550057D01*
X210738095Y-96550057D02*
X210785714Y-96645295D01*
X210785714Y-96645295D02*
X210785714Y-96740533D01*
X210785714Y-96740533D02*
X210738095Y-96883390D01*
X210738095Y-96883390D02*
X210166667Y-97454819D01*
X210166667Y-97454819D02*
X210785714Y-97454819D01*
X232875952Y-120494819D02*
X232399762Y-120494819D01*
X232399762Y-120494819D02*
X232399762Y-119494819D01*
X233209286Y-119971009D02*
X233542619Y-119971009D01*
X233685476Y-120494819D02*
X233209286Y-120494819D01*
X233209286Y-120494819D02*
X233209286Y-119494819D01*
X233209286Y-119494819D02*
X233685476Y-119494819D01*
X234114048Y-120494819D02*
X234114048Y-119494819D01*
X234114048Y-119494819D02*
X234352143Y-119494819D01*
X234352143Y-119494819D02*
X234495000Y-119542438D01*
X234495000Y-119542438D02*
X234590238Y-119637676D01*
X234590238Y-119637676D02*
X234637857Y-119732914D01*
X234637857Y-119732914D02*
X234685476Y-119923390D01*
X234685476Y-119923390D02*
X234685476Y-120066247D01*
X234685476Y-120066247D02*
X234637857Y-120256723D01*
X234637857Y-120256723D02*
X234590238Y-120351961D01*
X234590238Y-120351961D02*
X234495000Y-120447200D01*
X234495000Y-120447200D02*
X234352143Y-120494819D01*
X234352143Y-120494819D02*
X234114048Y-120494819D01*
X235637857Y-120494819D02*
X235066429Y-120494819D01*
X235352143Y-120494819D02*
X235352143Y-119494819D01*
X235352143Y-119494819D02*
X235256905Y-119637676D01*
X235256905Y-119637676D02*
X235161667Y-119732914D01*
X235161667Y-119732914D02*
X235066429Y-119780533D01*
D14*
X251945936Y-72804110D02*
X251578241Y-72804110D01*
X251578241Y-72804110D02*
X251578241Y-72031950D01*
X252203323Y-72399645D02*
X252460710Y-72399645D01*
X252571018Y-72804110D02*
X252203323Y-72804110D01*
X252203323Y-72804110D02*
X252203323Y-72031950D01*
X252203323Y-72031950D02*
X252571018Y-72031950D01*
X252791636Y-72031950D02*
X253049022Y-72804110D01*
X253049022Y-72804110D02*
X253306409Y-72031950D01*
X253563795Y-72399645D02*
X253821182Y-72399645D01*
X253931490Y-72804110D02*
X253563795Y-72804110D01*
X253563795Y-72804110D02*
X253563795Y-72031950D01*
X253563795Y-72031950D02*
X253931490Y-72031950D01*
X254630111Y-72804110D02*
X254262416Y-72804110D01*
X254262416Y-72804110D02*
X254262416Y-72031950D01*
X255291963Y-72804110D02*
X254850729Y-72804110D01*
X255071346Y-72804110D02*
X255071346Y-72031950D01*
X255071346Y-72031950D02*
X254997807Y-72142259D01*
X254997807Y-72142259D02*
X254924268Y-72215798D01*
X254924268Y-72215798D02*
X254850729Y-72252567D01*
D15*
X248585437Y-75293621D02*
X249182942Y-75293621D01*
X249182942Y-75293621D02*
X248861209Y-75661317D01*
X248861209Y-75661317D02*
X248999094Y-75661317D01*
X248999094Y-75661317D02*
X249091018Y-75707279D01*
X249091018Y-75707279D02*
X249136980Y-75753240D01*
X249136980Y-75753240D02*
X249182942Y-75845164D01*
X249182942Y-75845164D02*
X249182942Y-76074974D01*
X249182942Y-76074974D02*
X249136980Y-76166898D01*
X249136980Y-76166898D02*
X249091018Y-76212860D01*
X249091018Y-76212860D02*
X248999094Y-76258821D01*
X248999094Y-76258821D02*
X248723323Y-76258821D01*
X248723323Y-76258821D02*
X248631399Y-76212860D01*
X248631399Y-76212860D02*
X248585437Y-76166898D01*
X259396942Y-76258821D02*
X258845399Y-76258821D01*
X259121171Y-76258821D02*
X259121171Y-75293621D01*
X259121171Y-75293621D02*
X259029247Y-75431507D01*
X259029247Y-75431507D02*
X258937323Y-75523431D01*
X258937323Y-75523431D02*
X258845399Y-75569393D01*
D11*
X244010952Y-72689580D02*
X243963333Y-72737200D01*
X243963333Y-72737200D02*
X243820476Y-72784819D01*
X243820476Y-72784819D02*
X243725238Y-72784819D01*
X243725238Y-72784819D02*
X243582381Y-72737200D01*
X243582381Y-72737200D02*
X243487143Y-72641961D01*
X243487143Y-72641961D02*
X243439524Y-72546723D01*
X243439524Y-72546723D02*
X243391905Y-72356247D01*
X243391905Y-72356247D02*
X243391905Y-72213390D01*
X243391905Y-72213390D02*
X243439524Y-72022914D01*
X243439524Y-72022914D02*
X243487143Y-71927676D01*
X243487143Y-71927676D02*
X243582381Y-71832438D01*
X243582381Y-71832438D02*
X243725238Y-71784819D01*
X243725238Y-71784819D02*
X243820476Y-71784819D01*
X243820476Y-71784819D02*
X243963333Y-71832438D01*
X243963333Y-71832438D02*
X244010952Y-71880057D01*
X244963333Y-72784819D02*
X244391905Y-72784819D01*
X244677619Y-72784819D02*
X244677619Y-71784819D01*
X244677619Y-71784819D02*
X244582381Y-71927676D01*
X244582381Y-71927676D02*
X244487143Y-72022914D01*
X244487143Y-72022914D02*
X244391905Y-72070533D01*
X245582381Y-71784819D02*
X245677619Y-71784819D01*
X245677619Y-71784819D02*
X245772857Y-71832438D01*
X245772857Y-71832438D02*
X245820476Y-71880057D01*
X245820476Y-71880057D02*
X245868095Y-71975295D01*
X245868095Y-71975295D02*
X245915714Y-72165771D01*
X245915714Y-72165771D02*
X245915714Y-72403866D01*
X245915714Y-72403866D02*
X245868095Y-72594342D01*
X245868095Y-72594342D02*
X245820476Y-72689580D01*
X245820476Y-72689580D02*
X245772857Y-72737200D01*
X245772857Y-72737200D02*
X245677619Y-72784819D01*
X245677619Y-72784819D02*
X245582381Y-72784819D01*
X245582381Y-72784819D02*
X245487143Y-72737200D01*
X245487143Y-72737200D02*
X245439524Y-72689580D01*
X245439524Y-72689580D02*
X245391905Y-72594342D01*
X245391905Y-72594342D02*
X245344286Y-72403866D01*
X245344286Y-72403866D02*
X245344286Y-72165771D01*
X245344286Y-72165771D02*
X245391905Y-71975295D01*
X245391905Y-71975295D02*
X245439524Y-71880057D01*
X245439524Y-71880057D02*
X245487143Y-71832438D01*
X245487143Y-71832438D02*
X245582381Y-71784819D01*
X246868095Y-72784819D02*
X246296667Y-72784819D01*
X246582381Y-72784819D02*
X246582381Y-71784819D01*
X246582381Y-71784819D02*
X246487143Y-71927676D01*
X246487143Y-71927676D02*
X246391905Y-72022914D01*
X246391905Y-72022914D02*
X246296667Y-72070533D01*
X232928095Y-77144819D02*
X232928095Y-77954342D01*
X232928095Y-77954342D02*
X232975714Y-78049580D01*
X232975714Y-78049580D02*
X233023333Y-78097200D01*
X233023333Y-78097200D02*
X233118571Y-78144819D01*
X233118571Y-78144819D02*
X233309047Y-78144819D01*
X233309047Y-78144819D02*
X233404285Y-78097200D01*
X233404285Y-78097200D02*
X233451904Y-78049580D01*
X233451904Y-78049580D02*
X233499523Y-77954342D01*
X233499523Y-77954342D02*
X233499523Y-77144819D01*
X233928095Y-77240057D02*
X233975714Y-77192438D01*
X233975714Y-77192438D02*
X234070952Y-77144819D01*
X234070952Y-77144819D02*
X234309047Y-77144819D01*
X234309047Y-77144819D02*
X234404285Y-77192438D01*
X234404285Y-77192438D02*
X234451904Y-77240057D01*
X234451904Y-77240057D02*
X234499523Y-77335295D01*
X234499523Y-77335295D02*
X234499523Y-77430533D01*
X234499523Y-77430533D02*
X234451904Y-77573390D01*
X234451904Y-77573390D02*
X233880476Y-78144819D01*
X233880476Y-78144819D02*
X234499523Y-78144819D01*
X257833333Y-100859580D02*
X257785714Y-100907200D01*
X257785714Y-100907200D02*
X257642857Y-100954819D01*
X257642857Y-100954819D02*
X257547619Y-100954819D01*
X257547619Y-100954819D02*
X257404762Y-100907200D01*
X257404762Y-100907200D02*
X257309524Y-100811961D01*
X257309524Y-100811961D02*
X257261905Y-100716723D01*
X257261905Y-100716723D02*
X257214286Y-100526247D01*
X257214286Y-100526247D02*
X257214286Y-100383390D01*
X257214286Y-100383390D02*
X257261905Y-100192914D01*
X257261905Y-100192914D02*
X257309524Y-100097676D01*
X257309524Y-100097676D02*
X257404762Y-100002438D01*
X257404762Y-100002438D02*
X257547619Y-99954819D01*
X257547619Y-99954819D02*
X257642857Y-99954819D01*
X257642857Y-99954819D02*
X257785714Y-100002438D01*
X257785714Y-100002438D02*
X257833333Y-100050057D01*
X258166667Y-99954819D02*
X258833333Y-99954819D01*
X258833333Y-99954819D02*
X258404762Y-100954819D01*
X254130952Y-65189580D02*
X254083333Y-65237200D01*
X254083333Y-65237200D02*
X253940476Y-65284819D01*
X253940476Y-65284819D02*
X253845238Y-65284819D01*
X253845238Y-65284819D02*
X253702381Y-65237200D01*
X253702381Y-65237200D02*
X253607143Y-65141961D01*
X253607143Y-65141961D02*
X253559524Y-65046723D01*
X253559524Y-65046723D02*
X253511905Y-64856247D01*
X253511905Y-64856247D02*
X253511905Y-64713390D01*
X253511905Y-64713390D02*
X253559524Y-64522914D01*
X253559524Y-64522914D02*
X253607143Y-64427676D01*
X253607143Y-64427676D02*
X253702381Y-64332438D01*
X253702381Y-64332438D02*
X253845238Y-64284819D01*
X253845238Y-64284819D02*
X253940476Y-64284819D01*
X253940476Y-64284819D02*
X254083333Y-64332438D01*
X254083333Y-64332438D02*
X254130952Y-64380057D01*
X255083333Y-65284819D02*
X254511905Y-65284819D01*
X254797619Y-65284819D02*
X254797619Y-64284819D01*
X254797619Y-64284819D02*
X254702381Y-64427676D01*
X254702381Y-64427676D02*
X254607143Y-64522914D01*
X254607143Y-64522914D02*
X254511905Y-64570533D01*
X255702381Y-64284819D02*
X255797619Y-64284819D01*
X255797619Y-64284819D02*
X255892857Y-64332438D01*
X255892857Y-64332438D02*
X255940476Y-64380057D01*
X255940476Y-64380057D02*
X255988095Y-64475295D01*
X255988095Y-64475295D02*
X256035714Y-64665771D01*
X256035714Y-64665771D02*
X256035714Y-64903866D01*
X256035714Y-64903866D02*
X255988095Y-65094342D01*
X255988095Y-65094342D02*
X255940476Y-65189580D01*
X255940476Y-65189580D02*
X255892857Y-65237200D01*
X255892857Y-65237200D02*
X255797619Y-65284819D01*
X255797619Y-65284819D02*
X255702381Y-65284819D01*
X255702381Y-65284819D02*
X255607143Y-65237200D01*
X255607143Y-65237200D02*
X255559524Y-65189580D01*
X255559524Y-65189580D02*
X255511905Y-65094342D01*
X255511905Y-65094342D02*
X255464286Y-64903866D01*
X255464286Y-64903866D02*
X255464286Y-64665771D01*
X255464286Y-64665771D02*
X255511905Y-64475295D01*
X255511905Y-64475295D02*
X255559524Y-64380057D01*
X255559524Y-64380057D02*
X255607143Y-64332438D01*
X255607143Y-64332438D02*
X255702381Y-64284819D01*
X256416667Y-64380057D02*
X256464286Y-64332438D01*
X256464286Y-64332438D02*
X256559524Y-64284819D01*
X256559524Y-64284819D02*
X256797619Y-64284819D01*
X256797619Y-64284819D02*
X256892857Y-64332438D01*
X256892857Y-64332438D02*
X256940476Y-64380057D01*
X256940476Y-64380057D02*
X256988095Y-64475295D01*
X256988095Y-64475295D02*
X256988095Y-64570533D01*
X256988095Y-64570533D02*
X256940476Y-64713390D01*
X256940476Y-64713390D02*
X256369048Y-65284819D01*
X256369048Y-65284819D02*
X256988095Y-65284819D01*
X257333333Y-94359580D02*
X257285714Y-94407200D01*
X257285714Y-94407200D02*
X257142857Y-94454819D01*
X257142857Y-94454819D02*
X257047619Y-94454819D01*
X257047619Y-94454819D02*
X256904762Y-94407200D01*
X256904762Y-94407200D02*
X256809524Y-94311961D01*
X256809524Y-94311961D02*
X256761905Y-94216723D01*
X256761905Y-94216723D02*
X256714286Y-94026247D01*
X256714286Y-94026247D02*
X256714286Y-93883390D01*
X256714286Y-93883390D02*
X256761905Y-93692914D01*
X256761905Y-93692914D02*
X256809524Y-93597676D01*
X256809524Y-93597676D02*
X256904762Y-93502438D01*
X256904762Y-93502438D02*
X257047619Y-93454819D01*
X257047619Y-93454819D02*
X257142857Y-93454819D01*
X257142857Y-93454819D02*
X257285714Y-93502438D01*
X257285714Y-93502438D02*
X257333333Y-93550057D01*
X257904762Y-93883390D02*
X257809524Y-93835771D01*
X257809524Y-93835771D02*
X257761905Y-93788152D01*
X257761905Y-93788152D02*
X257714286Y-93692914D01*
X257714286Y-93692914D02*
X257714286Y-93645295D01*
X257714286Y-93645295D02*
X257761905Y-93550057D01*
X257761905Y-93550057D02*
X257809524Y-93502438D01*
X257809524Y-93502438D02*
X257904762Y-93454819D01*
X257904762Y-93454819D02*
X258095238Y-93454819D01*
X258095238Y-93454819D02*
X258190476Y-93502438D01*
X258190476Y-93502438D02*
X258238095Y-93550057D01*
X258238095Y-93550057D02*
X258285714Y-93645295D01*
X258285714Y-93645295D02*
X258285714Y-93692914D01*
X258285714Y-93692914D02*
X258238095Y-93788152D01*
X258238095Y-93788152D02*
X258190476Y-93835771D01*
X258190476Y-93835771D02*
X258095238Y-93883390D01*
X258095238Y-93883390D02*
X257904762Y-93883390D01*
X257904762Y-93883390D02*
X257809524Y-93931009D01*
X257809524Y-93931009D02*
X257761905Y-93978628D01*
X257761905Y-93978628D02*
X257714286Y-94073866D01*
X257714286Y-94073866D02*
X257714286Y-94264342D01*
X257714286Y-94264342D02*
X257761905Y-94359580D01*
X257761905Y-94359580D02*
X257809524Y-94407200D01*
X257809524Y-94407200D02*
X257904762Y-94454819D01*
X257904762Y-94454819D02*
X258095238Y-94454819D01*
X258095238Y-94454819D02*
X258190476Y-94407200D01*
X258190476Y-94407200D02*
X258238095Y-94359580D01*
X258238095Y-94359580D02*
X258285714Y-94264342D01*
X258285714Y-94264342D02*
X258285714Y-94073866D01*
X258285714Y-94073866D02*
X258238095Y-93978628D01*
X258238095Y-93978628D02*
X258190476Y-93931009D01*
X258190476Y-93931009D02*
X258095238Y-93883390D01*
X232941905Y-61484819D02*
X232941905Y-60484819D01*
X232941905Y-60484819D02*
X233180000Y-60484819D01*
X233180000Y-60484819D02*
X233322857Y-60532438D01*
X233322857Y-60532438D02*
X233418095Y-60627676D01*
X233418095Y-60627676D02*
X233465714Y-60722914D01*
X233465714Y-60722914D02*
X233513333Y-60913390D01*
X233513333Y-60913390D02*
X233513333Y-61056247D01*
X233513333Y-61056247D02*
X233465714Y-61246723D01*
X233465714Y-61246723D02*
X233418095Y-61341961D01*
X233418095Y-61341961D02*
X233322857Y-61437200D01*
X233322857Y-61437200D02*
X233180000Y-61484819D01*
X233180000Y-61484819D02*
X232941905Y-61484819D01*
X234370476Y-60818152D02*
X234370476Y-61484819D01*
X234132381Y-60437200D02*
X233894286Y-61151485D01*
X233894286Y-61151485D02*
X234513333Y-61151485D01*
X234381905Y-64569104D02*
X234858095Y-64569104D01*
X234286667Y-64854819D02*
X234620000Y-63854819D01*
X234620000Y-63854819D02*
X234953333Y-64854819D01*
X220523333Y-101084819D02*
X220190000Y-100608628D01*
X219951905Y-101084819D02*
X219951905Y-100084819D01*
X219951905Y-100084819D02*
X220332857Y-100084819D01*
X220332857Y-100084819D02*
X220428095Y-100132438D01*
X220428095Y-100132438D02*
X220475714Y-100180057D01*
X220475714Y-100180057D02*
X220523333Y-100275295D01*
X220523333Y-100275295D02*
X220523333Y-100418152D01*
X220523333Y-100418152D02*
X220475714Y-100513390D01*
X220475714Y-100513390D02*
X220428095Y-100561009D01*
X220428095Y-100561009D02*
X220332857Y-100608628D01*
X220332857Y-100608628D02*
X219951905Y-100608628D01*
X221380476Y-100084819D02*
X221190000Y-100084819D01*
X221190000Y-100084819D02*
X221094762Y-100132438D01*
X221094762Y-100132438D02*
X221047143Y-100180057D01*
X221047143Y-100180057D02*
X220951905Y-100322914D01*
X220951905Y-100322914D02*
X220904286Y-100513390D01*
X220904286Y-100513390D02*
X220904286Y-100894342D01*
X220904286Y-100894342D02*
X220951905Y-100989580D01*
X220951905Y-100989580D02*
X220999524Y-101037200D01*
X220999524Y-101037200D02*
X221094762Y-101084819D01*
X221094762Y-101084819D02*
X221285238Y-101084819D01*
X221285238Y-101084819D02*
X221380476Y-101037200D01*
X221380476Y-101037200D02*
X221428095Y-100989580D01*
X221428095Y-100989580D02*
X221475714Y-100894342D01*
X221475714Y-100894342D02*
X221475714Y-100656247D01*
X221475714Y-100656247D02*
X221428095Y-100561009D01*
X221428095Y-100561009D02*
X221380476Y-100513390D01*
X221380476Y-100513390D02*
X221285238Y-100465771D01*
X221285238Y-100465771D02*
X221094762Y-100465771D01*
X221094762Y-100465771D02*
X220999524Y-100513390D01*
X220999524Y-100513390D02*
X220951905Y-100561009D01*
X220951905Y-100561009D02*
X220904286Y-100656247D01*
X209833333Y-97359580D02*
X209785714Y-97407200D01*
X209785714Y-97407200D02*
X209642857Y-97454819D01*
X209642857Y-97454819D02*
X209547619Y-97454819D01*
X209547619Y-97454819D02*
X209404762Y-97407200D01*
X209404762Y-97407200D02*
X209309524Y-97311961D01*
X209309524Y-97311961D02*
X209261905Y-97216723D01*
X209261905Y-97216723D02*
X209214286Y-97026247D01*
X209214286Y-97026247D02*
X209214286Y-96883390D01*
X209214286Y-96883390D02*
X209261905Y-96692914D01*
X209261905Y-96692914D02*
X209309524Y-96597676D01*
X209309524Y-96597676D02*
X209404762Y-96502438D01*
X209404762Y-96502438D02*
X209547619Y-96454819D01*
X209547619Y-96454819D02*
X209642857Y-96454819D01*
X209642857Y-96454819D02*
X209785714Y-96502438D01*
X209785714Y-96502438D02*
X209833333Y-96550057D01*
X210690476Y-96788152D02*
X210690476Y-97454819D01*
X210452381Y-96407200D02*
X210214286Y-97121485D01*
X210214286Y-97121485D02*
X210833333Y-97121485D01*
X227629580Y-68409047D02*
X227677200Y-68456666D01*
X227677200Y-68456666D02*
X227724819Y-68599523D01*
X227724819Y-68599523D02*
X227724819Y-68694761D01*
X227724819Y-68694761D02*
X227677200Y-68837618D01*
X227677200Y-68837618D02*
X227581961Y-68932856D01*
X227581961Y-68932856D02*
X227486723Y-68980475D01*
X227486723Y-68980475D02*
X227296247Y-69028094D01*
X227296247Y-69028094D02*
X227153390Y-69028094D01*
X227153390Y-69028094D02*
X226962914Y-68980475D01*
X226962914Y-68980475D02*
X226867676Y-68932856D01*
X226867676Y-68932856D02*
X226772438Y-68837618D01*
X226772438Y-68837618D02*
X226724819Y-68694761D01*
X226724819Y-68694761D02*
X226724819Y-68599523D01*
X226724819Y-68599523D02*
X226772438Y-68456666D01*
X226772438Y-68456666D02*
X226820057Y-68409047D01*
X227724819Y-67456666D02*
X227724819Y-68028094D01*
X227724819Y-67742380D02*
X226724819Y-67742380D01*
X226724819Y-67742380D02*
X226867676Y-67837618D01*
X226867676Y-67837618D02*
X226962914Y-67932856D01*
X226962914Y-67932856D02*
X227010533Y-68028094D01*
X226724819Y-66837618D02*
X226724819Y-66742380D01*
X226724819Y-66742380D02*
X226772438Y-66647142D01*
X226772438Y-66647142D02*
X226820057Y-66599523D01*
X226820057Y-66599523D02*
X226915295Y-66551904D01*
X226915295Y-66551904D02*
X227105771Y-66504285D01*
X227105771Y-66504285D02*
X227343866Y-66504285D01*
X227343866Y-66504285D02*
X227534342Y-66551904D01*
X227534342Y-66551904D02*
X227629580Y-66599523D01*
X227629580Y-66599523D02*
X227677200Y-66647142D01*
X227677200Y-66647142D02*
X227724819Y-66742380D01*
X227724819Y-66742380D02*
X227724819Y-66837618D01*
X227724819Y-66837618D02*
X227677200Y-66932856D01*
X227677200Y-66932856D02*
X227629580Y-66980475D01*
X227629580Y-66980475D02*
X227534342Y-67028094D01*
X227534342Y-67028094D02*
X227343866Y-67075713D01*
X227343866Y-67075713D02*
X227105771Y-67075713D01*
X227105771Y-67075713D02*
X226915295Y-67028094D01*
X226915295Y-67028094D02*
X226820057Y-66980475D01*
X226820057Y-66980475D02*
X226772438Y-66932856D01*
X226772438Y-66932856D02*
X226724819Y-66837618D01*
X226724819Y-65885237D02*
X226724819Y-65789999D01*
X226724819Y-65789999D02*
X226772438Y-65694761D01*
X226772438Y-65694761D02*
X226820057Y-65647142D01*
X226820057Y-65647142D02*
X226915295Y-65599523D01*
X226915295Y-65599523D02*
X227105771Y-65551904D01*
X227105771Y-65551904D02*
X227343866Y-65551904D01*
X227343866Y-65551904D02*
X227534342Y-65599523D01*
X227534342Y-65599523D02*
X227629580Y-65647142D01*
X227629580Y-65647142D02*
X227677200Y-65694761D01*
X227677200Y-65694761D02*
X227724819Y-65789999D01*
X227724819Y-65789999D02*
X227724819Y-65885237D01*
X227724819Y-65885237D02*
X227677200Y-65980475D01*
X227677200Y-65980475D02*
X227629580Y-66028094D01*
X227629580Y-66028094D02*
X227534342Y-66075713D01*
X227534342Y-66075713D02*
X227343866Y-66123332D01*
X227343866Y-66123332D02*
X227105771Y-66123332D01*
X227105771Y-66123332D02*
X226915295Y-66075713D01*
X226915295Y-66075713D02*
X226820057Y-66028094D01*
X226820057Y-66028094D02*
X226772438Y-65980475D01*
X226772438Y-65980475D02*
X226724819Y-65885237D01*
X220523333Y-93824819D02*
X220190000Y-93348628D01*
X219951905Y-93824819D02*
X219951905Y-92824819D01*
X219951905Y-92824819D02*
X220332857Y-92824819D01*
X220332857Y-92824819D02*
X220428095Y-92872438D01*
X220428095Y-92872438D02*
X220475714Y-92920057D01*
X220475714Y-92920057D02*
X220523333Y-93015295D01*
X220523333Y-93015295D02*
X220523333Y-93158152D01*
X220523333Y-93158152D02*
X220475714Y-93253390D01*
X220475714Y-93253390D02*
X220428095Y-93301009D01*
X220428095Y-93301009D02*
X220332857Y-93348628D01*
X220332857Y-93348628D02*
X219951905Y-93348628D01*
X220856667Y-92824819D02*
X221523333Y-92824819D01*
X221523333Y-92824819D02*
X221094762Y-93824819D01*
X209833333Y-103859580D02*
X209785714Y-103907200D01*
X209785714Y-103907200D02*
X209642857Y-103954819D01*
X209642857Y-103954819D02*
X209547619Y-103954819D01*
X209547619Y-103954819D02*
X209404762Y-103907200D01*
X209404762Y-103907200D02*
X209309524Y-103811961D01*
X209309524Y-103811961D02*
X209261905Y-103716723D01*
X209261905Y-103716723D02*
X209214286Y-103526247D01*
X209214286Y-103526247D02*
X209214286Y-103383390D01*
X209214286Y-103383390D02*
X209261905Y-103192914D01*
X209261905Y-103192914D02*
X209309524Y-103097676D01*
X209309524Y-103097676D02*
X209404762Y-103002438D01*
X209404762Y-103002438D02*
X209547619Y-102954819D01*
X209547619Y-102954819D02*
X209642857Y-102954819D01*
X209642857Y-102954819D02*
X209785714Y-103002438D01*
X209785714Y-103002438D02*
X209833333Y-103050057D01*
X210785714Y-103954819D02*
X210214286Y-103954819D01*
X210500000Y-103954819D02*
X210500000Y-102954819D01*
X210500000Y-102954819D02*
X210404762Y-103097676D01*
X210404762Y-103097676D02*
X210309524Y-103192914D01*
X210309524Y-103192914D02*
X210214286Y-103240533D01*
X220523333Y-109084819D02*
X220190000Y-108608628D01*
X219951905Y-109084819D02*
X219951905Y-108084819D01*
X219951905Y-108084819D02*
X220332857Y-108084819D01*
X220332857Y-108084819D02*
X220428095Y-108132438D01*
X220428095Y-108132438D02*
X220475714Y-108180057D01*
X220475714Y-108180057D02*
X220523333Y-108275295D01*
X220523333Y-108275295D02*
X220523333Y-108418152D01*
X220523333Y-108418152D02*
X220475714Y-108513390D01*
X220475714Y-108513390D02*
X220428095Y-108561009D01*
X220428095Y-108561009D02*
X220332857Y-108608628D01*
X220332857Y-108608628D02*
X219951905Y-108608628D01*
X220904286Y-108180057D02*
X220951905Y-108132438D01*
X220951905Y-108132438D02*
X221047143Y-108084819D01*
X221047143Y-108084819D02*
X221285238Y-108084819D01*
X221285238Y-108084819D02*
X221380476Y-108132438D01*
X221380476Y-108132438D02*
X221428095Y-108180057D01*
X221428095Y-108180057D02*
X221475714Y-108275295D01*
X221475714Y-108275295D02*
X221475714Y-108370533D01*
X221475714Y-108370533D02*
X221428095Y-108513390D01*
X221428095Y-108513390D02*
X220856667Y-109084819D01*
X220856667Y-109084819D02*
X221475714Y-109084819D01*
X220523333Y-121824819D02*
X220190000Y-121348628D01*
X219951905Y-121824819D02*
X219951905Y-120824819D01*
X219951905Y-120824819D02*
X220332857Y-120824819D01*
X220332857Y-120824819D02*
X220428095Y-120872438D01*
X220428095Y-120872438D02*
X220475714Y-120920057D01*
X220475714Y-120920057D02*
X220523333Y-121015295D01*
X220523333Y-121015295D02*
X220523333Y-121158152D01*
X220523333Y-121158152D02*
X220475714Y-121253390D01*
X220475714Y-121253390D02*
X220428095Y-121301009D01*
X220428095Y-121301009D02*
X220332857Y-121348628D01*
X220332857Y-121348628D02*
X219951905Y-121348628D01*
X221475714Y-121824819D02*
X220904286Y-121824819D01*
X221190000Y-121824819D02*
X221190000Y-120824819D01*
X221190000Y-120824819D02*
X221094762Y-120967676D01*
X221094762Y-120967676D02*
X220999524Y-121062914D01*
X220999524Y-121062914D02*
X220904286Y-121110533D01*
X207166666Y-133114819D02*
X207166666Y-133829104D01*
X207166666Y-133829104D02*
X207119047Y-133971961D01*
X207119047Y-133971961D02*
X207023809Y-134067200D01*
X207023809Y-134067200D02*
X206880952Y-134114819D01*
X206880952Y-134114819D02*
X206785714Y-134114819D01*
X208071428Y-133448152D02*
X208071428Y-134114819D01*
X207833333Y-133067200D02*
X207595238Y-133781485D01*
X207595238Y-133781485D02*
X208214285Y-133781485D01*
X241678619Y-53085713D02*
X240678619Y-53085713D01*
X240678619Y-53085713D02*
X241392904Y-52752380D01*
X241392904Y-52752380D02*
X240678619Y-52419047D01*
X240678619Y-52419047D02*
X241678619Y-52419047D01*
X240678619Y-51752380D02*
X240678619Y-51561904D01*
X240678619Y-51561904D02*
X240726238Y-51466666D01*
X240726238Y-51466666D02*
X240821476Y-51371428D01*
X240821476Y-51371428D02*
X241011952Y-51323809D01*
X241011952Y-51323809D02*
X241345285Y-51323809D01*
X241345285Y-51323809D02*
X241535761Y-51371428D01*
X241535761Y-51371428D02*
X241631000Y-51466666D01*
X241631000Y-51466666D02*
X241678619Y-51561904D01*
X241678619Y-51561904D02*
X241678619Y-51752380D01*
X241678619Y-51752380D02*
X241631000Y-51847618D01*
X241631000Y-51847618D02*
X241535761Y-51942856D01*
X241535761Y-51942856D02*
X241345285Y-51990475D01*
X241345285Y-51990475D02*
X241011952Y-51990475D01*
X241011952Y-51990475D02*
X240821476Y-51942856D01*
X240821476Y-51942856D02*
X240726238Y-51847618D01*
X240726238Y-51847618D02*
X240678619Y-51752380D01*
X241678619Y-50895237D02*
X240678619Y-50895237D01*
X240678619Y-50895237D02*
X240678619Y-50657142D01*
X240678619Y-50657142D02*
X240726238Y-50514285D01*
X240726238Y-50514285D02*
X240821476Y-50419047D01*
X240821476Y-50419047D02*
X240916714Y-50371428D01*
X240916714Y-50371428D02*
X241107190Y-50323809D01*
X241107190Y-50323809D02*
X241250047Y-50323809D01*
X241250047Y-50323809D02*
X241440523Y-50371428D01*
X241440523Y-50371428D02*
X241535761Y-50419047D01*
X241535761Y-50419047D02*
X241631000Y-50514285D01*
X241631000Y-50514285D02*
X241678619Y-50657142D01*
X241678619Y-50657142D02*
X241678619Y-50895237D01*
X241154809Y-49895237D02*
X241154809Y-49561904D01*
X241678619Y-49419047D02*
X241678619Y-49895237D01*
X241678619Y-49895237D02*
X240678619Y-49895237D01*
X240678619Y-49895237D02*
X240678619Y-49419047D01*
X241678619Y-48466666D02*
X241678619Y-49038094D01*
X241678619Y-48752380D02*
X240678619Y-48752380D01*
X240678619Y-48752380D02*
X240821476Y-48847618D01*
X240821476Y-48847618D02*
X240916714Y-48942856D01*
X240916714Y-48942856D02*
X240964333Y-49038094D01*
X246167142Y-98584819D02*
X245833809Y-98108628D01*
X245595714Y-98584819D02*
X245595714Y-97584819D01*
X245595714Y-97584819D02*
X245976666Y-97584819D01*
X245976666Y-97584819D02*
X246071904Y-97632438D01*
X246071904Y-97632438D02*
X246119523Y-97680057D01*
X246119523Y-97680057D02*
X246167142Y-97775295D01*
X246167142Y-97775295D02*
X246167142Y-97918152D01*
X246167142Y-97918152D02*
X246119523Y-98013390D01*
X246119523Y-98013390D02*
X246071904Y-98061009D01*
X246071904Y-98061009D02*
X245976666Y-98108628D01*
X245976666Y-98108628D02*
X245595714Y-98108628D01*
X247119523Y-98584819D02*
X246548095Y-98584819D01*
X246833809Y-98584819D02*
X246833809Y-97584819D01*
X246833809Y-97584819D02*
X246738571Y-97727676D01*
X246738571Y-97727676D02*
X246643333Y-97822914D01*
X246643333Y-97822914D02*
X246548095Y-97870533D01*
X247738571Y-97584819D02*
X247833809Y-97584819D01*
X247833809Y-97584819D02*
X247929047Y-97632438D01*
X247929047Y-97632438D02*
X247976666Y-97680057D01*
X247976666Y-97680057D02*
X248024285Y-97775295D01*
X248024285Y-97775295D02*
X248071904Y-97965771D01*
X248071904Y-97965771D02*
X248071904Y-98203866D01*
X248071904Y-98203866D02*
X248024285Y-98394342D01*
X248024285Y-98394342D02*
X247976666Y-98489580D01*
X247976666Y-98489580D02*
X247929047Y-98537200D01*
X247929047Y-98537200D02*
X247833809Y-98584819D01*
X247833809Y-98584819D02*
X247738571Y-98584819D01*
X247738571Y-98584819D02*
X247643333Y-98537200D01*
X247643333Y-98537200D02*
X247595714Y-98489580D01*
X247595714Y-98489580D02*
X247548095Y-98394342D01*
X247548095Y-98394342D02*
X247500476Y-98203866D01*
X247500476Y-98203866D02*
X247500476Y-97965771D01*
X247500476Y-97965771D02*
X247548095Y-97775295D01*
X247548095Y-97775295D02*
X247595714Y-97680057D01*
X247595714Y-97680057D02*
X247643333Y-97632438D01*
X247643333Y-97632438D02*
X247738571Y-97584819D01*
X232941905Y-71504819D02*
X232941905Y-70504819D01*
X232941905Y-70504819D02*
X233180000Y-70504819D01*
X233180000Y-70504819D02*
X233322857Y-70552438D01*
X233322857Y-70552438D02*
X233418095Y-70647676D01*
X233418095Y-70647676D02*
X233465714Y-70742914D01*
X233465714Y-70742914D02*
X233513333Y-70933390D01*
X233513333Y-70933390D02*
X233513333Y-71076247D01*
X233513333Y-71076247D02*
X233465714Y-71266723D01*
X233465714Y-71266723D02*
X233418095Y-71361961D01*
X233418095Y-71361961D02*
X233322857Y-71457200D01*
X233322857Y-71457200D02*
X233180000Y-71504819D01*
X233180000Y-71504819D02*
X232941905Y-71504819D01*
X233846667Y-70504819D02*
X234465714Y-70504819D01*
X234465714Y-70504819D02*
X234132381Y-70885771D01*
X234132381Y-70885771D02*
X234275238Y-70885771D01*
X234275238Y-70885771D02*
X234370476Y-70933390D01*
X234370476Y-70933390D02*
X234418095Y-70981009D01*
X234418095Y-70981009D02*
X234465714Y-71076247D01*
X234465714Y-71076247D02*
X234465714Y-71314342D01*
X234465714Y-71314342D02*
X234418095Y-71409580D01*
X234418095Y-71409580D02*
X234370476Y-71457200D01*
X234370476Y-71457200D02*
X234275238Y-71504819D01*
X234275238Y-71504819D02*
X233989524Y-71504819D01*
X233989524Y-71504819D02*
X233894286Y-71457200D01*
X233894286Y-71457200D02*
X233846667Y-71409580D01*
X232501905Y-67849104D02*
X232978095Y-67849104D01*
X232406667Y-68134819D02*
X232740000Y-67134819D01*
X232740000Y-67134819D02*
X233073333Y-68134819D01*
X245570952Y-106584819D02*
X245237619Y-106108628D01*
X244999524Y-106584819D02*
X244999524Y-105584819D01*
X244999524Y-105584819D02*
X245380476Y-105584819D01*
X245380476Y-105584819D02*
X245475714Y-105632438D01*
X245475714Y-105632438D02*
X245523333Y-105680057D01*
X245523333Y-105680057D02*
X245570952Y-105775295D01*
X245570952Y-105775295D02*
X245570952Y-105918152D01*
X245570952Y-105918152D02*
X245523333Y-106013390D01*
X245523333Y-106013390D02*
X245475714Y-106061009D01*
X245475714Y-106061009D02*
X245380476Y-106108628D01*
X245380476Y-106108628D02*
X244999524Y-106108628D01*
X246523333Y-106584819D02*
X245951905Y-106584819D01*
X246237619Y-106584819D02*
X246237619Y-105584819D01*
X246237619Y-105584819D02*
X246142381Y-105727676D01*
X246142381Y-105727676D02*
X246047143Y-105822914D01*
X246047143Y-105822914D02*
X245951905Y-105870533D01*
X247142381Y-105584819D02*
X247237619Y-105584819D01*
X247237619Y-105584819D02*
X247332857Y-105632438D01*
X247332857Y-105632438D02*
X247380476Y-105680057D01*
X247380476Y-105680057D02*
X247428095Y-105775295D01*
X247428095Y-105775295D02*
X247475714Y-105965771D01*
X247475714Y-105965771D02*
X247475714Y-106203866D01*
X247475714Y-106203866D02*
X247428095Y-106394342D01*
X247428095Y-106394342D02*
X247380476Y-106489580D01*
X247380476Y-106489580D02*
X247332857Y-106537200D01*
X247332857Y-106537200D02*
X247237619Y-106584819D01*
X247237619Y-106584819D02*
X247142381Y-106584819D01*
X247142381Y-106584819D02*
X247047143Y-106537200D01*
X247047143Y-106537200D02*
X246999524Y-106489580D01*
X246999524Y-106489580D02*
X246951905Y-106394342D01*
X246951905Y-106394342D02*
X246904286Y-106203866D01*
X246904286Y-106203866D02*
X246904286Y-105965771D01*
X246904286Y-105965771D02*
X246951905Y-105775295D01*
X246951905Y-105775295D02*
X246999524Y-105680057D01*
X246999524Y-105680057D02*
X247047143Y-105632438D01*
X247047143Y-105632438D02*
X247142381Y-105584819D01*
X248094762Y-105584819D02*
X248190000Y-105584819D01*
X248190000Y-105584819D02*
X248285238Y-105632438D01*
X248285238Y-105632438D02*
X248332857Y-105680057D01*
X248332857Y-105680057D02*
X248380476Y-105775295D01*
X248380476Y-105775295D02*
X248428095Y-105965771D01*
X248428095Y-105965771D02*
X248428095Y-106203866D01*
X248428095Y-106203866D02*
X248380476Y-106394342D01*
X248380476Y-106394342D02*
X248332857Y-106489580D01*
X248332857Y-106489580D02*
X248285238Y-106537200D01*
X248285238Y-106537200D02*
X248190000Y-106584819D01*
X248190000Y-106584819D02*
X248094762Y-106584819D01*
X248094762Y-106584819D02*
X247999524Y-106537200D01*
X247999524Y-106537200D02*
X247951905Y-106489580D01*
X247951905Y-106489580D02*
X247904286Y-106394342D01*
X247904286Y-106394342D02*
X247856667Y-106203866D01*
X247856667Y-106203866D02*
X247856667Y-105965771D01*
X247856667Y-105965771D02*
X247904286Y-105775295D01*
X247904286Y-105775295D02*
X247951905Y-105680057D01*
X247951905Y-105680057D02*
X247999524Y-105632438D01*
X247999524Y-105632438D02*
X248094762Y-105584819D01*
X232941905Y-71644819D02*
X232941905Y-70644819D01*
X232941905Y-70644819D02*
X233180000Y-70644819D01*
X233180000Y-70644819D02*
X233322857Y-70692438D01*
X233322857Y-70692438D02*
X233418095Y-70787676D01*
X233418095Y-70787676D02*
X233465714Y-70882914D01*
X233465714Y-70882914D02*
X233513333Y-71073390D01*
X233513333Y-71073390D02*
X233513333Y-71216247D01*
X233513333Y-71216247D02*
X233465714Y-71406723D01*
X233465714Y-71406723D02*
X233418095Y-71501961D01*
X233418095Y-71501961D02*
X233322857Y-71597200D01*
X233322857Y-71597200D02*
X233180000Y-71644819D01*
X233180000Y-71644819D02*
X232941905Y-71644819D01*
X234418095Y-70644819D02*
X233941905Y-70644819D01*
X233941905Y-70644819D02*
X233894286Y-71121009D01*
X233894286Y-71121009D02*
X233941905Y-71073390D01*
X233941905Y-71073390D02*
X234037143Y-71025771D01*
X234037143Y-71025771D02*
X234275238Y-71025771D01*
X234275238Y-71025771D02*
X234370476Y-71073390D01*
X234370476Y-71073390D02*
X234418095Y-71121009D01*
X234418095Y-71121009D02*
X234465714Y-71216247D01*
X234465714Y-71216247D02*
X234465714Y-71454342D01*
X234465714Y-71454342D02*
X234418095Y-71549580D01*
X234418095Y-71549580D02*
X234370476Y-71597200D01*
X234370476Y-71597200D02*
X234275238Y-71644819D01*
X234275238Y-71644819D02*
X234037143Y-71644819D01*
X234037143Y-71644819D02*
X233941905Y-71597200D01*
X233941905Y-71597200D02*
X233894286Y-71549580D01*
X234381905Y-74729104D02*
X234858095Y-74729104D01*
X234286667Y-75014819D02*
X234620000Y-74014819D01*
X234620000Y-74014819D02*
X234953333Y-75014819D01*
X209833333Y-109859580D02*
X209785714Y-109907200D01*
X209785714Y-109907200D02*
X209642857Y-109954819D01*
X209642857Y-109954819D02*
X209547619Y-109954819D01*
X209547619Y-109954819D02*
X209404762Y-109907200D01*
X209404762Y-109907200D02*
X209309524Y-109811961D01*
X209309524Y-109811961D02*
X209261905Y-109716723D01*
X209261905Y-109716723D02*
X209214286Y-109526247D01*
X209214286Y-109526247D02*
X209214286Y-109383390D01*
X209214286Y-109383390D02*
X209261905Y-109192914D01*
X209261905Y-109192914D02*
X209309524Y-109097676D01*
X209309524Y-109097676D02*
X209404762Y-109002438D01*
X209404762Y-109002438D02*
X209547619Y-108954819D01*
X209547619Y-108954819D02*
X209642857Y-108954819D01*
X209642857Y-108954819D02*
X209785714Y-109002438D01*
X209785714Y-109002438D02*
X209833333Y-109050057D01*
X210166667Y-108954819D02*
X210785714Y-108954819D01*
X210785714Y-108954819D02*
X210452381Y-109335771D01*
X210452381Y-109335771D02*
X210595238Y-109335771D01*
X210595238Y-109335771D02*
X210690476Y-109383390D01*
X210690476Y-109383390D02*
X210738095Y-109431009D01*
X210738095Y-109431009D02*
X210785714Y-109526247D01*
X210785714Y-109526247D02*
X210785714Y-109764342D01*
X210785714Y-109764342D02*
X210738095Y-109859580D01*
X210738095Y-109859580D02*
X210690476Y-109907200D01*
X210690476Y-109907200D02*
X210595238Y-109954819D01*
X210595238Y-109954819D02*
X210309524Y-109954819D01*
X210309524Y-109954819D02*
X210214286Y-109907200D01*
X210214286Y-109907200D02*
X210166667Y-109859580D01*
X245534524Y-89424819D02*
X245534524Y-88424819D01*
X245534524Y-88424819D02*
X245772619Y-88424819D01*
X245772619Y-88424819D02*
X245915476Y-88472438D01*
X245915476Y-88472438D02*
X246010714Y-88567676D01*
X246010714Y-88567676D02*
X246058333Y-88662914D01*
X246058333Y-88662914D02*
X246105952Y-88853390D01*
X246105952Y-88853390D02*
X246105952Y-88996247D01*
X246105952Y-88996247D02*
X246058333Y-89186723D01*
X246058333Y-89186723D02*
X246010714Y-89281961D01*
X246010714Y-89281961D02*
X245915476Y-89377200D01*
X245915476Y-89377200D02*
X245772619Y-89424819D01*
X245772619Y-89424819D02*
X245534524Y-89424819D01*
X247058333Y-89424819D02*
X246486905Y-89424819D01*
X246772619Y-89424819D02*
X246772619Y-88424819D01*
X246772619Y-88424819D02*
X246677381Y-88567676D01*
X246677381Y-88567676D02*
X246582143Y-88662914D01*
X246582143Y-88662914D02*
X246486905Y-88710533D01*
X247677381Y-88424819D02*
X247772619Y-88424819D01*
X247772619Y-88424819D02*
X247867857Y-88472438D01*
X247867857Y-88472438D02*
X247915476Y-88520057D01*
X247915476Y-88520057D02*
X247963095Y-88615295D01*
X247963095Y-88615295D02*
X248010714Y-88805771D01*
X248010714Y-88805771D02*
X248010714Y-89043866D01*
X248010714Y-89043866D02*
X247963095Y-89234342D01*
X247963095Y-89234342D02*
X247915476Y-89329580D01*
X247915476Y-89329580D02*
X247867857Y-89377200D01*
X247867857Y-89377200D02*
X247772619Y-89424819D01*
X247772619Y-89424819D02*
X247677381Y-89424819D01*
X247677381Y-89424819D02*
X247582143Y-89377200D01*
X247582143Y-89377200D02*
X247534524Y-89329580D01*
X247534524Y-89329580D02*
X247486905Y-89234342D01*
X247486905Y-89234342D02*
X247439286Y-89043866D01*
X247439286Y-89043866D02*
X247439286Y-88805771D01*
X247439286Y-88805771D02*
X247486905Y-88615295D01*
X247486905Y-88615295D02*
X247534524Y-88520057D01*
X247534524Y-88520057D02*
X247582143Y-88472438D01*
X247582143Y-88472438D02*
X247677381Y-88424819D01*
X248629762Y-88424819D02*
X248725000Y-88424819D01*
X248725000Y-88424819D02*
X248820238Y-88472438D01*
X248820238Y-88472438D02*
X248867857Y-88520057D01*
X248867857Y-88520057D02*
X248915476Y-88615295D01*
X248915476Y-88615295D02*
X248963095Y-88805771D01*
X248963095Y-88805771D02*
X248963095Y-89043866D01*
X248963095Y-89043866D02*
X248915476Y-89234342D01*
X248915476Y-89234342D02*
X248867857Y-89329580D01*
X248867857Y-89329580D02*
X248820238Y-89377200D01*
X248820238Y-89377200D02*
X248725000Y-89424819D01*
X248725000Y-89424819D02*
X248629762Y-89424819D01*
X248629762Y-89424819D02*
X248534524Y-89377200D01*
X248534524Y-89377200D02*
X248486905Y-89329580D01*
X248486905Y-89329580D02*
X248439286Y-89234342D01*
X248439286Y-89234342D02*
X248391667Y-89043866D01*
X248391667Y-89043866D02*
X248391667Y-88805771D01*
X248391667Y-88805771D02*
X248439286Y-88615295D01*
X248439286Y-88615295D02*
X248486905Y-88520057D01*
X248486905Y-88520057D02*
X248534524Y-88472438D01*
X248534524Y-88472438D02*
X248629762Y-88424819D01*
X247926905Y-92509104D02*
X248403095Y-92509104D01*
X247831667Y-92794819D02*
X248165000Y-91794819D01*
X248165000Y-91794819D02*
X248498333Y-92794819D01*
X209833333Y-115859580D02*
X209785714Y-115907200D01*
X209785714Y-115907200D02*
X209642857Y-115954819D01*
X209642857Y-115954819D02*
X209547619Y-115954819D01*
X209547619Y-115954819D02*
X209404762Y-115907200D01*
X209404762Y-115907200D02*
X209309524Y-115811961D01*
X209309524Y-115811961D02*
X209261905Y-115716723D01*
X209261905Y-115716723D02*
X209214286Y-115526247D01*
X209214286Y-115526247D02*
X209214286Y-115383390D01*
X209214286Y-115383390D02*
X209261905Y-115192914D01*
X209261905Y-115192914D02*
X209309524Y-115097676D01*
X209309524Y-115097676D02*
X209404762Y-115002438D01*
X209404762Y-115002438D02*
X209547619Y-114954819D01*
X209547619Y-114954819D02*
X209642857Y-114954819D01*
X209642857Y-114954819D02*
X209785714Y-115002438D01*
X209785714Y-115002438D02*
X209833333Y-115050057D01*
X210690476Y-114954819D02*
X210500000Y-114954819D01*
X210500000Y-114954819D02*
X210404762Y-115002438D01*
X210404762Y-115002438D02*
X210357143Y-115050057D01*
X210357143Y-115050057D02*
X210261905Y-115192914D01*
X210261905Y-115192914D02*
X210214286Y-115383390D01*
X210214286Y-115383390D02*
X210214286Y-115764342D01*
X210214286Y-115764342D02*
X210261905Y-115859580D01*
X210261905Y-115859580D02*
X210309524Y-115907200D01*
X210309524Y-115907200D02*
X210404762Y-115954819D01*
X210404762Y-115954819D02*
X210595238Y-115954819D01*
X210595238Y-115954819D02*
X210690476Y-115907200D01*
X210690476Y-115907200D02*
X210738095Y-115859580D01*
X210738095Y-115859580D02*
X210785714Y-115764342D01*
X210785714Y-115764342D02*
X210785714Y-115526247D01*
X210785714Y-115526247D02*
X210738095Y-115431009D01*
X210738095Y-115431009D02*
X210690476Y-115383390D01*
X210690476Y-115383390D02*
X210595238Y-115335771D01*
X210595238Y-115335771D02*
X210404762Y-115335771D01*
X210404762Y-115335771D02*
X210309524Y-115383390D01*
X210309524Y-115383390D02*
X210261905Y-115431009D01*
X210261905Y-115431009D02*
X210214286Y-115526247D01*
X220523333Y-109824819D02*
X220190000Y-109348628D01*
X219951905Y-109824819D02*
X219951905Y-108824819D01*
X219951905Y-108824819D02*
X220332857Y-108824819D01*
X220332857Y-108824819D02*
X220428095Y-108872438D01*
X220428095Y-108872438D02*
X220475714Y-108920057D01*
X220475714Y-108920057D02*
X220523333Y-109015295D01*
X220523333Y-109015295D02*
X220523333Y-109158152D01*
X220523333Y-109158152D02*
X220475714Y-109253390D01*
X220475714Y-109253390D02*
X220428095Y-109301009D01*
X220428095Y-109301009D02*
X220332857Y-109348628D01*
X220332857Y-109348628D02*
X219951905Y-109348628D01*
X220999524Y-109824819D02*
X221190000Y-109824819D01*
X221190000Y-109824819D02*
X221285238Y-109777200D01*
X221285238Y-109777200D02*
X221332857Y-109729580D01*
X221332857Y-109729580D02*
X221428095Y-109586723D01*
X221428095Y-109586723D02*
X221475714Y-109396247D01*
X221475714Y-109396247D02*
X221475714Y-109015295D01*
X221475714Y-109015295D02*
X221428095Y-108920057D01*
X221428095Y-108920057D02*
X221380476Y-108872438D01*
X221380476Y-108872438D02*
X221285238Y-108824819D01*
X221285238Y-108824819D02*
X221094762Y-108824819D01*
X221094762Y-108824819D02*
X220999524Y-108872438D01*
X220999524Y-108872438D02*
X220951905Y-108920057D01*
X220951905Y-108920057D02*
X220904286Y-109015295D01*
X220904286Y-109015295D02*
X220904286Y-109253390D01*
X220904286Y-109253390D02*
X220951905Y-109348628D01*
X220951905Y-109348628D02*
X220999524Y-109396247D01*
X220999524Y-109396247D02*
X221094762Y-109443866D01*
X221094762Y-109443866D02*
X221285238Y-109443866D01*
X221285238Y-109443866D02*
X221380476Y-109396247D01*
X221380476Y-109396247D02*
X221428095Y-109348628D01*
X221428095Y-109348628D02*
X221475714Y-109253390D01*
X220523333Y-113084819D02*
X220190000Y-112608628D01*
X219951905Y-113084819D02*
X219951905Y-112084819D01*
X219951905Y-112084819D02*
X220332857Y-112084819D01*
X220332857Y-112084819D02*
X220428095Y-112132438D01*
X220428095Y-112132438D02*
X220475714Y-112180057D01*
X220475714Y-112180057D02*
X220523333Y-112275295D01*
X220523333Y-112275295D02*
X220523333Y-112418152D01*
X220523333Y-112418152D02*
X220475714Y-112513390D01*
X220475714Y-112513390D02*
X220428095Y-112561009D01*
X220428095Y-112561009D02*
X220332857Y-112608628D01*
X220332857Y-112608628D02*
X219951905Y-112608628D01*
X221380476Y-112418152D02*
X221380476Y-113084819D01*
X221142381Y-112037200D02*
X220904286Y-112751485D01*
X220904286Y-112751485D02*
X221523333Y-112751485D01*
X238426666Y-133114819D02*
X238426666Y-133829104D01*
X238426666Y-133829104D02*
X238379047Y-133971961D01*
X238379047Y-133971961D02*
X238283809Y-134067200D01*
X238283809Y-134067200D02*
X238140952Y-134114819D01*
X238140952Y-134114819D02*
X238045714Y-134114819D01*
X238807619Y-133114819D02*
X239474285Y-133114819D01*
X239474285Y-133114819D02*
X239045714Y-134114819D01*
X220523333Y-93084819D02*
X220190000Y-92608628D01*
X219951905Y-93084819D02*
X219951905Y-92084819D01*
X219951905Y-92084819D02*
X220332857Y-92084819D01*
X220332857Y-92084819D02*
X220428095Y-92132438D01*
X220428095Y-92132438D02*
X220475714Y-92180057D01*
X220475714Y-92180057D02*
X220523333Y-92275295D01*
X220523333Y-92275295D02*
X220523333Y-92418152D01*
X220523333Y-92418152D02*
X220475714Y-92513390D01*
X220475714Y-92513390D02*
X220428095Y-92561009D01*
X220428095Y-92561009D02*
X220332857Y-92608628D01*
X220332857Y-92608628D02*
X219951905Y-92608628D01*
X221428095Y-92084819D02*
X220951905Y-92084819D01*
X220951905Y-92084819D02*
X220904286Y-92561009D01*
X220904286Y-92561009D02*
X220951905Y-92513390D01*
X220951905Y-92513390D02*
X221047143Y-92465771D01*
X221047143Y-92465771D02*
X221285238Y-92465771D01*
X221285238Y-92465771D02*
X221380476Y-92513390D01*
X221380476Y-92513390D02*
X221428095Y-92561009D01*
X221428095Y-92561009D02*
X221475714Y-92656247D01*
X221475714Y-92656247D02*
X221475714Y-92894342D01*
X221475714Y-92894342D02*
X221428095Y-92989580D01*
X221428095Y-92989580D02*
X221380476Y-93037200D01*
X221380476Y-93037200D02*
X221285238Y-93084819D01*
X221285238Y-93084819D02*
X221047143Y-93084819D01*
X221047143Y-93084819D02*
X220951905Y-93037200D01*
X220951905Y-93037200D02*
X220904286Y-92989580D01*
X223186666Y-133114819D02*
X223186666Y-133829104D01*
X223186666Y-133829104D02*
X223139047Y-133971961D01*
X223139047Y-133971961D02*
X223043809Y-134067200D01*
X223043809Y-134067200D02*
X222900952Y-134114819D01*
X222900952Y-134114819D02*
X222805714Y-134114819D01*
X224186666Y-134114819D02*
X223615238Y-134114819D01*
X223900952Y-134114819D02*
X223900952Y-133114819D01*
X223900952Y-133114819D02*
X223805714Y-133257676D01*
X223805714Y-133257676D02*
X223710476Y-133352914D01*
X223710476Y-133352914D02*
X223615238Y-133400533D01*
X232928095Y-96179819D02*
X232928095Y-96989342D01*
X232928095Y-96989342D02*
X232975714Y-97084580D01*
X232975714Y-97084580D02*
X233023333Y-97132200D01*
X233023333Y-97132200D02*
X233118571Y-97179819D01*
X233118571Y-97179819D02*
X233309047Y-97179819D01*
X233309047Y-97179819D02*
X233404285Y-97132200D01*
X233404285Y-97132200D02*
X233451904Y-97084580D01*
X233451904Y-97084580D02*
X233499523Y-96989342D01*
X233499523Y-96989342D02*
X233499523Y-96179819D01*
X234499523Y-97179819D02*
X233928095Y-97179819D01*
X234213809Y-97179819D02*
X234213809Y-96179819D01*
X234213809Y-96179819D02*
X234118571Y-96322676D01*
X234118571Y-96322676D02*
X234023333Y-96417914D01*
X234023333Y-96417914D02*
X233928095Y-96465533D01*
X229131905Y-55914819D02*
X229131905Y-54914819D01*
X229131905Y-54914819D02*
X229370000Y-54914819D01*
X229370000Y-54914819D02*
X229512857Y-54962438D01*
X229512857Y-54962438D02*
X229608095Y-55057676D01*
X229608095Y-55057676D02*
X229655714Y-55152914D01*
X229655714Y-55152914D02*
X229703333Y-55343390D01*
X229703333Y-55343390D02*
X229703333Y-55486247D01*
X229703333Y-55486247D02*
X229655714Y-55676723D01*
X229655714Y-55676723D02*
X229608095Y-55771961D01*
X229608095Y-55771961D02*
X229512857Y-55867200D01*
X229512857Y-55867200D02*
X229370000Y-55914819D01*
X229370000Y-55914819D02*
X229131905Y-55914819D01*
X230084286Y-55010057D02*
X230131905Y-54962438D01*
X230131905Y-54962438D02*
X230227143Y-54914819D01*
X230227143Y-54914819D02*
X230465238Y-54914819D01*
X230465238Y-54914819D02*
X230560476Y-54962438D01*
X230560476Y-54962438D02*
X230608095Y-55010057D01*
X230608095Y-55010057D02*
X230655714Y-55105295D01*
X230655714Y-55105295D02*
X230655714Y-55200533D01*
X230655714Y-55200533D02*
X230608095Y-55343390D01*
X230608095Y-55343390D02*
X230036667Y-55914819D01*
X230036667Y-55914819D02*
X230655714Y-55914819D01*
X246047142Y-114084819D02*
X245713809Y-113608628D01*
X245475714Y-114084819D02*
X245475714Y-113084819D01*
X245475714Y-113084819D02*
X245856666Y-113084819D01*
X245856666Y-113084819D02*
X245951904Y-113132438D01*
X245951904Y-113132438D02*
X245999523Y-113180057D01*
X245999523Y-113180057D02*
X246047142Y-113275295D01*
X246047142Y-113275295D02*
X246047142Y-113418152D01*
X246047142Y-113418152D02*
X245999523Y-113513390D01*
X245999523Y-113513390D02*
X245951904Y-113561009D01*
X245951904Y-113561009D02*
X245856666Y-113608628D01*
X245856666Y-113608628D02*
X245475714Y-113608628D01*
X246999523Y-114084819D02*
X246428095Y-114084819D01*
X246713809Y-114084819D02*
X246713809Y-113084819D01*
X246713809Y-113084819D02*
X246618571Y-113227676D01*
X246618571Y-113227676D02*
X246523333Y-113322914D01*
X246523333Y-113322914D02*
X246428095Y-113370533D01*
X247856666Y-113418152D02*
X247856666Y-114084819D01*
X247618571Y-113037200D02*
X247380476Y-113751485D01*
X247380476Y-113751485D02*
X247999523Y-113751485D01*
X246167142Y-94604819D02*
X245833809Y-94128628D01*
X245595714Y-94604819D02*
X245595714Y-93604819D01*
X245595714Y-93604819D02*
X245976666Y-93604819D01*
X245976666Y-93604819D02*
X246071904Y-93652438D01*
X246071904Y-93652438D02*
X246119523Y-93700057D01*
X246119523Y-93700057D02*
X246167142Y-93795295D01*
X246167142Y-93795295D02*
X246167142Y-93938152D01*
X246167142Y-93938152D02*
X246119523Y-94033390D01*
X246119523Y-94033390D02*
X246071904Y-94081009D01*
X246071904Y-94081009D02*
X245976666Y-94128628D01*
X245976666Y-94128628D02*
X245595714Y-94128628D01*
X247119523Y-94604819D02*
X246548095Y-94604819D01*
X246833809Y-94604819D02*
X246833809Y-93604819D01*
X246833809Y-93604819D02*
X246738571Y-93747676D01*
X246738571Y-93747676D02*
X246643333Y-93842914D01*
X246643333Y-93842914D02*
X246548095Y-93890533D01*
X248071904Y-94604819D02*
X247500476Y-94604819D01*
X247786190Y-94604819D02*
X247786190Y-93604819D01*
X247786190Y-93604819D02*
X247690952Y-93747676D01*
X247690952Y-93747676D02*
X247595714Y-93842914D01*
X247595714Y-93842914D02*
X247500476Y-93890533D01*
X230806666Y-133114819D02*
X230806666Y-133829104D01*
X230806666Y-133829104D02*
X230759047Y-133971961D01*
X230759047Y-133971961D02*
X230663809Y-134067200D01*
X230663809Y-134067200D02*
X230520952Y-134114819D01*
X230520952Y-134114819D02*
X230425714Y-134114819D01*
X231711428Y-133114819D02*
X231520952Y-133114819D01*
X231520952Y-133114819D02*
X231425714Y-133162438D01*
X231425714Y-133162438D02*
X231378095Y-133210057D01*
X231378095Y-133210057D02*
X231282857Y-133352914D01*
X231282857Y-133352914D02*
X231235238Y-133543390D01*
X231235238Y-133543390D02*
X231235238Y-133924342D01*
X231235238Y-133924342D02*
X231282857Y-134019580D01*
X231282857Y-134019580D02*
X231330476Y-134067200D01*
X231330476Y-134067200D02*
X231425714Y-134114819D01*
X231425714Y-134114819D02*
X231616190Y-134114819D01*
X231616190Y-134114819D02*
X231711428Y-134067200D01*
X231711428Y-134067200D02*
X231759047Y-134019580D01*
X231759047Y-134019580D02*
X231806666Y-133924342D01*
X231806666Y-133924342D02*
X231806666Y-133686247D01*
X231806666Y-133686247D02*
X231759047Y-133591009D01*
X231759047Y-133591009D02*
X231711428Y-133543390D01*
X231711428Y-133543390D02*
X231616190Y-133495771D01*
X231616190Y-133495771D02*
X231425714Y-133495771D01*
X231425714Y-133495771D02*
X231330476Y-133543390D01*
X231330476Y-133543390D02*
X231282857Y-133591009D01*
X231282857Y-133591009D02*
X231235238Y-133686247D01*
X220523333Y-97084819D02*
X220190000Y-96608628D01*
X219951905Y-97084819D02*
X219951905Y-96084819D01*
X219951905Y-96084819D02*
X220332857Y-96084819D01*
X220332857Y-96084819D02*
X220428095Y-96132438D01*
X220428095Y-96132438D02*
X220475714Y-96180057D01*
X220475714Y-96180057D02*
X220523333Y-96275295D01*
X220523333Y-96275295D02*
X220523333Y-96418152D01*
X220523333Y-96418152D02*
X220475714Y-96513390D01*
X220475714Y-96513390D02*
X220428095Y-96561009D01*
X220428095Y-96561009D02*
X220332857Y-96608628D01*
X220332857Y-96608628D02*
X219951905Y-96608628D01*
X220856667Y-96084819D02*
X221475714Y-96084819D01*
X221475714Y-96084819D02*
X221142381Y-96465771D01*
X221142381Y-96465771D02*
X221285238Y-96465771D01*
X221285238Y-96465771D02*
X221380476Y-96513390D01*
X221380476Y-96513390D02*
X221428095Y-96561009D01*
X221428095Y-96561009D02*
X221475714Y-96656247D01*
X221475714Y-96656247D02*
X221475714Y-96894342D01*
X221475714Y-96894342D02*
X221428095Y-96989580D01*
X221428095Y-96989580D02*
X221380476Y-97037200D01*
X221380476Y-97037200D02*
X221285238Y-97084819D01*
X221285238Y-97084819D02*
X220999524Y-97084819D01*
X220999524Y-97084819D02*
X220904286Y-97037200D01*
X220904286Y-97037200D02*
X220856667Y-96989580D01*
X246643333Y-102584819D02*
X246310000Y-102108628D01*
X246071905Y-102584819D02*
X246071905Y-101584819D01*
X246071905Y-101584819D02*
X246452857Y-101584819D01*
X246452857Y-101584819D02*
X246548095Y-101632438D01*
X246548095Y-101632438D02*
X246595714Y-101680057D01*
X246595714Y-101680057D02*
X246643333Y-101775295D01*
X246643333Y-101775295D02*
X246643333Y-101918152D01*
X246643333Y-101918152D02*
X246595714Y-102013390D01*
X246595714Y-102013390D02*
X246548095Y-102061009D01*
X246548095Y-102061009D02*
X246452857Y-102108628D01*
X246452857Y-102108628D02*
X246071905Y-102108628D01*
X247214762Y-102013390D02*
X247119524Y-101965771D01*
X247119524Y-101965771D02*
X247071905Y-101918152D01*
X247071905Y-101918152D02*
X247024286Y-101822914D01*
X247024286Y-101822914D02*
X247024286Y-101775295D01*
X247024286Y-101775295D02*
X247071905Y-101680057D01*
X247071905Y-101680057D02*
X247119524Y-101632438D01*
X247119524Y-101632438D02*
X247214762Y-101584819D01*
X247214762Y-101584819D02*
X247405238Y-101584819D01*
X247405238Y-101584819D02*
X247500476Y-101632438D01*
X247500476Y-101632438D02*
X247548095Y-101680057D01*
X247548095Y-101680057D02*
X247595714Y-101775295D01*
X247595714Y-101775295D02*
X247595714Y-101822914D01*
X247595714Y-101822914D02*
X247548095Y-101918152D01*
X247548095Y-101918152D02*
X247500476Y-101965771D01*
X247500476Y-101965771D02*
X247405238Y-102013390D01*
X247405238Y-102013390D02*
X247214762Y-102013390D01*
X247214762Y-102013390D02*
X247119524Y-102061009D01*
X247119524Y-102061009D02*
X247071905Y-102108628D01*
X247071905Y-102108628D02*
X247024286Y-102203866D01*
X247024286Y-102203866D02*
X247024286Y-102394342D01*
X247024286Y-102394342D02*
X247071905Y-102489580D01*
X247071905Y-102489580D02*
X247119524Y-102537200D01*
X247119524Y-102537200D02*
X247214762Y-102584819D01*
X247214762Y-102584819D02*
X247405238Y-102584819D01*
X247405238Y-102584819D02*
X247500476Y-102537200D01*
X247500476Y-102537200D02*
X247548095Y-102489580D01*
X247548095Y-102489580D02*
X247595714Y-102394342D01*
X247595714Y-102394342D02*
X247595714Y-102203866D01*
X247595714Y-102203866D02*
X247548095Y-102108628D01*
X247548095Y-102108628D02*
X247500476Y-102061009D01*
X247500476Y-102061009D02*
X247405238Y-102013390D01*
X246047142Y-118084819D02*
X245713809Y-117608628D01*
X245475714Y-118084819D02*
X245475714Y-117084819D01*
X245475714Y-117084819D02*
X245856666Y-117084819D01*
X245856666Y-117084819D02*
X245951904Y-117132438D01*
X245951904Y-117132438D02*
X245999523Y-117180057D01*
X245999523Y-117180057D02*
X246047142Y-117275295D01*
X246047142Y-117275295D02*
X246047142Y-117418152D01*
X246047142Y-117418152D02*
X245999523Y-117513390D01*
X245999523Y-117513390D02*
X245951904Y-117561009D01*
X245951904Y-117561009D02*
X245856666Y-117608628D01*
X245856666Y-117608628D02*
X245475714Y-117608628D01*
X246999523Y-118084819D02*
X246428095Y-118084819D01*
X246713809Y-118084819D02*
X246713809Y-117084819D01*
X246713809Y-117084819D02*
X246618571Y-117227676D01*
X246618571Y-117227676D02*
X246523333Y-117322914D01*
X246523333Y-117322914D02*
X246428095Y-117370533D01*
X247380476Y-117180057D02*
X247428095Y-117132438D01*
X247428095Y-117132438D02*
X247523333Y-117084819D01*
X247523333Y-117084819D02*
X247761428Y-117084819D01*
X247761428Y-117084819D02*
X247856666Y-117132438D01*
X247856666Y-117132438D02*
X247904285Y-117180057D01*
X247904285Y-117180057D02*
X247951904Y-117275295D01*
X247951904Y-117275295D02*
X247951904Y-117370533D01*
X247951904Y-117370533D02*
X247904285Y-117513390D01*
X247904285Y-117513390D02*
X247332857Y-118084819D01*
X247332857Y-118084819D02*
X247951904Y-118084819D01*
X253666666Y-133114819D02*
X253666666Y-133829104D01*
X253666666Y-133829104D02*
X253619047Y-133971961D01*
X253619047Y-133971961D02*
X253523809Y-134067200D01*
X253523809Y-134067200D02*
X253380952Y-134114819D01*
X253380952Y-134114819D02*
X253285714Y-134114819D01*
X254619047Y-133114819D02*
X254142857Y-133114819D01*
X254142857Y-133114819D02*
X254095238Y-133591009D01*
X254095238Y-133591009D02*
X254142857Y-133543390D01*
X254142857Y-133543390D02*
X254238095Y-133495771D01*
X254238095Y-133495771D02*
X254476190Y-133495771D01*
X254476190Y-133495771D02*
X254571428Y-133543390D01*
X254571428Y-133543390D02*
X254619047Y-133591009D01*
X254619047Y-133591009D02*
X254666666Y-133686247D01*
X254666666Y-133686247D02*
X254666666Y-133924342D01*
X254666666Y-133924342D02*
X254619047Y-134019580D01*
X254619047Y-134019580D02*
X254571428Y-134067200D01*
X254571428Y-134067200D02*
X254476190Y-134114819D01*
X254476190Y-134114819D02*
X254238095Y-134114819D01*
X254238095Y-134114819D02*
X254142857Y-134067200D01*
X254142857Y-134067200D02*
X254095238Y-134019580D01*
X236751905Y-55914819D02*
X236751905Y-54914819D01*
X236751905Y-54914819D02*
X236990000Y-54914819D01*
X236990000Y-54914819D02*
X237132857Y-54962438D01*
X237132857Y-54962438D02*
X237228095Y-55057676D01*
X237228095Y-55057676D02*
X237275714Y-55152914D01*
X237275714Y-55152914D02*
X237323333Y-55343390D01*
X237323333Y-55343390D02*
X237323333Y-55486247D01*
X237323333Y-55486247D02*
X237275714Y-55676723D01*
X237275714Y-55676723D02*
X237228095Y-55771961D01*
X237228095Y-55771961D02*
X237132857Y-55867200D01*
X237132857Y-55867200D02*
X236990000Y-55914819D01*
X236990000Y-55914819D02*
X236751905Y-55914819D01*
X238275714Y-55914819D02*
X237704286Y-55914819D01*
X237990000Y-55914819D02*
X237990000Y-54914819D01*
X237990000Y-54914819D02*
X237894762Y-55057676D01*
X237894762Y-55057676D02*
X237799524Y-55152914D01*
X237799524Y-55152914D02*
X237704286Y-55200533D01*
X257833333Y-113859580D02*
X257785714Y-113907200D01*
X257785714Y-113907200D02*
X257642857Y-113954819D01*
X257642857Y-113954819D02*
X257547619Y-113954819D01*
X257547619Y-113954819D02*
X257404762Y-113907200D01*
X257404762Y-113907200D02*
X257309524Y-113811961D01*
X257309524Y-113811961D02*
X257261905Y-113716723D01*
X257261905Y-113716723D02*
X257214286Y-113526247D01*
X257214286Y-113526247D02*
X257214286Y-113383390D01*
X257214286Y-113383390D02*
X257261905Y-113192914D01*
X257261905Y-113192914D02*
X257309524Y-113097676D01*
X257309524Y-113097676D02*
X257404762Y-113002438D01*
X257404762Y-113002438D02*
X257547619Y-112954819D01*
X257547619Y-112954819D02*
X257642857Y-112954819D01*
X257642857Y-112954819D02*
X257785714Y-113002438D01*
X257785714Y-113002438D02*
X257833333Y-113050057D01*
X258309524Y-113954819D02*
X258500000Y-113954819D01*
X258500000Y-113954819D02*
X258595238Y-113907200D01*
X258595238Y-113907200D02*
X258642857Y-113859580D01*
X258642857Y-113859580D02*
X258738095Y-113716723D01*
X258738095Y-113716723D02*
X258785714Y-113526247D01*
X258785714Y-113526247D02*
X258785714Y-113145295D01*
X258785714Y-113145295D02*
X258738095Y-113050057D01*
X258738095Y-113050057D02*
X258690476Y-113002438D01*
X258690476Y-113002438D02*
X258595238Y-112954819D01*
X258595238Y-112954819D02*
X258404762Y-112954819D01*
X258404762Y-112954819D02*
X258309524Y-113002438D01*
X258309524Y-113002438D02*
X258261905Y-113050057D01*
X258261905Y-113050057D02*
X258214286Y-113145295D01*
X258214286Y-113145295D02*
X258214286Y-113383390D01*
X258214286Y-113383390D02*
X258261905Y-113478628D01*
X258261905Y-113478628D02*
X258309524Y-113526247D01*
X258309524Y-113526247D02*
X258404762Y-113573866D01*
X258404762Y-113573866D02*
X258595238Y-113573866D01*
X258595238Y-113573866D02*
X258690476Y-113526247D01*
X258690476Y-113526247D02*
X258738095Y-113478628D01*
X258738095Y-113478628D02*
X258785714Y-113383390D01*
X257333333Y-94859580D02*
X257285714Y-94907200D01*
X257285714Y-94907200D02*
X257142857Y-94954819D01*
X257142857Y-94954819D02*
X257047619Y-94954819D01*
X257047619Y-94954819D02*
X256904762Y-94907200D01*
X256904762Y-94907200D02*
X256809524Y-94811961D01*
X256809524Y-94811961D02*
X256761905Y-94716723D01*
X256761905Y-94716723D02*
X256714286Y-94526247D01*
X256714286Y-94526247D02*
X256714286Y-94383390D01*
X256714286Y-94383390D02*
X256761905Y-94192914D01*
X256761905Y-94192914D02*
X256809524Y-94097676D01*
X256809524Y-94097676D02*
X256904762Y-94002438D01*
X256904762Y-94002438D02*
X257047619Y-93954819D01*
X257047619Y-93954819D02*
X257142857Y-93954819D01*
X257142857Y-93954819D02*
X257285714Y-94002438D01*
X257285714Y-94002438D02*
X257333333Y-94050057D01*
X258238095Y-93954819D02*
X257761905Y-93954819D01*
X257761905Y-93954819D02*
X257714286Y-94431009D01*
X257714286Y-94431009D02*
X257761905Y-94383390D01*
X257761905Y-94383390D02*
X257857143Y-94335771D01*
X257857143Y-94335771D02*
X258095238Y-94335771D01*
X258095238Y-94335771D02*
X258190476Y-94383390D01*
X258190476Y-94383390D02*
X258238095Y-94431009D01*
X258238095Y-94431009D02*
X258285714Y-94526247D01*
X258285714Y-94526247D02*
X258285714Y-94764342D01*
X258285714Y-94764342D02*
X258238095Y-94859580D01*
X258238095Y-94859580D02*
X258190476Y-94907200D01*
X258190476Y-94907200D02*
X258095238Y-94954819D01*
X258095238Y-94954819D02*
X257857143Y-94954819D01*
X257857143Y-94954819D02*
X257761905Y-94907200D01*
X257761905Y-94907200D02*
X257714286Y-94859580D01*
X246046666Y-133114819D02*
X246046666Y-133829104D01*
X246046666Y-133829104D02*
X245999047Y-133971961D01*
X245999047Y-133971961D02*
X245903809Y-134067200D01*
X245903809Y-134067200D02*
X245760952Y-134114819D01*
X245760952Y-134114819D02*
X245665714Y-134114819D01*
X246475238Y-133210057D02*
X246522857Y-133162438D01*
X246522857Y-133162438D02*
X246618095Y-133114819D01*
X246618095Y-133114819D02*
X246856190Y-133114819D01*
X246856190Y-133114819D02*
X246951428Y-133162438D01*
X246951428Y-133162438D02*
X246999047Y-133210057D01*
X246999047Y-133210057D02*
X247046666Y-133305295D01*
X247046666Y-133305295D02*
X247046666Y-133400533D01*
X247046666Y-133400533D02*
X246999047Y-133543390D01*
X246999047Y-133543390D02*
X246427619Y-134114819D01*
X246427619Y-134114819D02*
X247046666Y-134114819D01*
X257607142Y-116109580D02*
X257559523Y-116157200D01*
X257559523Y-116157200D02*
X257416666Y-116204819D01*
X257416666Y-116204819D02*
X257321428Y-116204819D01*
X257321428Y-116204819D02*
X257178571Y-116157200D01*
X257178571Y-116157200D02*
X257083333Y-116061961D01*
X257083333Y-116061961D02*
X257035714Y-115966723D01*
X257035714Y-115966723D02*
X256988095Y-115776247D01*
X256988095Y-115776247D02*
X256988095Y-115633390D01*
X256988095Y-115633390D02*
X257035714Y-115442914D01*
X257035714Y-115442914D02*
X257083333Y-115347676D01*
X257083333Y-115347676D02*
X257178571Y-115252438D01*
X257178571Y-115252438D02*
X257321428Y-115204819D01*
X257321428Y-115204819D02*
X257416666Y-115204819D01*
X257416666Y-115204819D02*
X257559523Y-115252438D01*
X257559523Y-115252438D02*
X257607142Y-115300057D01*
X258559523Y-116204819D02*
X257988095Y-116204819D01*
X258273809Y-116204819D02*
X258273809Y-115204819D01*
X258273809Y-115204819D02*
X258178571Y-115347676D01*
X258178571Y-115347676D02*
X258083333Y-115442914D01*
X258083333Y-115442914D02*
X257988095Y-115490533D01*
X259178571Y-115204819D02*
X259273809Y-115204819D01*
X259273809Y-115204819D02*
X259369047Y-115252438D01*
X259369047Y-115252438D02*
X259416666Y-115300057D01*
X259416666Y-115300057D02*
X259464285Y-115395295D01*
X259464285Y-115395295D02*
X259511904Y-115585771D01*
X259511904Y-115585771D02*
X259511904Y-115823866D01*
X259511904Y-115823866D02*
X259464285Y-116014342D01*
X259464285Y-116014342D02*
X259416666Y-116109580D01*
X259416666Y-116109580D02*
X259369047Y-116157200D01*
X259369047Y-116157200D02*
X259273809Y-116204819D01*
X259273809Y-116204819D02*
X259178571Y-116204819D01*
X259178571Y-116204819D02*
X259083333Y-116157200D01*
X259083333Y-116157200D02*
X259035714Y-116109580D01*
X259035714Y-116109580D02*
X258988095Y-116014342D01*
X258988095Y-116014342D02*
X258940476Y-115823866D01*
X258940476Y-115823866D02*
X258940476Y-115585771D01*
X258940476Y-115585771D02*
X258988095Y-115395295D01*
X258988095Y-115395295D02*
X259035714Y-115300057D01*
X259035714Y-115300057D02*
X259083333Y-115252438D01*
X259083333Y-115252438D02*
X259178571Y-115204819D01*
D14*
X231552397Y-92011950D02*
X231993631Y-92011950D01*
X231773014Y-92784110D02*
X231773014Y-92011950D01*
X232398095Y-92011950D02*
X232545173Y-92011950D01*
X232545173Y-92011950D02*
X232618712Y-92048720D01*
X232618712Y-92048720D02*
X232692251Y-92122259D01*
X232692251Y-92122259D02*
X232729021Y-92269337D01*
X232729021Y-92269337D02*
X232729021Y-92526723D01*
X232729021Y-92526723D02*
X232692251Y-92673801D01*
X232692251Y-92673801D02*
X232618712Y-92747341D01*
X232618712Y-92747341D02*
X232545173Y-92784110D01*
X232545173Y-92784110D02*
X232398095Y-92784110D01*
X232398095Y-92784110D02*
X232324556Y-92747341D01*
X232324556Y-92747341D02*
X232251017Y-92673801D01*
X232251017Y-92673801D02*
X232214248Y-92526723D01*
X232214248Y-92526723D02*
X232214248Y-92269337D01*
X232214248Y-92269337D02*
X232251017Y-92122259D01*
X232251017Y-92122259D02*
X232324556Y-92048720D01*
X232324556Y-92048720D02*
X232398095Y-92011950D01*
X233059947Y-92784110D02*
X233059947Y-92011950D01*
X233059947Y-92011950D02*
X233501181Y-92784110D01*
X233501181Y-92784110D02*
X233501181Y-92011950D01*
X233868877Y-92379645D02*
X234126264Y-92379645D01*
X234236572Y-92784110D02*
X233868877Y-92784110D01*
X233868877Y-92784110D02*
X233868877Y-92011950D01*
X233868877Y-92011950D02*
X234236572Y-92011950D01*
X234971963Y-92784110D02*
X234530729Y-92784110D01*
X234751346Y-92784110D02*
X234751346Y-92011950D01*
X234751346Y-92011950D02*
X234677807Y-92122259D01*
X234677807Y-92122259D02*
X234604268Y-92195798D01*
X234604268Y-92195798D02*
X234530729Y-92232567D01*
D15*
X239076942Y-96238821D02*
X238525399Y-96238821D01*
X238801171Y-96238821D02*
X238801171Y-95273621D01*
X238801171Y-95273621D02*
X238709247Y-95411507D01*
X238709247Y-95411507D02*
X238617323Y-95503431D01*
X238617323Y-95503431D02*
X238525399Y-95549393D01*
X228265437Y-95273621D02*
X228862942Y-95273621D01*
X228862942Y-95273621D02*
X228541209Y-95641317D01*
X228541209Y-95641317D02*
X228679094Y-95641317D01*
X228679094Y-95641317D02*
X228771018Y-95687279D01*
X228771018Y-95687279D02*
X228816980Y-95733240D01*
X228816980Y-95733240D02*
X228862942Y-95825164D01*
X228862942Y-95825164D02*
X228862942Y-96054974D01*
X228862942Y-96054974D02*
X228816980Y-96146898D01*
X228816980Y-96146898D02*
X228771018Y-96192860D01*
X228771018Y-96192860D02*
X228679094Y-96238821D01*
X228679094Y-96238821D02*
X228403323Y-96238821D01*
X228403323Y-96238821D02*
X228311399Y-96192860D01*
X228311399Y-96192860D02*
X228265437Y-96146898D01*
D14*
X212754866Y-71728720D02*
X212681327Y-71691950D01*
X212681327Y-71691950D02*
X212571018Y-71691950D01*
X212571018Y-71691950D02*
X212460710Y-71728720D01*
X212460710Y-71728720D02*
X212387171Y-71802259D01*
X212387171Y-71802259D02*
X212350401Y-71875798D01*
X212350401Y-71875798D02*
X212313632Y-72022876D01*
X212313632Y-72022876D02*
X212313632Y-72133184D01*
X212313632Y-72133184D02*
X212350401Y-72280262D01*
X212350401Y-72280262D02*
X212387171Y-72353801D01*
X212387171Y-72353801D02*
X212460710Y-72427341D01*
X212460710Y-72427341D02*
X212571018Y-72464110D01*
X212571018Y-72464110D02*
X212644557Y-72464110D01*
X212644557Y-72464110D02*
X212754866Y-72427341D01*
X212754866Y-72427341D02*
X212791635Y-72390571D01*
X212791635Y-72390571D02*
X212791635Y-72133184D01*
X212791635Y-72133184D02*
X212644557Y-72133184D01*
X213453487Y-72464110D02*
X213453487Y-72059645D01*
X213453487Y-72059645D02*
X213416717Y-71986106D01*
X213416717Y-71986106D02*
X213343178Y-71949337D01*
X213343178Y-71949337D02*
X213196100Y-71949337D01*
X213196100Y-71949337D02*
X213122561Y-71986106D01*
X213453487Y-72427341D02*
X213379948Y-72464110D01*
X213379948Y-72464110D02*
X213196100Y-72464110D01*
X213196100Y-72464110D02*
X213122561Y-72427341D01*
X213122561Y-72427341D02*
X213085792Y-72353801D01*
X213085792Y-72353801D02*
X213085792Y-72280262D01*
X213085792Y-72280262D02*
X213122561Y-72206723D01*
X213122561Y-72206723D02*
X213196100Y-72169954D01*
X213196100Y-72169954D02*
X213379948Y-72169954D01*
X213379948Y-72169954D02*
X213453487Y-72133184D01*
X213821182Y-72464110D02*
X213821182Y-71949337D01*
X213821182Y-71691950D02*
X213784413Y-71728720D01*
X213784413Y-71728720D02*
X213821182Y-71765489D01*
X213821182Y-71765489D02*
X213857952Y-71728720D01*
X213857952Y-71728720D02*
X213821182Y-71691950D01*
X213821182Y-71691950D02*
X213821182Y-71765489D01*
X214188877Y-71949337D02*
X214188877Y-72464110D01*
X214188877Y-72022876D02*
X214225647Y-71986106D01*
X214225647Y-71986106D02*
X214299186Y-71949337D01*
X214299186Y-71949337D02*
X214409494Y-71949337D01*
X214409494Y-71949337D02*
X214483033Y-71986106D01*
X214483033Y-71986106D02*
X214519803Y-72059645D01*
X214519803Y-72059645D02*
X214519803Y-72464110D01*
X215291963Y-72464110D02*
X214850729Y-72464110D01*
X215071346Y-72464110D02*
X215071346Y-71691950D01*
X215071346Y-71691950D02*
X214997807Y-71802259D01*
X214997807Y-71802259D02*
X214924268Y-71875798D01*
X214924268Y-71875798D02*
X214850729Y-71912567D01*
D15*
X208585437Y-74953621D02*
X209182942Y-74953621D01*
X209182942Y-74953621D02*
X208861209Y-75321317D01*
X208861209Y-75321317D02*
X208999094Y-75321317D01*
X208999094Y-75321317D02*
X209091018Y-75367279D01*
X209091018Y-75367279D02*
X209136980Y-75413240D01*
X209136980Y-75413240D02*
X209182942Y-75505164D01*
X209182942Y-75505164D02*
X209182942Y-75734974D01*
X209182942Y-75734974D02*
X209136980Y-75826898D01*
X209136980Y-75826898D02*
X209091018Y-75872860D01*
X209091018Y-75872860D02*
X208999094Y-75918821D01*
X208999094Y-75918821D02*
X208723323Y-75918821D01*
X208723323Y-75918821D02*
X208631399Y-75872860D01*
X208631399Y-75872860D02*
X208585437Y-75826898D01*
X219396942Y-75918821D02*
X218845399Y-75918821D01*
X219121171Y-75918821D02*
X219121171Y-74953621D01*
X219121171Y-74953621D02*
X219029247Y-75091507D01*
X219029247Y-75091507D02*
X218937323Y-75183431D01*
X218937323Y-75183431D02*
X218845399Y-75229393D01*
D16*
%TO.C,R13*%
X249960000Y-113370000D02*
X249960000Y-113040000D01*
X243420000Y-113040000D02*
X243420000Y-113370000D01*
X243420000Y-110630000D02*
X249960000Y-110630000D01*
X243420000Y-110960000D02*
X243420000Y-110630000D01*
X249960000Y-110630000D02*
X249960000Y-110960000D01*
X243420000Y-113370000D02*
X249960000Y-113370000D01*
%TO.C,C2*%
X206380000Y-98130000D02*
X213620000Y-98130000D01*
X206380000Y-98130000D02*
X206380000Y-102870000D01*
X213620000Y-98130000D02*
X213620000Y-102870000D01*
X206380000Y-102870000D02*
X213620000Y-102870000D01*
%TO.C,LED1*%
X232435000Y-124080000D02*
X232435000Y-124236000D01*
X232435000Y-121764000D02*
X232435000Y-121920000D01*
X235036130Y-124079837D02*
G75*
G02*
X232954039Y-124080000I-1041130J1079837D01*
G01*
X232954039Y-121920000D02*
G75*
G02*
X235036130Y-121920163I1040961J-1080000D01*
G01*
X232435000Y-121764484D02*
G75*
G02*
X235667335Y-121921392I1560000J-1235516D01*
G01*
X235667335Y-124078608D02*
G75*
G02*
X232435000Y-124235516I-1672335J1078608D01*
G01*
D17*
%TO.C,LEVEL1*%
X247650000Y-72730000D02*
X246380000Y-72730000D01*
X261620000Y-75270000D02*
X261620000Y-72730000D01*
X246380000Y-72730000D02*
X246380000Y-75270000D01*
X261620000Y-72730000D02*
X260350000Y-72730000D01*
D18*
X260355000Y-72740000D02*
X247675000Y-72740000D01*
D17*
X246380000Y-75270000D02*
X261620000Y-75270000D01*
D16*
%TO.C,C101*%
X243049000Y-70134000D02*
X243049000Y-69620000D01*
X243849000Y-67540000D02*
X243849000Y-66333000D01*
X244209000Y-70994000D02*
X244209000Y-69620000D01*
X243609000Y-70675000D02*
X243609000Y-69620000D01*
X243049000Y-67540000D02*
X243049000Y-67026000D01*
X242809000Y-69758000D02*
X242809000Y-67402000D01*
X243009000Y-70080000D02*
X243009000Y-69620000D01*
X243889000Y-67540000D02*
X243889000Y-66312000D01*
X244129000Y-70962000D02*
X244129000Y-69620000D01*
X243769000Y-67540000D02*
X243769000Y-66380000D01*
X244570000Y-67540000D02*
X244570000Y-66060000D01*
X243409000Y-70517000D02*
X243409000Y-69620000D01*
X242849000Y-69831000D02*
X242849000Y-69620000D01*
X244490000Y-67540000D02*
X244490000Y-66079000D01*
X243369000Y-70481000D02*
X243369000Y-69620000D01*
X244690000Y-71123000D02*
X244690000Y-69620000D01*
X243089000Y-70185000D02*
X243089000Y-69620000D01*
X243289000Y-70406000D02*
X243289000Y-69620000D01*
X244770000Y-71136000D02*
X244770000Y-69620000D01*
X242609000Y-69257000D02*
X242609000Y-67903000D01*
X243449000Y-67540000D02*
X243449000Y-66609000D01*
X244249000Y-71008000D02*
X244249000Y-69620000D01*
X243809000Y-70804000D02*
X243809000Y-69620000D01*
X247934775Y-70055000D02*
X247434775Y-70055000D01*
X244610000Y-67540000D02*
X244610000Y-66052000D01*
X243409000Y-67540000D02*
X243409000Y-66643000D01*
X243369000Y-67540000D02*
X243369000Y-66679000D01*
X242689000Y-69495000D02*
X242689000Y-67665000D01*
X244530000Y-67540000D02*
X244530000Y-66069000D01*
X242769000Y-69678000D02*
X242769000Y-67482000D01*
X243249000Y-67540000D02*
X243249000Y-66795000D01*
X244129000Y-67540000D02*
X244129000Y-66198000D01*
X244690000Y-67540000D02*
X244690000Y-66037000D01*
X243209000Y-67540000D02*
X243209000Y-66837000D01*
X244930000Y-71153000D02*
X244930000Y-66007000D01*
X244810000Y-67540000D02*
X244810000Y-66019000D01*
X244770000Y-67540000D02*
X244770000Y-66024000D01*
X244850000Y-71145000D02*
X244850000Y-69620000D01*
X243849000Y-70827000D02*
X243849000Y-69620000D01*
X243489000Y-67540000D02*
X243489000Y-66576000D01*
X245010000Y-71158000D02*
X245010000Y-66002000D01*
X242969000Y-70023000D02*
X242969000Y-69620000D01*
X243009000Y-67540000D02*
X243009000Y-67080000D01*
X244369000Y-67540000D02*
X244369000Y-66112000D01*
X243529000Y-67540000D02*
X243529000Y-66545000D01*
X243969000Y-70890000D02*
X243969000Y-69620000D01*
X244650000Y-71116000D02*
X244650000Y-69620000D01*
X242569000Y-69098000D02*
X242569000Y-68062000D01*
X243609000Y-67540000D02*
X243609000Y-66485000D01*
X245130000Y-71160000D02*
X245130000Y-66000000D01*
X245050000Y-71159000D02*
X245050000Y-66001000D01*
X243769000Y-70780000D02*
X243769000Y-69620000D01*
X243569000Y-67540000D02*
X243569000Y-66515000D01*
X244049000Y-67540000D02*
X244049000Y-66232000D01*
X244570000Y-71100000D02*
X244570000Y-69620000D01*
X243689000Y-70729000D02*
X243689000Y-69620000D01*
X244850000Y-67540000D02*
X244850000Y-66015000D01*
X243169000Y-67540000D02*
X243169000Y-66881000D01*
X242929000Y-69963000D02*
X242929000Y-69620000D01*
X243649000Y-70702000D02*
X243649000Y-69620000D01*
X247684775Y-70305000D02*
X247684775Y-69805000D01*
X244970000Y-71156000D02*
X244970000Y-66004000D01*
X244169000Y-67540000D02*
X244169000Y-66182000D01*
X244369000Y-71048000D02*
X244369000Y-69620000D01*
X242529000Y-68864000D02*
X242529000Y-68296000D01*
X244810000Y-71141000D02*
X244810000Y-69620000D01*
X242889000Y-69899000D02*
X242889000Y-69620000D01*
X242929000Y-67540000D02*
X242929000Y-67197000D01*
X243729000Y-67540000D02*
X243729000Y-66405000D01*
X244450000Y-67540000D02*
X244450000Y-66089000D01*
X244329000Y-67540000D02*
X244329000Y-66125000D01*
X243129000Y-70233000D02*
X243129000Y-69620000D01*
X244209000Y-67540000D02*
X244209000Y-66166000D01*
X243089000Y-67540000D02*
X243089000Y-66975000D01*
X244890000Y-67540000D02*
X244890000Y-66011000D01*
X244730000Y-71130000D02*
X244730000Y-69620000D01*
X243169000Y-70279000D02*
X243169000Y-69620000D01*
X244409000Y-71060000D02*
X244409000Y-69620000D01*
X244730000Y-67540000D02*
X244730000Y-66030000D01*
X243129000Y-67540000D02*
X243129000Y-66927000D01*
X243929000Y-67540000D02*
X243929000Y-66290000D01*
X244490000Y-71081000D02*
X244490000Y-69620000D01*
X242849000Y-67540000D02*
X242849000Y-67329000D01*
X243689000Y-67540000D02*
X243689000Y-66431000D01*
X243809000Y-67540000D02*
X243809000Y-66356000D01*
X244009000Y-70909000D02*
X244009000Y-69620000D01*
X243449000Y-70551000D02*
X243449000Y-69620000D01*
X243889000Y-70848000D02*
X243889000Y-69620000D01*
X244089000Y-67540000D02*
X244089000Y-66215000D01*
X244009000Y-67540000D02*
X244009000Y-66251000D01*
X243649000Y-67540000D02*
X243649000Y-66458000D01*
X242649000Y-69385000D02*
X242649000Y-67775000D01*
X243329000Y-67540000D02*
X243329000Y-66716000D01*
X244450000Y-71071000D02*
X244450000Y-69620000D01*
X244289000Y-67540000D02*
X244289000Y-66138000D01*
X244610000Y-71108000D02*
X244610000Y-69620000D01*
X243329000Y-70444000D02*
X243329000Y-69620000D01*
X243929000Y-70870000D02*
X243929000Y-69620000D01*
X244169000Y-70978000D02*
X244169000Y-69620000D01*
X243289000Y-67540000D02*
X243289000Y-66754000D01*
X243729000Y-70755000D02*
X243729000Y-69620000D01*
X244409000Y-67540000D02*
X244409000Y-66100000D01*
X244289000Y-71022000D02*
X244289000Y-69620000D01*
X244530000Y-71091000D02*
X244530000Y-69620000D01*
X244249000Y-67540000D02*
X244249000Y-66152000D01*
X243209000Y-70323000D02*
X243209000Y-69620000D01*
X244890000Y-71149000D02*
X244890000Y-69620000D01*
X244329000Y-71035000D02*
X244329000Y-69620000D01*
X243569000Y-70645000D02*
X243569000Y-69620000D01*
X243969000Y-67540000D02*
X243969000Y-66270000D01*
X242889000Y-67540000D02*
X242889000Y-67261000D01*
X245090000Y-71160000D02*
X245090000Y-66000000D01*
X242969000Y-67540000D02*
X242969000Y-67137000D01*
X244650000Y-67540000D02*
X244650000Y-66044000D01*
X243489000Y-70584000D02*
X243489000Y-69620000D01*
X244089000Y-70945000D02*
X244089000Y-69620000D01*
X243249000Y-70365000D02*
X243249000Y-69620000D01*
X242729000Y-69591000D02*
X242729000Y-67569000D01*
X244049000Y-70928000D02*
X244049000Y-69620000D01*
X243529000Y-70615000D02*
X243529000Y-69620000D01*
X247750000Y-68580000D02*
G75*
G02*
X242510000Y-68580000I-2620000J0D01*
G01*
X242510000Y-68580000D02*
G75*
G02*
X247750000Y-68580000I2620000J0D01*
G01*
%TO.C,U2*%
X232690000Y-78690000D02*
X231040000Y-78690000D01*
X231040000Y-88970000D02*
X236340000Y-88970000D01*
X231040000Y-78690000D02*
X231040000Y-88970000D01*
X236340000Y-78690000D02*
X234690000Y-78690000D01*
X236340000Y-88970000D02*
X236340000Y-78690000D01*
X234690000Y-78690000D02*
G75*
G02*
X232690000Y-78690000I-1000000J0D01*
G01*
%TO.C,C7*%
X254380000Y-101630000D02*
X254380000Y-105370000D01*
X261620000Y-101630000D02*
X261620000Y-105370000D01*
X254380000Y-105370000D02*
X261620000Y-105370000D01*
X254380000Y-101630000D02*
X261620000Y-101630000D01*
%TO.C,C102*%
X256211000Y-69620000D02*
X256211000Y-70978000D01*
X256691000Y-66431000D02*
X256691000Y-67540000D01*
X255890000Y-66079000D02*
X255890000Y-67540000D01*
X257011000Y-69620000D02*
X257011000Y-70481000D01*
X257491000Y-67261000D02*
X257491000Y-67540000D01*
X257451000Y-67197000D02*
X257451000Y-67540000D01*
X257371000Y-69620000D02*
X257371000Y-70080000D01*
X255971000Y-69620000D02*
X255971000Y-71060000D01*
X257171000Y-66837000D02*
X257171000Y-67540000D01*
X255610000Y-66024000D02*
X255610000Y-67540000D01*
X257611000Y-67482000D02*
X257611000Y-69678000D01*
X255690000Y-69620000D02*
X255690000Y-71123000D01*
X256491000Y-66312000D02*
X256491000Y-67540000D01*
X256851000Y-69620000D02*
X256851000Y-70615000D01*
X256371000Y-69620000D02*
X256371000Y-70909000D01*
X256011000Y-69620000D02*
X256011000Y-71048000D01*
X255890000Y-69620000D02*
X255890000Y-71081000D01*
X257331000Y-69620000D02*
X257331000Y-70134000D01*
X257651000Y-67569000D02*
X257651000Y-69591000D01*
X257491000Y-69620000D02*
X257491000Y-69899000D01*
X256251000Y-66198000D02*
X256251000Y-67540000D01*
X255330000Y-66001000D02*
X255330000Y-71159000D01*
X256411000Y-66270000D02*
X256411000Y-67540000D01*
X256211000Y-66182000D02*
X256211000Y-67540000D01*
X256891000Y-69620000D02*
X256891000Y-70584000D01*
X255650000Y-69620000D02*
X255650000Y-71130000D01*
X255610000Y-69620000D02*
X255610000Y-71136000D01*
X256091000Y-66138000D02*
X256091000Y-67540000D01*
X256331000Y-69620000D02*
X256331000Y-70928000D01*
X256171000Y-69620000D02*
X256171000Y-70994000D01*
X257211000Y-66881000D02*
X257211000Y-67540000D01*
X256811000Y-66515000D02*
X256811000Y-67540000D01*
X256811000Y-69620000D02*
X256811000Y-70645000D01*
X255450000Y-66007000D02*
X255450000Y-71153000D01*
X257171000Y-69620000D02*
X257171000Y-70323000D01*
X256171000Y-66166000D02*
X256171000Y-67540000D01*
X257091000Y-69620000D02*
X257091000Y-70406000D01*
X252695225Y-66855000D02*
X252695225Y-67355000D01*
X256891000Y-66576000D02*
X256891000Y-67540000D01*
X252445225Y-67105000D02*
X252945225Y-67105000D01*
X257331000Y-67026000D02*
X257331000Y-67540000D01*
X256411000Y-69620000D02*
X256411000Y-70890000D01*
X257211000Y-69620000D02*
X257211000Y-70279000D01*
X256651000Y-66405000D02*
X256651000Y-67540000D01*
X257451000Y-69620000D02*
X257451000Y-69963000D01*
X256531000Y-66333000D02*
X256531000Y-67540000D01*
X255530000Y-69620000D02*
X255530000Y-71145000D01*
X256731000Y-66458000D02*
X256731000Y-67540000D01*
X256051000Y-69620000D02*
X256051000Y-71035000D01*
X256131000Y-69620000D02*
X256131000Y-71008000D01*
X256571000Y-66356000D02*
X256571000Y-67540000D01*
X256931000Y-66609000D02*
X256931000Y-67540000D01*
X257771000Y-67903000D02*
X257771000Y-69257000D01*
X256851000Y-66545000D02*
X256851000Y-67540000D01*
X256091000Y-69620000D02*
X256091000Y-71022000D01*
X255971000Y-66100000D02*
X255971000Y-67540000D01*
X256451000Y-66290000D02*
X256451000Y-67540000D01*
X255930000Y-69620000D02*
X255930000Y-71071000D01*
X255570000Y-66019000D02*
X255570000Y-67540000D01*
X255730000Y-66044000D02*
X255730000Y-67540000D01*
X257251000Y-66927000D02*
X257251000Y-67540000D01*
X256651000Y-69620000D02*
X256651000Y-70755000D01*
X257691000Y-67665000D02*
X257691000Y-69495000D01*
X255410000Y-66004000D02*
X255410000Y-71156000D01*
X257091000Y-66754000D02*
X257091000Y-67540000D01*
X256771000Y-66485000D02*
X256771000Y-67540000D01*
X256971000Y-66643000D02*
X256971000Y-67540000D01*
X256611000Y-69620000D02*
X256611000Y-70780000D01*
X255570000Y-69620000D02*
X255570000Y-71141000D01*
X255530000Y-66015000D02*
X255530000Y-67540000D01*
X255730000Y-69620000D02*
X255730000Y-71116000D01*
X255690000Y-66037000D02*
X255690000Y-67540000D01*
X257371000Y-67080000D02*
X257371000Y-67540000D01*
X257051000Y-66716000D02*
X257051000Y-67540000D01*
X257531000Y-67329000D02*
X257531000Y-67540000D01*
X255810000Y-69620000D02*
X255810000Y-71100000D01*
X255370000Y-66002000D02*
X255370000Y-71158000D01*
X257411000Y-69620000D02*
X257411000Y-70023000D01*
X256771000Y-69620000D02*
X256771000Y-70675000D01*
X255850000Y-66069000D02*
X255850000Y-67540000D01*
X257811000Y-68062000D02*
X257811000Y-69098000D01*
X257731000Y-67775000D02*
X257731000Y-69385000D01*
X256011000Y-66112000D02*
X256011000Y-67540000D01*
X257051000Y-69620000D02*
X257051000Y-70444000D01*
X255490000Y-66011000D02*
X255490000Y-67540000D01*
X256931000Y-69620000D02*
X256931000Y-70551000D01*
X257291000Y-66975000D02*
X257291000Y-67540000D01*
X255290000Y-66000000D02*
X255290000Y-71160000D01*
X256251000Y-69620000D02*
X256251000Y-70962000D01*
X255250000Y-66000000D02*
X255250000Y-71160000D01*
X256331000Y-66232000D02*
X256331000Y-67540000D01*
X256491000Y-69620000D02*
X256491000Y-70848000D01*
X257291000Y-69620000D02*
X257291000Y-70185000D01*
X257011000Y-66679000D02*
X257011000Y-67540000D01*
X256451000Y-69620000D02*
X256451000Y-70870000D01*
X256291000Y-69620000D02*
X256291000Y-70945000D01*
X255810000Y-66060000D02*
X255810000Y-67540000D01*
X255770000Y-66052000D02*
X255770000Y-67540000D01*
X257131000Y-66795000D02*
X257131000Y-67540000D01*
X256291000Y-66215000D02*
X256291000Y-67540000D01*
X257251000Y-69620000D02*
X257251000Y-70233000D01*
X257131000Y-69620000D02*
X257131000Y-70365000D01*
X256691000Y-69620000D02*
X256691000Y-70729000D01*
X256571000Y-69620000D02*
X256571000Y-70804000D01*
X256531000Y-69620000D02*
X256531000Y-70827000D01*
X255930000Y-66089000D02*
X255930000Y-67540000D01*
X257851000Y-68296000D02*
X257851000Y-68864000D01*
X256971000Y-69620000D02*
X256971000Y-70517000D01*
X255850000Y-69620000D02*
X255850000Y-71091000D01*
X257411000Y-67137000D02*
X257411000Y-67540000D01*
X256051000Y-66125000D02*
X256051000Y-67540000D01*
X255770000Y-69620000D02*
X255770000Y-71108000D01*
X257571000Y-67402000D02*
X257571000Y-69758000D01*
X257531000Y-69620000D02*
X257531000Y-69831000D01*
X256611000Y-66380000D02*
X256611000Y-67540000D01*
X256731000Y-69620000D02*
X256731000Y-70702000D01*
X255490000Y-69620000D02*
X255490000Y-71149000D01*
X256371000Y-66251000D02*
X256371000Y-67540000D01*
X255650000Y-66030000D02*
X255650000Y-67540000D01*
X256131000Y-66152000D02*
X256131000Y-67540000D01*
X257870000Y-68580000D02*
G75*
G02*
X252630000Y-68580000I-2620000J0D01*
G01*
X252630000Y-68580000D02*
G75*
G02*
X257870000Y-68580000I2620000J0D01*
G01*
%TO.C,C8*%
X253880000Y-95130000D02*
X253880000Y-99870000D01*
X253880000Y-95130000D02*
X261120000Y-95130000D01*
X253880000Y-99870000D02*
X261120000Y-99870000D01*
X261120000Y-95130000D02*
X261120000Y-99870000D01*
%TO.C,D4*%
X232610000Y-63500000D02*
X235020000Y-63500000D01*
X232610000Y-63500000D02*
G75*
G02*
X229670000Y-63500000I-1470000J0D01*
G01*
X229670000Y-63500000D02*
G75*
G02*
X232610000Y-63500000I1470000J0D01*
G01*
%TO.C,R6*%
X217420000Y-101630000D02*
X223960000Y-101630000D01*
X217420000Y-104040000D02*
X217420000Y-104370000D01*
X217420000Y-104370000D02*
X223960000Y-104370000D01*
X217420000Y-101960000D02*
X217420000Y-101630000D01*
X223960000Y-101630000D02*
X223960000Y-101960000D01*
X223960000Y-104370000D02*
X223960000Y-104040000D01*
%TO.C,C4*%
X206380000Y-95870000D02*
X206380000Y-92130000D01*
X213620000Y-95870000D02*
X206380000Y-95870000D01*
X213620000Y-95870000D02*
X213620000Y-92130000D01*
X213620000Y-92130000D02*
X206380000Y-92130000D01*
%TO.C,C100*%
X222480000Y-68691000D02*
X221345000Y-68691000D01*
X222480000Y-67770000D02*
X220984000Y-67770000D01*
X225615000Y-68811000D02*
X224560000Y-68811000D01*
X222480000Y-68891000D02*
X221485000Y-68891000D01*
X225669000Y-68731000D02*
X224560000Y-68731000D01*
X225421000Y-69051000D02*
X224560000Y-69051000D01*
X226093000Y-67490000D02*
X220947000Y-67490000D01*
X224995000Y-64485225D02*
X224995000Y-64985225D01*
X224771000Y-69571000D02*
X224560000Y-69571000D01*
X225491000Y-68971000D02*
X224560000Y-68971000D01*
X226099000Y-67370000D02*
X220941000Y-67370000D01*
X224839000Y-69531000D02*
X224560000Y-69531000D01*
X222480000Y-67930000D02*
X221019000Y-67930000D01*
X222480000Y-68211000D02*
X221106000Y-68211000D01*
X222480000Y-69291000D02*
X221867000Y-69291000D01*
X224325000Y-69771000D02*
X222715000Y-69771000D01*
X225585000Y-68851000D02*
X224560000Y-68851000D01*
X222480000Y-68011000D02*
X221040000Y-68011000D01*
X225788000Y-68531000D02*
X224560000Y-68531000D01*
X223804000Y-69891000D02*
X223236000Y-69891000D01*
X222480000Y-69371000D02*
X221966000Y-69371000D01*
X222480000Y-69251000D02*
X221821000Y-69251000D01*
X222480000Y-67690000D02*
X220970000Y-67690000D01*
X225263000Y-69211000D02*
X224560000Y-69211000D01*
X225524000Y-68931000D02*
X224560000Y-68931000D01*
X222480000Y-68171000D02*
X221092000Y-68171000D01*
X225555000Y-68891000D02*
X224560000Y-68891000D01*
X225948000Y-68171000D02*
X224560000Y-68171000D01*
X222480000Y-68371000D02*
X221172000Y-68371000D01*
X224435000Y-69731000D02*
X222605000Y-69731000D01*
X225020000Y-69411000D02*
X224560000Y-69411000D01*
X222480000Y-68411000D02*
X221191000Y-68411000D01*
X226085000Y-67570000D02*
X224560000Y-67570000D01*
X225902000Y-68291000D02*
X224560000Y-68291000D01*
X226096000Y-67450000D02*
X220944000Y-67450000D01*
X222480000Y-67610000D02*
X220959000Y-67610000D01*
X225245000Y-64735225D02*
X224745000Y-64735225D01*
X224531000Y-69691000D02*
X222509000Y-69691000D01*
X222480000Y-69211000D02*
X221777000Y-69211000D01*
X224197000Y-69811000D02*
X222843000Y-69811000D01*
X222480000Y-68131000D02*
X221078000Y-68131000D01*
X226021000Y-67930000D02*
X224560000Y-67930000D01*
X222480000Y-67850000D02*
X221000000Y-67850000D01*
X222480000Y-69051000D02*
X221619000Y-69051000D01*
X225962000Y-68131000D02*
X224560000Y-68131000D01*
X226089000Y-67530000D02*
X224560000Y-67530000D01*
X222480000Y-67530000D02*
X220951000Y-67530000D01*
X225346000Y-69131000D02*
X224560000Y-69131000D01*
X222480000Y-68851000D02*
X221455000Y-68851000D01*
X225305000Y-69171000D02*
X224560000Y-69171000D01*
X222480000Y-67810000D02*
X220992000Y-67810000D01*
X222480000Y-69011000D02*
X221583000Y-69011000D01*
X226000000Y-68011000D02*
X224560000Y-68011000D01*
X225695000Y-68691000D02*
X224560000Y-68691000D01*
X222480000Y-68731000D02*
X221371000Y-68731000D01*
X222480000Y-67730000D02*
X220977000Y-67730000D01*
X225849000Y-68411000D02*
X224560000Y-68411000D01*
X225744000Y-68611000D02*
X224560000Y-68611000D01*
X222480000Y-68971000D02*
X221549000Y-68971000D01*
X222480000Y-68651000D02*
X221320000Y-68651000D01*
X222480000Y-69171000D02*
X221735000Y-69171000D01*
X222480000Y-68451000D02*
X221210000Y-68451000D01*
X225810000Y-68491000D02*
X224560000Y-68491000D01*
X224903000Y-69491000D02*
X224560000Y-69491000D01*
X225885000Y-68331000D02*
X224560000Y-68331000D01*
X222480000Y-68611000D02*
X221296000Y-68611000D01*
X222480000Y-68931000D02*
X221516000Y-68931000D01*
X222480000Y-68771000D02*
X221398000Y-68771000D01*
X222480000Y-69451000D02*
X222077000Y-69451000D01*
X225988000Y-68051000D02*
X224560000Y-68051000D01*
X225173000Y-69291000D02*
X224560000Y-69291000D01*
X224963000Y-69451000D02*
X224560000Y-69451000D01*
X225830000Y-68451000D02*
X224560000Y-68451000D01*
X222480000Y-69331000D02*
X221915000Y-69331000D01*
X224038000Y-69851000D02*
X223002000Y-69851000D01*
X225868000Y-68371000D02*
X224560000Y-68371000D01*
X222480000Y-68531000D02*
X221252000Y-68531000D01*
X222480000Y-69531000D02*
X222201000Y-69531000D01*
X225975000Y-68091000D02*
X224560000Y-68091000D01*
X222480000Y-68811000D02*
X221425000Y-68811000D01*
X222480000Y-67970000D02*
X221029000Y-67970000D01*
X222480000Y-69571000D02*
X222269000Y-69571000D01*
X226063000Y-67730000D02*
X224560000Y-67730000D01*
X225219000Y-69251000D02*
X224560000Y-69251000D01*
X225457000Y-69011000D02*
X224560000Y-69011000D01*
X226070000Y-67690000D02*
X224560000Y-67690000D01*
X222480000Y-68291000D02*
X221138000Y-68291000D01*
X222480000Y-68051000D02*
X221052000Y-68051000D01*
X226100000Y-67290000D02*
X220940000Y-67290000D01*
X222480000Y-67570000D02*
X220955000Y-67570000D01*
X226011000Y-67970000D02*
X224560000Y-67970000D01*
X225125000Y-69331000D02*
X224560000Y-69331000D01*
X222480000Y-68091000D02*
X221065000Y-68091000D01*
X225642000Y-68771000D02*
X224560000Y-68771000D01*
X225934000Y-68211000D02*
X224560000Y-68211000D01*
X226040000Y-67850000D02*
X224560000Y-67850000D01*
X225074000Y-69371000D02*
X224560000Y-69371000D01*
X225720000Y-68651000D02*
X224560000Y-68651000D01*
X226100000Y-67330000D02*
X220940000Y-67330000D01*
X222480000Y-67650000D02*
X220964000Y-67650000D01*
X225918000Y-68251000D02*
X224560000Y-68251000D01*
X225384000Y-69091000D02*
X224560000Y-69091000D01*
X226081000Y-67610000D02*
X224560000Y-67610000D01*
X222480000Y-69411000D02*
X222020000Y-69411000D01*
X222480000Y-68571000D02*
X221273000Y-68571000D01*
X226048000Y-67810000D02*
X224560000Y-67810000D01*
X225767000Y-68571000D02*
X224560000Y-68571000D01*
X226076000Y-67650000D02*
X224560000Y-67650000D01*
X222480000Y-68491000D02*
X221230000Y-68491000D01*
X224698000Y-69611000D02*
X222342000Y-69611000D01*
X226031000Y-67890000D02*
X224560000Y-67890000D01*
X226098000Y-67410000D02*
X220942000Y-67410000D01*
X222480000Y-67890000D02*
X221009000Y-67890000D01*
X222480000Y-68251000D02*
X221122000Y-68251000D01*
X224618000Y-69651000D02*
X222422000Y-69651000D01*
X222480000Y-69491000D02*
X222137000Y-69491000D01*
X222480000Y-69091000D02*
X221656000Y-69091000D01*
X222480000Y-68331000D02*
X221155000Y-68331000D01*
X226056000Y-67770000D02*
X224560000Y-67770000D01*
X222480000Y-69131000D02*
X221694000Y-69131000D01*
X226140000Y-67290000D02*
G75*
G02*
X220900000Y-67290000I-2620000J0D01*
G01*
X220900000Y-67290000D02*
G75*
G02*
X226140000Y-67290000I2620000J0D01*
G01*
%TO.C,R7*%
X223960000Y-92370000D02*
X217420000Y-92370000D01*
X223960000Y-92040000D02*
X223960000Y-92370000D01*
X223960000Y-89630000D02*
X217420000Y-89630000D01*
X223960000Y-89960000D02*
X223960000Y-89630000D01*
X217420000Y-92370000D02*
X217420000Y-92040000D01*
X217420000Y-89630000D02*
X217420000Y-89960000D01*
%TO.C,C1*%
X206380000Y-104630000D02*
X206380000Y-108370000D01*
X206380000Y-108370000D02*
X213620000Y-108370000D01*
X206380000Y-104630000D02*
X213620000Y-104630000D01*
X213620000Y-104630000D02*
X213620000Y-108370000D01*
%TO.C,R2*%
X217420000Y-112040000D02*
X217420000Y-112370000D01*
X217420000Y-112370000D02*
X223960000Y-112370000D01*
X223960000Y-112370000D02*
X223960000Y-112040000D01*
X217420000Y-109630000D02*
X223960000Y-109630000D01*
X217420000Y-109960000D02*
X217420000Y-109630000D01*
X223960000Y-109630000D02*
X223960000Y-109960000D01*
%TO.C,R1*%
X223960000Y-120370000D02*
X217420000Y-120370000D01*
X223960000Y-117960000D02*
X223960000Y-117630000D01*
X223960000Y-120040000D02*
X223960000Y-120370000D01*
X223960000Y-117630000D02*
X217420000Y-117630000D01*
X217420000Y-117630000D02*
X217420000Y-117960000D01*
X217420000Y-120370000D02*
X217420000Y-120040000D01*
D11*
%TO.C,MODE1*%
X227180000Y-54300000D02*
X227180000Y-47300000D01*
X240180000Y-54300000D02*
X227180000Y-54300000D01*
X227180000Y-47300000D02*
X240180000Y-47300000D01*
X240180000Y-47300000D02*
X240180000Y-54300000D01*
D16*
%TO.C,R10*%
X243540000Y-101870000D02*
X250080000Y-101870000D01*
X243540000Y-99130000D02*
X250080000Y-99130000D01*
X243540000Y-99460000D02*
X243540000Y-99130000D01*
X243540000Y-101540000D02*
X243540000Y-101870000D01*
X250080000Y-101870000D02*
X250080000Y-101540000D01*
X250080000Y-99130000D02*
X250080000Y-99460000D01*
%TO.C,D3*%
X234750000Y-68580000D02*
X232340000Y-68580000D01*
X237690000Y-68580000D02*
G75*
G02*
X234750000Y-68580000I-1470000J0D01*
G01*
X234750000Y-68580000D02*
G75*
G02*
X237690000Y-68580000I1470000J0D01*
G01*
%TO.C,R100*%
X243420000Y-109870000D02*
X249960000Y-109870000D01*
X243420000Y-107460000D02*
X243420000Y-107130000D01*
X243420000Y-109540000D02*
X243420000Y-109870000D01*
X249960000Y-107130000D02*
X249960000Y-107460000D01*
X249960000Y-109870000D02*
X249960000Y-109540000D01*
X243420000Y-107130000D02*
X249960000Y-107130000D01*
%TO.C,D5*%
X232610000Y-73660000D02*
X235020000Y-73660000D01*
X232610000Y-73660000D02*
G75*
G02*
X229670000Y-73660000I-1470000J0D01*
G01*
X229670000Y-73660000D02*
G75*
G02*
X232610000Y-73660000I1470000J0D01*
G01*
%TO.C,C3*%
X206380000Y-110630000D02*
X213620000Y-110630000D01*
X213620000Y-110630000D02*
X213620000Y-114370000D01*
X206380000Y-114370000D02*
X213620000Y-114370000D01*
X206380000Y-110630000D02*
X206380000Y-114370000D01*
%TO.C,D100*%
X246155000Y-91440000D02*
X248565000Y-91440000D01*
X246155000Y-91440000D02*
G75*
G02*
X243215000Y-91440000I-1470000J0D01*
G01*
X243215000Y-91440000D02*
G75*
G02*
X246155000Y-91440000I1470000J0D01*
G01*
%TO.C,C6*%
X213620000Y-116630000D02*
X213620000Y-120370000D01*
X206380000Y-120370000D02*
X213620000Y-120370000D01*
X206380000Y-116630000D02*
X206380000Y-120370000D01*
X206380000Y-116630000D02*
X213620000Y-116630000D01*
%TO.C,R9*%
X223960000Y-108040000D02*
X223960000Y-108370000D01*
X217420000Y-105630000D02*
X217420000Y-105960000D01*
X223960000Y-108370000D02*
X217420000Y-108370000D01*
X223960000Y-105960000D02*
X223960000Y-105630000D01*
X223960000Y-105630000D02*
X217420000Y-105630000D01*
X217420000Y-108370000D02*
X217420000Y-108040000D01*
%TO.C,R4*%
X217420000Y-116370000D02*
X223960000Y-116370000D01*
X223960000Y-116370000D02*
X223960000Y-116040000D01*
X217420000Y-113630000D02*
X223960000Y-113630000D01*
X223960000Y-113630000D02*
X223960000Y-113960000D01*
X217420000Y-113960000D02*
X217420000Y-113630000D01*
X217420000Y-116040000D02*
X217420000Y-116370000D01*
%TO.C,R5*%
X217420000Y-96370000D02*
X223960000Y-96370000D01*
X217420000Y-93960000D02*
X217420000Y-93630000D01*
X217420000Y-96040000D02*
X217420000Y-96370000D01*
X223960000Y-96370000D02*
X223960000Y-96040000D01*
X223960000Y-93630000D02*
X223960000Y-93960000D01*
X217420000Y-93630000D02*
X223960000Y-93630000D01*
%TO.C,U1*%
X238830000Y-115685000D02*
X238830000Y-97665000D01*
X231040000Y-97725000D02*
X231040000Y-115625000D01*
X236340000Y-115625000D02*
X236340000Y-97725000D01*
X236340000Y-97725000D02*
X234690000Y-97725000D01*
X232690000Y-97725000D02*
X231040000Y-97725000D01*
X238830000Y-97665000D02*
X228550000Y-97665000D01*
X228550000Y-115685000D02*
X238830000Y-115685000D01*
X228550000Y-97665000D02*
X228550000Y-115685000D01*
X231040000Y-115625000D02*
X236340000Y-115625000D01*
X234690000Y-97725000D02*
G75*
G02*
X232690000Y-97725000I-1000000J0D01*
G01*
%TO.C,D2*%
X228310000Y-57184000D02*
X228310000Y-57340000D01*
X228310000Y-59500000D02*
X228310000Y-59656000D01*
X228829039Y-57340000D02*
G75*
G02*
X230911130Y-57340163I1040961J-1080000D01*
G01*
X228310000Y-57184484D02*
G75*
G02*
X231542335Y-57341392I1560000J-1235516D01*
G01*
X231542335Y-59498608D02*
G75*
G02*
X228310000Y-59655516I-1672335J1078608D01*
G01*
X230911130Y-59499837D02*
G75*
G02*
X228829039Y-59500000I-1041130J1079837D01*
G01*
%TO.C,R14*%
X243420000Y-114630000D02*
X249960000Y-114630000D01*
X249960000Y-117370000D02*
X249960000Y-117040000D01*
X249960000Y-114630000D02*
X249960000Y-114960000D01*
X243420000Y-114960000D02*
X243420000Y-114630000D01*
X243420000Y-117370000D02*
X249960000Y-117370000D01*
X243420000Y-117040000D02*
X243420000Y-117370000D01*
%TO.C,R11*%
X243540000Y-95150000D02*
X250080000Y-95150000D01*
X250080000Y-95150000D02*
X250080000Y-95480000D01*
X250080000Y-97890000D02*
X250080000Y-97560000D01*
X243540000Y-95480000D02*
X243540000Y-95150000D01*
X243540000Y-97890000D02*
X250080000Y-97890000D01*
X243540000Y-97560000D02*
X243540000Y-97890000D01*
%TO.C,R3*%
X223960000Y-100370000D02*
X223960000Y-100040000D01*
X217420000Y-97960000D02*
X217420000Y-97630000D01*
X217420000Y-100040000D02*
X217420000Y-100370000D01*
X217420000Y-97630000D02*
X223960000Y-97630000D01*
X223960000Y-97630000D02*
X223960000Y-97960000D01*
X217420000Y-100370000D02*
X223960000Y-100370000D01*
%TO.C,R8*%
X250080000Y-103130000D02*
X250080000Y-103460000D01*
X243540000Y-105540000D02*
X243540000Y-105870000D01*
X243540000Y-105870000D02*
X250080000Y-105870000D01*
X250080000Y-105870000D02*
X250080000Y-105540000D01*
X243540000Y-103130000D02*
X250080000Y-103130000D01*
X243540000Y-103460000D02*
X243540000Y-103130000D01*
%TO.C,R12*%
X243420000Y-121370000D02*
X249960000Y-121370000D01*
X243420000Y-118960000D02*
X243420000Y-118630000D01*
X249960000Y-121370000D02*
X249960000Y-121040000D01*
X243420000Y-118630000D02*
X249960000Y-118630000D01*
X249960000Y-118630000D02*
X249960000Y-118960000D01*
X243420000Y-121040000D02*
X243420000Y-121370000D01*
%TO.C,D1*%
X235930000Y-57184000D02*
X235930000Y-57340000D01*
X235930000Y-59500000D02*
X235930000Y-59656000D01*
X236449039Y-57340000D02*
G75*
G02*
X238531130Y-57340163I1040961J-1080000D01*
G01*
X235930000Y-57184484D02*
G75*
G02*
X239162335Y-57341392I1560000J-1235516D01*
G01*
X238531130Y-59499837D02*
G75*
G02*
X236449039Y-59500000I-1041130J1079837D01*
G01*
X239162335Y-59498608D02*
G75*
G02*
X235930000Y-59655516I-1672335J1078608D01*
G01*
%TO.C,C9*%
X261620000Y-112370000D02*
X254380000Y-112370000D01*
X254380000Y-112370000D02*
X254380000Y-107630000D01*
X261620000Y-107630000D02*
X254380000Y-107630000D01*
X261620000Y-112370000D02*
X261620000Y-107630000D01*
%TO.C,C5*%
X261120000Y-89630000D02*
X253880000Y-89630000D01*
X253880000Y-93370000D02*
X253880000Y-89630000D01*
X261120000Y-93370000D02*
X253880000Y-93370000D01*
X261120000Y-93370000D02*
X261120000Y-89630000D01*
%TO.C,C10*%
X258490000Y-116931000D02*
X258490000Y-118460000D01*
X260011000Y-120540000D02*
X260011000Y-121401000D01*
X258610000Y-120540000D02*
X258610000Y-122056000D01*
X260811000Y-118982000D02*
X260811000Y-120018000D01*
X260851000Y-119216000D02*
X260851000Y-119784000D01*
X259931000Y-120540000D02*
X259931000Y-121471000D01*
X258650000Y-120540000D02*
X258650000Y-122050000D01*
X259131000Y-117072000D02*
X259131000Y-118460000D01*
X259371000Y-120540000D02*
X259371000Y-121829000D01*
X259811000Y-120540000D02*
X259811000Y-121565000D01*
X260131000Y-120540000D02*
X260131000Y-121285000D01*
X258971000Y-117020000D02*
X258971000Y-118460000D01*
X260531000Y-118249000D02*
X260531000Y-118460000D01*
X260731000Y-118695000D02*
X260731000Y-120305000D01*
X260171000Y-120540000D02*
X260171000Y-121243000D01*
X259171000Y-117086000D02*
X259171000Y-118460000D01*
X259131000Y-120540000D02*
X259131000Y-121928000D01*
X260171000Y-117757000D02*
X260171000Y-118460000D01*
X260691000Y-118585000D02*
X260691000Y-120415000D01*
X259691000Y-120540000D02*
X259691000Y-121649000D01*
X259171000Y-120540000D02*
X259171000Y-121914000D01*
X258850000Y-116989000D02*
X258850000Y-118460000D01*
X260651000Y-118489000D02*
X260651000Y-120511000D01*
X259811000Y-117435000D02*
X259811000Y-118460000D01*
X259091000Y-117058000D02*
X259091000Y-118460000D01*
X260251000Y-120540000D02*
X260251000Y-121153000D01*
X260331000Y-117946000D02*
X260331000Y-118460000D01*
X258690000Y-116957000D02*
X258690000Y-118460000D01*
X260491000Y-120540000D02*
X260491000Y-120819000D01*
X259211000Y-120540000D02*
X259211000Y-121898000D01*
X259491000Y-120540000D02*
X259491000Y-121768000D01*
X260091000Y-117674000D02*
X260091000Y-118460000D01*
X259571000Y-117276000D02*
X259571000Y-118460000D01*
X259491000Y-117232000D02*
X259491000Y-118460000D01*
X259851000Y-120540000D02*
X259851000Y-121535000D01*
X258410000Y-116924000D02*
X258410000Y-122076000D01*
X258971000Y-120540000D02*
X258971000Y-121980000D01*
X259331000Y-117152000D02*
X259331000Y-118460000D01*
X259851000Y-117465000D02*
X259851000Y-118460000D01*
X259011000Y-117032000D02*
X259011000Y-118460000D01*
X258290000Y-116920000D02*
X258290000Y-122080000D01*
X259451000Y-117210000D02*
X259451000Y-118460000D01*
X259051000Y-117045000D02*
X259051000Y-118460000D01*
X259091000Y-120540000D02*
X259091000Y-121942000D01*
X258330000Y-116921000D02*
X258330000Y-122079000D01*
X260091000Y-120540000D02*
X260091000Y-121326000D01*
X259891000Y-117496000D02*
X259891000Y-118460000D01*
X260771000Y-118823000D02*
X260771000Y-120177000D01*
X259251000Y-120540000D02*
X259251000Y-121882000D01*
X259731000Y-117378000D02*
X259731000Y-118460000D01*
X259891000Y-120540000D02*
X259891000Y-121504000D01*
X259731000Y-120540000D02*
X259731000Y-121622000D01*
X258650000Y-116950000D02*
X258650000Y-118460000D01*
X259651000Y-117325000D02*
X259651000Y-118460000D01*
X258810000Y-116980000D02*
X258810000Y-118460000D01*
X258690000Y-120540000D02*
X258690000Y-122043000D01*
X260011000Y-117599000D02*
X260011000Y-118460000D01*
X259011000Y-120540000D02*
X259011000Y-121968000D01*
X258570000Y-120540000D02*
X258570000Y-122061000D01*
X255445225Y-118025000D02*
X255945225Y-118025000D01*
X259531000Y-117253000D02*
X259531000Y-118460000D01*
X258770000Y-120540000D02*
X258770000Y-122028000D01*
X258930000Y-117009000D02*
X258930000Y-118460000D01*
X258530000Y-120540000D02*
X258530000Y-122065000D01*
X255695225Y-117775000D02*
X255695225Y-118275000D01*
X260051000Y-120540000D02*
X260051000Y-121364000D01*
X258890000Y-116999000D02*
X258890000Y-118460000D01*
X260411000Y-118057000D02*
X260411000Y-118460000D01*
X259931000Y-117529000D02*
X259931000Y-118460000D01*
X260051000Y-117636000D02*
X260051000Y-118460000D01*
X260371000Y-118000000D02*
X260371000Y-118460000D01*
X258810000Y-120540000D02*
X258810000Y-122020000D01*
X260371000Y-120540000D02*
X260371000Y-121000000D01*
X259291000Y-120540000D02*
X259291000Y-121865000D01*
X260251000Y-117847000D02*
X260251000Y-118460000D01*
X260531000Y-120540000D02*
X260531000Y-120751000D01*
X259371000Y-117171000D02*
X259371000Y-118460000D01*
X260291000Y-117895000D02*
X260291000Y-118460000D01*
X258850000Y-120540000D02*
X258850000Y-122011000D01*
X259411000Y-117190000D02*
X259411000Y-118460000D01*
X259051000Y-120540000D02*
X259051000Y-121955000D01*
X259291000Y-117135000D02*
X259291000Y-118460000D01*
X260491000Y-118181000D02*
X260491000Y-118460000D01*
X259451000Y-120540000D02*
X259451000Y-121790000D01*
X260291000Y-120540000D02*
X260291000Y-121105000D01*
X258250000Y-116920000D02*
X258250000Y-122080000D01*
X258610000Y-116944000D02*
X258610000Y-118460000D01*
X259651000Y-120540000D02*
X259651000Y-121675000D01*
X259771000Y-120540000D02*
X259771000Y-121595000D01*
X258370000Y-116922000D02*
X258370000Y-122078000D01*
X258570000Y-116939000D02*
X258570000Y-118460000D01*
X259611000Y-117300000D02*
X259611000Y-118460000D01*
X259411000Y-120540000D02*
X259411000Y-121810000D01*
X259571000Y-120540000D02*
X259571000Y-121724000D01*
X260131000Y-117715000D02*
X260131000Y-118460000D01*
X259251000Y-117118000D02*
X259251000Y-118460000D01*
X259971000Y-117563000D02*
X259971000Y-118460000D01*
X258930000Y-120540000D02*
X258930000Y-121991000D01*
X260451000Y-120540000D02*
X260451000Y-120883000D01*
X258890000Y-120540000D02*
X258890000Y-122001000D01*
X259211000Y-117102000D02*
X259211000Y-118460000D01*
X259971000Y-120540000D02*
X259971000Y-121437000D01*
X259691000Y-117351000D02*
X259691000Y-118460000D01*
X259331000Y-120540000D02*
X259331000Y-121848000D01*
X258450000Y-116927000D02*
X258450000Y-122073000D01*
X258730000Y-120540000D02*
X258730000Y-122036000D01*
X260451000Y-118117000D02*
X260451000Y-118460000D01*
X258530000Y-116935000D02*
X258530000Y-118460000D01*
X258490000Y-120540000D02*
X258490000Y-122069000D01*
X260211000Y-120540000D02*
X260211000Y-121199000D01*
X259611000Y-120540000D02*
X259611000Y-121700000D01*
X260571000Y-118322000D02*
X260571000Y-120678000D01*
X259531000Y-120540000D02*
X259531000Y-121747000D01*
X259771000Y-117405000D02*
X259771000Y-118460000D01*
X260331000Y-120540000D02*
X260331000Y-121054000D01*
X258770000Y-116972000D02*
X258770000Y-118460000D01*
X260411000Y-120540000D02*
X260411000Y-120943000D01*
X258730000Y-116964000D02*
X258730000Y-118460000D01*
X260611000Y-118402000D02*
X260611000Y-120598000D01*
X260211000Y-117801000D02*
X260211000Y-118460000D01*
X260870000Y-119500000D02*
G75*
G02*
X255630000Y-119500000I-2620000J0D01*
G01*
X255630000Y-119500000D02*
G75*
G02*
X260870000Y-119500000I2620000J0D01*
G01*
D17*
%TO.C,TONE1*%
X226060000Y-95250000D02*
X241300000Y-95250000D01*
X227330000Y-92710000D02*
X226060000Y-92710000D01*
X241300000Y-92710000D02*
X240030000Y-92710000D01*
X241300000Y-95250000D02*
X241300000Y-92710000D01*
D18*
X240035000Y-92720000D02*
X227355000Y-92720000D01*
D17*
X226060000Y-92710000D02*
X226060000Y-95250000D01*
%TO.C,Gain1*%
X206380000Y-72390000D02*
X206380000Y-74930000D01*
X207650000Y-72390000D02*
X206380000Y-72390000D01*
X206380000Y-74930000D02*
X221620000Y-74930000D01*
X221620000Y-74930000D02*
X221620000Y-72390000D01*
X221620000Y-72390000D02*
X220350000Y-72390000D01*
D18*
X220355000Y-72400000D02*
X207675000Y-72400000D01*
%TD*%
M02*
