%TF.GenerationSoftware,KiCad,Pcbnew,8.0.7*%
%TF.CreationDate,2024-12-12T07:23:30-07:00*%
%TF.ProjectId,Yule screamer,59756c65-2073-4637-9265-616d65722e6b,rev?*%
%TF.SameCoordinates,Original*%
%TF.FileFunction,Copper,L2,Bot*%
%TF.FilePolarity,Positive*%
%FSLAX46Y46*%
G04 Gerber Fmt 4.6, Leading zero omitted, Abs format (unit mm)*
G04 Created by KiCad (PCBNEW 8.0.7) date 2024-12-12 07:23:30*
%MOMM*%
%LPD*%
G01*
G04 APERTURE LIST*
G04 Aperture macros list*
%AMRoundRect*
0 Rectangle with rounded corners*
0 $1 Rounding radius*
0 $2 $3 $4 $5 $6 $7 $8 $9 X,Y pos of 4 corners*
0 Add a 4 corners polygon primitive as box body*
4,1,4,$2,$3,$4,$5,$6,$7,$8,$9,$2,$3,0*
0 Add four circle primitives for the rounded corners*
1,1,$1+$1,$2,$3*
1,1,$1+$1,$4,$5*
1,1,$1+$1,$6,$7*
1,1,$1+$1,$8,$9*
0 Add four rect primitives between the rounded corners*
20,1,$1+$1,$2,$3,$4,$5,0*
20,1,$1+$1,$4,$5,$6,$7,0*
20,1,$1+$1,$6,$7,$8,$9,0*
20,1,$1+$1,$8,$9,$2,$3,0*%
G04 Aperture macros list end*
%ADD10C,0.100000*%
%ADD11C,0.150000*%
%ADD12C,0.300000*%
%ADD13C,0.400000*%
%TA.AperFunction,ComponentPad*%
%ADD14C,1.600000*%
%TD*%
%TA.AperFunction,ComponentPad*%
%ADD15O,1.600000X1.600000*%
%TD*%
%TA.AperFunction,ComponentPad*%
%ADD16C,2.900000*%
%TD*%
%TA.AperFunction,ConnectorPad*%
%ADD17C,5.000000*%
%TD*%
%TA.AperFunction,ComponentPad*%
%ADD18R,1.800000X1.800000*%
%TD*%
%TA.AperFunction,ComponentPad*%
%ADD19C,1.800000*%
%TD*%
%TA.AperFunction,ComponentPad*%
%ADD20O,3.352800X1.676400*%
%TD*%
%TA.AperFunction,ComponentPad*%
%ADD21R,1.600000X1.600000*%
%TD*%
%TA.AperFunction,ComponentPad*%
%ADD22O,1.800000X1.800000*%
%TD*%
%TA.AperFunction,ComponentPad*%
%ADD23RoundRect,0.525000X-0.525000X1.425000X-0.525000X-1.425000X0.525000X-1.425000X0.525000X1.425000X0*%
%TD*%
%TA.AperFunction,ViaPad*%
%ADD24C,0.800000*%
%TD*%
%TA.AperFunction,Conductor*%
%ADD25C,0.250000*%
%TD*%
G04 APERTURE END LIST*
D10*
D11*
X177002200Y-166007200D02*
X285002200Y-166007200D01*
X285002200Y-198007200D01*
X177002200Y-198007200D01*
X177002200Y-166007200D01*
D10*
D11*
X10000000Y-10000000D02*
X287002200Y-10000000D01*
X287002200Y-200007200D01*
X10000000Y-200007200D01*
X10000000Y-10000000D01*
D10*
D11*
X12000000Y-12000000D02*
X285002200Y-12000000D01*
X285002200Y-198007200D01*
X12000000Y-198007200D01*
X12000000Y-12000000D01*
D10*
D11*
X60000000Y-12000000D02*
X60000000Y-10000000D01*
D10*
D11*
X110000000Y-12000000D02*
X110000000Y-10000000D01*
D10*
D11*
X160000000Y-12000000D02*
X160000000Y-10000000D01*
D10*
D11*
X210000000Y-12000000D02*
X210000000Y-10000000D01*
D10*
D11*
X260000000Y-12000000D02*
X260000000Y-10000000D01*
D10*
D11*
X36089160Y-11593604D02*
X35346303Y-11593604D01*
X35717731Y-11593604D02*
X35717731Y-10293604D01*
X35717731Y-10293604D02*
X35593922Y-10479319D01*
X35593922Y-10479319D02*
X35470112Y-10603128D01*
X35470112Y-10603128D02*
X35346303Y-10665033D01*
D10*
D11*
X85346303Y-10417414D02*
X85408207Y-10355509D01*
X85408207Y-10355509D02*
X85532017Y-10293604D01*
X85532017Y-10293604D02*
X85841541Y-10293604D01*
X85841541Y-10293604D02*
X85965350Y-10355509D01*
X85965350Y-10355509D02*
X86027255Y-10417414D01*
X86027255Y-10417414D02*
X86089160Y-10541223D01*
X86089160Y-10541223D02*
X86089160Y-10665033D01*
X86089160Y-10665033D02*
X86027255Y-10850747D01*
X86027255Y-10850747D02*
X85284398Y-11593604D01*
X85284398Y-11593604D02*
X86089160Y-11593604D01*
D10*
D11*
X135284398Y-10293604D02*
X136089160Y-10293604D01*
X136089160Y-10293604D02*
X135655826Y-10788842D01*
X135655826Y-10788842D02*
X135841541Y-10788842D01*
X135841541Y-10788842D02*
X135965350Y-10850747D01*
X135965350Y-10850747D02*
X136027255Y-10912652D01*
X136027255Y-10912652D02*
X136089160Y-11036461D01*
X136089160Y-11036461D02*
X136089160Y-11345985D01*
X136089160Y-11345985D02*
X136027255Y-11469795D01*
X136027255Y-11469795D02*
X135965350Y-11531700D01*
X135965350Y-11531700D02*
X135841541Y-11593604D01*
X135841541Y-11593604D02*
X135470112Y-11593604D01*
X135470112Y-11593604D02*
X135346303Y-11531700D01*
X135346303Y-11531700D02*
X135284398Y-11469795D01*
D10*
D11*
X185965350Y-10726938D02*
X185965350Y-11593604D01*
X185655826Y-10231700D02*
X185346303Y-11160271D01*
X185346303Y-11160271D02*
X186151064Y-11160271D01*
D10*
D11*
X236027255Y-10293604D02*
X235408207Y-10293604D01*
X235408207Y-10293604D02*
X235346303Y-10912652D01*
X235346303Y-10912652D02*
X235408207Y-10850747D01*
X235408207Y-10850747D02*
X235532017Y-10788842D01*
X235532017Y-10788842D02*
X235841541Y-10788842D01*
X235841541Y-10788842D02*
X235965350Y-10850747D01*
X235965350Y-10850747D02*
X236027255Y-10912652D01*
X236027255Y-10912652D02*
X236089160Y-11036461D01*
X236089160Y-11036461D02*
X236089160Y-11345985D01*
X236089160Y-11345985D02*
X236027255Y-11469795D01*
X236027255Y-11469795D02*
X235965350Y-11531700D01*
X235965350Y-11531700D02*
X235841541Y-11593604D01*
X235841541Y-11593604D02*
X235532017Y-11593604D01*
X235532017Y-11593604D02*
X235408207Y-11531700D01*
X235408207Y-11531700D02*
X235346303Y-11469795D01*
D10*
D11*
X285965350Y-10293604D02*
X285717731Y-10293604D01*
X285717731Y-10293604D02*
X285593922Y-10355509D01*
X285593922Y-10355509D02*
X285532017Y-10417414D01*
X285532017Y-10417414D02*
X285408207Y-10603128D01*
X285408207Y-10603128D02*
X285346303Y-10850747D01*
X285346303Y-10850747D02*
X285346303Y-11345985D01*
X285346303Y-11345985D02*
X285408207Y-11469795D01*
X285408207Y-11469795D02*
X285470112Y-11531700D01*
X285470112Y-11531700D02*
X285593922Y-11593604D01*
X285593922Y-11593604D02*
X285841541Y-11593604D01*
X285841541Y-11593604D02*
X285965350Y-11531700D01*
X285965350Y-11531700D02*
X286027255Y-11469795D01*
X286027255Y-11469795D02*
X286089160Y-11345985D01*
X286089160Y-11345985D02*
X286089160Y-11036461D01*
X286089160Y-11036461D02*
X286027255Y-10912652D01*
X286027255Y-10912652D02*
X285965350Y-10850747D01*
X285965350Y-10850747D02*
X285841541Y-10788842D01*
X285841541Y-10788842D02*
X285593922Y-10788842D01*
X285593922Y-10788842D02*
X285470112Y-10850747D01*
X285470112Y-10850747D02*
X285408207Y-10912652D01*
X285408207Y-10912652D02*
X285346303Y-11036461D01*
D10*
D11*
X60000000Y-198007200D02*
X60000000Y-200007200D01*
D10*
D11*
X110000000Y-198007200D02*
X110000000Y-200007200D01*
D10*
D11*
X160000000Y-198007200D02*
X160000000Y-200007200D01*
D10*
D11*
X210000000Y-198007200D02*
X210000000Y-200007200D01*
D10*
D11*
X260000000Y-198007200D02*
X260000000Y-200007200D01*
D10*
D11*
X36089160Y-199600804D02*
X35346303Y-199600804D01*
X35717731Y-199600804D02*
X35717731Y-198300804D01*
X35717731Y-198300804D02*
X35593922Y-198486519D01*
X35593922Y-198486519D02*
X35470112Y-198610328D01*
X35470112Y-198610328D02*
X35346303Y-198672233D01*
D10*
D11*
X85346303Y-198424614D02*
X85408207Y-198362709D01*
X85408207Y-198362709D02*
X85532017Y-198300804D01*
X85532017Y-198300804D02*
X85841541Y-198300804D01*
X85841541Y-198300804D02*
X85965350Y-198362709D01*
X85965350Y-198362709D02*
X86027255Y-198424614D01*
X86027255Y-198424614D02*
X86089160Y-198548423D01*
X86089160Y-198548423D02*
X86089160Y-198672233D01*
X86089160Y-198672233D02*
X86027255Y-198857947D01*
X86027255Y-198857947D02*
X85284398Y-199600804D01*
X85284398Y-199600804D02*
X86089160Y-199600804D01*
D10*
D11*
X135284398Y-198300804D02*
X136089160Y-198300804D01*
X136089160Y-198300804D02*
X135655826Y-198796042D01*
X135655826Y-198796042D02*
X135841541Y-198796042D01*
X135841541Y-198796042D02*
X135965350Y-198857947D01*
X135965350Y-198857947D02*
X136027255Y-198919852D01*
X136027255Y-198919852D02*
X136089160Y-199043661D01*
X136089160Y-199043661D02*
X136089160Y-199353185D01*
X136089160Y-199353185D02*
X136027255Y-199476995D01*
X136027255Y-199476995D02*
X135965350Y-199538900D01*
X135965350Y-199538900D02*
X135841541Y-199600804D01*
X135841541Y-199600804D02*
X135470112Y-199600804D01*
X135470112Y-199600804D02*
X135346303Y-199538900D01*
X135346303Y-199538900D02*
X135284398Y-199476995D01*
D10*
D11*
X185965350Y-198734138D02*
X185965350Y-199600804D01*
X185655826Y-198238900D02*
X185346303Y-199167471D01*
X185346303Y-199167471D02*
X186151064Y-199167471D01*
D10*
D11*
X236027255Y-198300804D02*
X235408207Y-198300804D01*
X235408207Y-198300804D02*
X235346303Y-198919852D01*
X235346303Y-198919852D02*
X235408207Y-198857947D01*
X235408207Y-198857947D02*
X235532017Y-198796042D01*
X235532017Y-198796042D02*
X235841541Y-198796042D01*
X235841541Y-198796042D02*
X235965350Y-198857947D01*
X235965350Y-198857947D02*
X236027255Y-198919852D01*
X236027255Y-198919852D02*
X236089160Y-199043661D01*
X236089160Y-199043661D02*
X236089160Y-199353185D01*
X236089160Y-199353185D02*
X236027255Y-199476995D01*
X236027255Y-199476995D02*
X235965350Y-199538900D01*
X235965350Y-199538900D02*
X235841541Y-199600804D01*
X235841541Y-199600804D02*
X235532017Y-199600804D01*
X235532017Y-199600804D02*
X235408207Y-199538900D01*
X235408207Y-199538900D02*
X235346303Y-199476995D01*
D10*
D11*
X285965350Y-198300804D02*
X285717731Y-198300804D01*
X285717731Y-198300804D02*
X285593922Y-198362709D01*
X285593922Y-198362709D02*
X285532017Y-198424614D01*
X285532017Y-198424614D02*
X285408207Y-198610328D01*
X285408207Y-198610328D02*
X285346303Y-198857947D01*
X285346303Y-198857947D02*
X285346303Y-199353185D01*
X285346303Y-199353185D02*
X285408207Y-199476995D01*
X285408207Y-199476995D02*
X285470112Y-199538900D01*
X285470112Y-199538900D02*
X285593922Y-199600804D01*
X285593922Y-199600804D02*
X285841541Y-199600804D01*
X285841541Y-199600804D02*
X285965350Y-199538900D01*
X285965350Y-199538900D02*
X286027255Y-199476995D01*
X286027255Y-199476995D02*
X286089160Y-199353185D01*
X286089160Y-199353185D02*
X286089160Y-199043661D01*
X286089160Y-199043661D02*
X286027255Y-198919852D01*
X286027255Y-198919852D02*
X285965350Y-198857947D01*
X285965350Y-198857947D02*
X285841541Y-198796042D01*
X285841541Y-198796042D02*
X285593922Y-198796042D01*
X285593922Y-198796042D02*
X285470112Y-198857947D01*
X285470112Y-198857947D02*
X285408207Y-198919852D01*
X285408207Y-198919852D02*
X285346303Y-199043661D01*
D10*
D11*
X10000000Y-60000000D02*
X12000000Y-60000000D01*
D10*
D11*
X10000000Y-110000000D02*
X12000000Y-110000000D01*
D10*
D11*
X10000000Y-160000000D02*
X12000000Y-160000000D01*
D10*
D11*
X10690476Y-35222176D02*
X11309523Y-35222176D01*
X10566666Y-35593604D02*
X10999999Y-34293604D01*
X10999999Y-34293604D02*
X11433333Y-35593604D01*
D10*
D11*
X11092857Y-84912652D02*
X11278571Y-84974557D01*
X11278571Y-84974557D02*
X11340476Y-85036461D01*
X11340476Y-85036461D02*
X11402380Y-85160271D01*
X11402380Y-85160271D02*
X11402380Y-85345985D01*
X11402380Y-85345985D02*
X11340476Y-85469795D01*
X11340476Y-85469795D02*
X11278571Y-85531700D01*
X11278571Y-85531700D02*
X11154761Y-85593604D01*
X11154761Y-85593604D02*
X10659523Y-85593604D01*
X10659523Y-85593604D02*
X10659523Y-84293604D01*
X10659523Y-84293604D02*
X11092857Y-84293604D01*
X11092857Y-84293604D02*
X11216666Y-84355509D01*
X11216666Y-84355509D02*
X11278571Y-84417414D01*
X11278571Y-84417414D02*
X11340476Y-84541223D01*
X11340476Y-84541223D02*
X11340476Y-84665033D01*
X11340476Y-84665033D02*
X11278571Y-84788842D01*
X11278571Y-84788842D02*
X11216666Y-84850747D01*
X11216666Y-84850747D02*
X11092857Y-84912652D01*
X11092857Y-84912652D02*
X10659523Y-84912652D01*
D10*
D11*
X11402380Y-135469795D02*
X11340476Y-135531700D01*
X11340476Y-135531700D02*
X11154761Y-135593604D01*
X11154761Y-135593604D02*
X11030952Y-135593604D01*
X11030952Y-135593604D02*
X10845238Y-135531700D01*
X10845238Y-135531700D02*
X10721428Y-135407890D01*
X10721428Y-135407890D02*
X10659523Y-135284080D01*
X10659523Y-135284080D02*
X10597619Y-135036461D01*
X10597619Y-135036461D02*
X10597619Y-134850747D01*
X10597619Y-134850747D02*
X10659523Y-134603128D01*
X10659523Y-134603128D02*
X10721428Y-134479319D01*
X10721428Y-134479319D02*
X10845238Y-134355509D01*
X10845238Y-134355509D02*
X11030952Y-134293604D01*
X11030952Y-134293604D02*
X11154761Y-134293604D01*
X11154761Y-134293604D02*
X11340476Y-134355509D01*
X11340476Y-134355509D02*
X11402380Y-134417414D01*
D10*
D11*
X10659523Y-185593604D02*
X10659523Y-184293604D01*
X10659523Y-184293604D02*
X10969047Y-184293604D01*
X10969047Y-184293604D02*
X11154761Y-184355509D01*
X11154761Y-184355509D02*
X11278571Y-184479319D01*
X11278571Y-184479319D02*
X11340476Y-184603128D01*
X11340476Y-184603128D02*
X11402380Y-184850747D01*
X11402380Y-184850747D02*
X11402380Y-185036461D01*
X11402380Y-185036461D02*
X11340476Y-185284080D01*
X11340476Y-185284080D02*
X11278571Y-185407890D01*
X11278571Y-185407890D02*
X11154761Y-185531700D01*
X11154761Y-185531700D02*
X10969047Y-185593604D01*
X10969047Y-185593604D02*
X10659523Y-185593604D01*
D10*
D11*
X287002200Y-60000000D02*
X285002200Y-60000000D01*
D10*
D11*
X287002200Y-110000000D02*
X285002200Y-110000000D01*
D10*
D11*
X287002200Y-160000000D02*
X285002200Y-160000000D01*
D10*
D11*
X285692676Y-35222176D02*
X286311723Y-35222176D01*
X285568866Y-35593604D02*
X286002199Y-34293604D01*
X286002199Y-34293604D02*
X286435533Y-35593604D01*
D10*
D11*
X286095057Y-84912652D02*
X286280771Y-84974557D01*
X286280771Y-84974557D02*
X286342676Y-85036461D01*
X286342676Y-85036461D02*
X286404580Y-85160271D01*
X286404580Y-85160271D02*
X286404580Y-85345985D01*
X286404580Y-85345985D02*
X286342676Y-85469795D01*
X286342676Y-85469795D02*
X286280771Y-85531700D01*
X286280771Y-85531700D02*
X286156961Y-85593604D01*
X286156961Y-85593604D02*
X285661723Y-85593604D01*
X285661723Y-85593604D02*
X285661723Y-84293604D01*
X285661723Y-84293604D02*
X286095057Y-84293604D01*
X286095057Y-84293604D02*
X286218866Y-84355509D01*
X286218866Y-84355509D02*
X286280771Y-84417414D01*
X286280771Y-84417414D02*
X286342676Y-84541223D01*
X286342676Y-84541223D02*
X286342676Y-84665033D01*
X286342676Y-84665033D02*
X286280771Y-84788842D01*
X286280771Y-84788842D02*
X286218866Y-84850747D01*
X286218866Y-84850747D02*
X286095057Y-84912652D01*
X286095057Y-84912652D02*
X285661723Y-84912652D01*
D10*
D11*
X286404580Y-135469795D02*
X286342676Y-135531700D01*
X286342676Y-135531700D02*
X286156961Y-135593604D01*
X286156961Y-135593604D02*
X286033152Y-135593604D01*
X286033152Y-135593604D02*
X285847438Y-135531700D01*
X285847438Y-135531700D02*
X285723628Y-135407890D01*
X285723628Y-135407890D02*
X285661723Y-135284080D01*
X285661723Y-135284080D02*
X285599819Y-135036461D01*
X285599819Y-135036461D02*
X285599819Y-134850747D01*
X285599819Y-134850747D02*
X285661723Y-134603128D01*
X285661723Y-134603128D02*
X285723628Y-134479319D01*
X285723628Y-134479319D02*
X285847438Y-134355509D01*
X285847438Y-134355509D02*
X286033152Y-134293604D01*
X286033152Y-134293604D02*
X286156961Y-134293604D01*
X286156961Y-134293604D02*
X286342676Y-134355509D01*
X286342676Y-134355509D02*
X286404580Y-134417414D01*
D10*
D11*
X285661723Y-185593604D02*
X285661723Y-184293604D01*
X285661723Y-184293604D02*
X285971247Y-184293604D01*
X285971247Y-184293604D02*
X286156961Y-184355509D01*
X286156961Y-184355509D02*
X286280771Y-184479319D01*
X286280771Y-184479319D02*
X286342676Y-184603128D01*
X286342676Y-184603128D02*
X286404580Y-184850747D01*
X286404580Y-184850747D02*
X286404580Y-185036461D01*
X286404580Y-185036461D02*
X286342676Y-185284080D01*
X286342676Y-185284080D02*
X286280771Y-185407890D01*
X286280771Y-185407890D02*
X286156961Y-185531700D01*
X286156961Y-185531700D02*
X285971247Y-185593604D01*
X285971247Y-185593604D02*
X285661723Y-185593604D01*
D10*
D11*
X200458026Y-193793328D02*
X200458026Y-192293328D01*
X200458026Y-192293328D02*
X200815169Y-192293328D01*
X200815169Y-192293328D02*
X201029455Y-192364757D01*
X201029455Y-192364757D02*
X201172312Y-192507614D01*
X201172312Y-192507614D02*
X201243741Y-192650471D01*
X201243741Y-192650471D02*
X201315169Y-192936185D01*
X201315169Y-192936185D02*
X201315169Y-193150471D01*
X201315169Y-193150471D02*
X201243741Y-193436185D01*
X201243741Y-193436185D02*
X201172312Y-193579042D01*
X201172312Y-193579042D02*
X201029455Y-193721900D01*
X201029455Y-193721900D02*
X200815169Y-193793328D01*
X200815169Y-193793328D02*
X200458026Y-193793328D01*
X202600884Y-193793328D02*
X202600884Y-193007614D01*
X202600884Y-193007614D02*
X202529455Y-192864757D01*
X202529455Y-192864757D02*
X202386598Y-192793328D01*
X202386598Y-192793328D02*
X202100884Y-192793328D01*
X202100884Y-192793328D02*
X201958026Y-192864757D01*
X202600884Y-193721900D02*
X202458026Y-193793328D01*
X202458026Y-193793328D02*
X202100884Y-193793328D01*
X202100884Y-193793328D02*
X201958026Y-193721900D01*
X201958026Y-193721900D02*
X201886598Y-193579042D01*
X201886598Y-193579042D02*
X201886598Y-193436185D01*
X201886598Y-193436185D02*
X201958026Y-193293328D01*
X201958026Y-193293328D02*
X202100884Y-193221900D01*
X202100884Y-193221900D02*
X202458026Y-193221900D01*
X202458026Y-193221900D02*
X202600884Y-193150471D01*
X203100884Y-192793328D02*
X203672312Y-192793328D01*
X203315169Y-192293328D02*
X203315169Y-193579042D01*
X203315169Y-193579042D02*
X203386598Y-193721900D01*
X203386598Y-193721900D02*
X203529455Y-193793328D01*
X203529455Y-193793328D02*
X203672312Y-193793328D01*
X204743741Y-193721900D02*
X204600884Y-193793328D01*
X204600884Y-193793328D02*
X204315170Y-193793328D01*
X204315170Y-193793328D02*
X204172312Y-193721900D01*
X204172312Y-193721900D02*
X204100884Y-193579042D01*
X204100884Y-193579042D02*
X204100884Y-193007614D01*
X204100884Y-193007614D02*
X204172312Y-192864757D01*
X204172312Y-192864757D02*
X204315170Y-192793328D01*
X204315170Y-192793328D02*
X204600884Y-192793328D01*
X204600884Y-192793328D02*
X204743741Y-192864757D01*
X204743741Y-192864757D02*
X204815170Y-193007614D01*
X204815170Y-193007614D02*
X204815170Y-193150471D01*
X204815170Y-193150471D02*
X204100884Y-193293328D01*
X205458026Y-193650471D02*
X205529455Y-193721900D01*
X205529455Y-193721900D02*
X205458026Y-193793328D01*
X205458026Y-193793328D02*
X205386598Y-193721900D01*
X205386598Y-193721900D02*
X205458026Y-193650471D01*
X205458026Y-193650471D02*
X205458026Y-193793328D01*
X205458026Y-192864757D02*
X205529455Y-192936185D01*
X205529455Y-192936185D02*
X205458026Y-193007614D01*
X205458026Y-193007614D02*
X205386598Y-192936185D01*
X205386598Y-192936185D02*
X205458026Y-192864757D01*
X205458026Y-192864757D02*
X205458026Y-193007614D01*
D10*
D11*
X177002200Y-194507200D02*
X285002200Y-194507200D01*
D10*
D11*
X178458026Y-196593328D02*
X178458026Y-195093328D01*
X179315169Y-196593328D02*
X178672312Y-195736185D01*
X179315169Y-195093328D02*
X178458026Y-195950471D01*
X179958026Y-196593328D02*
X179958026Y-195593328D01*
X179958026Y-195093328D02*
X179886598Y-195164757D01*
X179886598Y-195164757D02*
X179958026Y-195236185D01*
X179958026Y-195236185D02*
X180029455Y-195164757D01*
X180029455Y-195164757D02*
X179958026Y-195093328D01*
X179958026Y-195093328D02*
X179958026Y-195236185D01*
X181529455Y-196450471D02*
X181458027Y-196521900D01*
X181458027Y-196521900D02*
X181243741Y-196593328D01*
X181243741Y-196593328D02*
X181100884Y-196593328D01*
X181100884Y-196593328D02*
X180886598Y-196521900D01*
X180886598Y-196521900D02*
X180743741Y-196379042D01*
X180743741Y-196379042D02*
X180672312Y-196236185D01*
X180672312Y-196236185D02*
X180600884Y-195950471D01*
X180600884Y-195950471D02*
X180600884Y-195736185D01*
X180600884Y-195736185D02*
X180672312Y-195450471D01*
X180672312Y-195450471D02*
X180743741Y-195307614D01*
X180743741Y-195307614D02*
X180886598Y-195164757D01*
X180886598Y-195164757D02*
X181100884Y-195093328D01*
X181100884Y-195093328D02*
X181243741Y-195093328D01*
X181243741Y-195093328D02*
X181458027Y-195164757D01*
X181458027Y-195164757D02*
X181529455Y-195236185D01*
X182815170Y-196593328D02*
X182815170Y-195807614D01*
X182815170Y-195807614D02*
X182743741Y-195664757D01*
X182743741Y-195664757D02*
X182600884Y-195593328D01*
X182600884Y-195593328D02*
X182315170Y-195593328D01*
X182315170Y-195593328D02*
X182172312Y-195664757D01*
X182815170Y-196521900D02*
X182672312Y-196593328D01*
X182672312Y-196593328D02*
X182315170Y-196593328D01*
X182315170Y-196593328D02*
X182172312Y-196521900D01*
X182172312Y-196521900D02*
X182100884Y-196379042D01*
X182100884Y-196379042D02*
X182100884Y-196236185D01*
X182100884Y-196236185D02*
X182172312Y-196093328D01*
X182172312Y-196093328D02*
X182315170Y-196021900D01*
X182315170Y-196021900D02*
X182672312Y-196021900D01*
X182672312Y-196021900D02*
X182815170Y-195950471D01*
X184172313Y-196593328D02*
X184172313Y-195093328D01*
X184172313Y-196521900D02*
X184029455Y-196593328D01*
X184029455Y-196593328D02*
X183743741Y-196593328D01*
X183743741Y-196593328D02*
X183600884Y-196521900D01*
X183600884Y-196521900D02*
X183529455Y-196450471D01*
X183529455Y-196450471D02*
X183458027Y-196307614D01*
X183458027Y-196307614D02*
X183458027Y-195879042D01*
X183458027Y-195879042D02*
X183529455Y-195736185D01*
X183529455Y-195736185D02*
X183600884Y-195664757D01*
X183600884Y-195664757D02*
X183743741Y-195593328D01*
X183743741Y-195593328D02*
X184029455Y-195593328D01*
X184029455Y-195593328D02*
X184172313Y-195664757D01*
X186029455Y-195807614D02*
X186529455Y-195807614D01*
X186743741Y-196593328D02*
X186029455Y-196593328D01*
X186029455Y-196593328D02*
X186029455Y-195093328D01*
X186029455Y-195093328D02*
X186743741Y-195093328D01*
X187386598Y-196450471D02*
X187458027Y-196521900D01*
X187458027Y-196521900D02*
X187386598Y-196593328D01*
X187386598Y-196593328D02*
X187315170Y-196521900D01*
X187315170Y-196521900D02*
X187386598Y-196450471D01*
X187386598Y-196450471D02*
X187386598Y-196593328D01*
X188100884Y-196593328D02*
X188100884Y-195093328D01*
X188100884Y-195093328D02*
X188458027Y-195093328D01*
X188458027Y-195093328D02*
X188672313Y-195164757D01*
X188672313Y-195164757D02*
X188815170Y-195307614D01*
X188815170Y-195307614D02*
X188886599Y-195450471D01*
X188886599Y-195450471D02*
X188958027Y-195736185D01*
X188958027Y-195736185D02*
X188958027Y-195950471D01*
X188958027Y-195950471D02*
X188886599Y-196236185D01*
X188886599Y-196236185D02*
X188815170Y-196379042D01*
X188815170Y-196379042D02*
X188672313Y-196521900D01*
X188672313Y-196521900D02*
X188458027Y-196593328D01*
X188458027Y-196593328D02*
X188100884Y-196593328D01*
X189600884Y-196450471D02*
X189672313Y-196521900D01*
X189672313Y-196521900D02*
X189600884Y-196593328D01*
X189600884Y-196593328D02*
X189529456Y-196521900D01*
X189529456Y-196521900D02*
X189600884Y-196450471D01*
X189600884Y-196450471D02*
X189600884Y-196593328D01*
X190243742Y-196164757D02*
X190958028Y-196164757D01*
X190100885Y-196593328D02*
X190600885Y-195093328D01*
X190600885Y-195093328D02*
X191100885Y-196593328D01*
X191600884Y-196450471D02*
X191672313Y-196521900D01*
X191672313Y-196521900D02*
X191600884Y-196593328D01*
X191600884Y-196593328D02*
X191529456Y-196521900D01*
X191529456Y-196521900D02*
X191600884Y-196450471D01*
X191600884Y-196450471D02*
X191600884Y-196593328D01*
X193672313Y-195736185D02*
X193529456Y-195664757D01*
X193529456Y-195664757D02*
X193458027Y-195593328D01*
X193458027Y-195593328D02*
X193386599Y-195450471D01*
X193386599Y-195450471D02*
X193386599Y-195379042D01*
X193386599Y-195379042D02*
X193458027Y-195236185D01*
X193458027Y-195236185D02*
X193529456Y-195164757D01*
X193529456Y-195164757D02*
X193672313Y-195093328D01*
X193672313Y-195093328D02*
X193958027Y-195093328D01*
X193958027Y-195093328D02*
X194100885Y-195164757D01*
X194100885Y-195164757D02*
X194172313Y-195236185D01*
X194172313Y-195236185D02*
X194243742Y-195379042D01*
X194243742Y-195379042D02*
X194243742Y-195450471D01*
X194243742Y-195450471D02*
X194172313Y-195593328D01*
X194172313Y-195593328D02*
X194100885Y-195664757D01*
X194100885Y-195664757D02*
X193958027Y-195736185D01*
X193958027Y-195736185D02*
X193672313Y-195736185D01*
X193672313Y-195736185D02*
X193529456Y-195807614D01*
X193529456Y-195807614D02*
X193458027Y-195879042D01*
X193458027Y-195879042D02*
X193386599Y-196021900D01*
X193386599Y-196021900D02*
X193386599Y-196307614D01*
X193386599Y-196307614D02*
X193458027Y-196450471D01*
X193458027Y-196450471D02*
X193529456Y-196521900D01*
X193529456Y-196521900D02*
X193672313Y-196593328D01*
X193672313Y-196593328D02*
X193958027Y-196593328D01*
X193958027Y-196593328D02*
X194100885Y-196521900D01*
X194100885Y-196521900D02*
X194172313Y-196450471D01*
X194172313Y-196450471D02*
X194243742Y-196307614D01*
X194243742Y-196307614D02*
X194243742Y-196021900D01*
X194243742Y-196021900D02*
X194172313Y-195879042D01*
X194172313Y-195879042D02*
X194100885Y-195807614D01*
X194100885Y-195807614D02*
X193958027Y-195736185D01*
X194886598Y-196450471D02*
X194958027Y-196521900D01*
X194958027Y-196521900D02*
X194886598Y-196593328D01*
X194886598Y-196593328D02*
X194815170Y-196521900D01*
X194815170Y-196521900D02*
X194886598Y-196450471D01*
X194886598Y-196450471D02*
X194886598Y-196593328D01*
X195886599Y-195093328D02*
X196029456Y-195093328D01*
X196029456Y-195093328D02*
X196172313Y-195164757D01*
X196172313Y-195164757D02*
X196243742Y-195236185D01*
X196243742Y-195236185D02*
X196315170Y-195379042D01*
X196315170Y-195379042D02*
X196386599Y-195664757D01*
X196386599Y-195664757D02*
X196386599Y-196021900D01*
X196386599Y-196021900D02*
X196315170Y-196307614D01*
X196315170Y-196307614D02*
X196243742Y-196450471D01*
X196243742Y-196450471D02*
X196172313Y-196521900D01*
X196172313Y-196521900D02*
X196029456Y-196593328D01*
X196029456Y-196593328D02*
X195886599Y-196593328D01*
X195886599Y-196593328D02*
X195743742Y-196521900D01*
X195743742Y-196521900D02*
X195672313Y-196450471D01*
X195672313Y-196450471D02*
X195600884Y-196307614D01*
X195600884Y-196307614D02*
X195529456Y-196021900D01*
X195529456Y-196021900D02*
X195529456Y-195664757D01*
X195529456Y-195664757D02*
X195600884Y-195379042D01*
X195600884Y-195379042D02*
X195672313Y-195236185D01*
X195672313Y-195236185D02*
X195743742Y-195164757D01*
X195743742Y-195164757D02*
X195886599Y-195093328D01*
X197029455Y-196450471D02*
X197100884Y-196521900D01*
X197100884Y-196521900D02*
X197029455Y-196593328D01*
X197029455Y-196593328D02*
X196958027Y-196521900D01*
X196958027Y-196521900D02*
X197029455Y-196450471D01*
X197029455Y-196450471D02*
X197029455Y-196593328D01*
X197600884Y-195093328D02*
X198600884Y-195093328D01*
X198600884Y-195093328D02*
X197958027Y-196593328D01*
D10*
D11*
X177002200Y-191507200D02*
X285002200Y-191507200D01*
D10*
D12*
X264413853Y-193785528D02*
X263913853Y-193071242D01*
X263556710Y-193785528D02*
X263556710Y-192285528D01*
X263556710Y-192285528D02*
X264128139Y-192285528D01*
X264128139Y-192285528D02*
X264270996Y-192356957D01*
X264270996Y-192356957D02*
X264342425Y-192428385D01*
X264342425Y-192428385D02*
X264413853Y-192571242D01*
X264413853Y-192571242D02*
X264413853Y-192785528D01*
X264413853Y-192785528D02*
X264342425Y-192928385D01*
X264342425Y-192928385D02*
X264270996Y-192999814D01*
X264270996Y-192999814D02*
X264128139Y-193071242D01*
X264128139Y-193071242D02*
X263556710Y-193071242D01*
X265628139Y-193714100D02*
X265485282Y-193785528D01*
X265485282Y-193785528D02*
X265199568Y-193785528D01*
X265199568Y-193785528D02*
X265056710Y-193714100D01*
X265056710Y-193714100D02*
X264985282Y-193571242D01*
X264985282Y-193571242D02*
X264985282Y-192999814D01*
X264985282Y-192999814D02*
X265056710Y-192856957D01*
X265056710Y-192856957D02*
X265199568Y-192785528D01*
X265199568Y-192785528D02*
X265485282Y-192785528D01*
X265485282Y-192785528D02*
X265628139Y-192856957D01*
X265628139Y-192856957D02*
X265699568Y-192999814D01*
X265699568Y-192999814D02*
X265699568Y-193142671D01*
X265699568Y-193142671D02*
X264985282Y-193285528D01*
X266199567Y-192785528D02*
X266556710Y-193785528D01*
X266556710Y-193785528D02*
X266913853Y-192785528D01*
X267485281Y-193642671D02*
X267556710Y-193714100D01*
X267556710Y-193714100D02*
X267485281Y-193785528D01*
X267485281Y-193785528D02*
X267413853Y-193714100D01*
X267413853Y-193714100D02*
X267485281Y-193642671D01*
X267485281Y-193642671D02*
X267485281Y-193785528D01*
X267485281Y-192856957D02*
X267556710Y-192928385D01*
X267556710Y-192928385D02*
X267485281Y-192999814D01*
X267485281Y-192999814D02*
X267413853Y-192928385D01*
X267413853Y-192928385D02*
X267485281Y-192856957D01*
X267485281Y-192856957D02*
X267485281Y-192999814D01*
D10*
D11*
X178386598Y-193721900D02*
X178600884Y-193793328D01*
X178600884Y-193793328D02*
X178958026Y-193793328D01*
X178958026Y-193793328D02*
X179100884Y-193721900D01*
X179100884Y-193721900D02*
X179172312Y-193650471D01*
X179172312Y-193650471D02*
X179243741Y-193507614D01*
X179243741Y-193507614D02*
X179243741Y-193364757D01*
X179243741Y-193364757D02*
X179172312Y-193221900D01*
X179172312Y-193221900D02*
X179100884Y-193150471D01*
X179100884Y-193150471D02*
X178958026Y-193079042D01*
X178958026Y-193079042D02*
X178672312Y-193007614D01*
X178672312Y-193007614D02*
X178529455Y-192936185D01*
X178529455Y-192936185D02*
X178458026Y-192864757D01*
X178458026Y-192864757D02*
X178386598Y-192721900D01*
X178386598Y-192721900D02*
X178386598Y-192579042D01*
X178386598Y-192579042D02*
X178458026Y-192436185D01*
X178458026Y-192436185D02*
X178529455Y-192364757D01*
X178529455Y-192364757D02*
X178672312Y-192293328D01*
X178672312Y-192293328D02*
X179029455Y-192293328D01*
X179029455Y-192293328D02*
X179243741Y-192364757D01*
X179886597Y-193793328D02*
X179886597Y-192793328D01*
X179886597Y-192293328D02*
X179815169Y-192364757D01*
X179815169Y-192364757D02*
X179886597Y-192436185D01*
X179886597Y-192436185D02*
X179958026Y-192364757D01*
X179958026Y-192364757D02*
X179886597Y-192293328D01*
X179886597Y-192293328D02*
X179886597Y-192436185D01*
X180458026Y-192793328D02*
X181243741Y-192793328D01*
X181243741Y-192793328D02*
X180458026Y-193793328D01*
X180458026Y-193793328D02*
X181243741Y-193793328D01*
X182386598Y-193721900D02*
X182243741Y-193793328D01*
X182243741Y-193793328D02*
X181958027Y-193793328D01*
X181958027Y-193793328D02*
X181815169Y-193721900D01*
X181815169Y-193721900D02*
X181743741Y-193579042D01*
X181743741Y-193579042D02*
X181743741Y-193007614D01*
X181743741Y-193007614D02*
X181815169Y-192864757D01*
X181815169Y-192864757D02*
X181958027Y-192793328D01*
X181958027Y-192793328D02*
X182243741Y-192793328D01*
X182243741Y-192793328D02*
X182386598Y-192864757D01*
X182386598Y-192864757D02*
X182458027Y-193007614D01*
X182458027Y-193007614D02*
X182458027Y-193150471D01*
X182458027Y-193150471D02*
X181743741Y-193293328D01*
X183100883Y-193650471D02*
X183172312Y-193721900D01*
X183172312Y-193721900D02*
X183100883Y-193793328D01*
X183100883Y-193793328D02*
X183029455Y-193721900D01*
X183029455Y-193721900D02*
X183100883Y-193650471D01*
X183100883Y-193650471D02*
X183100883Y-193793328D01*
X183100883Y-192864757D02*
X183172312Y-192936185D01*
X183172312Y-192936185D02*
X183100883Y-193007614D01*
X183100883Y-193007614D02*
X183029455Y-192936185D01*
X183029455Y-192936185D02*
X183100883Y-192864757D01*
X183100883Y-192864757D02*
X183100883Y-193007614D01*
X184886598Y-193364757D02*
X185600884Y-193364757D01*
X184743741Y-193793328D02*
X185243741Y-192293328D01*
X185243741Y-192293328D02*
X185743741Y-193793328D01*
X186886598Y-192793328D02*
X186886598Y-193793328D01*
X186529455Y-192221900D02*
X186172312Y-193293328D01*
X186172312Y-193293328D02*
X187100883Y-193293328D01*
D10*
D11*
X263458026Y-196593328D02*
X263458026Y-195093328D01*
X264815170Y-196593328D02*
X264815170Y-195093328D01*
X264815170Y-196521900D02*
X264672312Y-196593328D01*
X264672312Y-196593328D02*
X264386598Y-196593328D01*
X264386598Y-196593328D02*
X264243741Y-196521900D01*
X264243741Y-196521900D02*
X264172312Y-196450471D01*
X264172312Y-196450471D02*
X264100884Y-196307614D01*
X264100884Y-196307614D02*
X264100884Y-195879042D01*
X264100884Y-195879042D02*
X264172312Y-195736185D01*
X264172312Y-195736185D02*
X264243741Y-195664757D01*
X264243741Y-195664757D02*
X264386598Y-195593328D01*
X264386598Y-195593328D02*
X264672312Y-195593328D01*
X264672312Y-195593328D02*
X264815170Y-195664757D01*
X265529455Y-196450471D02*
X265600884Y-196521900D01*
X265600884Y-196521900D02*
X265529455Y-196593328D01*
X265529455Y-196593328D02*
X265458027Y-196521900D01*
X265458027Y-196521900D02*
X265529455Y-196450471D01*
X265529455Y-196450471D02*
X265529455Y-196593328D01*
X265529455Y-195664757D02*
X265600884Y-195736185D01*
X265600884Y-195736185D02*
X265529455Y-195807614D01*
X265529455Y-195807614D02*
X265458027Y-195736185D01*
X265458027Y-195736185D02*
X265529455Y-195664757D01*
X265529455Y-195664757D02*
X265529455Y-195807614D01*
X268172313Y-196593328D02*
X267315170Y-196593328D01*
X267743741Y-196593328D02*
X267743741Y-195093328D01*
X267743741Y-195093328D02*
X267600884Y-195307614D01*
X267600884Y-195307614D02*
X267458027Y-195450471D01*
X267458027Y-195450471D02*
X267315170Y-195521900D01*
X269886598Y-195021900D02*
X268600884Y-196950471D01*
X271172313Y-196593328D02*
X270315170Y-196593328D01*
X270743741Y-196593328D02*
X270743741Y-195093328D01*
X270743741Y-195093328D02*
X270600884Y-195307614D01*
X270600884Y-195307614D02*
X270458027Y-195450471D01*
X270458027Y-195450471D02*
X270315170Y-195521900D01*
D10*
D11*
X177002200Y-187507200D02*
X285002200Y-187507200D01*
D10*
D13*
X178693928Y-188211638D02*
X179836785Y-188211638D01*
X179015357Y-190211638D02*
X179265357Y-188211638D01*
X180253452Y-190211638D02*
X180420119Y-188878304D01*
X180503452Y-188211638D02*
X180396309Y-188306876D01*
X180396309Y-188306876D02*
X180479643Y-188402114D01*
X180479643Y-188402114D02*
X180586786Y-188306876D01*
X180586786Y-188306876D02*
X180503452Y-188211638D01*
X180503452Y-188211638D02*
X180479643Y-188402114D01*
X181086786Y-188878304D02*
X181848690Y-188878304D01*
X181455833Y-188211638D02*
X181241548Y-189925923D01*
X181241548Y-189925923D02*
X181312976Y-190116400D01*
X181312976Y-190116400D02*
X181491548Y-190211638D01*
X181491548Y-190211638D02*
X181682024Y-190211638D01*
X182634405Y-190211638D02*
X182455833Y-190116400D01*
X182455833Y-190116400D02*
X182384405Y-189925923D01*
X182384405Y-189925923D02*
X182598690Y-188211638D01*
X184170119Y-190116400D02*
X183967738Y-190211638D01*
X183967738Y-190211638D02*
X183586785Y-190211638D01*
X183586785Y-190211638D02*
X183408214Y-190116400D01*
X183408214Y-190116400D02*
X183336785Y-189925923D01*
X183336785Y-189925923D02*
X183432024Y-189164019D01*
X183432024Y-189164019D02*
X183551071Y-188973542D01*
X183551071Y-188973542D02*
X183753452Y-188878304D01*
X183753452Y-188878304D02*
X184134404Y-188878304D01*
X184134404Y-188878304D02*
X184312976Y-188973542D01*
X184312976Y-188973542D02*
X184384404Y-189164019D01*
X184384404Y-189164019D02*
X184360595Y-189354495D01*
X184360595Y-189354495D02*
X183384404Y-189544971D01*
X185134405Y-190021161D02*
X185217738Y-190116400D01*
X185217738Y-190116400D02*
X185110595Y-190211638D01*
X185110595Y-190211638D02*
X185027262Y-190116400D01*
X185027262Y-190116400D02*
X185134405Y-190021161D01*
X185134405Y-190021161D02*
X185110595Y-190211638D01*
X185265357Y-188973542D02*
X185348690Y-189068780D01*
X185348690Y-189068780D02*
X185241548Y-189164019D01*
X185241548Y-189164019D02*
X185158214Y-189068780D01*
X185158214Y-189068780D02*
X185265357Y-188973542D01*
X185265357Y-188973542D02*
X185241548Y-189164019D01*
D10*
D11*
X178958026Y-185607614D02*
X178458026Y-185607614D01*
X178458026Y-186393328D02*
X178458026Y-184893328D01*
X178458026Y-184893328D02*
X179172312Y-184893328D01*
X179743740Y-186393328D02*
X179743740Y-185393328D01*
X179743740Y-184893328D02*
X179672312Y-184964757D01*
X179672312Y-184964757D02*
X179743740Y-185036185D01*
X179743740Y-185036185D02*
X179815169Y-184964757D01*
X179815169Y-184964757D02*
X179743740Y-184893328D01*
X179743740Y-184893328D02*
X179743740Y-185036185D01*
X180672312Y-186393328D02*
X180529455Y-186321900D01*
X180529455Y-186321900D02*
X180458026Y-186179042D01*
X180458026Y-186179042D02*
X180458026Y-184893328D01*
X181815169Y-186321900D02*
X181672312Y-186393328D01*
X181672312Y-186393328D02*
X181386598Y-186393328D01*
X181386598Y-186393328D02*
X181243740Y-186321900D01*
X181243740Y-186321900D02*
X181172312Y-186179042D01*
X181172312Y-186179042D02*
X181172312Y-185607614D01*
X181172312Y-185607614D02*
X181243740Y-185464757D01*
X181243740Y-185464757D02*
X181386598Y-185393328D01*
X181386598Y-185393328D02*
X181672312Y-185393328D01*
X181672312Y-185393328D02*
X181815169Y-185464757D01*
X181815169Y-185464757D02*
X181886598Y-185607614D01*
X181886598Y-185607614D02*
X181886598Y-185750471D01*
X181886598Y-185750471D02*
X181172312Y-185893328D01*
X182529454Y-186250471D02*
X182600883Y-186321900D01*
X182600883Y-186321900D02*
X182529454Y-186393328D01*
X182529454Y-186393328D02*
X182458026Y-186321900D01*
X182458026Y-186321900D02*
X182529454Y-186250471D01*
X182529454Y-186250471D02*
X182529454Y-186393328D01*
X182529454Y-185464757D02*
X182600883Y-185536185D01*
X182600883Y-185536185D02*
X182529454Y-185607614D01*
X182529454Y-185607614D02*
X182458026Y-185536185D01*
X182458026Y-185536185D02*
X182529454Y-185464757D01*
X182529454Y-185464757D02*
X182529454Y-185607614D01*
X184672312Y-185679042D02*
X184672312Y-186393328D01*
X184172312Y-184893328D02*
X184672312Y-185679042D01*
X184672312Y-185679042D02*
X185172312Y-184893328D01*
X186315169Y-185393328D02*
X186315169Y-186393328D01*
X185672311Y-185393328D02*
X185672311Y-186179042D01*
X185672311Y-186179042D02*
X185743740Y-186321900D01*
X185743740Y-186321900D02*
X185886597Y-186393328D01*
X185886597Y-186393328D02*
X186100883Y-186393328D01*
X186100883Y-186393328D02*
X186243740Y-186321900D01*
X186243740Y-186321900D02*
X186315169Y-186250471D01*
X187243740Y-186393328D02*
X187100883Y-186321900D01*
X187100883Y-186321900D02*
X187029454Y-186179042D01*
X187029454Y-186179042D02*
X187029454Y-184893328D01*
X188386597Y-186321900D02*
X188243740Y-186393328D01*
X188243740Y-186393328D02*
X187958026Y-186393328D01*
X187958026Y-186393328D02*
X187815168Y-186321900D01*
X187815168Y-186321900D02*
X187743740Y-186179042D01*
X187743740Y-186179042D02*
X187743740Y-185607614D01*
X187743740Y-185607614D02*
X187815168Y-185464757D01*
X187815168Y-185464757D02*
X187958026Y-185393328D01*
X187958026Y-185393328D02*
X188243740Y-185393328D01*
X188243740Y-185393328D02*
X188386597Y-185464757D01*
X188386597Y-185464757D02*
X188458026Y-185607614D01*
X188458026Y-185607614D02*
X188458026Y-185750471D01*
X188458026Y-185750471D02*
X187743740Y-185893328D01*
X190172311Y-186321900D02*
X190315168Y-186393328D01*
X190315168Y-186393328D02*
X190600882Y-186393328D01*
X190600882Y-186393328D02*
X190743739Y-186321900D01*
X190743739Y-186321900D02*
X190815168Y-186179042D01*
X190815168Y-186179042D02*
X190815168Y-186107614D01*
X190815168Y-186107614D02*
X190743739Y-185964757D01*
X190743739Y-185964757D02*
X190600882Y-185893328D01*
X190600882Y-185893328D02*
X190386597Y-185893328D01*
X190386597Y-185893328D02*
X190243739Y-185821900D01*
X190243739Y-185821900D02*
X190172311Y-185679042D01*
X190172311Y-185679042D02*
X190172311Y-185607614D01*
X190172311Y-185607614D02*
X190243739Y-185464757D01*
X190243739Y-185464757D02*
X190386597Y-185393328D01*
X190386597Y-185393328D02*
X190600882Y-185393328D01*
X190600882Y-185393328D02*
X190743739Y-185464757D01*
X192100883Y-186321900D02*
X191958025Y-186393328D01*
X191958025Y-186393328D02*
X191672311Y-186393328D01*
X191672311Y-186393328D02*
X191529454Y-186321900D01*
X191529454Y-186321900D02*
X191458025Y-186250471D01*
X191458025Y-186250471D02*
X191386597Y-186107614D01*
X191386597Y-186107614D02*
X191386597Y-185679042D01*
X191386597Y-185679042D02*
X191458025Y-185536185D01*
X191458025Y-185536185D02*
X191529454Y-185464757D01*
X191529454Y-185464757D02*
X191672311Y-185393328D01*
X191672311Y-185393328D02*
X191958025Y-185393328D01*
X191958025Y-185393328D02*
X192100883Y-185464757D01*
X192743739Y-186393328D02*
X192743739Y-185393328D01*
X192743739Y-185679042D02*
X192815168Y-185536185D01*
X192815168Y-185536185D02*
X192886597Y-185464757D01*
X192886597Y-185464757D02*
X193029454Y-185393328D01*
X193029454Y-185393328D02*
X193172311Y-185393328D01*
X194243739Y-186321900D02*
X194100882Y-186393328D01*
X194100882Y-186393328D02*
X193815168Y-186393328D01*
X193815168Y-186393328D02*
X193672310Y-186321900D01*
X193672310Y-186321900D02*
X193600882Y-186179042D01*
X193600882Y-186179042D02*
X193600882Y-185607614D01*
X193600882Y-185607614D02*
X193672310Y-185464757D01*
X193672310Y-185464757D02*
X193815168Y-185393328D01*
X193815168Y-185393328D02*
X194100882Y-185393328D01*
X194100882Y-185393328D02*
X194243739Y-185464757D01*
X194243739Y-185464757D02*
X194315168Y-185607614D01*
X194315168Y-185607614D02*
X194315168Y-185750471D01*
X194315168Y-185750471D02*
X193600882Y-185893328D01*
X195600882Y-186393328D02*
X195600882Y-185607614D01*
X195600882Y-185607614D02*
X195529453Y-185464757D01*
X195529453Y-185464757D02*
X195386596Y-185393328D01*
X195386596Y-185393328D02*
X195100882Y-185393328D01*
X195100882Y-185393328D02*
X194958024Y-185464757D01*
X195600882Y-186321900D02*
X195458024Y-186393328D01*
X195458024Y-186393328D02*
X195100882Y-186393328D01*
X195100882Y-186393328D02*
X194958024Y-186321900D01*
X194958024Y-186321900D02*
X194886596Y-186179042D01*
X194886596Y-186179042D02*
X194886596Y-186036185D01*
X194886596Y-186036185D02*
X194958024Y-185893328D01*
X194958024Y-185893328D02*
X195100882Y-185821900D01*
X195100882Y-185821900D02*
X195458024Y-185821900D01*
X195458024Y-185821900D02*
X195600882Y-185750471D01*
X196315167Y-186393328D02*
X196315167Y-185393328D01*
X196315167Y-185536185D02*
X196386596Y-185464757D01*
X196386596Y-185464757D02*
X196529453Y-185393328D01*
X196529453Y-185393328D02*
X196743739Y-185393328D01*
X196743739Y-185393328D02*
X196886596Y-185464757D01*
X196886596Y-185464757D02*
X196958025Y-185607614D01*
X196958025Y-185607614D02*
X196958025Y-186393328D01*
X196958025Y-185607614D02*
X197029453Y-185464757D01*
X197029453Y-185464757D02*
X197172310Y-185393328D01*
X197172310Y-185393328D02*
X197386596Y-185393328D01*
X197386596Y-185393328D02*
X197529453Y-185464757D01*
X197529453Y-185464757D02*
X197600882Y-185607614D01*
X197600882Y-185607614D02*
X197600882Y-186393328D01*
X198886596Y-186321900D02*
X198743739Y-186393328D01*
X198743739Y-186393328D02*
X198458025Y-186393328D01*
X198458025Y-186393328D02*
X198315167Y-186321900D01*
X198315167Y-186321900D02*
X198243739Y-186179042D01*
X198243739Y-186179042D02*
X198243739Y-185607614D01*
X198243739Y-185607614D02*
X198315167Y-185464757D01*
X198315167Y-185464757D02*
X198458025Y-185393328D01*
X198458025Y-185393328D02*
X198743739Y-185393328D01*
X198743739Y-185393328D02*
X198886596Y-185464757D01*
X198886596Y-185464757D02*
X198958025Y-185607614D01*
X198958025Y-185607614D02*
X198958025Y-185750471D01*
X198958025Y-185750471D02*
X198243739Y-185893328D01*
X199600881Y-186393328D02*
X199600881Y-185393328D01*
X199600881Y-185679042D02*
X199672310Y-185536185D01*
X199672310Y-185536185D02*
X199743739Y-185464757D01*
X199743739Y-185464757D02*
X199886596Y-185393328D01*
X199886596Y-185393328D02*
X200029453Y-185393328D01*
X200529452Y-186250471D02*
X200600881Y-186321900D01*
X200600881Y-186321900D02*
X200529452Y-186393328D01*
X200529452Y-186393328D02*
X200458024Y-186321900D01*
X200458024Y-186321900D02*
X200529452Y-186250471D01*
X200529452Y-186250471D02*
X200529452Y-186393328D01*
X201243738Y-186393328D02*
X201243738Y-184893328D01*
X201386596Y-185821900D02*
X201815167Y-186393328D01*
X201815167Y-185393328D02*
X201243738Y-185964757D01*
X202458024Y-186393328D02*
X202458024Y-185393328D01*
X202458024Y-184893328D02*
X202386596Y-184964757D01*
X202386596Y-184964757D02*
X202458024Y-185036185D01*
X202458024Y-185036185D02*
X202529453Y-184964757D01*
X202529453Y-184964757D02*
X202458024Y-184893328D01*
X202458024Y-184893328D02*
X202458024Y-185036185D01*
X203815168Y-186321900D02*
X203672310Y-186393328D01*
X203672310Y-186393328D02*
X203386596Y-186393328D01*
X203386596Y-186393328D02*
X203243739Y-186321900D01*
X203243739Y-186321900D02*
X203172310Y-186250471D01*
X203172310Y-186250471D02*
X203100882Y-186107614D01*
X203100882Y-186107614D02*
X203100882Y-185679042D01*
X203100882Y-185679042D02*
X203172310Y-185536185D01*
X203172310Y-185536185D02*
X203243739Y-185464757D01*
X203243739Y-185464757D02*
X203386596Y-185393328D01*
X203386596Y-185393328D02*
X203672310Y-185393328D01*
X203672310Y-185393328D02*
X203815168Y-185464757D01*
X205100882Y-186393328D02*
X205100882Y-185607614D01*
X205100882Y-185607614D02*
X205029453Y-185464757D01*
X205029453Y-185464757D02*
X204886596Y-185393328D01*
X204886596Y-185393328D02*
X204600882Y-185393328D01*
X204600882Y-185393328D02*
X204458024Y-185464757D01*
X205100882Y-186321900D02*
X204958024Y-186393328D01*
X204958024Y-186393328D02*
X204600882Y-186393328D01*
X204600882Y-186393328D02*
X204458024Y-186321900D01*
X204458024Y-186321900D02*
X204386596Y-186179042D01*
X204386596Y-186179042D02*
X204386596Y-186036185D01*
X204386596Y-186036185D02*
X204458024Y-185893328D01*
X204458024Y-185893328D02*
X204600882Y-185821900D01*
X204600882Y-185821900D02*
X204958024Y-185821900D01*
X204958024Y-185821900D02*
X205100882Y-185750471D01*
X206458025Y-186393328D02*
X206458025Y-184893328D01*
X206458025Y-186321900D02*
X206315167Y-186393328D01*
X206315167Y-186393328D02*
X206029453Y-186393328D01*
X206029453Y-186393328D02*
X205886596Y-186321900D01*
X205886596Y-186321900D02*
X205815167Y-186250471D01*
X205815167Y-186250471D02*
X205743739Y-186107614D01*
X205743739Y-186107614D02*
X205743739Y-185679042D01*
X205743739Y-185679042D02*
X205815167Y-185536185D01*
X205815167Y-185536185D02*
X205886596Y-185464757D01*
X205886596Y-185464757D02*
X206029453Y-185393328D01*
X206029453Y-185393328D02*
X206315167Y-185393328D01*
X206315167Y-185393328D02*
X206458025Y-185464757D01*
X206815168Y-186536185D02*
X207958025Y-186536185D01*
X208315167Y-185393328D02*
X208315167Y-186893328D01*
X208315167Y-185464757D02*
X208458025Y-185393328D01*
X208458025Y-185393328D02*
X208743739Y-185393328D01*
X208743739Y-185393328D02*
X208886596Y-185464757D01*
X208886596Y-185464757D02*
X208958025Y-185536185D01*
X208958025Y-185536185D02*
X209029453Y-185679042D01*
X209029453Y-185679042D02*
X209029453Y-186107614D01*
X209029453Y-186107614D02*
X208958025Y-186250471D01*
X208958025Y-186250471D02*
X208886596Y-186321900D01*
X208886596Y-186321900D02*
X208743739Y-186393328D01*
X208743739Y-186393328D02*
X208458025Y-186393328D01*
X208458025Y-186393328D02*
X208315167Y-186321900D01*
X210315168Y-186321900D02*
X210172310Y-186393328D01*
X210172310Y-186393328D02*
X209886596Y-186393328D01*
X209886596Y-186393328D02*
X209743739Y-186321900D01*
X209743739Y-186321900D02*
X209672310Y-186250471D01*
X209672310Y-186250471D02*
X209600882Y-186107614D01*
X209600882Y-186107614D02*
X209600882Y-185679042D01*
X209600882Y-185679042D02*
X209672310Y-185536185D01*
X209672310Y-185536185D02*
X209743739Y-185464757D01*
X209743739Y-185464757D02*
X209886596Y-185393328D01*
X209886596Y-185393328D02*
X210172310Y-185393328D01*
X210172310Y-185393328D02*
X210315168Y-185464757D01*
X210958024Y-186393328D02*
X210958024Y-184893328D01*
X210958024Y-185464757D02*
X211100882Y-185393328D01*
X211100882Y-185393328D02*
X211386596Y-185393328D01*
X211386596Y-185393328D02*
X211529453Y-185464757D01*
X211529453Y-185464757D02*
X211600882Y-185536185D01*
X211600882Y-185536185D02*
X211672310Y-185679042D01*
X211672310Y-185679042D02*
X211672310Y-186107614D01*
X211672310Y-186107614D02*
X211600882Y-186250471D01*
X211600882Y-186250471D02*
X211529453Y-186321900D01*
X211529453Y-186321900D02*
X211386596Y-186393328D01*
X211386596Y-186393328D02*
X211100882Y-186393328D01*
X211100882Y-186393328D02*
X210958024Y-186321900D01*
D10*
D11*
X177002200Y-181507200D02*
X285002200Y-181507200D01*
D10*
D11*
X178386598Y-183621900D02*
X178600884Y-183693328D01*
X178600884Y-183693328D02*
X178958026Y-183693328D01*
X178958026Y-183693328D02*
X179100884Y-183621900D01*
X179100884Y-183621900D02*
X179172312Y-183550471D01*
X179172312Y-183550471D02*
X179243741Y-183407614D01*
X179243741Y-183407614D02*
X179243741Y-183264757D01*
X179243741Y-183264757D02*
X179172312Y-183121900D01*
X179172312Y-183121900D02*
X179100884Y-183050471D01*
X179100884Y-183050471D02*
X178958026Y-182979042D01*
X178958026Y-182979042D02*
X178672312Y-182907614D01*
X178672312Y-182907614D02*
X178529455Y-182836185D01*
X178529455Y-182836185D02*
X178458026Y-182764757D01*
X178458026Y-182764757D02*
X178386598Y-182621900D01*
X178386598Y-182621900D02*
X178386598Y-182479042D01*
X178386598Y-182479042D02*
X178458026Y-182336185D01*
X178458026Y-182336185D02*
X178529455Y-182264757D01*
X178529455Y-182264757D02*
X178672312Y-182193328D01*
X178672312Y-182193328D02*
X179029455Y-182193328D01*
X179029455Y-182193328D02*
X179243741Y-182264757D01*
X179886597Y-183693328D02*
X179886597Y-182193328D01*
X180529455Y-183693328D02*
X180529455Y-182907614D01*
X180529455Y-182907614D02*
X180458026Y-182764757D01*
X180458026Y-182764757D02*
X180315169Y-182693328D01*
X180315169Y-182693328D02*
X180100883Y-182693328D01*
X180100883Y-182693328D02*
X179958026Y-182764757D01*
X179958026Y-182764757D02*
X179886597Y-182836185D01*
X181815169Y-183621900D02*
X181672312Y-183693328D01*
X181672312Y-183693328D02*
X181386598Y-183693328D01*
X181386598Y-183693328D02*
X181243740Y-183621900D01*
X181243740Y-183621900D02*
X181172312Y-183479042D01*
X181172312Y-183479042D02*
X181172312Y-182907614D01*
X181172312Y-182907614D02*
X181243740Y-182764757D01*
X181243740Y-182764757D02*
X181386598Y-182693328D01*
X181386598Y-182693328D02*
X181672312Y-182693328D01*
X181672312Y-182693328D02*
X181815169Y-182764757D01*
X181815169Y-182764757D02*
X181886598Y-182907614D01*
X181886598Y-182907614D02*
X181886598Y-183050471D01*
X181886598Y-183050471D02*
X181172312Y-183193328D01*
X183100883Y-183621900D02*
X182958026Y-183693328D01*
X182958026Y-183693328D02*
X182672312Y-183693328D01*
X182672312Y-183693328D02*
X182529454Y-183621900D01*
X182529454Y-183621900D02*
X182458026Y-183479042D01*
X182458026Y-183479042D02*
X182458026Y-182907614D01*
X182458026Y-182907614D02*
X182529454Y-182764757D01*
X182529454Y-182764757D02*
X182672312Y-182693328D01*
X182672312Y-182693328D02*
X182958026Y-182693328D01*
X182958026Y-182693328D02*
X183100883Y-182764757D01*
X183100883Y-182764757D02*
X183172312Y-182907614D01*
X183172312Y-182907614D02*
X183172312Y-183050471D01*
X183172312Y-183050471D02*
X182458026Y-183193328D01*
X183600883Y-182693328D02*
X184172311Y-182693328D01*
X183815168Y-182193328D02*
X183815168Y-183479042D01*
X183815168Y-183479042D02*
X183886597Y-183621900D01*
X183886597Y-183621900D02*
X184029454Y-183693328D01*
X184029454Y-183693328D02*
X184172311Y-183693328D01*
X184672311Y-183550471D02*
X184743740Y-183621900D01*
X184743740Y-183621900D02*
X184672311Y-183693328D01*
X184672311Y-183693328D02*
X184600883Y-183621900D01*
X184600883Y-183621900D02*
X184672311Y-183550471D01*
X184672311Y-183550471D02*
X184672311Y-183693328D01*
X184672311Y-182764757D02*
X184743740Y-182836185D01*
X184743740Y-182836185D02*
X184672311Y-182907614D01*
X184672311Y-182907614D02*
X184600883Y-182836185D01*
X184600883Y-182836185D02*
X184672311Y-182764757D01*
X184672311Y-182764757D02*
X184672311Y-182907614D01*
D10*
D11*
X197002200Y-191507200D02*
X197002200Y-194507200D01*
D10*
D11*
X261002200Y-191507200D02*
X261002200Y-198007200D01*
D14*
%TO.P,R13,1*%
%TO.N,Net-(C10-Pad2)*%
X242880000Y-112000000D03*
D15*
%TO.P,R13,2*%
%TO.N,Net-(J6-Pad1)*%
X250500000Y-112000000D03*
%TD*%
D16*
%TO.P,J3,1,Pin_1*%
%TO.N,GND*%
X215000000Y-137160000D03*
D17*
X215000000Y-137160000D03*
%TD*%
D14*
%TO.P,C2,1*%
%TO.N,Net-(C2-Pad1)*%
X207500000Y-100500000D03*
%TO.P,C2,2*%
%TO.N,Net-(C2-Pad2)*%
X212500000Y-100500000D03*
%TD*%
D18*
%TO.P,LED1,1,K*%
%TO.N,Net-(J7-Pad1)*%
X232725000Y-123000000D03*
D19*
%TO.P,LED1,2,A*%
%TO.N,Net-(LED1-Pad2)*%
X235265000Y-123000000D03*
%TD*%
D20*
%TO.P,LEVEL1,1,1*%
%TO.N,GND*%
X259080000Y-74000000D03*
%TO.P,LEVEL1,2,2*%
%TO.N,Net-(C9-Pad1)*%
X254000000Y-74000000D03*
%TO.P,LEVEL1,3,3*%
%TO.N,Net-(C8-Pad2)*%
X248920000Y-74000000D03*
%TD*%
D21*
%TO.P,C101,1*%
%TO.N,GND*%
X246380000Y-68580000D03*
D14*
%TO.P,C101,2*%
%TO.N,-9V*%
X243880000Y-68580000D03*
%TD*%
D21*
%TO.P,U2,1,BOOST*%
%TO.N,+9V*%
X229880000Y-80020000D03*
D15*
%TO.P,U2,2,CAP+*%
%TO.N,Net-(C100-Pad1)*%
X229880000Y-82560000D03*
%TO.P,U2,3,GND*%
%TO.N,GND*%
X229880000Y-85100000D03*
%TO.P,U2,4,CAP-*%
%TO.N,Net-(C100-Pad2)*%
X229880000Y-87640000D03*
%TO.P,U2,5,VOUT*%
%TO.N,-9V*%
X237500000Y-87640000D03*
%TO.P,U2,6,LV*%
%TO.N,unconnected-(U2-Pad6)*%
X237500000Y-85100000D03*
%TO.P,U2,7,OSC*%
%TO.N,unconnected-(U2-Pad7)*%
X237500000Y-82560000D03*
%TO.P,U2,8,V+*%
%TO.N,+9V*%
X237500000Y-80020000D03*
%TD*%
D14*
%TO.P,C7,1*%
%TO.N,Net-(C7-Pad1)*%
X255500000Y-103500000D03*
%TO.P,C7,2*%
%TO.N,Net-(C7-Pad2)*%
X260500000Y-103500000D03*
%TD*%
D21*
%TO.P,C102,1*%
%TO.N,+9V*%
X254000000Y-68580000D03*
D14*
%TO.P,C102,2*%
%TO.N,GND*%
X256500000Y-68580000D03*
%TD*%
%TO.P,C8,1*%
%TO.N,Net-(C8-Pad1)*%
X255000000Y-97500000D03*
%TO.P,C8,2*%
%TO.N,Net-(C8-Pad2)*%
X260000000Y-97500000D03*
%TD*%
D18*
%TO.P,D4,1,K*%
%TO.N,Net-(C3-Pad2)*%
X231140000Y-63500000D03*
D22*
%TO.P,D4,2,A*%
%TO.N,Net-(C3-Pad1)*%
X236220000Y-63500000D03*
%TD*%
D14*
%TO.P,R6,1*%
%TO.N,Net-(C4-Pad1)*%
X216880000Y-103000000D03*
D15*
%TO.P,R6,2*%
%TO.N,GND*%
X224500000Y-103000000D03*
%TD*%
D14*
%TO.P,C4,1*%
%TO.N,Net-(C4-Pad1)*%
X212500000Y-94000000D03*
%TO.P,C4,2*%
%TO.N,Net-(C3-Pad1)*%
X207500000Y-94000000D03*
%TD*%
D21*
%TO.P,C100,1*%
%TO.N,Net-(C100-Pad1)*%
X223520000Y-66040000D03*
D14*
%TO.P,C100,2*%
%TO.N,Net-(C100-Pad2)*%
X223520000Y-68540000D03*
%TD*%
%TO.P,R7,1*%
%TO.N,Net-(C3-Pad2)*%
X224500000Y-91000000D03*
D15*
%TO.P,R7,2*%
%TO.N,Net-(C5-Pad2)*%
X216880000Y-91000000D03*
%TD*%
D14*
%TO.P,C1,1*%
%TO.N,Net-(C1-Pad1)*%
X207500000Y-106500000D03*
%TO.P,C1,2*%
%TO.N,Net-(C1-Pad2)*%
X212500000Y-106500000D03*
%TD*%
%TO.P,R2,1*%
%TO.N,Net-(C1-Pad1)*%
X216880000Y-111000000D03*
D15*
%TO.P,R2,2*%
%TO.N,Net-(J4-Pad1)*%
X224500000Y-111000000D03*
%TD*%
D14*
%TO.P,R1,1*%
%TO.N,Net-(J4-Pad1)*%
X224500000Y-119000000D03*
D15*
%TO.P,R1,2*%
%TO.N,GND*%
X216880000Y-119000000D03*
%TD*%
D17*
%TO.P,J4,1,Pin_1*%
%TO.N,Net-(J4-Pad1)*%
X207500000Y-137160000D03*
D16*
X207500000Y-137160000D03*
%TD*%
D23*
%TO.P,MODE1,1,A*%
%TO.N,Net-(D1-Pad2)*%
X228980000Y-50800000D03*
%TO.P,MODE1,2,B*%
%TO.N,Net-(C3-Pad2)*%
X233680000Y-50800000D03*
%TO.P,MODE1,3,C*%
X238380000Y-50800000D03*
%TD*%
D14*
%TO.P,R10,1*%
%TO.N,Net-(C7-Pad1)*%
X243000000Y-100500000D03*
D15*
%TO.P,R10,2*%
%TO.N,Net-(C7-Pad2)*%
X250620000Y-100500000D03*
%TD*%
D18*
%TO.P,D3,1,K*%
%TO.N,Net-(D3-Pad1)*%
X236220000Y-68580000D03*
D22*
%TO.P,D3,2,A*%
%TO.N,Net-(C3-Pad2)*%
X231140000Y-68580000D03*
%TD*%
D14*
%TO.P,R100,1*%
%TO.N,Net-(D100-Pad2)*%
X242880000Y-108500000D03*
D15*
%TO.P,R100,2*%
%TO.N,Net-(LED1-Pad2)*%
X250500000Y-108500000D03*
%TD*%
D18*
%TO.P,D5,1,K*%
%TO.N,Net-(C3-Pad1)*%
X231140000Y-73660000D03*
D22*
%TO.P,D5,2,A*%
%TO.N,Net-(D3-Pad1)*%
X236220000Y-73660000D03*
%TD*%
D14*
%TO.P,C3,1*%
%TO.N,Net-(C3-Pad1)*%
X207500000Y-112500000D03*
%TO.P,C3,2*%
%TO.N,Net-(C3-Pad2)*%
X212500000Y-112500000D03*
%TD*%
D18*
%TO.P,D100,1,K*%
%TO.N,+9V*%
X244685000Y-91440000D03*
D22*
%TO.P,D100,2,A*%
%TO.N,Net-(D100-Pad2)*%
X249765000Y-91440000D03*
%TD*%
D14*
%TO.P,C6,1*%
%TO.N,Net-(C6-Pad1)*%
X207500000Y-118500000D03*
%TO.P,C6,2*%
%TO.N,Net-(C6-Pad2)*%
X212500000Y-118500000D03*
%TD*%
%TO.P,R9,1*%
%TO.N,GND*%
X224500000Y-107000000D03*
D15*
%TO.P,R9,2*%
%TO.N,Net-(C6-Pad1)*%
X216880000Y-107000000D03*
%TD*%
D14*
%TO.P,R4,1*%
%TO.N,Net-(C2-Pad2)*%
X216880000Y-115000000D03*
D15*
%TO.P,R4,2*%
%TO.N,GND*%
X224500000Y-115000000D03*
%TD*%
D16*
%TO.P,J7,1,Pin_1*%
%TO.N,Net-(J7-Pad1)*%
X238760000Y-137160000D03*
D17*
X238760000Y-137160000D03*
%TD*%
D14*
%TO.P,R5,1*%
%TO.N,Net-(C3-Pad1)*%
X216880000Y-95000000D03*
D15*
%TO.P,R5,2*%
%TO.N,Net-(Gain1-Pad1)*%
X224500000Y-95000000D03*
%TD*%
D16*
%TO.P,J1,1,Pin_1*%
%TO.N,GND*%
X223520000Y-137160000D03*
D17*
X223520000Y-137160000D03*
%TD*%
D21*
%TO.P,U1,1*%
%TO.N,Net-(C2-Pad1)*%
X229880000Y-99055000D03*
D15*
%TO.P,U1,2,-*%
X229880000Y-101595000D03*
%TO.P,U1,3,+*%
%TO.N,Net-(C1-Pad2)*%
X229880000Y-104135000D03*
%TO.P,U1,4,V+*%
%TO.N,+9V*%
X229880000Y-106675000D03*
%TO.P,U1,5,+*%
%TO.N,Net-(C9-Pad2)*%
X229880000Y-109215000D03*
%TO.P,U1,6,-*%
%TO.N,Net-(C10-Pad1)*%
X229880000Y-111755000D03*
%TO.P,U1,7*%
X229880000Y-114295000D03*
%TO.P,U1,8*%
%TO.N,Net-(C3-Pad2)*%
X237500000Y-114295000D03*
%TO.P,U1,9,-*%
X237500000Y-111755000D03*
%TO.P,U1,10,+*%
%TO.N,Net-(C2-Pad2)*%
X237500000Y-109215000D03*
%TO.P,U1,11,V-*%
%TO.N,-9V*%
X237500000Y-106675000D03*
%TO.P,U1,12,+*%
%TO.N,Net-(C5-Pad2)*%
X237500000Y-104135000D03*
%TO.P,U1,13,-*%
%TO.N,Net-(C7-Pad1)*%
X237500000Y-101595000D03*
%TO.P,U1,14*%
%TO.N,Net-(C7-Pad2)*%
X237500000Y-99055000D03*
%TD*%
D18*
%TO.P,D2,1,K*%
%TO.N,Net-(D1-Pad2)*%
X228600000Y-58420000D03*
D19*
%TO.P,D2,2,A*%
%TO.N,Net-(C3-Pad1)*%
X231140000Y-58420000D03*
%TD*%
D14*
%TO.P,R14,1*%
%TO.N,GND*%
X242880000Y-116000000D03*
D15*
%TO.P,R14,2*%
%TO.N,Net-(J6-Pad1)*%
X250500000Y-116000000D03*
%TD*%
D14*
%TO.P,R11,1*%
%TO.N,Net-(C7-Pad2)*%
X243000000Y-96520000D03*
D15*
%TO.P,R11,2*%
%TO.N,Net-(C8-Pad1)*%
X250620000Y-96520000D03*
%TD*%
D16*
%TO.P,J6,1,Pin_1*%
%TO.N,Net-(J6-Pad1)*%
X231140000Y-137160000D03*
D17*
X231140000Y-137160000D03*
%TD*%
D14*
%TO.P,R3,1*%
%TO.N,Net-(C1-Pad2)*%
X216880000Y-99000000D03*
D15*
%TO.P,R3,2*%
%TO.N,GND*%
X224500000Y-99000000D03*
%TD*%
D14*
%TO.P,R8,1*%
%TO.N,Net-(C5-Pad2)*%
X243000000Y-104500000D03*
D15*
%TO.P,R8,2*%
%TO.N,GND*%
X250620000Y-104500000D03*
%TD*%
D14*
%TO.P,R12,1*%
%TO.N,GND*%
X242880000Y-120000000D03*
D15*
%TO.P,R12,2*%
%TO.N,Net-(C9-Pad2)*%
X250500000Y-120000000D03*
%TD*%
D17*
%TO.P,J5,1,Pin_1*%
%TO.N,GND*%
X254000000Y-137160000D03*
D16*
X254000000Y-137160000D03*
%TD*%
D18*
%TO.P,D1,1,K*%
%TO.N,Net-(C3-Pad1)*%
X236220000Y-58420000D03*
D19*
%TO.P,D1,2,A*%
%TO.N,Net-(D1-Pad2)*%
X238760000Y-58420000D03*
%TD*%
D14*
%TO.P,C9,1*%
%TO.N,Net-(C9-Pad1)*%
X260500000Y-110000000D03*
%TO.P,C9,2*%
%TO.N,Net-(C9-Pad2)*%
X255500000Y-110000000D03*
%TD*%
%TO.P,C5,1*%
%TO.N,GND*%
X260000000Y-91500000D03*
%TO.P,C5,2*%
%TO.N,Net-(C5-Pad2)*%
X255000000Y-91500000D03*
%TD*%
D16*
%TO.P,J2,1,Pin_1*%
%TO.N,Net-(D100-Pad2)*%
X246380000Y-137160000D03*
D17*
X246380000Y-137160000D03*
%TD*%
D21*
%TO.P,C10,1*%
%TO.N,Net-(C10-Pad1)*%
X257000000Y-119500000D03*
D14*
%TO.P,C10,2*%
%TO.N,Net-(C10-Pad2)*%
X259500000Y-119500000D03*
%TD*%
D20*
%TO.P,TONE1,1,1*%
%TO.N,Net-(C5-Pad2)*%
X238760000Y-93980000D03*
%TO.P,TONE1,2,2*%
%TO.N,Net-(C6-Pad2)*%
X233680000Y-93980000D03*
%TO.P,TONE1,3,3*%
%TO.N,Net-(C7-Pad1)*%
X228600000Y-93980000D03*
%TD*%
%TO.P,Gain1,1,1*%
%TO.N,Net-(Gain1-Pad1)*%
X219080000Y-73660000D03*
%TO.P,Gain1,2,2*%
%TO.N,Net-(C3-Pad2)*%
X214000000Y-73660000D03*
%TO.P,Gain1,3,3*%
%TO.N,unconnected-(Gain1-Pad3)*%
X208920000Y-73660000D03*
%TD*%
D24*
%TO.N,Net-(LED1-Pad2)*%
X239246600Y-109824500D03*
%TO.N,Net-(J6-Pad1)*%
X237304900Y-116218700D03*
%TO.N,+9V*%
X244685000Y-80020000D03*
%TO.N,Net-(C6-Pad2)*%
X233680000Y-116999900D03*
%TO.N,GND*%
X251746700Y-86226700D03*
%TO.N,Net-(C3-Pad2)*%
X222097000Y-72495100D03*
%TO.N,Net-(C2-Pad2)*%
X234908800Y-115612400D03*
%TD*%
D25*
%TO.N,Net-(J4-Pad1)*%
X212400000Y-130500000D02*
X212500000Y-130500000D01*
X212500000Y-130500000D02*
X224000000Y-119000000D01*
X205740000Y-137160000D02*
X212400000Y-130500000D01*
X224000000Y-119000000D02*
X224500000Y-119000000D01*
%TO.N,Net-(LED1-Pad2)*%
X248048800Y-109824500D02*
X239246600Y-109824500D01*
X249373300Y-108500000D02*
X248048800Y-109824500D01*
X250500000Y-108500000D02*
X249373300Y-108500000D01*
%TO.N,Net-(J6-Pad1)*%
X238232600Y-117146400D02*
X237304900Y-116218700D01*
X248226900Y-117146400D02*
X238232600Y-117146400D01*
X249373300Y-116000000D02*
X248226900Y-117146400D01*
X250500000Y-116000000D02*
X249373300Y-116000000D01*
%TO.N,Net-(D1-Pad2)*%
X229826700Y-57959900D02*
X229826700Y-58420000D01*
X230593300Y-57193300D02*
X229826700Y-57959900D01*
X237533300Y-57193300D02*
X230593300Y-57193300D01*
X238760000Y-58420000D02*
X237533300Y-57193300D01*
X228600000Y-58420000D02*
X229826700Y-58420000D01*
%TO.N,+9V*%
X238063400Y-80020000D02*
X237500000Y-80020000D01*
X237500000Y-80020000D02*
X229880000Y-80020000D01*
X238063400Y-80020000D02*
X238513400Y-80020000D01*
X238513400Y-80020000D02*
X244685000Y-80020000D01*
X244685000Y-75682500D02*
X244685000Y-80020000D01*
X251787500Y-68580000D02*
X244685000Y-75682500D01*
X254000000Y-68580000D02*
X251787500Y-68580000D01*
%TO.N,Net-(C10-Pad2)*%
X244880000Y-114000000D02*
X242880000Y-112000000D01*
X254000000Y-114000000D02*
X244880000Y-114000000D01*
X259500000Y-119500000D02*
X254000000Y-114000000D01*
%TO.N,Net-(C10-Pad1)*%
X257000000Y-119500000D02*
X255873300Y-119500000D01*
X234619100Y-114295000D02*
X229880000Y-114295000D01*
X235707600Y-115383500D02*
X234619100Y-114295000D01*
X235707600Y-115675000D02*
X235707600Y-115383500D01*
X237954200Y-117921600D02*
X235707600Y-115675000D01*
X254294900Y-117921600D02*
X237954200Y-117921600D01*
X255873300Y-119500000D02*
X254294900Y-117921600D01*
%TO.N,Net-(C9-Pad2)*%
X229880000Y-109215000D02*
X231006700Y-109215000D01*
X254908800Y-110591200D02*
X255500000Y-110000000D01*
X232382900Y-110591200D02*
X254908800Y-110591200D01*
X231006700Y-109215000D02*
X232382900Y-110591200D01*
%TO.N,Net-(C8-Pad1)*%
X254020000Y-96520000D02*
X255000000Y-97500000D01*
X250620000Y-96520000D02*
X254020000Y-96520000D01*
%TO.N,Net-(C7-Pad2)*%
X237500000Y-99055000D02*
X238626700Y-99055000D01*
X243000000Y-96520000D02*
X245795600Y-99315600D01*
X246980000Y-100500000D02*
X250620000Y-100500000D01*
X245795600Y-99315600D02*
X246980000Y-100500000D01*
X257500000Y-100500000D02*
X260500000Y-103500000D01*
X250620000Y-100500000D02*
X257500000Y-100500000D01*
X241228800Y-101657100D02*
X238626700Y-99055000D01*
X243454100Y-101657100D02*
X241228800Y-101657100D01*
X245795600Y-99315600D02*
X243454100Y-101657100D01*
%TO.N,Net-(C7-Pad1)*%
X228600000Y-93980000D02*
X228600000Y-95144900D01*
X240409900Y-97909900D02*
X243000000Y-100500000D01*
X236337000Y-97909900D02*
X240409900Y-97909900D01*
X236337000Y-99587000D02*
X236337000Y-97909900D01*
X237218300Y-100468300D02*
X236337000Y-99587000D01*
X237500000Y-100468300D02*
X237218300Y-100468300D01*
X233572000Y-95144900D02*
X228600000Y-95144900D01*
X236337000Y-97909900D02*
X233572000Y-95144900D01*
X237500000Y-101031600D02*
X237500000Y-100468300D01*
X237500000Y-101031600D02*
X237500000Y-101595000D01*
X254165400Y-102165400D02*
X255500000Y-103500000D01*
X239197100Y-102165400D02*
X254165400Y-102165400D01*
X238626700Y-101595000D02*
X239197100Y-102165400D01*
X237500000Y-101595000D02*
X238626700Y-101595000D01*
%TO.N,Net-(C6-Pad2)*%
X214000100Y-116999900D02*
X233680000Y-116999900D01*
X212500000Y-118500000D02*
X214000100Y-116999900D01*
%TO.N,Net-(C6-Pad1)*%
X207500000Y-115871000D02*
X207500000Y-118500000D01*
X212043900Y-111327100D02*
X207500000Y-115871000D01*
X214045600Y-111327100D02*
X212043900Y-111327100D01*
X214864700Y-112146200D02*
X214045600Y-111327100D01*
X217388000Y-112146200D02*
X214864700Y-112146200D01*
X218011900Y-111522300D02*
X217388000Y-112146200D01*
X218011900Y-109258600D02*
X218011900Y-111522300D01*
X216880000Y-108126700D02*
X218011900Y-109258600D01*
X216880000Y-107000000D02*
X216880000Y-108126700D01*
%TO.N,Net-(C5-Pad2)*%
X238991700Y-104500000D02*
X238626700Y-104135000D01*
X243000000Y-104500000D02*
X238991700Y-104500000D01*
X237500000Y-104135000D02*
X238626700Y-104135000D01*
X216880000Y-91000000D02*
X218006700Y-91000000D01*
X238760000Y-93980000D02*
X240763100Y-93980000D01*
X240763100Y-93980000D02*
X240763100Y-92705900D01*
X253794100Y-92705900D02*
X240763100Y-92705900D01*
X255000000Y-91500000D02*
X253794100Y-92705900D01*
X219712600Y-92705900D02*
X218006700Y-91000000D01*
X240763100Y-92705900D02*
X219712600Y-92705900D01*
%TO.N,GND*%
X250620000Y-104500000D02*
X249493300Y-104500000D01*
X224500000Y-115000000D02*
X225626700Y-115000000D01*
X247993300Y-103000000D02*
X249493300Y-104500000D01*
X224500000Y-103000000D02*
X247993300Y-103000000D01*
X216880000Y-119000000D02*
X218006700Y-119000000D01*
X233968600Y-117782000D02*
X234760000Y-116990600D01*
X220584000Y-117782000D02*
X233968600Y-117782000D01*
X220491200Y-117874800D02*
X220584000Y-117782000D01*
X218005200Y-117874800D02*
X220491200Y-117874800D01*
X217728400Y-118151600D02*
X218005200Y-117874800D01*
X217728400Y-118255000D02*
X217728400Y-118151600D01*
X218006700Y-118533300D02*
X217728400Y-118255000D01*
X218006700Y-119000000D02*
X218006700Y-118533300D01*
X235047900Y-117278600D02*
X234760000Y-116990600D01*
X236054600Y-117278600D02*
X235047900Y-117278600D01*
X238776000Y-120000000D02*
X236054600Y-117278600D01*
X242880000Y-120000000D02*
X238776000Y-120000000D01*
X229880000Y-85100000D02*
X231006700Y-85100000D01*
X255373300Y-67453300D02*
X256500000Y-68580000D01*
X248633400Y-67453300D02*
X255373300Y-67453300D01*
X247506700Y-68580000D02*
X248633400Y-67453300D01*
X246380000Y-68580000D02*
X247506700Y-68580000D01*
X232133400Y-86226700D02*
X251746700Y-86226700D01*
X231006700Y-85100000D02*
X232133400Y-86226700D01*
X254726700Y-86226700D02*
X260000000Y-91500000D01*
X251746700Y-86226700D02*
X254726700Y-86226700D01*
X226399400Y-140039400D02*
X223520000Y-137160000D01*
X251120600Y-140039400D02*
X226399400Y-140039400D01*
X254000000Y-137160000D02*
X251120600Y-140039400D01*
X223520000Y-137160000D02*
X213360000Y-137160000D01*
X233896000Y-116126700D02*
X234760000Y-116990600D01*
X226753400Y-116126700D02*
X233896000Y-116126700D01*
X225626700Y-115000000D02*
X226753400Y-116126700D01*
%TO.N,Net-(C3-Pad2)*%
X214000000Y-73660000D02*
X214000000Y-72495100D01*
X231140000Y-68580000D02*
X229913300Y-68580000D01*
X238380000Y-50800000D02*
X233680000Y-50800000D01*
X225998200Y-72495100D02*
X222097000Y-72495100D01*
X229913300Y-68580000D02*
X225998200Y-72495100D01*
X222097000Y-72495100D02*
X214000000Y-72495100D01*
X212882800Y-112882800D02*
X212500000Y-112500000D01*
X235245500Y-112882800D02*
X212882800Y-112882800D01*
X236373300Y-111755000D02*
X235245500Y-112882800D01*
X237500000Y-111755000D02*
X236373300Y-111755000D01*
%TO.N,Net-(C3-Pad1)*%
X236220000Y-58420000D02*
X231140000Y-58420000D01*
X208686100Y-95186100D02*
X207500000Y-94000000D01*
X216693900Y-95186100D02*
X208686100Y-95186100D01*
X216880000Y-95000000D02*
X216693900Y-95186100D01*
X227840000Y-73660000D02*
X231140000Y-73660000D01*
X207500000Y-94000000D02*
X227840000Y-73660000D01*
%TO.N,Net-(C2-Pad2)*%
X218033700Y-113846300D02*
X216880000Y-115000000D01*
X226897900Y-113846300D02*
X218033700Y-113846300D01*
X228664000Y-115612400D02*
X226897900Y-113846300D01*
X234908800Y-115612400D02*
X228664000Y-115612400D01*
%TO.N,Net-(C2-Pad1)*%
X208654100Y-101654100D02*
X207500000Y-100500000D01*
X228694200Y-101654100D02*
X208654100Y-101654100D01*
X228753300Y-101595000D02*
X228694200Y-101654100D01*
X229880000Y-101595000D02*
X228753300Y-101595000D01*
%TO.N,Net-(C1-Pad2)*%
X214865000Y-104135000D02*
X212500000Y-106500000D01*
X229880000Y-104135000D02*
X214865000Y-104135000D01*
%TO.N,Net-(C1-Pad1)*%
X210082200Y-106500000D02*
X207500000Y-106500000D01*
X214582200Y-111000000D02*
X210082200Y-106500000D01*
X216880000Y-111000000D02*
X214582200Y-111000000D01*
%TD*%
M02*
